%TF.GenerationSoftware,KiCad,Pcbnew,(6.0.4-0)*%
%TF.CreationDate,2023-02-13T16:26:13-08:00*%
%TF.ProjectId,v2a-power-board-4,7632612d-706f-4776-9572-2d626f617264,rev?*%
%TF.SameCoordinates,Original*%
%TF.FileFunction,Copper,L1,Top*%
%TF.FilePolarity,Positive*%
%FSLAX46Y46*%
G04 Gerber Fmt 4.6, Leading zero omitted, Abs format (unit mm)*
G04 Created by KiCad (PCBNEW (6.0.4-0)) date 2023-02-13 16:26:13*
%MOMM*%
%LPD*%
G01*
G04 APERTURE LIST*
G04 Aperture macros list*
%AMRoundRect*
0 Rectangle with rounded corners*
0 $1 Rounding radius*
0 $2 $3 $4 $5 $6 $7 $8 $9 X,Y pos of 4 corners*
0 Add a 4 corners polygon primitive as box body*
4,1,4,$2,$3,$4,$5,$6,$7,$8,$9,$2,$3,0*
0 Add four circle primitives for the rounded corners*
1,1,$1+$1,$2,$3*
1,1,$1+$1,$4,$5*
1,1,$1+$1,$6,$7*
1,1,$1+$1,$8,$9*
0 Add four rect primitives between the rounded corners*
20,1,$1+$1,$2,$3,$4,$5,0*
20,1,$1+$1,$4,$5,$6,$7,0*
20,1,$1+$1,$6,$7,$8,$9,0*
20,1,$1+$1,$8,$9,$2,$3,0*%
G04 Aperture macros list end*
%TA.AperFunction,EtchedComponent*%
%ADD10C,0.010000*%
%TD*%
%TA.AperFunction,ComponentPad*%
%ADD11RoundRect,0.250000X-0.350000X-0.625000X0.350000X-0.625000X0.350000X0.625000X-0.350000X0.625000X0*%
%TD*%
%TA.AperFunction,ComponentPad*%
%ADD12O,1.200000X1.750000*%
%TD*%
%TA.AperFunction,SMDPad,CuDef*%
%ADD13R,0.600000X1.100000*%
%TD*%
%TA.AperFunction,SMDPad,CuDef*%
%ADD14R,0.300000X1.100000*%
%TD*%
%TA.AperFunction,ComponentPad*%
%ADD15O,1.000000X2.000000*%
%TD*%
%TA.AperFunction,ComponentPad*%
%ADD16O,0.900000X1.800000*%
%TD*%
%TA.AperFunction,ComponentPad*%
%ADD17R,1.700000X1.700000*%
%TD*%
%TA.AperFunction,ComponentPad*%
%ADD18O,1.700000X1.700000*%
%TD*%
%TA.AperFunction,ComponentPad*%
%ADD19R,1.600000X1.600000*%
%TD*%
%TA.AperFunction,ComponentPad*%
%ADD20O,1.600000X1.600000*%
%TD*%
%TA.AperFunction,ComponentPad*%
%ADD21C,2.900000*%
%TD*%
%TA.AperFunction,ComponentPad*%
%ADD22C,1.860000*%
%TD*%
%TA.AperFunction,ComponentPad*%
%ADD23C,3.048000*%
%TD*%
%TA.AperFunction,ComponentPad*%
%ADD24RoundRect,0.250000X0.625000X-0.350000X0.625000X0.350000X-0.625000X0.350000X-0.625000X-0.350000X0*%
%TD*%
%TA.AperFunction,ComponentPad*%
%ADD25O,1.750000X1.200000*%
%TD*%
%TA.AperFunction,ComponentPad*%
%ADD26C,9.000000*%
%TD*%
%TA.AperFunction,ComponentPad*%
%ADD27C,1.600000*%
%TD*%
%TA.AperFunction,ViaPad*%
%ADD28C,0.800000*%
%TD*%
%TA.AperFunction,ViaPad*%
%ADD29C,0.400000*%
%TD*%
%TA.AperFunction,Conductor*%
%ADD30C,0.500000*%
%TD*%
%TA.AperFunction,Conductor*%
%ADD31C,0.250000*%
%TD*%
%TA.AperFunction,Conductor*%
%ADD32C,0.150000*%
%TD*%
%TA.AperFunction,Conductor*%
%ADD33C,0.200000*%
%TD*%
G04 APERTURE END LIST*
%TO.C,J1*%
G36*
X88397000Y-127695500D02*
G01*
X88449000Y-127703500D01*
X88500000Y-127716500D01*
X88548000Y-127735500D01*
X88595000Y-127759500D01*
X88639000Y-127787500D01*
X88680000Y-127820500D01*
X88717000Y-127857500D01*
X88750000Y-127898500D01*
X88778000Y-127942500D01*
X88802000Y-127989500D01*
X88821000Y-128037500D01*
X88834000Y-128088500D01*
X88842000Y-128140500D01*
X88845000Y-128192500D01*
X88845000Y-129392500D01*
X88842000Y-129444500D01*
X88834000Y-129496500D01*
X88821000Y-129547500D01*
X88802000Y-129595500D01*
X88778000Y-129642500D01*
X88750000Y-129686500D01*
X88717000Y-129727500D01*
X88680000Y-129764500D01*
X88639000Y-129797500D01*
X88595000Y-129825500D01*
X88548000Y-129849500D01*
X88500000Y-129868500D01*
X88449000Y-129881500D01*
X88397000Y-129889500D01*
X88345000Y-129892500D01*
X88293000Y-129889500D01*
X88241000Y-129881500D01*
X88190000Y-129868500D01*
X88142000Y-129849500D01*
X88095000Y-129825500D01*
X88051000Y-129797500D01*
X88010000Y-129764500D01*
X87973000Y-129727500D01*
X87940000Y-129686500D01*
X87912000Y-129642500D01*
X87888000Y-129595500D01*
X87869000Y-129547500D01*
X87856000Y-129496500D01*
X87848000Y-129444500D01*
X87845000Y-129392500D01*
X87845000Y-128192500D01*
X87848000Y-128140500D01*
X87856000Y-128088500D01*
X87869000Y-128037500D01*
X87888000Y-127989500D01*
X87912000Y-127942500D01*
X87940000Y-127898500D01*
X87973000Y-127857500D01*
X88010000Y-127820500D01*
X88051000Y-127787500D01*
X88095000Y-127759500D01*
X88142000Y-127735500D01*
X88190000Y-127716500D01*
X88241000Y-127703500D01*
X88293000Y-127695500D01*
X88345000Y-127692500D01*
X88397000Y-127695500D01*
G37*
D10*
X88397000Y-127695500D02*
X88449000Y-127703500D01*
X88500000Y-127716500D01*
X88548000Y-127735500D01*
X88595000Y-127759500D01*
X88639000Y-127787500D01*
X88680000Y-127820500D01*
X88717000Y-127857500D01*
X88750000Y-127898500D01*
X88778000Y-127942500D01*
X88802000Y-127989500D01*
X88821000Y-128037500D01*
X88834000Y-128088500D01*
X88842000Y-128140500D01*
X88845000Y-128192500D01*
X88845000Y-129392500D01*
X88842000Y-129444500D01*
X88834000Y-129496500D01*
X88821000Y-129547500D01*
X88802000Y-129595500D01*
X88778000Y-129642500D01*
X88750000Y-129686500D01*
X88717000Y-129727500D01*
X88680000Y-129764500D01*
X88639000Y-129797500D01*
X88595000Y-129825500D01*
X88548000Y-129849500D01*
X88500000Y-129868500D01*
X88449000Y-129881500D01*
X88397000Y-129889500D01*
X88345000Y-129892500D01*
X88293000Y-129889500D01*
X88241000Y-129881500D01*
X88190000Y-129868500D01*
X88142000Y-129849500D01*
X88095000Y-129825500D01*
X88051000Y-129797500D01*
X88010000Y-129764500D01*
X87973000Y-129727500D01*
X87940000Y-129686500D01*
X87912000Y-129642500D01*
X87888000Y-129595500D01*
X87869000Y-129547500D01*
X87856000Y-129496500D01*
X87848000Y-129444500D01*
X87845000Y-129392500D01*
X87845000Y-128192500D01*
X87848000Y-128140500D01*
X87856000Y-128088500D01*
X87869000Y-128037500D01*
X87888000Y-127989500D01*
X87912000Y-127942500D01*
X87940000Y-127898500D01*
X87973000Y-127857500D01*
X88010000Y-127820500D01*
X88051000Y-127787500D01*
X88095000Y-127759500D01*
X88142000Y-127735500D01*
X88190000Y-127716500D01*
X88241000Y-127703500D01*
X88293000Y-127695500D01*
X88345000Y-127692500D01*
X88397000Y-127695500D01*
G36*
X77157000Y-123895500D02*
G01*
X77209000Y-123903500D01*
X77260000Y-123916500D01*
X77308000Y-123935500D01*
X77355000Y-123959500D01*
X77399000Y-123987500D01*
X77440000Y-124020500D01*
X77477000Y-124057500D01*
X77510000Y-124098500D01*
X77538000Y-124142500D01*
X77562000Y-124189500D01*
X77581000Y-124237500D01*
X77594000Y-124288500D01*
X77602000Y-124340500D01*
X77605000Y-124392500D01*
X77605000Y-125192500D01*
X77602000Y-125244500D01*
X77594000Y-125296500D01*
X77581000Y-125347500D01*
X77562000Y-125395500D01*
X77538000Y-125442500D01*
X77510000Y-125486500D01*
X77477000Y-125527500D01*
X77440000Y-125564500D01*
X77399000Y-125597500D01*
X77355000Y-125625500D01*
X77308000Y-125649500D01*
X77260000Y-125668500D01*
X77209000Y-125681500D01*
X77157000Y-125689500D01*
X77105000Y-125692500D01*
X77053000Y-125689500D01*
X77001000Y-125681500D01*
X76950000Y-125668500D01*
X76902000Y-125649500D01*
X76855000Y-125625500D01*
X76811000Y-125597500D01*
X76770000Y-125564500D01*
X76733000Y-125527500D01*
X76700000Y-125486500D01*
X76672000Y-125442500D01*
X76648000Y-125395500D01*
X76629000Y-125347500D01*
X76616000Y-125296500D01*
X76608000Y-125244500D01*
X76605000Y-125192500D01*
X76605000Y-124392500D01*
X76608000Y-124340500D01*
X76616000Y-124288500D01*
X76629000Y-124237500D01*
X76648000Y-124189500D01*
X76672000Y-124142500D01*
X76700000Y-124098500D01*
X76733000Y-124057500D01*
X76770000Y-124020500D01*
X76811000Y-123987500D01*
X76855000Y-123959500D01*
X76902000Y-123935500D01*
X76950000Y-123916500D01*
X77001000Y-123903500D01*
X77053000Y-123895500D01*
X77105000Y-123892500D01*
X77157000Y-123895500D01*
G37*
X77157000Y-123895500D02*
X77209000Y-123903500D01*
X77260000Y-123916500D01*
X77308000Y-123935500D01*
X77355000Y-123959500D01*
X77399000Y-123987500D01*
X77440000Y-124020500D01*
X77477000Y-124057500D01*
X77510000Y-124098500D01*
X77538000Y-124142500D01*
X77562000Y-124189500D01*
X77581000Y-124237500D01*
X77594000Y-124288500D01*
X77602000Y-124340500D01*
X77605000Y-124392500D01*
X77605000Y-125192500D01*
X77602000Y-125244500D01*
X77594000Y-125296500D01*
X77581000Y-125347500D01*
X77562000Y-125395500D01*
X77538000Y-125442500D01*
X77510000Y-125486500D01*
X77477000Y-125527500D01*
X77440000Y-125564500D01*
X77399000Y-125597500D01*
X77355000Y-125625500D01*
X77308000Y-125649500D01*
X77260000Y-125668500D01*
X77209000Y-125681500D01*
X77157000Y-125689500D01*
X77105000Y-125692500D01*
X77053000Y-125689500D01*
X77001000Y-125681500D01*
X76950000Y-125668500D01*
X76902000Y-125649500D01*
X76855000Y-125625500D01*
X76811000Y-125597500D01*
X76770000Y-125564500D01*
X76733000Y-125527500D01*
X76700000Y-125486500D01*
X76672000Y-125442500D01*
X76648000Y-125395500D01*
X76629000Y-125347500D01*
X76616000Y-125296500D01*
X76608000Y-125244500D01*
X76605000Y-125192500D01*
X76605000Y-124392500D01*
X76608000Y-124340500D01*
X76616000Y-124288500D01*
X76629000Y-124237500D01*
X76648000Y-124189500D01*
X76672000Y-124142500D01*
X76700000Y-124098500D01*
X76733000Y-124057500D01*
X76770000Y-124020500D01*
X76811000Y-123987500D01*
X76855000Y-123959500D01*
X76902000Y-123935500D01*
X76950000Y-123916500D01*
X77001000Y-123903500D01*
X77053000Y-123895500D01*
X77105000Y-123892500D01*
X77157000Y-123895500D01*
G36*
X77157000Y-127695500D02*
G01*
X77209000Y-127703500D01*
X77260000Y-127716500D01*
X77308000Y-127735500D01*
X77355000Y-127759500D01*
X77399000Y-127787500D01*
X77440000Y-127820500D01*
X77477000Y-127857500D01*
X77510000Y-127898500D01*
X77538000Y-127942500D01*
X77562000Y-127989500D01*
X77581000Y-128037500D01*
X77594000Y-128088500D01*
X77602000Y-128140500D01*
X77605000Y-128192500D01*
X77605000Y-129392500D01*
X77602000Y-129444500D01*
X77594000Y-129496500D01*
X77581000Y-129547500D01*
X77562000Y-129595500D01*
X77538000Y-129642500D01*
X77510000Y-129686500D01*
X77477000Y-129727500D01*
X77440000Y-129764500D01*
X77399000Y-129797500D01*
X77355000Y-129825500D01*
X77308000Y-129849500D01*
X77260000Y-129868500D01*
X77209000Y-129881500D01*
X77157000Y-129889500D01*
X77105000Y-129892500D01*
X77053000Y-129889500D01*
X77001000Y-129881500D01*
X76950000Y-129868500D01*
X76902000Y-129849500D01*
X76855000Y-129825500D01*
X76811000Y-129797500D01*
X76770000Y-129764500D01*
X76733000Y-129727500D01*
X76700000Y-129686500D01*
X76672000Y-129642500D01*
X76648000Y-129595500D01*
X76629000Y-129547500D01*
X76616000Y-129496500D01*
X76608000Y-129444500D01*
X76605000Y-129392500D01*
X76605000Y-128192500D01*
X76608000Y-128140500D01*
X76616000Y-128088500D01*
X76629000Y-128037500D01*
X76648000Y-127989500D01*
X76672000Y-127942500D01*
X76700000Y-127898500D01*
X76733000Y-127857500D01*
X76770000Y-127820500D01*
X76811000Y-127787500D01*
X76855000Y-127759500D01*
X76902000Y-127735500D01*
X76950000Y-127716500D01*
X77001000Y-127703500D01*
X77053000Y-127695500D01*
X77105000Y-127692500D01*
X77157000Y-127695500D01*
G37*
X77157000Y-127695500D02*
X77209000Y-127703500D01*
X77260000Y-127716500D01*
X77308000Y-127735500D01*
X77355000Y-127759500D01*
X77399000Y-127787500D01*
X77440000Y-127820500D01*
X77477000Y-127857500D01*
X77510000Y-127898500D01*
X77538000Y-127942500D01*
X77562000Y-127989500D01*
X77581000Y-128037500D01*
X77594000Y-128088500D01*
X77602000Y-128140500D01*
X77605000Y-128192500D01*
X77605000Y-129392500D01*
X77602000Y-129444500D01*
X77594000Y-129496500D01*
X77581000Y-129547500D01*
X77562000Y-129595500D01*
X77538000Y-129642500D01*
X77510000Y-129686500D01*
X77477000Y-129727500D01*
X77440000Y-129764500D01*
X77399000Y-129797500D01*
X77355000Y-129825500D01*
X77308000Y-129849500D01*
X77260000Y-129868500D01*
X77209000Y-129881500D01*
X77157000Y-129889500D01*
X77105000Y-129892500D01*
X77053000Y-129889500D01*
X77001000Y-129881500D01*
X76950000Y-129868500D01*
X76902000Y-129849500D01*
X76855000Y-129825500D01*
X76811000Y-129797500D01*
X76770000Y-129764500D01*
X76733000Y-129727500D01*
X76700000Y-129686500D01*
X76672000Y-129642500D01*
X76648000Y-129595500D01*
X76629000Y-129547500D01*
X76616000Y-129496500D01*
X76608000Y-129444500D01*
X76605000Y-129392500D01*
X76605000Y-128192500D01*
X76608000Y-128140500D01*
X76616000Y-128088500D01*
X76629000Y-128037500D01*
X76648000Y-127989500D01*
X76672000Y-127942500D01*
X76700000Y-127898500D01*
X76733000Y-127857500D01*
X76770000Y-127820500D01*
X76811000Y-127787500D01*
X76855000Y-127759500D01*
X76902000Y-127735500D01*
X76950000Y-127716500D01*
X77001000Y-127703500D01*
X77053000Y-127695500D01*
X77105000Y-127692500D01*
X77157000Y-127695500D01*
G36*
X88397000Y-123895500D02*
G01*
X88449000Y-123903500D01*
X88500000Y-123916500D01*
X88548000Y-123935500D01*
X88595000Y-123959500D01*
X88639000Y-123987500D01*
X88680000Y-124020500D01*
X88717000Y-124057500D01*
X88750000Y-124098500D01*
X88778000Y-124142500D01*
X88802000Y-124189500D01*
X88821000Y-124237500D01*
X88834000Y-124288500D01*
X88842000Y-124340500D01*
X88845000Y-124392500D01*
X88845000Y-125192500D01*
X88842000Y-125244500D01*
X88834000Y-125296500D01*
X88821000Y-125347500D01*
X88802000Y-125395500D01*
X88778000Y-125442500D01*
X88750000Y-125486500D01*
X88717000Y-125527500D01*
X88680000Y-125564500D01*
X88639000Y-125597500D01*
X88595000Y-125625500D01*
X88548000Y-125649500D01*
X88500000Y-125668500D01*
X88449000Y-125681500D01*
X88397000Y-125689500D01*
X88345000Y-125692500D01*
X88293000Y-125689500D01*
X88241000Y-125681500D01*
X88190000Y-125668500D01*
X88142000Y-125649500D01*
X88095000Y-125625500D01*
X88051000Y-125597500D01*
X88010000Y-125564500D01*
X87973000Y-125527500D01*
X87940000Y-125486500D01*
X87912000Y-125442500D01*
X87888000Y-125395500D01*
X87869000Y-125347500D01*
X87856000Y-125296500D01*
X87848000Y-125244500D01*
X87845000Y-125192500D01*
X87845000Y-124392500D01*
X87848000Y-124340500D01*
X87856000Y-124288500D01*
X87869000Y-124237500D01*
X87888000Y-124189500D01*
X87912000Y-124142500D01*
X87940000Y-124098500D01*
X87973000Y-124057500D01*
X88010000Y-124020500D01*
X88051000Y-123987500D01*
X88095000Y-123959500D01*
X88142000Y-123935500D01*
X88190000Y-123916500D01*
X88241000Y-123903500D01*
X88293000Y-123895500D01*
X88345000Y-123892500D01*
X88397000Y-123895500D01*
G37*
X88397000Y-123895500D02*
X88449000Y-123903500D01*
X88500000Y-123916500D01*
X88548000Y-123935500D01*
X88595000Y-123959500D01*
X88639000Y-123987500D01*
X88680000Y-124020500D01*
X88717000Y-124057500D01*
X88750000Y-124098500D01*
X88778000Y-124142500D01*
X88802000Y-124189500D01*
X88821000Y-124237500D01*
X88834000Y-124288500D01*
X88842000Y-124340500D01*
X88845000Y-124392500D01*
X88845000Y-125192500D01*
X88842000Y-125244500D01*
X88834000Y-125296500D01*
X88821000Y-125347500D01*
X88802000Y-125395500D01*
X88778000Y-125442500D01*
X88750000Y-125486500D01*
X88717000Y-125527500D01*
X88680000Y-125564500D01*
X88639000Y-125597500D01*
X88595000Y-125625500D01*
X88548000Y-125649500D01*
X88500000Y-125668500D01*
X88449000Y-125681500D01*
X88397000Y-125689500D01*
X88345000Y-125692500D01*
X88293000Y-125689500D01*
X88241000Y-125681500D01*
X88190000Y-125668500D01*
X88142000Y-125649500D01*
X88095000Y-125625500D01*
X88051000Y-125597500D01*
X88010000Y-125564500D01*
X87973000Y-125527500D01*
X87940000Y-125486500D01*
X87912000Y-125442500D01*
X87888000Y-125395500D01*
X87869000Y-125347500D01*
X87856000Y-125296500D01*
X87848000Y-125244500D01*
X87845000Y-125192500D01*
X87845000Y-124392500D01*
X87848000Y-124340500D01*
X87856000Y-124288500D01*
X87869000Y-124237500D01*
X87888000Y-124189500D01*
X87912000Y-124142500D01*
X87940000Y-124098500D01*
X87973000Y-124057500D01*
X88010000Y-124020500D01*
X88051000Y-123987500D01*
X88095000Y-123959500D01*
X88142000Y-123935500D01*
X88190000Y-123916500D01*
X88241000Y-123903500D01*
X88293000Y-123895500D01*
X88345000Y-123892500D01*
X88397000Y-123895500D01*
%TO.C,J2*%
G36*
X105697000Y-123895500D02*
G01*
X105749000Y-123903500D01*
X105800000Y-123916500D01*
X105848000Y-123935500D01*
X105895000Y-123959500D01*
X105939000Y-123987500D01*
X105980000Y-124020500D01*
X106017000Y-124057500D01*
X106050000Y-124098500D01*
X106078000Y-124142500D01*
X106102000Y-124189500D01*
X106121000Y-124237500D01*
X106134000Y-124288500D01*
X106142000Y-124340500D01*
X106145000Y-124392500D01*
X106145000Y-125192500D01*
X106142000Y-125244500D01*
X106134000Y-125296500D01*
X106121000Y-125347500D01*
X106102000Y-125395500D01*
X106078000Y-125442500D01*
X106050000Y-125486500D01*
X106017000Y-125527500D01*
X105980000Y-125564500D01*
X105939000Y-125597500D01*
X105895000Y-125625500D01*
X105848000Y-125649500D01*
X105800000Y-125668500D01*
X105749000Y-125681500D01*
X105697000Y-125689500D01*
X105645000Y-125692500D01*
X105593000Y-125689500D01*
X105541000Y-125681500D01*
X105490000Y-125668500D01*
X105442000Y-125649500D01*
X105395000Y-125625500D01*
X105351000Y-125597500D01*
X105310000Y-125564500D01*
X105273000Y-125527500D01*
X105240000Y-125486500D01*
X105212000Y-125442500D01*
X105188000Y-125395500D01*
X105169000Y-125347500D01*
X105156000Y-125296500D01*
X105148000Y-125244500D01*
X105145000Y-125192500D01*
X105145000Y-124392500D01*
X105148000Y-124340500D01*
X105156000Y-124288500D01*
X105169000Y-124237500D01*
X105188000Y-124189500D01*
X105212000Y-124142500D01*
X105240000Y-124098500D01*
X105273000Y-124057500D01*
X105310000Y-124020500D01*
X105351000Y-123987500D01*
X105395000Y-123959500D01*
X105442000Y-123935500D01*
X105490000Y-123916500D01*
X105541000Y-123903500D01*
X105593000Y-123895500D01*
X105645000Y-123892500D01*
X105697000Y-123895500D01*
G37*
X105697000Y-123895500D02*
X105749000Y-123903500D01*
X105800000Y-123916500D01*
X105848000Y-123935500D01*
X105895000Y-123959500D01*
X105939000Y-123987500D01*
X105980000Y-124020500D01*
X106017000Y-124057500D01*
X106050000Y-124098500D01*
X106078000Y-124142500D01*
X106102000Y-124189500D01*
X106121000Y-124237500D01*
X106134000Y-124288500D01*
X106142000Y-124340500D01*
X106145000Y-124392500D01*
X106145000Y-125192500D01*
X106142000Y-125244500D01*
X106134000Y-125296500D01*
X106121000Y-125347500D01*
X106102000Y-125395500D01*
X106078000Y-125442500D01*
X106050000Y-125486500D01*
X106017000Y-125527500D01*
X105980000Y-125564500D01*
X105939000Y-125597500D01*
X105895000Y-125625500D01*
X105848000Y-125649500D01*
X105800000Y-125668500D01*
X105749000Y-125681500D01*
X105697000Y-125689500D01*
X105645000Y-125692500D01*
X105593000Y-125689500D01*
X105541000Y-125681500D01*
X105490000Y-125668500D01*
X105442000Y-125649500D01*
X105395000Y-125625500D01*
X105351000Y-125597500D01*
X105310000Y-125564500D01*
X105273000Y-125527500D01*
X105240000Y-125486500D01*
X105212000Y-125442500D01*
X105188000Y-125395500D01*
X105169000Y-125347500D01*
X105156000Y-125296500D01*
X105148000Y-125244500D01*
X105145000Y-125192500D01*
X105145000Y-124392500D01*
X105148000Y-124340500D01*
X105156000Y-124288500D01*
X105169000Y-124237500D01*
X105188000Y-124189500D01*
X105212000Y-124142500D01*
X105240000Y-124098500D01*
X105273000Y-124057500D01*
X105310000Y-124020500D01*
X105351000Y-123987500D01*
X105395000Y-123959500D01*
X105442000Y-123935500D01*
X105490000Y-123916500D01*
X105541000Y-123903500D01*
X105593000Y-123895500D01*
X105645000Y-123892500D01*
X105697000Y-123895500D01*
G36*
X94457000Y-123895500D02*
G01*
X94509000Y-123903500D01*
X94560000Y-123916500D01*
X94608000Y-123935500D01*
X94655000Y-123959500D01*
X94699000Y-123987500D01*
X94740000Y-124020500D01*
X94777000Y-124057500D01*
X94810000Y-124098500D01*
X94838000Y-124142500D01*
X94862000Y-124189500D01*
X94881000Y-124237500D01*
X94894000Y-124288500D01*
X94902000Y-124340500D01*
X94905000Y-124392500D01*
X94905000Y-125192500D01*
X94902000Y-125244500D01*
X94894000Y-125296500D01*
X94881000Y-125347500D01*
X94862000Y-125395500D01*
X94838000Y-125442500D01*
X94810000Y-125486500D01*
X94777000Y-125527500D01*
X94740000Y-125564500D01*
X94699000Y-125597500D01*
X94655000Y-125625500D01*
X94608000Y-125649500D01*
X94560000Y-125668500D01*
X94509000Y-125681500D01*
X94457000Y-125689500D01*
X94405000Y-125692500D01*
X94353000Y-125689500D01*
X94301000Y-125681500D01*
X94250000Y-125668500D01*
X94202000Y-125649500D01*
X94155000Y-125625500D01*
X94111000Y-125597500D01*
X94070000Y-125564500D01*
X94033000Y-125527500D01*
X94000000Y-125486500D01*
X93972000Y-125442500D01*
X93948000Y-125395500D01*
X93929000Y-125347500D01*
X93916000Y-125296500D01*
X93908000Y-125244500D01*
X93905000Y-125192500D01*
X93905000Y-124392500D01*
X93908000Y-124340500D01*
X93916000Y-124288500D01*
X93929000Y-124237500D01*
X93948000Y-124189500D01*
X93972000Y-124142500D01*
X94000000Y-124098500D01*
X94033000Y-124057500D01*
X94070000Y-124020500D01*
X94111000Y-123987500D01*
X94155000Y-123959500D01*
X94202000Y-123935500D01*
X94250000Y-123916500D01*
X94301000Y-123903500D01*
X94353000Y-123895500D01*
X94405000Y-123892500D01*
X94457000Y-123895500D01*
G37*
X94457000Y-123895500D02*
X94509000Y-123903500D01*
X94560000Y-123916500D01*
X94608000Y-123935500D01*
X94655000Y-123959500D01*
X94699000Y-123987500D01*
X94740000Y-124020500D01*
X94777000Y-124057500D01*
X94810000Y-124098500D01*
X94838000Y-124142500D01*
X94862000Y-124189500D01*
X94881000Y-124237500D01*
X94894000Y-124288500D01*
X94902000Y-124340500D01*
X94905000Y-124392500D01*
X94905000Y-125192500D01*
X94902000Y-125244500D01*
X94894000Y-125296500D01*
X94881000Y-125347500D01*
X94862000Y-125395500D01*
X94838000Y-125442500D01*
X94810000Y-125486500D01*
X94777000Y-125527500D01*
X94740000Y-125564500D01*
X94699000Y-125597500D01*
X94655000Y-125625500D01*
X94608000Y-125649500D01*
X94560000Y-125668500D01*
X94509000Y-125681500D01*
X94457000Y-125689500D01*
X94405000Y-125692500D01*
X94353000Y-125689500D01*
X94301000Y-125681500D01*
X94250000Y-125668500D01*
X94202000Y-125649500D01*
X94155000Y-125625500D01*
X94111000Y-125597500D01*
X94070000Y-125564500D01*
X94033000Y-125527500D01*
X94000000Y-125486500D01*
X93972000Y-125442500D01*
X93948000Y-125395500D01*
X93929000Y-125347500D01*
X93916000Y-125296500D01*
X93908000Y-125244500D01*
X93905000Y-125192500D01*
X93905000Y-124392500D01*
X93908000Y-124340500D01*
X93916000Y-124288500D01*
X93929000Y-124237500D01*
X93948000Y-124189500D01*
X93972000Y-124142500D01*
X94000000Y-124098500D01*
X94033000Y-124057500D01*
X94070000Y-124020500D01*
X94111000Y-123987500D01*
X94155000Y-123959500D01*
X94202000Y-123935500D01*
X94250000Y-123916500D01*
X94301000Y-123903500D01*
X94353000Y-123895500D01*
X94405000Y-123892500D01*
X94457000Y-123895500D01*
G36*
X105697000Y-127695500D02*
G01*
X105749000Y-127703500D01*
X105800000Y-127716500D01*
X105848000Y-127735500D01*
X105895000Y-127759500D01*
X105939000Y-127787500D01*
X105980000Y-127820500D01*
X106017000Y-127857500D01*
X106050000Y-127898500D01*
X106078000Y-127942500D01*
X106102000Y-127989500D01*
X106121000Y-128037500D01*
X106134000Y-128088500D01*
X106142000Y-128140500D01*
X106145000Y-128192500D01*
X106145000Y-129392500D01*
X106142000Y-129444500D01*
X106134000Y-129496500D01*
X106121000Y-129547500D01*
X106102000Y-129595500D01*
X106078000Y-129642500D01*
X106050000Y-129686500D01*
X106017000Y-129727500D01*
X105980000Y-129764500D01*
X105939000Y-129797500D01*
X105895000Y-129825500D01*
X105848000Y-129849500D01*
X105800000Y-129868500D01*
X105749000Y-129881500D01*
X105697000Y-129889500D01*
X105645000Y-129892500D01*
X105593000Y-129889500D01*
X105541000Y-129881500D01*
X105490000Y-129868500D01*
X105442000Y-129849500D01*
X105395000Y-129825500D01*
X105351000Y-129797500D01*
X105310000Y-129764500D01*
X105273000Y-129727500D01*
X105240000Y-129686500D01*
X105212000Y-129642500D01*
X105188000Y-129595500D01*
X105169000Y-129547500D01*
X105156000Y-129496500D01*
X105148000Y-129444500D01*
X105145000Y-129392500D01*
X105145000Y-128192500D01*
X105148000Y-128140500D01*
X105156000Y-128088500D01*
X105169000Y-128037500D01*
X105188000Y-127989500D01*
X105212000Y-127942500D01*
X105240000Y-127898500D01*
X105273000Y-127857500D01*
X105310000Y-127820500D01*
X105351000Y-127787500D01*
X105395000Y-127759500D01*
X105442000Y-127735500D01*
X105490000Y-127716500D01*
X105541000Y-127703500D01*
X105593000Y-127695500D01*
X105645000Y-127692500D01*
X105697000Y-127695500D01*
G37*
X105697000Y-127695500D02*
X105749000Y-127703500D01*
X105800000Y-127716500D01*
X105848000Y-127735500D01*
X105895000Y-127759500D01*
X105939000Y-127787500D01*
X105980000Y-127820500D01*
X106017000Y-127857500D01*
X106050000Y-127898500D01*
X106078000Y-127942500D01*
X106102000Y-127989500D01*
X106121000Y-128037500D01*
X106134000Y-128088500D01*
X106142000Y-128140500D01*
X106145000Y-128192500D01*
X106145000Y-129392500D01*
X106142000Y-129444500D01*
X106134000Y-129496500D01*
X106121000Y-129547500D01*
X106102000Y-129595500D01*
X106078000Y-129642500D01*
X106050000Y-129686500D01*
X106017000Y-129727500D01*
X105980000Y-129764500D01*
X105939000Y-129797500D01*
X105895000Y-129825500D01*
X105848000Y-129849500D01*
X105800000Y-129868500D01*
X105749000Y-129881500D01*
X105697000Y-129889500D01*
X105645000Y-129892500D01*
X105593000Y-129889500D01*
X105541000Y-129881500D01*
X105490000Y-129868500D01*
X105442000Y-129849500D01*
X105395000Y-129825500D01*
X105351000Y-129797500D01*
X105310000Y-129764500D01*
X105273000Y-129727500D01*
X105240000Y-129686500D01*
X105212000Y-129642500D01*
X105188000Y-129595500D01*
X105169000Y-129547500D01*
X105156000Y-129496500D01*
X105148000Y-129444500D01*
X105145000Y-129392500D01*
X105145000Y-128192500D01*
X105148000Y-128140500D01*
X105156000Y-128088500D01*
X105169000Y-128037500D01*
X105188000Y-127989500D01*
X105212000Y-127942500D01*
X105240000Y-127898500D01*
X105273000Y-127857500D01*
X105310000Y-127820500D01*
X105351000Y-127787500D01*
X105395000Y-127759500D01*
X105442000Y-127735500D01*
X105490000Y-127716500D01*
X105541000Y-127703500D01*
X105593000Y-127695500D01*
X105645000Y-127692500D01*
X105697000Y-127695500D01*
G36*
X94457000Y-127695500D02*
G01*
X94509000Y-127703500D01*
X94560000Y-127716500D01*
X94608000Y-127735500D01*
X94655000Y-127759500D01*
X94699000Y-127787500D01*
X94740000Y-127820500D01*
X94777000Y-127857500D01*
X94810000Y-127898500D01*
X94838000Y-127942500D01*
X94862000Y-127989500D01*
X94881000Y-128037500D01*
X94894000Y-128088500D01*
X94902000Y-128140500D01*
X94905000Y-128192500D01*
X94905000Y-129392500D01*
X94902000Y-129444500D01*
X94894000Y-129496500D01*
X94881000Y-129547500D01*
X94862000Y-129595500D01*
X94838000Y-129642500D01*
X94810000Y-129686500D01*
X94777000Y-129727500D01*
X94740000Y-129764500D01*
X94699000Y-129797500D01*
X94655000Y-129825500D01*
X94608000Y-129849500D01*
X94560000Y-129868500D01*
X94509000Y-129881500D01*
X94457000Y-129889500D01*
X94405000Y-129892500D01*
X94353000Y-129889500D01*
X94301000Y-129881500D01*
X94250000Y-129868500D01*
X94202000Y-129849500D01*
X94155000Y-129825500D01*
X94111000Y-129797500D01*
X94070000Y-129764500D01*
X94033000Y-129727500D01*
X94000000Y-129686500D01*
X93972000Y-129642500D01*
X93948000Y-129595500D01*
X93929000Y-129547500D01*
X93916000Y-129496500D01*
X93908000Y-129444500D01*
X93905000Y-129392500D01*
X93905000Y-128192500D01*
X93908000Y-128140500D01*
X93916000Y-128088500D01*
X93929000Y-128037500D01*
X93948000Y-127989500D01*
X93972000Y-127942500D01*
X94000000Y-127898500D01*
X94033000Y-127857500D01*
X94070000Y-127820500D01*
X94111000Y-127787500D01*
X94155000Y-127759500D01*
X94202000Y-127735500D01*
X94250000Y-127716500D01*
X94301000Y-127703500D01*
X94353000Y-127695500D01*
X94405000Y-127692500D01*
X94457000Y-127695500D01*
G37*
X94457000Y-127695500D02*
X94509000Y-127703500D01*
X94560000Y-127716500D01*
X94608000Y-127735500D01*
X94655000Y-127759500D01*
X94699000Y-127787500D01*
X94740000Y-127820500D01*
X94777000Y-127857500D01*
X94810000Y-127898500D01*
X94838000Y-127942500D01*
X94862000Y-127989500D01*
X94881000Y-128037500D01*
X94894000Y-128088500D01*
X94902000Y-128140500D01*
X94905000Y-128192500D01*
X94905000Y-129392500D01*
X94902000Y-129444500D01*
X94894000Y-129496500D01*
X94881000Y-129547500D01*
X94862000Y-129595500D01*
X94838000Y-129642500D01*
X94810000Y-129686500D01*
X94777000Y-129727500D01*
X94740000Y-129764500D01*
X94699000Y-129797500D01*
X94655000Y-129825500D01*
X94608000Y-129849500D01*
X94560000Y-129868500D01*
X94509000Y-129881500D01*
X94457000Y-129889500D01*
X94405000Y-129892500D01*
X94353000Y-129889500D01*
X94301000Y-129881500D01*
X94250000Y-129868500D01*
X94202000Y-129849500D01*
X94155000Y-129825500D01*
X94111000Y-129797500D01*
X94070000Y-129764500D01*
X94033000Y-129727500D01*
X94000000Y-129686500D01*
X93972000Y-129642500D01*
X93948000Y-129595500D01*
X93929000Y-129547500D01*
X93916000Y-129496500D01*
X93908000Y-129444500D01*
X93905000Y-129392500D01*
X93905000Y-128192500D01*
X93908000Y-128140500D01*
X93916000Y-128088500D01*
X93929000Y-128037500D01*
X93948000Y-127989500D01*
X93972000Y-127942500D01*
X94000000Y-127898500D01*
X94033000Y-127857500D01*
X94070000Y-127820500D01*
X94111000Y-127787500D01*
X94155000Y-127759500D01*
X94202000Y-127735500D01*
X94250000Y-127716500D01*
X94301000Y-127703500D01*
X94353000Y-127695500D01*
X94405000Y-127692500D01*
X94457000Y-127695500D01*
%TD*%
D11*
%TO.P,D2,1,K*%
%TO.N,Net-(D2-Pad1)*%
X121650000Y-123850000D03*
D12*
%TO.P,D2,2,A*%
%TO.N,Teensy_Power*%
X123650000Y-123850000D03*
%TD*%
D13*
%TO.P,J1,A1_B12,GND*%
%TO.N,RPi_Gnd*%
X79525000Y-123642500D03*
%TO.P,J1,A4_B9,VBUS*%
%TO.N,Teensy_Power*%
X80325000Y-123642500D03*
D14*
%TO.P,J1,A5,CC1*%
%TO.N,RPi_Gnd*%
X81475000Y-123642500D03*
%TO.P,J1,A6,DP1*%
X82475000Y-123642500D03*
%TO.P,J1,A7,DN1*%
%TO.N,/rpi_scl*%
X82975000Y-123642500D03*
%TO.P,J1,A8,SBU1*%
%TO.N,/rpi_sda*%
X83975000Y-123642500D03*
D13*
%TO.P,J1,B1_A12,GND*%
%TO.N,RPi_Gnd*%
X85925000Y-123642500D03*
%TO.P,J1,B4_A9,VBUS*%
%TO.N,Teensy_Power*%
X85125000Y-123642500D03*
D14*
%TO.P,J1,B5,CC2*%
%TO.N,RPi_Gnd*%
X84475000Y-123642500D03*
%TO.P,J1,B6,DP2*%
X83475000Y-123642500D03*
%TO.P,J1,B7,DN2*%
%TO.N,/rpi_scl*%
X81975000Y-123642500D03*
%TO.P,J1,B8,SBU2*%
%TO.N,/rpi_sda*%
X80975000Y-123642500D03*
D15*
%TO.P,J1,S1,SHIELD*%
%TO.N,usb_shield*%
X77105000Y-128792500D03*
%TO.P,J1,S2,SHIELD*%
X88345000Y-128792500D03*
D16*
%TO.P,J1,S3,SHIELD*%
X77105000Y-124792500D03*
%TO.P,J1,S4,SHIELD*%
X88345000Y-124792500D03*
%TD*%
D17*
%TO.P,JP2,1,1*%
%TO.N,usb_shield*%
X91375000Y-126475000D03*
D18*
%TO.P,JP2,2,2*%
%TO.N,RPi_Gnd*%
X91375000Y-123935000D03*
%TD*%
D13*
%TO.P,J2,A1_B12,GND*%
%TO.N,RPi_Gnd*%
X96825000Y-123642500D03*
%TO.P,J2,A4_B9,VBUS*%
%TO.N,Teensy_Power*%
X97625000Y-123642500D03*
D14*
%TO.P,J2,A5,CC1*%
%TO.N,RPi_Gnd*%
X98775000Y-123642500D03*
%TO.P,J2,A6,DP1*%
X99775000Y-123642500D03*
%TO.P,J2,A7,DN1*%
%TO.N,/rpi_scl*%
X100275000Y-123642500D03*
%TO.P,J2,A8,SBU1*%
%TO.N,/rpi_sda*%
X101275000Y-123642500D03*
D13*
%TO.P,J2,B1_A12,GND*%
%TO.N,RPi_Gnd*%
X103225000Y-123642500D03*
%TO.P,J2,B4_A9,VBUS*%
%TO.N,Teensy_Power*%
X102425000Y-123642500D03*
D14*
%TO.P,J2,B5,CC2*%
%TO.N,RPi_Gnd*%
X101775000Y-123642500D03*
%TO.P,J2,B6,DP2*%
X100775000Y-123642500D03*
%TO.P,J2,B7,DN2*%
%TO.N,/rpi_scl*%
X99275000Y-123642500D03*
%TO.P,J2,B8,SBU2*%
%TO.N,/rpi_sda*%
X98275000Y-123642500D03*
D15*
%TO.P,J2,S1,SHIELD*%
%TO.N,usb_shield*%
X94405000Y-128792500D03*
%TO.P,J2,S2,SHIELD*%
X105645000Y-128792500D03*
D16*
%TO.P,J2,S3,SHIELD*%
X94405000Y-124792500D03*
%TO.P,J2,S4,SHIELD*%
X105645000Y-124792500D03*
%TD*%
D17*
%TO.P,JP1,1,1*%
%TO.N,ac_chassis*%
X145675000Y-80125000D03*
D18*
%TO.P,JP1,2,2*%
%TO.N,RPi_Gnd*%
X145675000Y-82665000D03*
%TD*%
D19*
%TO.P,D3,1,K*%
%TO.N,Teensy_Power*%
X89375000Y-116906815D03*
D20*
%TO.P,D3,2,A*%
%TO.N,RPi_Gnd*%
X89375000Y-114366815D03*
%TD*%
D21*
%TO.P,F2,1*%
%TO.N,Net-(F2-Pad1)*%
X113620000Y-116167500D03*
%TO.P,F2,2*%
%TO.N,Net-(F2-Pad2)*%
X123780000Y-116167500D03*
%TD*%
D22*
%TO.P,PS2,1,AC/L*%
%TO.N,ac_pos*%
X134975000Y-62300000D03*
%TO.P,PS2,2,AC/N*%
%TO.N,ac_neg*%
X114175000Y-62300000D03*
%TO.P,PS2,3,-Vo*%
%TO.N,RPi_Gnd*%
X114175000Y-107300000D03*
%TO.P,PS2,4,+Vo*%
%TO.N,Net-(F2-Pad1)*%
X122175000Y-107300000D03*
%TD*%
D11*
%TO.P,SW1,1,A*%
%TO.N,Teensy_Power*%
X113125000Y-123850000D03*
D12*
%TO.P,SW1,2,B*%
%TO.N,Net-(F1-Pad2)*%
X115125000Y-123850000D03*
%TD*%
D23*
%TO.P,PJ1,1,Pin_1*%
%TO.N,ac_neg*%
X89925000Y-40925000D03*
%TO.P,PJ1,2,Pin_2*%
%TO.N,Net-(F3-Pad1)*%
X96275000Y-40925000D03*
%TO.P,PJ1,3,Pin_3*%
%TO.N,ac_chassis*%
X102625000Y-40925000D03*
%TD*%
D24*
%TO.P,SW2,1,A*%
%TO.N,RPi_Power*%
X140950000Y-98125000D03*
D25*
%TO.P,SW2,2,B*%
%TO.N,Net-(F2-Pad2)*%
X140950000Y-96125000D03*
%TD*%
D17*
%TO.P,J3,1,Pin_1*%
%TO.N,unconnected-(J3-Pad1)*%
X144300000Y-126250000D03*
D18*
%TO.P,J3,2,Pin_2*%
%TO.N,RPi_Power*%
X144300000Y-128790000D03*
%TO.P,J3,3,Pin_3*%
%TO.N,/rpi_sda*%
X141760000Y-126250000D03*
%TO.P,J3,4,Pin_4*%
%TO.N,RPi_Power*%
X141760000Y-128790000D03*
%TO.P,J3,5,Pin_5*%
%TO.N,/rpi_scl*%
X139220000Y-126250000D03*
%TO.P,J3,6,Pin_6*%
%TO.N,RPi_Gnd*%
X139220000Y-128790000D03*
%TO.P,J3,7,Pin_7*%
%TO.N,unconnected-(J3-Pad7)*%
X136680000Y-126250000D03*
%TO.P,J3,8,Pin_8*%
%TO.N,unconnected-(J3-Pad8)*%
X136680000Y-128790000D03*
%TO.P,J3,9,Pin_9*%
%TO.N,RPi_Gnd*%
X134140000Y-126250000D03*
%TO.P,J3,10,Pin_10*%
%TO.N,unconnected-(J3-Pad10)*%
X134140000Y-128790000D03*
%TD*%
D26*
%TO.P,H1,1,1*%
%TO.N,ac_chassis*%
X156350005Y-41799993D03*
%TD*%
D24*
%TO.P,D1,1,K*%
%TO.N,Net-(D1-Pad1)*%
X140950000Y-106175000D03*
D25*
%TO.P,D1,2,A*%
%TO.N,RPi_Power*%
X140950000Y-104175000D03*
%TD*%
D22*
%TO.P,PS1,1,AC/L*%
%TO.N,ac_pos*%
X102025000Y-62300000D03*
%TO.P,PS1,2,AC/N*%
%TO.N,ac_neg*%
X81225000Y-62300000D03*
%TO.P,PS1,3,-Vo*%
%TO.N,RPi_Gnd*%
X81225000Y-107300000D03*
%TO.P,PS1,4,+Vo*%
%TO.N,Net-(F1-Pad1)*%
X89225000Y-107300000D03*
%TD*%
D21*
%TO.P,F1,1*%
%TO.N,Net-(F1-Pad1)*%
X97395000Y-115150000D03*
%TO.P,F1,2*%
%TO.N,Net-(F1-Pad2)*%
X107555000Y-115150000D03*
%TD*%
D19*
%TO.P,D4,1,K*%
%TO.N,RPi_Power*%
X142610686Y-121400000D03*
D20*
%TO.P,D4,2,A*%
%TO.N,RPi_Gnd*%
X145150686Y-121400000D03*
%TD*%
D21*
%TO.P,F3,1*%
%TO.N,Net-(F3-Pad1)*%
X91995000Y-49800000D03*
%TO.P,F3,2*%
%TO.N,ac_pos*%
X102155000Y-49800000D03*
%TD*%
D27*
%TO.P,C1,1*%
%TO.N,RPi_Gnd*%
X85675000Y-113700000D03*
%TO.P,C1,2*%
%TO.N,Teensy_Power*%
X85675000Y-118700000D03*
%TD*%
%TO.P,R2,1*%
%TO.N,Net-(D2-Pad1)*%
X129425000Y-121765000D03*
D20*
%TO.P,R2,2*%
%TO.N,RPi_Gnd*%
X129425000Y-129385000D03*
%TD*%
D27*
%TO.P,C6,1*%
%TO.N,RPi_Gnd*%
X145225000Y-111925000D03*
%TO.P,C6,2*%
%TO.N,RPi_Power*%
X140225000Y-111925000D03*
%TD*%
%TO.P,C2,1*%
%TO.N,RPi_Gnd*%
X145225000Y-118175000D03*
%TO.P,C2,2*%
%TO.N,RPi_Power*%
X140225000Y-118175000D03*
%TD*%
%TO.P,R1,1*%
%TO.N,Net-(D1-Pad1)*%
X140875000Y-91000000D03*
D20*
%TO.P,R1,2*%
%TO.N,RPi_Gnd*%
X140875000Y-83380000D03*
%TD*%
D27*
%TO.P,C4,1*%
%TO.N,RPi_Gnd*%
X145225000Y-115050000D03*
%TO.P,C4,2*%
%TO.N,RPi_Power*%
X140225000Y-115050000D03*
%TD*%
%TO.P,C5,1*%
%TO.N,RPi_Gnd*%
X79425000Y-113725000D03*
%TO.P,C5,2*%
%TO.N,Teensy_Power*%
X79425000Y-118725000D03*
%TD*%
%TO.P,C3,1*%
%TO.N,RPi_Gnd*%
X82550000Y-113725000D03*
%TO.P,C3,2*%
%TO.N,Teensy_Power*%
X82550000Y-118725000D03*
%TD*%
D28*
%TO.N,Teensy_Power*%
X96450000Y-122275000D03*
X85875000Y-122249980D03*
X79725000Y-122250000D03*
X103100000Y-122275000D03*
D29*
%TO.N,/rpi_sda*%
X83975000Y-122600000D03*
X98250000Y-119050000D03*
X101275000Y-122475000D03*
X101275000Y-119050000D03*
X98275000Y-122475000D03*
X83950000Y-120375000D03*
%TO.N,RPi_Gnd*%
X84475000Y-122100000D03*
D28*
X87100000Y-123325000D03*
D29*
X99775000Y-121800000D03*
D28*
X104350000Y-123275000D03*
X78175002Y-123174989D03*
D29*
X98775000Y-121800000D03*
D28*
X95725000Y-123400000D03*
D29*
X101775000Y-121800000D03*
X100775000Y-121800000D03*
X83475000Y-122100000D03*
X82475000Y-122100000D03*
X81475000Y-122100000D03*
%TD*%
D30*
%TO.N,Net-(D1-Pad1)*%
X142800000Y-106175000D02*
X144300000Y-104675000D01*
X144300000Y-94425000D02*
X140875000Y-91000000D01*
X140950000Y-106175000D02*
X142800000Y-106175000D01*
X144300000Y-104675000D02*
X144300000Y-94425000D01*
D31*
%TO.N,Teensy_Power*%
X80325000Y-123642500D02*
X80325000Y-122850000D01*
X97625000Y-123642500D02*
X97625000Y-122842500D01*
X102425000Y-122950000D02*
X103100000Y-122275000D01*
X102425000Y-123642500D02*
X102425000Y-122950000D01*
X85125000Y-122999980D02*
X85875000Y-122249980D01*
X85125000Y-123642500D02*
X85125000Y-122999980D01*
X97057500Y-122275000D02*
X96450000Y-122275000D01*
X80325000Y-122850000D02*
X79725000Y-122250000D01*
X97625000Y-122842500D02*
X97057500Y-122275000D01*
%TO.N,/rpi_scl*%
X100275000Y-120400000D02*
X100225000Y-120350000D01*
X82975000Y-121350000D02*
X83050000Y-121275000D01*
X89025000Y-120350000D02*
X88100000Y-121275000D01*
X81975000Y-121375000D02*
X82075000Y-121275000D01*
D32*
X100275000Y-123642500D02*
X100275000Y-120400000D01*
D31*
X82075000Y-121275000D02*
X83050000Y-121275000D01*
D32*
X82975000Y-123642500D02*
X82975000Y-121350000D01*
D33*
X99275000Y-120375000D02*
X99250000Y-120350000D01*
D31*
X88100000Y-121275000D02*
X83050000Y-121275000D01*
X139220000Y-126250000D02*
X133320000Y-120350000D01*
D32*
X99275000Y-123642500D02*
X99275000Y-120375000D01*
D31*
X99250000Y-120350000D02*
X89025000Y-120350000D01*
X100225000Y-120350000D02*
X99250000Y-120350000D01*
D32*
X81975000Y-123642500D02*
X81975000Y-121375000D01*
D31*
X133320000Y-120350000D02*
X100225000Y-120350000D01*
%TO.N,/rpi_sda*%
X81625000Y-120375000D02*
X83950000Y-120375000D01*
X87150000Y-120375000D02*
X83950000Y-120375000D01*
D32*
X83975000Y-123642500D02*
X83975000Y-122600000D01*
D31*
X140175000Y-122825000D02*
X136400000Y-119050000D01*
X136400000Y-119050000D02*
X101275000Y-119050000D01*
D32*
X98275000Y-123642500D02*
X98275000Y-122475000D01*
D31*
X88475000Y-119050000D02*
X87150000Y-120375000D01*
X141760000Y-126250000D02*
X141760000Y-124410000D01*
D32*
X101275000Y-123642500D02*
X101275000Y-122475000D01*
D31*
X98250000Y-119050000D02*
X88475000Y-119050000D01*
X101275000Y-119050000D02*
X98250000Y-119050000D01*
D32*
X80975000Y-123642500D02*
X80975000Y-121025000D01*
D31*
X141760000Y-124410000D02*
X140175000Y-122825000D01*
X80975000Y-121025000D02*
X81625000Y-120375000D01*
%TO.N,RPi_Gnd*%
X86782500Y-123642500D02*
X87100000Y-123325000D01*
X103982500Y-123642500D02*
X104350000Y-123275000D01*
D32*
X100775000Y-123642500D02*
X100775000Y-121800000D01*
X99775000Y-123642500D02*
X99775000Y-121800000D01*
D31*
X78642513Y-123642500D02*
X78175002Y-123174989D01*
D32*
X82475000Y-123642500D02*
X82475000Y-122300000D01*
D31*
X96825000Y-123642500D02*
X95967500Y-123642500D01*
D32*
X81475000Y-123642500D02*
X81475000Y-122300000D01*
D31*
X98799511Y-121824511D02*
X98775000Y-121800000D01*
D32*
X98799511Y-123617989D02*
X98799511Y-121824511D01*
X83475000Y-123642500D02*
X83475000Y-122300000D01*
D31*
X95967500Y-123642500D02*
X95725000Y-123400000D01*
X85925000Y-123642500D02*
X86782500Y-123642500D01*
D32*
X84475000Y-123642500D02*
X84475000Y-122300000D01*
D31*
X98775000Y-123642500D02*
X98799511Y-123617989D01*
D32*
X101775000Y-123642500D02*
X101775000Y-121800000D01*
D31*
X79525000Y-123642500D02*
X78642513Y-123642500D01*
X103225000Y-123642500D02*
X103982500Y-123642500D01*
%TD*%
M02*
