%TF.GenerationSoftware,KiCad,Pcbnew,(6.0.4-0)*%
%TF.CreationDate,2023-02-13T16:26:13-08:00*%
%TF.ProjectId,v2a-power-board-4,7632612d-706f-4776-9572-2d626f617264,rev?*%
%TF.SameCoordinates,Original*%
%TF.FileFunction,Soldermask,Bot*%
%TF.FilePolarity,Negative*%
%FSLAX46Y46*%
G04 Gerber Fmt 4.6, Leading zero omitted, Abs format (unit mm)*
G04 Created by KiCad (PCBNEW (6.0.4-0)) date 2023-02-13 16:26:13*
%MOMM*%
%LPD*%
G01*
G04 APERTURE LIST*
G04 Aperture macros list*
%AMRoundRect*
0 Rectangle with rounded corners*
0 $1 Rounding radius*
0 $2 $3 $4 $5 $6 $7 $8 $9 X,Y pos of 4 corners*
0 Add a 4 corners polygon primitive as box body*
4,1,4,$2,$3,$4,$5,$6,$7,$8,$9,$2,$3,0*
0 Add four circle primitives for the rounded corners*
1,1,$1+$1,$2,$3*
1,1,$1+$1,$4,$5*
1,1,$1+$1,$6,$7*
1,1,$1+$1,$8,$9*
0 Add four rect primitives between the rounded corners*
20,1,$1+$1,$2,$3,$4,$5,0*
20,1,$1+$1,$4,$5,$6,$7,0*
20,1,$1+$1,$6,$7,$8,$9,0*
20,1,$1+$1,$8,$9,$2,$3,0*%
G04 Aperture macros list end*
%ADD10C,0.010000*%
%ADD11RoundRect,0.250000X-0.350000X-0.625000X0.350000X-0.625000X0.350000X0.625000X-0.350000X0.625000X0*%
%ADD12O,1.200000X1.750000*%
%ADD13R,1.700000X1.700000*%
%ADD14O,1.700000X1.700000*%
%ADD15R,1.600000X1.600000*%
%ADD16O,1.600000X1.600000*%
%ADD17C,2.900000*%
%ADD18C,1.860000*%
%ADD19C,3.048000*%
%ADD20RoundRect,0.250000X0.625000X-0.350000X0.625000X0.350000X-0.625000X0.350000X-0.625000X-0.350000X0*%
%ADD21O,1.750000X1.200000*%
%ADD22C,4.500000*%
%ADD23C,9.000000*%
%ADD24C,1.600000*%
G04 APERTURE END LIST*
%TO.C,J1*%
G36*
X77168000Y-123795500D02*
G01*
X77230000Y-123805500D01*
X77290000Y-123821500D01*
X77349000Y-123844500D01*
X77405000Y-123872500D01*
X77458000Y-123907500D01*
X77506000Y-123946500D01*
X77551000Y-123991500D01*
X77590000Y-124039500D01*
X77625000Y-124092500D01*
X77653000Y-124148500D01*
X77676000Y-124207500D01*
X77692000Y-124267500D01*
X77702000Y-124329500D01*
X77705000Y-124392500D01*
X77705000Y-125192500D01*
X77702000Y-125255500D01*
X77692000Y-125317500D01*
X77676000Y-125377500D01*
X77653000Y-125436500D01*
X77625000Y-125492500D01*
X77590000Y-125545500D01*
X77551000Y-125593500D01*
X77506000Y-125638500D01*
X77458000Y-125677500D01*
X77405000Y-125712500D01*
X77349000Y-125740500D01*
X77290000Y-125763500D01*
X77230000Y-125779500D01*
X77168000Y-125789500D01*
X77105000Y-125792500D01*
X77042000Y-125789500D01*
X76980000Y-125779500D01*
X76920000Y-125763500D01*
X76861000Y-125740500D01*
X76805000Y-125712500D01*
X76752000Y-125677500D01*
X76704000Y-125638500D01*
X76659000Y-125593500D01*
X76620000Y-125545500D01*
X76585000Y-125492500D01*
X76557000Y-125436500D01*
X76534000Y-125377500D01*
X76518000Y-125317500D01*
X76508000Y-125255500D01*
X76505000Y-125192500D01*
X76505000Y-124392500D01*
X76508000Y-124329500D01*
X76518000Y-124267500D01*
X76534000Y-124207500D01*
X76557000Y-124148500D01*
X76585000Y-124092500D01*
X76620000Y-124039500D01*
X76659000Y-123991500D01*
X76704000Y-123946500D01*
X76752000Y-123907500D01*
X76805000Y-123872500D01*
X76861000Y-123844500D01*
X76920000Y-123821500D01*
X76980000Y-123805500D01*
X77042000Y-123795500D01*
X77105000Y-123792500D01*
X77168000Y-123795500D01*
G37*
D10*
X77168000Y-123795500D02*
X77230000Y-123805500D01*
X77290000Y-123821500D01*
X77349000Y-123844500D01*
X77405000Y-123872500D01*
X77458000Y-123907500D01*
X77506000Y-123946500D01*
X77551000Y-123991500D01*
X77590000Y-124039500D01*
X77625000Y-124092500D01*
X77653000Y-124148500D01*
X77676000Y-124207500D01*
X77692000Y-124267500D01*
X77702000Y-124329500D01*
X77705000Y-124392500D01*
X77705000Y-125192500D01*
X77702000Y-125255500D01*
X77692000Y-125317500D01*
X77676000Y-125377500D01*
X77653000Y-125436500D01*
X77625000Y-125492500D01*
X77590000Y-125545500D01*
X77551000Y-125593500D01*
X77506000Y-125638500D01*
X77458000Y-125677500D01*
X77405000Y-125712500D01*
X77349000Y-125740500D01*
X77290000Y-125763500D01*
X77230000Y-125779500D01*
X77168000Y-125789500D01*
X77105000Y-125792500D01*
X77042000Y-125789500D01*
X76980000Y-125779500D01*
X76920000Y-125763500D01*
X76861000Y-125740500D01*
X76805000Y-125712500D01*
X76752000Y-125677500D01*
X76704000Y-125638500D01*
X76659000Y-125593500D01*
X76620000Y-125545500D01*
X76585000Y-125492500D01*
X76557000Y-125436500D01*
X76534000Y-125377500D01*
X76518000Y-125317500D01*
X76508000Y-125255500D01*
X76505000Y-125192500D01*
X76505000Y-124392500D01*
X76508000Y-124329500D01*
X76518000Y-124267500D01*
X76534000Y-124207500D01*
X76557000Y-124148500D01*
X76585000Y-124092500D01*
X76620000Y-124039500D01*
X76659000Y-123991500D01*
X76704000Y-123946500D01*
X76752000Y-123907500D01*
X76805000Y-123872500D01*
X76861000Y-123844500D01*
X76920000Y-123821500D01*
X76980000Y-123805500D01*
X77042000Y-123795500D01*
X77105000Y-123792500D01*
X77168000Y-123795500D01*
G36*
X88408000Y-123795500D02*
G01*
X88470000Y-123805500D01*
X88530000Y-123821500D01*
X88589000Y-123844500D01*
X88645000Y-123872500D01*
X88698000Y-123907500D01*
X88746000Y-123946500D01*
X88791000Y-123991500D01*
X88830000Y-124039500D01*
X88865000Y-124092500D01*
X88893000Y-124148500D01*
X88916000Y-124207500D01*
X88932000Y-124267500D01*
X88942000Y-124329500D01*
X88945000Y-124392500D01*
X88945000Y-125192500D01*
X88942000Y-125255500D01*
X88932000Y-125317500D01*
X88916000Y-125377500D01*
X88893000Y-125436500D01*
X88865000Y-125492500D01*
X88830000Y-125545500D01*
X88791000Y-125593500D01*
X88746000Y-125638500D01*
X88698000Y-125677500D01*
X88645000Y-125712500D01*
X88589000Y-125740500D01*
X88530000Y-125763500D01*
X88470000Y-125779500D01*
X88408000Y-125789500D01*
X88345000Y-125792500D01*
X88282000Y-125789500D01*
X88220000Y-125779500D01*
X88160000Y-125763500D01*
X88101000Y-125740500D01*
X88045000Y-125712500D01*
X87992000Y-125677500D01*
X87944000Y-125638500D01*
X87899000Y-125593500D01*
X87860000Y-125545500D01*
X87825000Y-125492500D01*
X87797000Y-125436500D01*
X87774000Y-125377500D01*
X87758000Y-125317500D01*
X87748000Y-125255500D01*
X87745000Y-125192500D01*
X87745000Y-124392500D01*
X87748000Y-124329500D01*
X87758000Y-124267500D01*
X87774000Y-124207500D01*
X87797000Y-124148500D01*
X87825000Y-124092500D01*
X87860000Y-124039500D01*
X87899000Y-123991500D01*
X87944000Y-123946500D01*
X87992000Y-123907500D01*
X88045000Y-123872500D01*
X88101000Y-123844500D01*
X88160000Y-123821500D01*
X88220000Y-123805500D01*
X88282000Y-123795500D01*
X88345000Y-123792500D01*
X88408000Y-123795500D01*
G37*
X88408000Y-123795500D02*
X88470000Y-123805500D01*
X88530000Y-123821500D01*
X88589000Y-123844500D01*
X88645000Y-123872500D01*
X88698000Y-123907500D01*
X88746000Y-123946500D01*
X88791000Y-123991500D01*
X88830000Y-124039500D01*
X88865000Y-124092500D01*
X88893000Y-124148500D01*
X88916000Y-124207500D01*
X88932000Y-124267500D01*
X88942000Y-124329500D01*
X88945000Y-124392500D01*
X88945000Y-125192500D01*
X88942000Y-125255500D01*
X88932000Y-125317500D01*
X88916000Y-125377500D01*
X88893000Y-125436500D01*
X88865000Y-125492500D01*
X88830000Y-125545500D01*
X88791000Y-125593500D01*
X88746000Y-125638500D01*
X88698000Y-125677500D01*
X88645000Y-125712500D01*
X88589000Y-125740500D01*
X88530000Y-125763500D01*
X88470000Y-125779500D01*
X88408000Y-125789500D01*
X88345000Y-125792500D01*
X88282000Y-125789500D01*
X88220000Y-125779500D01*
X88160000Y-125763500D01*
X88101000Y-125740500D01*
X88045000Y-125712500D01*
X87992000Y-125677500D01*
X87944000Y-125638500D01*
X87899000Y-125593500D01*
X87860000Y-125545500D01*
X87825000Y-125492500D01*
X87797000Y-125436500D01*
X87774000Y-125377500D01*
X87758000Y-125317500D01*
X87748000Y-125255500D01*
X87745000Y-125192500D01*
X87745000Y-124392500D01*
X87748000Y-124329500D01*
X87758000Y-124267500D01*
X87774000Y-124207500D01*
X87797000Y-124148500D01*
X87825000Y-124092500D01*
X87860000Y-124039500D01*
X87899000Y-123991500D01*
X87944000Y-123946500D01*
X87992000Y-123907500D01*
X88045000Y-123872500D01*
X88101000Y-123844500D01*
X88160000Y-123821500D01*
X88220000Y-123805500D01*
X88282000Y-123795500D01*
X88345000Y-123792500D01*
X88408000Y-123795500D01*
G36*
X88408000Y-127595500D02*
G01*
X88470000Y-127605500D01*
X88530000Y-127621500D01*
X88589000Y-127644500D01*
X88645000Y-127672500D01*
X88698000Y-127707500D01*
X88746000Y-127746500D01*
X88791000Y-127791500D01*
X88830000Y-127839500D01*
X88865000Y-127892500D01*
X88893000Y-127948500D01*
X88916000Y-128007500D01*
X88932000Y-128067500D01*
X88942000Y-128129500D01*
X88945000Y-128192500D01*
X88945000Y-129392500D01*
X88942000Y-129455500D01*
X88932000Y-129517500D01*
X88916000Y-129577500D01*
X88893000Y-129636500D01*
X88865000Y-129692500D01*
X88830000Y-129745500D01*
X88791000Y-129793500D01*
X88746000Y-129838500D01*
X88698000Y-129877500D01*
X88645000Y-129912500D01*
X88589000Y-129940500D01*
X88530000Y-129963500D01*
X88470000Y-129979500D01*
X88408000Y-129989500D01*
X88345000Y-129992500D01*
X88282000Y-129989500D01*
X88220000Y-129979500D01*
X88160000Y-129963500D01*
X88101000Y-129940500D01*
X88045000Y-129912500D01*
X87992000Y-129877500D01*
X87944000Y-129838500D01*
X87899000Y-129793500D01*
X87860000Y-129745500D01*
X87825000Y-129692500D01*
X87797000Y-129636500D01*
X87774000Y-129577500D01*
X87758000Y-129517500D01*
X87748000Y-129455500D01*
X87745000Y-129392500D01*
X87745000Y-128192500D01*
X87748000Y-128129500D01*
X87758000Y-128067500D01*
X87774000Y-128007500D01*
X87797000Y-127948500D01*
X87825000Y-127892500D01*
X87860000Y-127839500D01*
X87899000Y-127791500D01*
X87944000Y-127746500D01*
X87992000Y-127707500D01*
X88045000Y-127672500D01*
X88101000Y-127644500D01*
X88160000Y-127621500D01*
X88220000Y-127605500D01*
X88282000Y-127595500D01*
X88345000Y-127592500D01*
X88408000Y-127595500D01*
G37*
X88408000Y-127595500D02*
X88470000Y-127605500D01*
X88530000Y-127621500D01*
X88589000Y-127644500D01*
X88645000Y-127672500D01*
X88698000Y-127707500D01*
X88746000Y-127746500D01*
X88791000Y-127791500D01*
X88830000Y-127839500D01*
X88865000Y-127892500D01*
X88893000Y-127948500D01*
X88916000Y-128007500D01*
X88932000Y-128067500D01*
X88942000Y-128129500D01*
X88945000Y-128192500D01*
X88945000Y-129392500D01*
X88942000Y-129455500D01*
X88932000Y-129517500D01*
X88916000Y-129577500D01*
X88893000Y-129636500D01*
X88865000Y-129692500D01*
X88830000Y-129745500D01*
X88791000Y-129793500D01*
X88746000Y-129838500D01*
X88698000Y-129877500D01*
X88645000Y-129912500D01*
X88589000Y-129940500D01*
X88530000Y-129963500D01*
X88470000Y-129979500D01*
X88408000Y-129989500D01*
X88345000Y-129992500D01*
X88282000Y-129989500D01*
X88220000Y-129979500D01*
X88160000Y-129963500D01*
X88101000Y-129940500D01*
X88045000Y-129912500D01*
X87992000Y-129877500D01*
X87944000Y-129838500D01*
X87899000Y-129793500D01*
X87860000Y-129745500D01*
X87825000Y-129692500D01*
X87797000Y-129636500D01*
X87774000Y-129577500D01*
X87758000Y-129517500D01*
X87748000Y-129455500D01*
X87745000Y-129392500D01*
X87745000Y-128192500D01*
X87748000Y-128129500D01*
X87758000Y-128067500D01*
X87774000Y-128007500D01*
X87797000Y-127948500D01*
X87825000Y-127892500D01*
X87860000Y-127839500D01*
X87899000Y-127791500D01*
X87944000Y-127746500D01*
X87992000Y-127707500D01*
X88045000Y-127672500D01*
X88101000Y-127644500D01*
X88160000Y-127621500D01*
X88220000Y-127605500D01*
X88282000Y-127595500D01*
X88345000Y-127592500D01*
X88408000Y-127595500D01*
G36*
X77168000Y-127595500D02*
G01*
X77230000Y-127605500D01*
X77290000Y-127621500D01*
X77349000Y-127644500D01*
X77405000Y-127672500D01*
X77458000Y-127707500D01*
X77506000Y-127746500D01*
X77551000Y-127791500D01*
X77590000Y-127839500D01*
X77625000Y-127892500D01*
X77653000Y-127948500D01*
X77676000Y-128007500D01*
X77692000Y-128067500D01*
X77702000Y-128129500D01*
X77705000Y-128192500D01*
X77705000Y-129392500D01*
X77702000Y-129455500D01*
X77692000Y-129517500D01*
X77676000Y-129577500D01*
X77653000Y-129636500D01*
X77625000Y-129692500D01*
X77590000Y-129745500D01*
X77551000Y-129793500D01*
X77506000Y-129838500D01*
X77458000Y-129877500D01*
X77405000Y-129912500D01*
X77349000Y-129940500D01*
X77290000Y-129963500D01*
X77230000Y-129979500D01*
X77168000Y-129989500D01*
X77105000Y-129992500D01*
X77042000Y-129989500D01*
X76980000Y-129979500D01*
X76920000Y-129963500D01*
X76861000Y-129940500D01*
X76805000Y-129912500D01*
X76752000Y-129877500D01*
X76704000Y-129838500D01*
X76659000Y-129793500D01*
X76620000Y-129745500D01*
X76585000Y-129692500D01*
X76557000Y-129636500D01*
X76534000Y-129577500D01*
X76518000Y-129517500D01*
X76508000Y-129455500D01*
X76505000Y-129392500D01*
X76505000Y-128192500D01*
X76508000Y-128129500D01*
X76518000Y-128067500D01*
X76534000Y-128007500D01*
X76557000Y-127948500D01*
X76585000Y-127892500D01*
X76620000Y-127839500D01*
X76659000Y-127791500D01*
X76704000Y-127746500D01*
X76752000Y-127707500D01*
X76805000Y-127672500D01*
X76861000Y-127644500D01*
X76920000Y-127621500D01*
X76980000Y-127605500D01*
X77042000Y-127595500D01*
X77105000Y-127592500D01*
X77168000Y-127595500D01*
G37*
X77168000Y-127595500D02*
X77230000Y-127605500D01*
X77290000Y-127621500D01*
X77349000Y-127644500D01*
X77405000Y-127672500D01*
X77458000Y-127707500D01*
X77506000Y-127746500D01*
X77551000Y-127791500D01*
X77590000Y-127839500D01*
X77625000Y-127892500D01*
X77653000Y-127948500D01*
X77676000Y-128007500D01*
X77692000Y-128067500D01*
X77702000Y-128129500D01*
X77705000Y-128192500D01*
X77705000Y-129392500D01*
X77702000Y-129455500D01*
X77692000Y-129517500D01*
X77676000Y-129577500D01*
X77653000Y-129636500D01*
X77625000Y-129692500D01*
X77590000Y-129745500D01*
X77551000Y-129793500D01*
X77506000Y-129838500D01*
X77458000Y-129877500D01*
X77405000Y-129912500D01*
X77349000Y-129940500D01*
X77290000Y-129963500D01*
X77230000Y-129979500D01*
X77168000Y-129989500D01*
X77105000Y-129992500D01*
X77042000Y-129989500D01*
X76980000Y-129979500D01*
X76920000Y-129963500D01*
X76861000Y-129940500D01*
X76805000Y-129912500D01*
X76752000Y-129877500D01*
X76704000Y-129838500D01*
X76659000Y-129793500D01*
X76620000Y-129745500D01*
X76585000Y-129692500D01*
X76557000Y-129636500D01*
X76534000Y-129577500D01*
X76518000Y-129517500D01*
X76508000Y-129455500D01*
X76505000Y-129392500D01*
X76505000Y-128192500D01*
X76508000Y-128129500D01*
X76518000Y-128067500D01*
X76534000Y-128007500D01*
X76557000Y-127948500D01*
X76585000Y-127892500D01*
X76620000Y-127839500D01*
X76659000Y-127791500D01*
X76704000Y-127746500D01*
X76752000Y-127707500D01*
X76805000Y-127672500D01*
X76861000Y-127644500D01*
X76920000Y-127621500D01*
X76980000Y-127605500D01*
X77042000Y-127595500D01*
X77105000Y-127592500D01*
X77168000Y-127595500D01*
%TO.C,J2*%
G36*
X105708000Y-127595500D02*
G01*
X105770000Y-127605500D01*
X105830000Y-127621500D01*
X105889000Y-127644500D01*
X105945000Y-127672500D01*
X105998000Y-127707500D01*
X106046000Y-127746500D01*
X106091000Y-127791500D01*
X106130000Y-127839500D01*
X106165000Y-127892500D01*
X106193000Y-127948500D01*
X106216000Y-128007500D01*
X106232000Y-128067500D01*
X106242000Y-128129500D01*
X106245000Y-128192500D01*
X106245000Y-129392500D01*
X106242000Y-129455500D01*
X106232000Y-129517500D01*
X106216000Y-129577500D01*
X106193000Y-129636500D01*
X106165000Y-129692500D01*
X106130000Y-129745500D01*
X106091000Y-129793500D01*
X106046000Y-129838500D01*
X105998000Y-129877500D01*
X105945000Y-129912500D01*
X105889000Y-129940500D01*
X105830000Y-129963500D01*
X105770000Y-129979500D01*
X105708000Y-129989500D01*
X105645000Y-129992500D01*
X105582000Y-129989500D01*
X105520000Y-129979500D01*
X105460000Y-129963500D01*
X105401000Y-129940500D01*
X105345000Y-129912500D01*
X105292000Y-129877500D01*
X105244000Y-129838500D01*
X105199000Y-129793500D01*
X105160000Y-129745500D01*
X105125000Y-129692500D01*
X105097000Y-129636500D01*
X105074000Y-129577500D01*
X105058000Y-129517500D01*
X105048000Y-129455500D01*
X105045000Y-129392500D01*
X105045000Y-128192500D01*
X105048000Y-128129500D01*
X105058000Y-128067500D01*
X105074000Y-128007500D01*
X105097000Y-127948500D01*
X105125000Y-127892500D01*
X105160000Y-127839500D01*
X105199000Y-127791500D01*
X105244000Y-127746500D01*
X105292000Y-127707500D01*
X105345000Y-127672500D01*
X105401000Y-127644500D01*
X105460000Y-127621500D01*
X105520000Y-127605500D01*
X105582000Y-127595500D01*
X105645000Y-127592500D01*
X105708000Y-127595500D01*
G37*
X105708000Y-127595500D02*
X105770000Y-127605500D01*
X105830000Y-127621500D01*
X105889000Y-127644500D01*
X105945000Y-127672500D01*
X105998000Y-127707500D01*
X106046000Y-127746500D01*
X106091000Y-127791500D01*
X106130000Y-127839500D01*
X106165000Y-127892500D01*
X106193000Y-127948500D01*
X106216000Y-128007500D01*
X106232000Y-128067500D01*
X106242000Y-128129500D01*
X106245000Y-128192500D01*
X106245000Y-129392500D01*
X106242000Y-129455500D01*
X106232000Y-129517500D01*
X106216000Y-129577500D01*
X106193000Y-129636500D01*
X106165000Y-129692500D01*
X106130000Y-129745500D01*
X106091000Y-129793500D01*
X106046000Y-129838500D01*
X105998000Y-129877500D01*
X105945000Y-129912500D01*
X105889000Y-129940500D01*
X105830000Y-129963500D01*
X105770000Y-129979500D01*
X105708000Y-129989500D01*
X105645000Y-129992500D01*
X105582000Y-129989500D01*
X105520000Y-129979500D01*
X105460000Y-129963500D01*
X105401000Y-129940500D01*
X105345000Y-129912500D01*
X105292000Y-129877500D01*
X105244000Y-129838500D01*
X105199000Y-129793500D01*
X105160000Y-129745500D01*
X105125000Y-129692500D01*
X105097000Y-129636500D01*
X105074000Y-129577500D01*
X105058000Y-129517500D01*
X105048000Y-129455500D01*
X105045000Y-129392500D01*
X105045000Y-128192500D01*
X105048000Y-128129500D01*
X105058000Y-128067500D01*
X105074000Y-128007500D01*
X105097000Y-127948500D01*
X105125000Y-127892500D01*
X105160000Y-127839500D01*
X105199000Y-127791500D01*
X105244000Y-127746500D01*
X105292000Y-127707500D01*
X105345000Y-127672500D01*
X105401000Y-127644500D01*
X105460000Y-127621500D01*
X105520000Y-127605500D01*
X105582000Y-127595500D01*
X105645000Y-127592500D01*
X105708000Y-127595500D01*
G36*
X94468000Y-127595500D02*
G01*
X94530000Y-127605500D01*
X94590000Y-127621500D01*
X94649000Y-127644500D01*
X94705000Y-127672500D01*
X94758000Y-127707500D01*
X94806000Y-127746500D01*
X94851000Y-127791500D01*
X94890000Y-127839500D01*
X94925000Y-127892500D01*
X94953000Y-127948500D01*
X94976000Y-128007500D01*
X94992000Y-128067500D01*
X95002000Y-128129500D01*
X95005000Y-128192500D01*
X95005000Y-129392500D01*
X95002000Y-129455500D01*
X94992000Y-129517500D01*
X94976000Y-129577500D01*
X94953000Y-129636500D01*
X94925000Y-129692500D01*
X94890000Y-129745500D01*
X94851000Y-129793500D01*
X94806000Y-129838500D01*
X94758000Y-129877500D01*
X94705000Y-129912500D01*
X94649000Y-129940500D01*
X94590000Y-129963500D01*
X94530000Y-129979500D01*
X94468000Y-129989500D01*
X94405000Y-129992500D01*
X94342000Y-129989500D01*
X94280000Y-129979500D01*
X94220000Y-129963500D01*
X94161000Y-129940500D01*
X94105000Y-129912500D01*
X94052000Y-129877500D01*
X94004000Y-129838500D01*
X93959000Y-129793500D01*
X93920000Y-129745500D01*
X93885000Y-129692500D01*
X93857000Y-129636500D01*
X93834000Y-129577500D01*
X93818000Y-129517500D01*
X93808000Y-129455500D01*
X93805000Y-129392500D01*
X93805000Y-128192500D01*
X93808000Y-128129500D01*
X93818000Y-128067500D01*
X93834000Y-128007500D01*
X93857000Y-127948500D01*
X93885000Y-127892500D01*
X93920000Y-127839500D01*
X93959000Y-127791500D01*
X94004000Y-127746500D01*
X94052000Y-127707500D01*
X94105000Y-127672500D01*
X94161000Y-127644500D01*
X94220000Y-127621500D01*
X94280000Y-127605500D01*
X94342000Y-127595500D01*
X94405000Y-127592500D01*
X94468000Y-127595500D01*
G37*
X94468000Y-127595500D02*
X94530000Y-127605500D01*
X94590000Y-127621500D01*
X94649000Y-127644500D01*
X94705000Y-127672500D01*
X94758000Y-127707500D01*
X94806000Y-127746500D01*
X94851000Y-127791500D01*
X94890000Y-127839500D01*
X94925000Y-127892500D01*
X94953000Y-127948500D01*
X94976000Y-128007500D01*
X94992000Y-128067500D01*
X95002000Y-128129500D01*
X95005000Y-128192500D01*
X95005000Y-129392500D01*
X95002000Y-129455500D01*
X94992000Y-129517500D01*
X94976000Y-129577500D01*
X94953000Y-129636500D01*
X94925000Y-129692500D01*
X94890000Y-129745500D01*
X94851000Y-129793500D01*
X94806000Y-129838500D01*
X94758000Y-129877500D01*
X94705000Y-129912500D01*
X94649000Y-129940500D01*
X94590000Y-129963500D01*
X94530000Y-129979500D01*
X94468000Y-129989500D01*
X94405000Y-129992500D01*
X94342000Y-129989500D01*
X94280000Y-129979500D01*
X94220000Y-129963500D01*
X94161000Y-129940500D01*
X94105000Y-129912500D01*
X94052000Y-129877500D01*
X94004000Y-129838500D01*
X93959000Y-129793500D01*
X93920000Y-129745500D01*
X93885000Y-129692500D01*
X93857000Y-129636500D01*
X93834000Y-129577500D01*
X93818000Y-129517500D01*
X93808000Y-129455500D01*
X93805000Y-129392500D01*
X93805000Y-128192500D01*
X93808000Y-128129500D01*
X93818000Y-128067500D01*
X93834000Y-128007500D01*
X93857000Y-127948500D01*
X93885000Y-127892500D01*
X93920000Y-127839500D01*
X93959000Y-127791500D01*
X94004000Y-127746500D01*
X94052000Y-127707500D01*
X94105000Y-127672500D01*
X94161000Y-127644500D01*
X94220000Y-127621500D01*
X94280000Y-127605500D01*
X94342000Y-127595500D01*
X94405000Y-127592500D01*
X94468000Y-127595500D01*
G36*
X105708000Y-123795500D02*
G01*
X105770000Y-123805500D01*
X105830000Y-123821500D01*
X105889000Y-123844500D01*
X105945000Y-123872500D01*
X105998000Y-123907500D01*
X106046000Y-123946500D01*
X106091000Y-123991500D01*
X106130000Y-124039500D01*
X106165000Y-124092500D01*
X106193000Y-124148500D01*
X106216000Y-124207500D01*
X106232000Y-124267500D01*
X106242000Y-124329500D01*
X106245000Y-124392500D01*
X106245000Y-125192500D01*
X106242000Y-125255500D01*
X106232000Y-125317500D01*
X106216000Y-125377500D01*
X106193000Y-125436500D01*
X106165000Y-125492500D01*
X106130000Y-125545500D01*
X106091000Y-125593500D01*
X106046000Y-125638500D01*
X105998000Y-125677500D01*
X105945000Y-125712500D01*
X105889000Y-125740500D01*
X105830000Y-125763500D01*
X105770000Y-125779500D01*
X105708000Y-125789500D01*
X105645000Y-125792500D01*
X105582000Y-125789500D01*
X105520000Y-125779500D01*
X105460000Y-125763500D01*
X105401000Y-125740500D01*
X105345000Y-125712500D01*
X105292000Y-125677500D01*
X105244000Y-125638500D01*
X105199000Y-125593500D01*
X105160000Y-125545500D01*
X105125000Y-125492500D01*
X105097000Y-125436500D01*
X105074000Y-125377500D01*
X105058000Y-125317500D01*
X105048000Y-125255500D01*
X105045000Y-125192500D01*
X105045000Y-124392500D01*
X105048000Y-124329500D01*
X105058000Y-124267500D01*
X105074000Y-124207500D01*
X105097000Y-124148500D01*
X105125000Y-124092500D01*
X105160000Y-124039500D01*
X105199000Y-123991500D01*
X105244000Y-123946500D01*
X105292000Y-123907500D01*
X105345000Y-123872500D01*
X105401000Y-123844500D01*
X105460000Y-123821500D01*
X105520000Y-123805500D01*
X105582000Y-123795500D01*
X105645000Y-123792500D01*
X105708000Y-123795500D01*
G37*
X105708000Y-123795500D02*
X105770000Y-123805500D01*
X105830000Y-123821500D01*
X105889000Y-123844500D01*
X105945000Y-123872500D01*
X105998000Y-123907500D01*
X106046000Y-123946500D01*
X106091000Y-123991500D01*
X106130000Y-124039500D01*
X106165000Y-124092500D01*
X106193000Y-124148500D01*
X106216000Y-124207500D01*
X106232000Y-124267500D01*
X106242000Y-124329500D01*
X106245000Y-124392500D01*
X106245000Y-125192500D01*
X106242000Y-125255500D01*
X106232000Y-125317500D01*
X106216000Y-125377500D01*
X106193000Y-125436500D01*
X106165000Y-125492500D01*
X106130000Y-125545500D01*
X106091000Y-125593500D01*
X106046000Y-125638500D01*
X105998000Y-125677500D01*
X105945000Y-125712500D01*
X105889000Y-125740500D01*
X105830000Y-125763500D01*
X105770000Y-125779500D01*
X105708000Y-125789500D01*
X105645000Y-125792500D01*
X105582000Y-125789500D01*
X105520000Y-125779500D01*
X105460000Y-125763500D01*
X105401000Y-125740500D01*
X105345000Y-125712500D01*
X105292000Y-125677500D01*
X105244000Y-125638500D01*
X105199000Y-125593500D01*
X105160000Y-125545500D01*
X105125000Y-125492500D01*
X105097000Y-125436500D01*
X105074000Y-125377500D01*
X105058000Y-125317500D01*
X105048000Y-125255500D01*
X105045000Y-125192500D01*
X105045000Y-124392500D01*
X105048000Y-124329500D01*
X105058000Y-124267500D01*
X105074000Y-124207500D01*
X105097000Y-124148500D01*
X105125000Y-124092500D01*
X105160000Y-124039500D01*
X105199000Y-123991500D01*
X105244000Y-123946500D01*
X105292000Y-123907500D01*
X105345000Y-123872500D01*
X105401000Y-123844500D01*
X105460000Y-123821500D01*
X105520000Y-123805500D01*
X105582000Y-123795500D01*
X105645000Y-123792500D01*
X105708000Y-123795500D01*
G36*
X94468000Y-123795500D02*
G01*
X94530000Y-123805500D01*
X94590000Y-123821500D01*
X94649000Y-123844500D01*
X94705000Y-123872500D01*
X94758000Y-123907500D01*
X94806000Y-123946500D01*
X94851000Y-123991500D01*
X94890000Y-124039500D01*
X94925000Y-124092500D01*
X94953000Y-124148500D01*
X94976000Y-124207500D01*
X94992000Y-124267500D01*
X95002000Y-124329500D01*
X95005000Y-124392500D01*
X95005000Y-125192500D01*
X95002000Y-125255500D01*
X94992000Y-125317500D01*
X94976000Y-125377500D01*
X94953000Y-125436500D01*
X94925000Y-125492500D01*
X94890000Y-125545500D01*
X94851000Y-125593500D01*
X94806000Y-125638500D01*
X94758000Y-125677500D01*
X94705000Y-125712500D01*
X94649000Y-125740500D01*
X94590000Y-125763500D01*
X94530000Y-125779500D01*
X94468000Y-125789500D01*
X94405000Y-125792500D01*
X94342000Y-125789500D01*
X94280000Y-125779500D01*
X94220000Y-125763500D01*
X94161000Y-125740500D01*
X94105000Y-125712500D01*
X94052000Y-125677500D01*
X94004000Y-125638500D01*
X93959000Y-125593500D01*
X93920000Y-125545500D01*
X93885000Y-125492500D01*
X93857000Y-125436500D01*
X93834000Y-125377500D01*
X93818000Y-125317500D01*
X93808000Y-125255500D01*
X93805000Y-125192500D01*
X93805000Y-124392500D01*
X93808000Y-124329500D01*
X93818000Y-124267500D01*
X93834000Y-124207500D01*
X93857000Y-124148500D01*
X93885000Y-124092500D01*
X93920000Y-124039500D01*
X93959000Y-123991500D01*
X94004000Y-123946500D01*
X94052000Y-123907500D01*
X94105000Y-123872500D01*
X94161000Y-123844500D01*
X94220000Y-123821500D01*
X94280000Y-123805500D01*
X94342000Y-123795500D01*
X94405000Y-123792500D01*
X94468000Y-123795500D01*
G37*
X94468000Y-123795500D02*
X94530000Y-123805500D01*
X94590000Y-123821500D01*
X94649000Y-123844500D01*
X94705000Y-123872500D01*
X94758000Y-123907500D01*
X94806000Y-123946500D01*
X94851000Y-123991500D01*
X94890000Y-124039500D01*
X94925000Y-124092500D01*
X94953000Y-124148500D01*
X94976000Y-124207500D01*
X94992000Y-124267500D01*
X95002000Y-124329500D01*
X95005000Y-124392500D01*
X95005000Y-125192500D01*
X95002000Y-125255500D01*
X94992000Y-125317500D01*
X94976000Y-125377500D01*
X94953000Y-125436500D01*
X94925000Y-125492500D01*
X94890000Y-125545500D01*
X94851000Y-125593500D01*
X94806000Y-125638500D01*
X94758000Y-125677500D01*
X94705000Y-125712500D01*
X94649000Y-125740500D01*
X94590000Y-125763500D01*
X94530000Y-125779500D01*
X94468000Y-125789500D01*
X94405000Y-125792500D01*
X94342000Y-125789500D01*
X94280000Y-125779500D01*
X94220000Y-125763500D01*
X94161000Y-125740500D01*
X94105000Y-125712500D01*
X94052000Y-125677500D01*
X94004000Y-125638500D01*
X93959000Y-125593500D01*
X93920000Y-125545500D01*
X93885000Y-125492500D01*
X93857000Y-125436500D01*
X93834000Y-125377500D01*
X93818000Y-125317500D01*
X93808000Y-125255500D01*
X93805000Y-125192500D01*
X93805000Y-124392500D01*
X93808000Y-124329500D01*
X93818000Y-124267500D01*
X93834000Y-124207500D01*
X93857000Y-124148500D01*
X93885000Y-124092500D01*
X93920000Y-124039500D01*
X93959000Y-123991500D01*
X94004000Y-123946500D01*
X94052000Y-123907500D01*
X94105000Y-123872500D01*
X94161000Y-123844500D01*
X94220000Y-123821500D01*
X94280000Y-123805500D01*
X94342000Y-123795500D01*
X94405000Y-123792500D01*
X94468000Y-123795500D01*
%TD*%
D11*
%TO.C,D2*%
X121650000Y-123850000D03*
D12*
X123650000Y-123850000D03*
%TD*%
D13*
%TO.C,JP2*%
X91375000Y-126475000D03*
D14*
X91375000Y-123935000D03*
%TD*%
D13*
%TO.C,JP1*%
X145675000Y-80125000D03*
D14*
X145675000Y-82665000D03*
%TD*%
D15*
%TO.C,D3*%
X89375000Y-116906815D03*
D16*
X89375000Y-114366815D03*
%TD*%
D17*
%TO.C,F2*%
X113620000Y-116167500D03*
X123780000Y-116167500D03*
%TD*%
D18*
%TO.C,PS2*%
X134975000Y-62300000D03*
X114175000Y-62300000D03*
X114175000Y-107300000D03*
X122175000Y-107300000D03*
%TD*%
D11*
%TO.C,SW1*%
X113125000Y-123850000D03*
D12*
X115125000Y-123850000D03*
%TD*%
D19*
%TO.C,PJ1*%
X89925000Y-40925000D03*
X96275000Y-40925000D03*
X102625000Y-40925000D03*
%TD*%
D20*
%TO.C,SW2*%
X140950000Y-98125000D03*
D21*
X140950000Y-96125000D03*
%TD*%
D22*
%TO.C,REF\u002A\u002A*%
X67449979Y-41799993D03*
%TD*%
D13*
%TO.C,J3*%
X144300000Y-126250000D03*
D14*
X144300000Y-128790000D03*
X141760000Y-126250000D03*
X141760000Y-128790000D03*
X139220000Y-126250000D03*
X139220000Y-128790000D03*
X136680000Y-126250000D03*
X136680000Y-128790000D03*
X134140000Y-126250000D03*
X134140000Y-128790000D03*
%TD*%
D23*
%TO.C,H1*%
X156350005Y-41799993D03*
%TD*%
D20*
%TO.C,D1*%
X140950000Y-106175000D03*
D21*
X140950000Y-104175000D03*
%TD*%
D18*
%TO.C,PS1*%
X102025000Y-62300000D03*
X81225000Y-62300000D03*
X81225000Y-107300000D03*
X89225000Y-107300000D03*
%TD*%
D17*
%TO.C,F1*%
X97395000Y-115150000D03*
X107555000Y-115150000D03*
%TD*%
D15*
%TO.C,D4*%
X142610686Y-121400000D03*
D16*
X145150686Y-121400000D03*
%TD*%
D22*
%TO.C,REF\u002A\u002A*%
X156350000Y-124350000D03*
%TD*%
D17*
%TO.C,F3*%
X91995000Y-49800000D03*
X102155000Y-49800000D03*
%TD*%
D22*
%TO.C,REF\u002A\u002A*%
X67449988Y-124350005D03*
%TD*%
D24*
%TO.C,C1*%
X85675000Y-113700000D03*
X85675000Y-118700000D03*
%TD*%
%TO.C,R2*%
X129425000Y-121765000D03*
D16*
X129425000Y-129385000D03*
%TD*%
D24*
%TO.C,C6*%
X145225000Y-111925000D03*
X140225000Y-111925000D03*
%TD*%
%TO.C,C2*%
X145225000Y-118175000D03*
X140225000Y-118175000D03*
%TD*%
%TO.C,R1*%
X140875000Y-91000000D03*
D16*
X140875000Y-83380000D03*
%TD*%
D24*
%TO.C,C4*%
X145225000Y-115050000D03*
X140225000Y-115050000D03*
%TD*%
%TO.C,C5*%
X79425000Y-113725000D03*
X79425000Y-118725000D03*
%TD*%
%TO.C,C3*%
X82550000Y-113725000D03*
X82550000Y-118725000D03*
%TD*%
M02*
