%TF.GenerationSoftware,KiCad,Pcbnew,(6.0.4-0)*%
%TF.CreationDate,2023-02-13T16:26:13-08:00*%
%TF.ProjectId,v2a-power-board-4,7632612d-706f-4776-9572-2d626f617264,rev?*%
%TF.SameCoordinates,Original*%
%TF.FileFunction,Copper,L2,Inr*%
%TF.FilePolarity,Positive*%
%FSLAX46Y46*%
G04 Gerber Fmt 4.6, Leading zero omitted, Abs format (unit mm)*
G04 Created by KiCad (PCBNEW (6.0.4-0)) date 2023-02-13 16:26:13*
%MOMM*%
%LPD*%
G01*
G04 APERTURE LIST*
G04 Aperture macros list*
%AMRoundRect*
0 Rectangle with rounded corners*
0 $1 Rounding radius*
0 $2 $3 $4 $5 $6 $7 $8 $9 X,Y pos of 4 corners*
0 Add a 4 corners polygon primitive as box body*
4,1,4,$2,$3,$4,$5,$6,$7,$8,$9,$2,$3,0*
0 Add four circle primitives for the rounded corners*
1,1,$1+$1,$2,$3*
1,1,$1+$1,$4,$5*
1,1,$1+$1,$6,$7*
1,1,$1+$1,$8,$9*
0 Add four rect primitives between the rounded corners*
20,1,$1+$1,$2,$3,$4,$5,0*
20,1,$1+$1,$4,$5,$6,$7,0*
20,1,$1+$1,$6,$7,$8,$9,0*
20,1,$1+$1,$8,$9,$2,$3,0*%
G04 Aperture macros list end*
%TA.AperFunction,ComponentPad*%
%ADD10RoundRect,0.250000X-0.350000X-0.625000X0.350000X-0.625000X0.350000X0.625000X-0.350000X0.625000X0*%
%TD*%
%TA.AperFunction,ComponentPad*%
%ADD11O,1.200000X1.750000*%
%TD*%
%TA.AperFunction,ComponentPad*%
%ADD12O,1.000000X2.000000*%
%TD*%
%TA.AperFunction,ComponentPad*%
%ADD13O,0.900000X1.800000*%
%TD*%
%TA.AperFunction,ComponentPad*%
%ADD14R,1.700000X1.700000*%
%TD*%
%TA.AperFunction,ComponentPad*%
%ADD15O,1.700000X1.700000*%
%TD*%
%TA.AperFunction,ComponentPad*%
%ADD16R,1.600000X1.600000*%
%TD*%
%TA.AperFunction,ComponentPad*%
%ADD17O,1.600000X1.600000*%
%TD*%
%TA.AperFunction,ComponentPad*%
%ADD18C,2.900000*%
%TD*%
%TA.AperFunction,ComponentPad*%
%ADD19C,1.860000*%
%TD*%
%TA.AperFunction,ComponentPad*%
%ADD20C,3.048000*%
%TD*%
%TA.AperFunction,ComponentPad*%
%ADD21RoundRect,0.250000X0.625000X-0.350000X0.625000X0.350000X-0.625000X0.350000X-0.625000X-0.350000X0*%
%TD*%
%TA.AperFunction,ComponentPad*%
%ADD22O,1.750000X1.200000*%
%TD*%
%TA.AperFunction,ComponentPad*%
%ADD23C,9.000000*%
%TD*%
%TA.AperFunction,ComponentPad*%
%ADD24C,1.600000*%
%TD*%
%TA.AperFunction,ViaPad*%
%ADD25C,0.800000*%
%TD*%
%TA.AperFunction,ViaPad*%
%ADD26C,0.400000*%
%TD*%
%TA.AperFunction,Conductor*%
%ADD27C,2.540000*%
%TD*%
%TA.AperFunction,Conductor*%
%ADD28C,0.508000*%
%TD*%
G04 APERTURE END LIST*
D10*
%TO.N,Net-(D2-Pad1)*%
%TO.C,D2*%
X121650000Y-123850000D03*
D11*
%TO.N,Teensy_Power*%
X123650000Y-123850000D03*
%TD*%
D12*
%TO.N,usb_shield*%
%TO.C,J1*%
X77105000Y-128792500D03*
X88345000Y-128792500D03*
D13*
X77105000Y-124792500D03*
X88345000Y-124792500D03*
%TD*%
D14*
%TO.N,usb_shield*%
%TO.C,JP2*%
X91375000Y-126475000D03*
D15*
%TO.N,RPi_Gnd*%
X91375000Y-123935000D03*
%TD*%
D12*
%TO.N,usb_shield*%
%TO.C,J2*%
X94405000Y-128792500D03*
X105645000Y-128792500D03*
D13*
X94405000Y-124792500D03*
X105645000Y-124792500D03*
%TD*%
D14*
%TO.N,ac_chassis*%
%TO.C,JP1*%
X145675000Y-80125000D03*
D15*
%TO.N,RPi_Gnd*%
X145675000Y-82665000D03*
%TD*%
D16*
%TO.N,Teensy_Power*%
%TO.C,D3*%
X89375000Y-116906815D03*
D17*
%TO.N,RPi_Gnd*%
X89375000Y-114366815D03*
%TD*%
D18*
%TO.N,Net-(F2-Pad1)*%
%TO.C,F2*%
X113620000Y-116167500D03*
%TO.N,Net-(F2-Pad2)*%
X123780000Y-116167500D03*
%TD*%
D19*
%TO.N,ac_pos*%
%TO.C,PS2*%
X134975000Y-62300000D03*
%TO.N,ac_neg*%
X114175000Y-62300000D03*
%TO.N,RPi_Gnd*%
X114175000Y-107300000D03*
%TO.N,Net-(F2-Pad1)*%
X122175000Y-107300000D03*
%TD*%
D10*
%TO.N,Teensy_Power*%
%TO.C,SW1*%
X113125000Y-123850000D03*
D11*
%TO.N,Net-(F1-Pad2)*%
X115125000Y-123850000D03*
%TD*%
D20*
%TO.N,ac_neg*%
%TO.C,PJ1*%
X89925000Y-40925000D03*
%TO.N,Net-(F3-Pad1)*%
X96275000Y-40925000D03*
%TO.N,ac_chassis*%
X102625000Y-40925000D03*
%TD*%
D21*
%TO.N,RPi_Power*%
%TO.C,SW2*%
X140950000Y-98125000D03*
D22*
%TO.N,Net-(F2-Pad2)*%
X140950000Y-96125000D03*
%TD*%
D14*
%TO.N,unconnected-(J3-Pad1)*%
%TO.C,J3*%
X144300000Y-126250000D03*
D15*
%TO.N,RPi_Power*%
X144300000Y-128790000D03*
%TO.N,/rpi_sda*%
X141760000Y-126250000D03*
%TO.N,RPi_Power*%
X141760000Y-128790000D03*
%TO.N,/rpi_scl*%
X139220000Y-126250000D03*
%TO.N,RPi_Gnd*%
X139220000Y-128790000D03*
%TO.N,unconnected-(J3-Pad7)*%
X136680000Y-126250000D03*
%TO.N,unconnected-(J3-Pad8)*%
X136680000Y-128790000D03*
%TO.N,RPi_Gnd*%
X134140000Y-126250000D03*
%TO.N,unconnected-(J3-Pad10)*%
X134140000Y-128790000D03*
%TD*%
D23*
%TO.N,ac_chassis*%
%TO.C,H1*%
X156350005Y-41799993D03*
%TD*%
D21*
%TO.N,Net-(D1-Pad1)*%
%TO.C,D1*%
X140950000Y-106175000D03*
D22*
%TO.N,RPi_Power*%
X140950000Y-104175000D03*
%TD*%
D19*
%TO.N,ac_pos*%
%TO.C,PS1*%
X102025000Y-62300000D03*
%TO.N,ac_neg*%
X81225000Y-62300000D03*
%TO.N,RPi_Gnd*%
X81225000Y-107300000D03*
%TO.N,Net-(F1-Pad1)*%
X89225000Y-107300000D03*
%TD*%
D18*
%TO.N,Net-(F1-Pad1)*%
%TO.C,F1*%
X97395000Y-115150000D03*
%TO.N,Net-(F1-Pad2)*%
X107555000Y-115150000D03*
%TD*%
D16*
%TO.N,RPi_Power*%
%TO.C,D4*%
X142610686Y-121400000D03*
D17*
%TO.N,RPi_Gnd*%
X145150686Y-121400000D03*
%TD*%
D18*
%TO.N,Net-(F3-Pad1)*%
%TO.C,F3*%
X91995000Y-49800000D03*
%TO.N,ac_pos*%
X102155000Y-49800000D03*
%TD*%
D24*
%TO.N,RPi_Gnd*%
%TO.C,C1*%
X85675000Y-113700000D03*
%TO.N,Teensy_Power*%
X85675000Y-118700000D03*
%TD*%
%TO.N,Net-(D2-Pad1)*%
%TO.C,R2*%
X129425000Y-121765000D03*
D17*
%TO.N,RPi_Gnd*%
X129425000Y-129385000D03*
%TD*%
D24*
%TO.N,RPi_Gnd*%
%TO.C,C6*%
X145225000Y-111925000D03*
%TO.N,RPi_Power*%
X140225000Y-111925000D03*
%TD*%
%TO.N,RPi_Gnd*%
%TO.C,C2*%
X145225000Y-118175000D03*
%TO.N,RPi_Power*%
X140225000Y-118175000D03*
%TD*%
%TO.N,Net-(D1-Pad1)*%
%TO.C,R1*%
X140875000Y-91000000D03*
D17*
%TO.N,RPi_Gnd*%
X140875000Y-83380000D03*
%TD*%
D24*
%TO.N,RPi_Gnd*%
%TO.C,C4*%
X145225000Y-115050000D03*
%TO.N,RPi_Power*%
X140225000Y-115050000D03*
%TD*%
%TO.N,RPi_Gnd*%
%TO.C,C5*%
X79425000Y-113725000D03*
%TO.N,Teensy_Power*%
X79425000Y-118725000D03*
%TD*%
%TO.N,RPi_Gnd*%
%TO.C,C3*%
X82550000Y-113725000D03*
%TO.N,Teensy_Power*%
X82550000Y-118725000D03*
%TD*%
D25*
%TO.N,Teensy_Power*%
X96450000Y-122275000D03*
X85875000Y-122249980D03*
X79725000Y-122250000D03*
X103100000Y-122275000D03*
D26*
%TO.N,/rpi_sda*%
X83975000Y-122600000D03*
X98250000Y-119050000D03*
X101275000Y-122475000D03*
X101275000Y-119050000D03*
X98275000Y-122475000D03*
X83950000Y-120375000D03*
%TO.N,RPi_Gnd*%
X84475000Y-122100000D03*
D25*
X87100000Y-123325000D03*
D26*
X99775000Y-121800000D03*
D25*
X104350000Y-123275000D03*
X78175002Y-123174989D03*
D26*
X98775000Y-121800000D03*
D25*
X95725000Y-123400000D03*
D26*
X101775000Y-121800000D03*
X100775000Y-121800000D03*
X83475000Y-122100000D03*
X82475000Y-122100000D03*
X81475000Y-122100000D03*
%TD*%
D27*
%TO.N,Net-(F3-Pad1)*%
X96275000Y-45520000D02*
X91995000Y-49800000D01*
X96275000Y-40925000D02*
X96275000Y-45520000D01*
D28*
%TO.N,RPi_Gnd*%
X137685000Y-130325000D02*
X132750000Y-130325000D01*
X139220000Y-128790000D02*
X137685000Y-130325000D01*
X132750000Y-130325000D02*
X132025000Y-129600000D01*
X132025000Y-129600000D02*
X132025000Y-128750000D01*
%TD*%
%TA.AperFunction,Conductor*%
%TO.N,ac_pos*%
G36*
X100911842Y-48095002D02*
G01*
X100958335Y-48148658D01*
X100969170Y-48212768D01*
X100966157Y-48244883D01*
X100974180Y-48259970D01*
X102142188Y-49427978D01*
X102156132Y-49435592D01*
X102157965Y-49435461D01*
X102164580Y-49431210D01*
X103335479Y-48260311D01*
X103343093Y-48246367D01*
X103340981Y-48216833D01*
X103356072Y-48147459D01*
X103406274Y-48097257D01*
X103480767Y-48082636D01*
X103568456Y-48092516D01*
X103595963Y-48098794D01*
X103730216Y-48145772D01*
X103755635Y-48158013D01*
X103876082Y-48233694D01*
X103898142Y-48251287D01*
X103998713Y-48351858D01*
X104016306Y-48373918D01*
X104091987Y-48494365D01*
X104104228Y-48519784D01*
X104136704Y-48612593D01*
X104151205Y-48654035D01*
X104157484Y-48681543D01*
X104174208Y-48829971D01*
X104175000Y-48844079D01*
X104175000Y-48921292D01*
X104154998Y-48989413D01*
X104101342Y-49035906D01*
X104031068Y-49046010D01*
X103966488Y-49016516D01*
X103938112Y-48981124D01*
X103814533Y-48752093D01*
X103809771Y-48744588D01*
X103718512Y-48621033D01*
X103707387Y-48612593D01*
X103694791Y-48619419D01*
X102527022Y-49787188D01*
X102519408Y-49801132D01*
X102519539Y-49802965D01*
X102523790Y-49809580D01*
X103696007Y-50981797D01*
X103709407Y-50989114D01*
X103719311Y-50982127D01*
X103740237Y-50957233D01*
X103745457Y-50950047D01*
X103887480Y-50722321D01*
X103891632Y-50714481D01*
X103933759Y-50619190D01*
X103979597Y-50564974D01*
X104047470Y-50544146D01*
X104115829Y-50563320D01*
X104162970Y-50616407D01*
X104175000Y-50670137D01*
X104175000Y-57800000D01*
X137305921Y-57800000D01*
X137320029Y-57800792D01*
X137468457Y-57817516D01*
X137495963Y-57823794D01*
X137630216Y-57870772D01*
X137655635Y-57883013D01*
X137776082Y-57958694D01*
X137798142Y-57976287D01*
X137898713Y-58076858D01*
X137916306Y-58098918D01*
X137991987Y-58219365D01*
X138004228Y-58244784D01*
X138051205Y-58379035D01*
X138057484Y-58406543D01*
X138074208Y-58554971D01*
X138075000Y-58569079D01*
X138075000Y-63605921D01*
X138074208Y-63620029D01*
X138057484Y-63768457D01*
X138051205Y-63795965D01*
X138004228Y-63930216D01*
X137991987Y-63955635D01*
X137916306Y-64076082D01*
X137898713Y-64098142D01*
X137798142Y-64198713D01*
X137776082Y-64216306D01*
X137655635Y-64291987D01*
X137630216Y-64304228D01*
X137495963Y-64351206D01*
X137468457Y-64357484D01*
X137320029Y-64374208D01*
X137305921Y-64375000D01*
X100694079Y-64375000D01*
X100679971Y-64374208D01*
X100531543Y-64357484D01*
X100504037Y-64351206D01*
X100369784Y-64304228D01*
X100344365Y-64291987D01*
X100223918Y-64216306D01*
X100201858Y-64198713D01*
X100101287Y-64098142D01*
X100083694Y-64076082D01*
X100008013Y-63955635D01*
X99995772Y-63930216D01*
X99948795Y-63795965D01*
X99942516Y-63768457D01*
X99925792Y-63620029D01*
X99925000Y-63605921D01*
X99925000Y-63483339D01*
X101206491Y-63483339D01*
X101211772Y-63490393D01*
X101397070Y-63598672D01*
X101406357Y-63603122D01*
X101617605Y-63683790D01*
X101627503Y-63686666D01*
X101849091Y-63731748D01*
X101859319Y-63732967D01*
X102085292Y-63741254D01*
X102095578Y-63740787D01*
X102319871Y-63712054D01*
X102329956Y-63709911D01*
X102546540Y-63644932D01*
X102556135Y-63641172D01*
X102759202Y-63541690D01*
X102768047Y-63536417D01*
X102831605Y-63491081D01*
X102840006Y-63480381D01*
X102833018Y-63467228D01*
X102037812Y-62672022D01*
X102023868Y-62664408D01*
X102022035Y-62664539D01*
X102015420Y-62668790D01*
X101213251Y-63470959D01*
X101206491Y-63483339D01*
X99925000Y-63483339D01*
X99925000Y-62269902D01*
X100582800Y-62269902D01*
X100595816Y-62495649D01*
X100597252Y-62505869D01*
X100646964Y-62726451D01*
X100650043Y-62736280D01*
X100735119Y-62945797D01*
X100739762Y-62954988D01*
X100833281Y-63107599D01*
X100843737Y-63117059D01*
X100852515Y-63113275D01*
X101652978Y-62312812D01*
X101659356Y-62301132D01*
X102389408Y-62301132D01*
X102389539Y-62302965D01*
X102393790Y-62309580D01*
X103192799Y-63108589D01*
X103204809Y-63115147D01*
X103216549Y-63106179D01*
X103258813Y-63047364D01*
X103264122Y-63038527D01*
X103364307Y-62835819D01*
X103368105Y-62826226D01*
X103433839Y-62609870D01*
X103436016Y-62599800D01*
X103465768Y-62373809D01*
X103466287Y-62367134D01*
X103467846Y-62303364D01*
X103467652Y-62296646D01*
X103465028Y-62264734D01*
X112732001Y-62264734D01*
X112732298Y-62269887D01*
X112732298Y-62269890D01*
X112734773Y-62312812D01*
X112745617Y-62500887D01*
X112746754Y-62505933D01*
X112746755Y-62505939D01*
X112767908Y-62599800D01*
X112797621Y-62731644D01*
X112799563Y-62736426D01*
X112799564Y-62736430D01*
X112836102Y-62826411D01*
X112886615Y-62950810D01*
X112889314Y-62955214D01*
X112983302Y-63108589D01*
X113010209Y-63152498D01*
X113165085Y-63331291D01*
X113347083Y-63482389D01*
X113551314Y-63601732D01*
X113772296Y-63686117D01*
X113777362Y-63687148D01*
X113777363Y-63687148D01*
X113880561Y-63708143D01*
X114004092Y-63733276D01*
X114137344Y-63738162D01*
X114235314Y-63741755D01*
X114235318Y-63741755D01*
X114240478Y-63741944D01*
X114245598Y-63741288D01*
X114245600Y-63741288D01*
X114469979Y-63712545D01*
X114469982Y-63712544D01*
X114475106Y-63711888D01*
X114481696Y-63709911D01*
X114696728Y-63645398D01*
X114696729Y-63645397D01*
X114701674Y-63643914D01*
X114914098Y-63539848D01*
X114918301Y-63536850D01*
X114918306Y-63536847D01*
X114993322Y-63483339D01*
X134156491Y-63483339D01*
X134161772Y-63490393D01*
X134347070Y-63598672D01*
X134356357Y-63603122D01*
X134567605Y-63683790D01*
X134577503Y-63686666D01*
X134799091Y-63731748D01*
X134809319Y-63732967D01*
X135035292Y-63741254D01*
X135045578Y-63740787D01*
X135269871Y-63712054D01*
X135279956Y-63709911D01*
X135496540Y-63644932D01*
X135506135Y-63641172D01*
X135709202Y-63541690D01*
X135718047Y-63536417D01*
X135781605Y-63491081D01*
X135790006Y-63480381D01*
X135783018Y-63467228D01*
X134987812Y-62672022D01*
X134973868Y-62664408D01*
X134972035Y-62664539D01*
X134965420Y-62668790D01*
X134163251Y-63470959D01*
X134156491Y-63483339D01*
X114993322Y-63483339D01*
X115102469Y-63405485D01*
X115102471Y-63405483D01*
X115106673Y-63402486D01*
X115274227Y-63235516D01*
X115412261Y-63043421D01*
X115455968Y-62954988D01*
X115514773Y-62836004D01*
X115514774Y-62836002D01*
X115517067Y-62831362D01*
X115585831Y-62605033D01*
X115616707Y-62370511D01*
X115618430Y-62300000D01*
X115615956Y-62269902D01*
X133532800Y-62269902D01*
X133545816Y-62495649D01*
X133547252Y-62505869D01*
X133596964Y-62726451D01*
X133600043Y-62736280D01*
X133685119Y-62945797D01*
X133689762Y-62954988D01*
X133783281Y-63107599D01*
X133793737Y-63117059D01*
X133802515Y-63113275D01*
X134602978Y-62312812D01*
X134609356Y-62301132D01*
X135339408Y-62301132D01*
X135339539Y-62302965D01*
X135343790Y-62309580D01*
X136142799Y-63108589D01*
X136154809Y-63115147D01*
X136166549Y-63106179D01*
X136208813Y-63047364D01*
X136214122Y-63038527D01*
X136314307Y-62835819D01*
X136318105Y-62826226D01*
X136383839Y-62609870D01*
X136386016Y-62599800D01*
X136415768Y-62373809D01*
X136416287Y-62367134D01*
X136417846Y-62303364D01*
X136417652Y-62296646D01*
X136398977Y-62069493D01*
X136397292Y-62059313D01*
X136342207Y-61840012D01*
X136338882Y-61830246D01*
X136248722Y-61622893D01*
X136243844Y-61613795D01*
X136165920Y-61493342D01*
X136155234Y-61484139D01*
X136145667Y-61488543D01*
X135347022Y-62287188D01*
X135339408Y-62301132D01*
X134609356Y-62301132D01*
X134610592Y-62298868D01*
X134610461Y-62297035D01*
X134606210Y-62290420D01*
X133807277Y-61491487D01*
X133795741Y-61485187D01*
X133783458Y-61494810D01*
X133723293Y-61583008D01*
X133718205Y-61591964D01*
X133623001Y-61797065D01*
X133619438Y-61806752D01*
X133559012Y-62024639D01*
X133557081Y-62034758D01*
X133533052Y-62259613D01*
X133532800Y-62269902D01*
X115615956Y-62269902D01*
X115599048Y-62064250D01*
X115541422Y-61834832D01*
X115486124Y-61707656D01*
X115449160Y-61622643D01*
X115449158Y-61622640D01*
X115447100Y-61617906D01*
X115318615Y-61419298D01*
X115290030Y-61387883D01*
X115162895Y-61248164D01*
X115162893Y-61248163D01*
X115159417Y-61244342D01*
X115155366Y-61241143D01*
X115155362Y-61241139D01*
X115001067Y-61119284D01*
X134159080Y-61119284D01*
X134165824Y-61131614D01*
X134962188Y-61927978D01*
X134976132Y-61935592D01*
X134977965Y-61935461D01*
X134984580Y-61931210D01*
X135785350Y-61130440D01*
X135792370Y-61117584D01*
X135784595Y-61106914D01*
X135777563Y-61101360D01*
X135768977Y-61095656D01*
X135571023Y-60986379D01*
X135561611Y-60982149D01*
X135348465Y-60906669D01*
X135338494Y-60904035D01*
X135115881Y-60864382D01*
X135105628Y-60863413D01*
X134879515Y-60860650D01*
X134869232Y-60861370D01*
X134645713Y-60895572D01*
X134635694Y-60897959D01*
X134420756Y-60968212D01*
X134411254Y-60972207D01*
X134210684Y-61076617D01*
X134201966Y-61082106D01*
X134167533Y-61107959D01*
X134159080Y-61119284D01*
X115001067Y-61119284D01*
X114977836Y-61100937D01*
X114977831Y-61100933D01*
X114973782Y-61097736D01*
X114969266Y-61095243D01*
X114969263Y-61095241D01*
X114771219Y-60985915D01*
X114771215Y-60985913D01*
X114766695Y-60983418D01*
X114761826Y-60981694D01*
X114761822Y-60981692D01*
X114548593Y-60906184D01*
X114548589Y-60906183D01*
X114543718Y-60904458D01*
X114538625Y-60903551D01*
X114538622Y-60903550D01*
X114315928Y-60863882D01*
X114315922Y-60863881D01*
X114310839Y-60862976D01*
X114219887Y-60861865D01*
X114079480Y-60860149D01*
X114079478Y-60860149D01*
X114074311Y-60860086D01*
X113840488Y-60895866D01*
X113615648Y-60969355D01*
X113611060Y-60971743D01*
X113611056Y-60971745D01*
X113410419Y-61076190D01*
X113405830Y-61078579D01*
X113401697Y-61081682D01*
X113401694Y-61081684D01*
X113351616Y-61119284D01*
X113216669Y-61220606D01*
X113053244Y-61391620D01*
X112919945Y-61587029D01*
X112917769Y-61591718D01*
X112917765Y-61591724D01*
X112903297Y-61622893D01*
X112820351Y-61801586D01*
X112757137Y-62029528D01*
X112732001Y-62264734D01*
X103465028Y-62264734D01*
X103448977Y-62069493D01*
X103447292Y-62059313D01*
X103392207Y-61840012D01*
X103388882Y-61830246D01*
X103298722Y-61622893D01*
X103293844Y-61613795D01*
X103215920Y-61493342D01*
X103205234Y-61484139D01*
X103195667Y-61488543D01*
X102397022Y-62287188D01*
X102389408Y-62301132D01*
X101659356Y-62301132D01*
X101660592Y-62298868D01*
X101660461Y-62297035D01*
X101656210Y-62290420D01*
X100857277Y-61491487D01*
X100845741Y-61485187D01*
X100833458Y-61494810D01*
X100773293Y-61583008D01*
X100768205Y-61591964D01*
X100673001Y-61797065D01*
X100669438Y-61806752D01*
X100609012Y-62024639D01*
X100607081Y-62034758D01*
X100583052Y-62259613D01*
X100582800Y-62269902D01*
X99925000Y-62269902D01*
X99925000Y-61119284D01*
X101209080Y-61119284D01*
X101215824Y-61131614D01*
X102012188Y-61927978D01*
X102026132Y-61935592D01*
X102027965Y-61935461D01*
X102034580Y-61931210D01*
X102835350Y-61130440D01*
X102842370Y-61117584D01*
X102834595Y-61106914D01*
X102827563Y-61101360D01*
X102818977Y-61095656D01*
X102621023Y-60986379D01*
X102611611Y-60982149D01*
X102398465Y-60906669D01*
X102388494Y-60904035D01*
X102165881Y-60864382D01*
X102155628Y-60863413D01*
X101929515Y-60860650D01*
X101919232Y-60861370D01*
X101695713Y-60895572D01*
X101685694Y-60897959D01*
X101470756Y-60968212D01*
X101461254Y-60972207D01*
X101260684Y-61076617D01*
X101251966Y-61082106D01*
X101217533Y-61107959D01*
X101209080Y-61119284D01*
X99925000Y-61119284D01*
X99925000Y-51353348D01*
X100966819Y-51353348D01*
X100974209Y-51363650D01*
X101022808Y-51403217D01*
X101030084Y-51408330D01*
X101259999Y-51546750D01*
X101267913Y-51550783D01*
X101515048Y-51655431D01*
X101523453Y-51658308D01*
X101782873Y-51727093D01*
X101791585Y-51728755D01*
X102058114Y-51760300D01*
X102066979Y-51760718D01*
X102335278Y-51754395D01*
X102344133Y-51753558D01*
X102608864Y-51709495D01*
X102617498Y-51707422D01*
X102873383Y-51626496D01*
X102881644Y-51623225D01*
X103123567Y-51507055D01*
X103131292Y-51502649D01*
X103336318Y-51365656D01*
X103344606Y-51355738D01*
X103337350Y-51341560D01*
X102167812Y-50172022D01*
X102153868Y-50164408D01*
X102152035Y-50164539D01*
X102145420Y-50168790D01*
X100973985Y-51340225D01*
X100966819Y-51353348D01*
X99925000Y-51353348D01*
X99925000Y-49742793D01*
X100193142Y-49742793D01*
X100203678Y-50010960D01*
X100204653Y-50019789D01*
X100252869Y-50283799D01*
X100255078Y-50292401D01*
X100340012Y-50546979D01*
X100343416Y-50555196D01*
X100463374Y-50795270D01*
X100467893Y-50802910D01*
X100590408Y-50980176D01*
X100600730Y-50988531D01*
X100614383Y-50981407D01*
X101782978Y-49812812D01*
X101790592Y-49798868D01*
X101790461Y-49797035D01*
X101786210Y-49790420D01*
X100615215Y-48619425D01*
X100602374Y-48612413D01*
X100591685Y-48620208D01*
X100534194Y-48693134D01*
X100529203Y-48700478D01*
X100394404Y-48932552D01*
X100390500Y-48940522D01*
X100289745Y-49189273D01*
X100287001Y-49197717D01*
X100222301Y-49458182D01*
X100220774Y-49466933D01*
X100193421Y-49733909D01*
X100193142Y-49742793D01*
X99925000Y-49742793D01*
X99925000Y-48844079D01*
X99925792Y-48829971D01*
X99942516Y-48681543D01*
X99948795Y-48654035D01*
X99963297Y-48612593D01*
X99995772Y-48519784D01*
X100008013Y-48494365D01*
X100083694Y-48373918D01*
X100101287Y-48351858D01*
X100201858Y-48251287D01*
X100223918Y-48233694D01*
X100344365Y-48158013D01*
X100369784Y-48145772D01*
X100504037Y-48098794D01*
X100531543Y-48092516D01*
X100679971Y-48075792D01*
X100694079Y-48075000D01*
X100843721Y-48075000D01*
X100911842Y-48095002D01*
G37*
%TD.AperFunction*%
%TD*%
%TA.AperFunction,Conductor*%
%TO.N,RPi_Gnd*%
G36*
X144501312Y-81195002D02*
G01*
X144522208Y-81211826D01*
X144543298Y-81232879D01*
X144600399Y-81289880D01*
X144714503Y-81345655D01*
X144747284Y-81350437D01*
X144784316Y-81355840D01*
X144784320Y-81355840D01*
X144788842Y-81356500D01*
X144789272Y-81356500D01*
X144854769Y-81381007D01*
X144897257Y-81437887D01*
X144902249Y-81508708D01*
X144868159Y-81570985D01*
X144854809Y-81582557D01*
X144774433Y-81642905D01*
X144766726Y-81649748D01*
X144619590Y-81803717D01*
X144613104Y-81811727D01*
X144493098Y-81987649D01*
X144488000Y-81996623D01*
X144398338Y-82189783D01*
X144394775Y-82199470D01*
X144339389Y-82399183D01*
X144340912Y-82407607D01*
X144353292Y-82411000D01*
X146993344Y-82411000D01*
X147006875Y-82407027D01*
X147008180Y-82397947D01*
X146966214Y-82230875D01*
X146962894Y-82221124D01*
X146877972Y-82025814D01*
X146873105Y-82016739D01*
X146757426Y-81837926D01*
X146751136Y-81829757D01*
X146607806Y-81672240D01*
X146600273Y-81665216D01*
X146493183Y-81580642D01*
X146452120Y-81522726D01*
X146448888Y-81451803D01*
X146484513Y-81390391D01*
X146547684Y-81357988D01*
X146559005Y-81356500D01*
X146561158Y-81356500D01*
X146565703Y-81355831D01*
X146626459Y-81346888D01*
X146626461Y-81346887D01*
X146636144Y-81345462D01*
X146644933Y-81341147D01*
X146740803Y-81294077D01*
X146740804Y-81294076D01*
X146750151Y-81289487D01*
X146827520Y-81211982D01*
X146889803Y-81177903D01*
X146916694Y-81175000D01*
X147349000Y-81175000D01*
X147417121Y-81195002D01*
X147463614Y-81248658D01*
X147475000Y-81301000D01*
X147475000Y-129924000D01*
X147454998Y-129992121D01*
X147401342Y-130038614D01*
X147349000Y-130050000D01*
X145047209Y-130050000D01*
X144979088Y-130029998D01*
X144932595Y-129976342D01*
X144922491Y-129906068D01*
X144951985Y-129841488D01*
X144974938Y-129820787D01*
X145090106Y-129740146D01*
X145090109Y-129740144D01*
X145094617Y-129736987D01*
X145246987Y-129584617D01*
X145309024Y-129496020D01*
X145367427Y-129412611D01*
X145367428Y-129412609D01*
X145370584Y-129408102D01*
X145372907Y-129403120D01*
X145372910Y-129403115D01*
X145459329Y-129217789D01*
X145459330Y-129217787D01*
X145461652Y-129212807D01*
X145484637Y-129127027D01*
X145515999Y-129009980D01*
X145515999Y-129009978D01*
X145517423Y-129004665D01*
X145536204Y-128790000D01*
X145517423Y-128575335D01*
X145465910Y-128383084D01*
X145463075Y-128372503D01*
X145463074Y-128372501D01*
X145461652Y-128367193D01*
X145455805Y-128354654D01*
X145372910Y-128176885D01*
X145372907Y-128176880D01*
X145370584Y-128171898D01*
X145355086Y-128149764D01*
X145250146Y-127999894D01*
X145250144Y-127999891D01*
X145246987Y-127995383D01*
X145094617Y-127843013D01*
X145090109Y-127839856D01*
X145090106Y-127839854D01*
X144970925Y-127756403D01*
X144918102Y-127719416D01*
X144913118Y-127717092D01*
X144912299Y-127716619D01*
X144863306Y-127665236D01*
X144849870Y-127595523D01*
X144876256Y-127529612D01*
X144934089Y-127488430D01*
X144975299Y-127481500D01*
X145186158Y-127481500D01*
X145190706Y-127480830D01*
X145190713Y-127480830D01*
X145251459Y-127471888D01*
X145251461Y-127471887D01*
X145261144Y-127470462D01*
X145300702Y-127451040D01*
X145365803Y-127419077D01*
X145365804Y-127419076D01*
X145375151Y-127414487D01*
X145453990Y-127335510D01*
X145457522Y-127331972D01*
X145464880Y-127324601D01*
X145520655Y-127210497D01*
X145525437Y-127177716D01*
X145530840Y-127140684D01*
X145530840Y-127140680D01*
X145531500Y-127136158D01*
X145531500Y-125363842D01*
X145527363Y-125335733D01*
X145521888Y-125298541D01*
X145521887Y-125298539D01*
X145520462Y-125288856D01*
X145493896Y-125234748D01*
X145469077Y-125184197D01*
X145469076Y-125184196D01*
X145464487Y-125174849D01*
X145393701Y-125104187D01*
X145381972Y-125092478D01*
X145374601Y-125085120D01*
X145260497Y-125029345D01*
X145227716Y-125024563D01*
X145190684Y-125019160D01*
X145190680Y-125019160D01*
X145186158Y-125018500D01*
X143413842Y-125018500D01*
X143409294Y-125019170D01*
X143409287Y-125019170D01*
X143348541Y-125028112D01*
X143348539Y-125028113D01*
X143338856Y-125029538D01*
X143330068Y-125033853D01*
X143330067Y-125033853D01*
X143234197Y-125080923D01*
X143234196Y-125080924D01*
X143224849Y-125085513D01*
X143135120Y-125175399D01*
X143079345Y-125289503D01*
X143077933Y-125299183D01*
X143069165Y-125359287D01*
X143068500Y-125363842D01*
X143068500Y-125574701D01*
X143048498Y-125642822D01*
X142994842Y-125689315D01*
X142924568Y-125699419D01*
X142859988Y-125669925D01*
X142833381Y-125637701D01*
X142832908Y-125636882D01*
X142830584Y-125631898D01*
X142747930Y-125513856D01*
X142710146Y-125459894D01*
X142710144Y-125459891D01*
X142706987Y-125455383D01*
X142554617Y-125303013D01*
X142550109Y-125299856D01*
X142550106Y-125299854D01*
X142382611Y-125182573D01*
X142382609Y-125182572D01*
X142378102Y-125179416D01*
X142373120Y-125177093D01*
X142373115Y-125177090D01*
X142187789Y-125090671D01*
X142187787Y-125090670D01*
X142182807Y-125088348D01*
X142177499Y-125086926D01*
X142177497Y-125086925D01*
X141979980Y-125034001D01*
X141979978Y-125034001D01*
X141974665Y-125032577D01*
X141760000Y-125013796D01*
X141545335Y-125032577D01*
X141540022Y-125034001D01*
X141540020Y-125034001D01*
X141342503Y-125086925D01*
X141342501Y-125086926D01*
X141337193Y-125088348D01*
X141332213Y-125090670D01*
X141332211Y-125090671D01*
X141146885Y-125177090D01*
X141146880Y-125177093D01*
X141141898Y-125179416D01*
X141137391Y-125182572D01*
X141137389Y-125182573D01*
X140969894Y-125299854D01*
X140969891Y-125299856D01*
X140965383Y-125303013D01*
X140813013Y-125455383D01*
X140809856Y-125459891D01*
X140809854Y-125459894D01*
X140704179Y-125610814D01*
X140689416Y-125631898D01*
X140687093Y-125636880D01*
X140687090Y-125636885D01*
X140604195Y-125814654D01*
X140557277Y-125867939D01*
X140489000Y-125887400D01*
X140421040Y-125866858D01*
X140375805Y-125814654D01*
X140292910Y-125636885D01*
X140292907Y-125636880D01*
X140290584Y-125631898D01*
X140275821Y-125610814D01*
X140170146Y-125459894D01*
X140170144Y-125459891D01*
X140166987Y-125455383D01*
X140014617Y-125303013D01*
X140010109Y-125299856D01*
X140010106Y-125299854D01*
X139842611Y-125182573D01*
X139842609Y-125182572D01*
X139838102Y-125179416D01*
X139833120Y-125177093D01*
X139833115Y-125177090D01*
X139647789Y-125090671D01*
X139647787Y-125090670D01*
X139642807Y-125088348D01*
X139637499Y-125086926D01*
X139637497Y-125086925D01*
X139439980Y-125034001D01*
X139439978Y-125034001D01*
X139434665Y-125032577D01*
X139220000Y-125013796D01*
X139005335Y-125032577D01*
X139000022Y-125034001D01*
X139000020Y-125034001D01*
X138802503Y-125086925D01*
X138802501Y-125086926D01*
X138797193Y-125088348D01*
X138792213Y-125090670D01*
X138792211Y-125090671D01*
X138606885Y-125177090D01*
X138606880Y-125177093D01*
X138601898Y-125179416D01*
X138597391Y-125182572D01*
X138597389Y-125182573D01*
X138429894Y-125299854D01*
X138429891Y-125299856D01*
X138425383Y-125303013D01*
X138273013Y-125455383D01*
X138269856Y-125459891D01*
X138269854Y-125459894D01*
X138164179Y-125610814D01*
X138149416Y-125631898D01*
X138147093Y-125636880D01*
X138147090Y-125636885D01*
X138064195Y-125814654D01*
X138017277Y-125867939D01*
X137949000Y-125887400D01*
X137881040Y-125866858D01*
X137835805Y-125814654D01*
X137752910Y-125636885D01*
X137752907Y-125636880D01*
X137750584Y-125631898D01*
X137735821Y-125610814D01*
X137630146Y-125459894D01*
X137630144Y-125459891D01*
X137626987Y-125455383D01*
X137474617Y-125303013D01*
X137470109Y-125299856D01*
X137470106Y-125299854D01*
X137302611Y-125182573D01*
X137302609Y-125182572D01*
X137298102Y-125179416D01*
X137293120Y-125177093D01*
X137293115Y-125177090D01*
X137107789Y-125090671D01*
X137107787Y-125090670D01*
X137102807Y-125088348D01*
X137097499Y-125086926D01*
X137097497Y-125086925D01*
X136899980Y-125034001D01*
X136899978Y-125034001D01*
X136894665Y-125032577D01*
X136680000Y-125013796D01*
X136465335Y-125032577D01*
X136460022Y-125034001D01*
X136460020Y-125034001D01*
X136262503Y-125086925D01*
X136262501Y-125086926D01*
X136257193Y-125088348D01*
X136252213Y-125090670D01*
X136252211Y-125090671D01*
X136066885Y-125177090D01*
X136066880Y-125177093D01*
X136061898Y-125179416D01*
X136057391Y-125182572D01*
X136057389Y-125182573D01*
X135889894Y-125299854D01*
X135889891Y-125299856D01*
X135885383Y-125303013D01*
X135733013Y-125455383D01*
X135729856Y-125459891D01*
X135729854Y-125459894D01*
X135624179Y-125610814D01*
X135609416Y-125631898D01*
X135607093Y-125636879D01*
X135607087Y-125636890D01*
X135594491Y-125663903D01*
X135547574Y-125717188D01*
X135479296Y-125736648D01*
X135411337Y-125716106D01*
X135364747Y-125660894D01*
X135342972Y-125610814D01*
X135338105Y-125601739D01*
X135222426Y-125422926D01*
X135216136Y-125414757D01*
X135072806Y-125257240D01*
X135065273Y-125250215D01*
X134898139Y-125118222D01*
X134889552Y-125112517D01*
X134703117Y-125009599D01*
X134693705Y-125005369D01*
X134492959Y-124934280D01*
X134482988Y-124931646D01*
X134411837Y-124918972D01*
X134398540Y-124920432D01*
X134394000Y-124934989D01*
X134394000Y-126378000D01*
X134373998Y-126446121D01*
X134320342Y-126492614D01*
X134268000Y-126504000D01*
X132823225Y-126504000D01*
X132809694Y-126507973D01*
X132808257Y-126517966D01*
X132838565Y-126652446D01*
X132841645Y-126662275D01*
X132921770Y-126859603D01*
X132926413Y-126868794D01*
X133037694Y-127050388D01*
X133043777Y-127058699D01*
X133183213Y-127219667D01*
X133190580Y-127226883D01*
X133354434Y-127362916D01*
X133362881Y-127368831D01*
X133546753Y-127476277D01*
X133551283Y-127478448D01*
X133604072Y-127525922D01*
X133622815Y-127594400D01*
X133601560Y-127662140D01*
X133550085Y-127706272D01*
X133526889Y-127717088D01*
X133526886Y-127717090D01*
X133521898Y-127719416D01*
X133517394Y-127722570D01*
X133517389Y-127722573D01*
X133349894Y-127839854D01*
X133349891Y-127839856D01*
X133345383Y-127843013D01*
X133193013Y-127995383D01*
X133189856Y-127999891D01*
X133189854Y-127999894D01*
X133084914Y-128149764D01*
X133069416Y-128171898D01*
X133067093Y-128176880D01*
X133067090Y-128176885D01*
X132984195Y-128354654D01*
X132978348Y-128367193D01*
X132976926Y-128372501D01*
X132976925Y-128372503D01*
X132974090Y-128383084D01*
X132922577Y-128575335D01*
X132903796Y-128790000D01*
X132922577Y-129004665D01*
X132924001Y-129009978D01*
X132924001Y-129009980D01*
X132955364Y-129127027D01*
X132978348Y-129212807D01*
X132980670Y-129217787D01*
X132980671Y-129217789D01*
X133067090Y-129403115D01*
X133067093Y-129403120D01*
X133069416Y-129408102D01*
X133072572Y-129412609D01*
X133072573Y-129412611D01*
X133130977Y-129496020D01*
X133193013Y-129584617D01*
X133345383Y-129736987D01*
X133349891Y-129740144D01*
X133349894Y-129740146D01*
X133465062Y-129820787D01*
X133509390Y-129876244D01*
X133516699Y-129946863D01*
X133484668Y-130010224D01*
X133423467Y-130046209D01*
X133392791Y-130050000D01*
X130755904Y-130050000D01*
X130687783Y-130029998D01*
X130641290Y-129976342D01*
X130631186Y-129906068D01*
X130641710Y-129870749D01*
X130656488Y-129839058D01*
X130660236Y-129828761D01*
X130706394Y-129656497D01*
X130706058Y-129642401D01*
X130698116Y-129639000D01*
X128157033Y-129639000D01*
X128143502Y-129642973D01*
X128142273Y-129651522D01*
X128189764Y-129828761D01*
X128193512Y-129839058D01*
X128208290Y-129870749D01*
X128218952Y-129940941D01*
X128189973Y-130005754D01*
X128130553Y-130044610D01*
X128094096Y-130050000D01*
X108351000Y-130050000D01*
X108282879Y-130029998D01*
X108236386Y-129976342D01*
X108225000Y-129924000D01*
X108225000Y-129113503D01*
X128143606Y-129113503D01*
X128143942Y-129127599D01*
X128151884Y-129131000D01*
X129152885Y-129131000D01*
X129168124Y-129126525D01*
X129169329Y-129125135D01*
X129171000Y-129117452D01*
X129171000Y-129112885D01*
X129679000Y-129112885D01*
X129683475Y-129128124D01*
X129684865Y-129129329D01*
X129692548Y-129131000D01*
X130692967Y-129131000D01*
X130706498Y-129127027D01*
X130707727Y-129118478D01*
X130660236Y-128941239D01*
X130656490Y-128930947D01*
X130564414Y-128733489D01*
X130558931Y-128723993D01*
X130433972Y-128545533D01*
X130426916Y-128537125D01*
X130272875Y-128383084D01*
X130264467Y-128376028D01*
X130086007Y-128251069D01*
X130076511Y-128245586D01*
X129879053Y-128153510D01*
X129868761Y-128149764D01*
X129696497Y-128103606D01*
X129682401Y-128103942D01*
X129679000Y-128111884D01*
X129679000Y-129112885D01*
X129171000Y-129112885D01*
X129171000Y-128117033D01*
X129167027Y-128103502D01*
X129158478Y-128102273D01*
X128981239Y-128149764D01*
X128970947Y-128153510D01*
X128773489Y-128245586D01*
X128763993Y-128251069D01*
X128585533Y-128376028D01*
X128577125Y-128383084D01*
X128423084Y-128537125D01*
X128416028Y-128545533D01*
X128291069Y-128723993D01*
X128285586Y-128733489D01*
X128193510Y-128930947D01*
X128189764Y-128941239D01*
X128143606Y-129113503D01*
X108225000Y-129113503D01*
X108225000Y-125984183D01*
X132804389Y-125984183D01*
X132805912Y-125992607D01*
X132818292Y-125996000D01*
X133867885Y-125996000D01*
X133883124Y-125991525D01*
X133884329Y-125990135D01*
X133886000Y-125982452D01*
X133886000Y-124933102D01*
X133882082Y-124919758D01*
X133867806Y-124917771D01*
X133829324Y-124923660D01*
X133819288Y-124926051D01*
X133616868Y-124992212D01*
X133607359Y-124996209D01*
X133418463Y-125094542D01*
X133409738Y-125100036D01*
X133239433Y-125227905D01*
X133231726Y-125234748D01*
X133084590Y-125388717D01*
X133078104Y-125396727D01*
X132958098Y-125572649D01*
X132953000Y-125581623D01*
X132863338Y-125774783D01*
X132859775Y-125784470D01*
X132804389Y-125984183D01*
X108225000Y-125984183D01*
X108225000Y-124538770D01*
X112143500Y-124538770D01*
X112146318Y-124574574D01*
X112148111Y-124580746D01*
X112148112Y-124580751D01*
X112172233Y-124663774D01*
X112190832Y-124727792D01*
X112272051Y-124865127D01*
X112384873Y-124977949D01*
X112391693Y-124981983D01*
X112391694Y-124981983D01*
X112501410Y-125046868D01*
X112522208Y-125059168D01*
X112529819Y-125061379D01*
X112529821Y-125061380D01*
X112669249Y-125101888D01*
X112669254Y-125101889D01*
X112675426Y-125103682D01*
X112681831Y-125104186D01*
X112681836Y-125104187D01*
X112708774Y-125106307D01*
X112708782Y-125106307D01*
X112711230Y-125106500D01*
X113538770Y-125106500D01*
X113541218Y-125106307D01*
X113541226Y-125106307D01*
X113568164Y-125104187D01*
X113568169Y-125104186D01*
X113574574Y-125103682D01*
X113580746Y-125101889D01*
X113580751Y-125101888D01*
X113720179Y-125061380D01*
X113720181Y-125061379D01*
X113727792Y-125059168D01*
X113748590Y-125046868D01*
X113858306Y-124981983D01*
X113858307Y-124981983D01*
X113865127Y-124977949D01*
X113977949Y-124865127D01*
X114059168Y-124727792D01*
X114070233Y-124689706D01*
X114108447Y-124629871D01*
X114172943Y-124600194D01*
X114243246Y-124610098D01*
X114297033Y-124656438D01*
X114301431Y-124663773D01*
X114314885Y-124688044D01*
X114444648Y-124839440D01*
X114449689Y-124843351D01*
X114449692Y-124843353D01*
X114548193Y-124919758D01*
X114602202Y-124961652D01*
X114607935Y-124964473D01*
X114719094Y-125019170D01*
X114781112Y-125049687D01*
X114826002Y-125061380D01*
X114967888Y-125098339D01*
X114967891Y-125098339D01*
X114974070Y-125099949D01*
X115059377Y-125104419D01*
X115166812Y-125110050D01*
X115166816Y-125110050D01*
X115173193Y-125110384D01*
X115370348Y-125080567D01*
X115557480Y-125011716D01*
X115726946Y-124906643D01*
X115793874Y-124843353D01*
X115867189Y-124774022D01*
X115871823Y-124769640D01*
X115986192Y-124606304D01*
X116015417Y-124538770D01*
X120668500Y-124538770D01*
X120671318Y-124574574D01*
X120673111Y-124580746D01*
X120673112Y-124580751D01*
X120697233Y-124663774D01*
X120715832Y-124727792D01*
X120797051Y-124865127D01*
X120909873Y-124977949D01*
X120916693Y-124981983D01*
X120916694Y-124981983D01*
X121026410Y-125046868D01*
X121047208Y-125059168D01*
X121054819Y-125061379D01*
X121054821Y-125061380D01*
X121194249Y-125101888D01*
X121194254Y-125101889D01*
X121200426Y-125103682D01*
X121206831Y-125104186D01*
X121206836Y-125104187D01*
X121233774Y-125106307D01*
X121233782Y-125106307D01*
X121236230Y-125106500D01*
X122063770Y-125106500D01*
X122066218Y-125106307D01*
X122066226Y-125106307D01*
X122093164Y-125104187D01*
X122093169Y-125104186D01*
X122099574Y-125103682D01*
X122105746Y-125101889D01*
X122105751Y-125101888D01*
X122245179Y-125061380D01*
X122245181Y-125061379D01*
X122252792Y-125059168D01*
X122273590Y-125046868D01*
X122383306Y-124981983D01*
X122383307Y-124981983D01*
X122390127Y-124977949D01*
X122502949Y-124865127D01*
X122584168Y-124727792D01*
X122595233Y-124689706D01*
X122633447Y-124629871D01*
X122697943Y-124600194D01*
X122768246Y-124610098D01*
X122822033Y-124656438D01*
X122826431Y-124663773D01*
X122839885Y-124688044D01*
X122969648Y-124839440D01*
X122974689Y-124843351D01*
X122974692Y-124843353D01*
X123073193Y-124919758D01*
X123127202Y-124961652D01*
X123132935Y-124964473D01*
X123244094Y-125019170D01*
X123306112Y-125049687D01*
X123351002Y-125061380D01*
X123492888Y-125098339D01*
X123492891Y-125098339D01*
X123499070Y-125099949D01*
X123584377Y-125104419D01*
X123691812Y-125110050D01*
X123691816Y-125110050D01*
X123698193Y-125110384D01*
X123895348Y-125080567D01*
X124082480Y-125011716D01*
X124251946Y-124906643D01*
X124318874Y-124843353D01*
X124392189Y-124774022D01*
X124396823Y-124769640D01*
X124511192Y-124606304D01*
X124590382Y-124423307D01*
X124627795Y-124244224D01*
X124630167Y-124232869D01*
X124630167Y-124232865D01*
X124631158Y-124228124D01*
X124631500Y-124221598D01*
X124631500Y-123525165D01*
X124616412Y-123376624D01*
X124556784Y-123186352D01*
X124460115Y-123011956D01*
X124330352Y-122860560D01*
X124325311Y-122856649D01*
X124325308Y-122856647D01*
X124177845Y-122742263D01*
X124172798Y-122738348D01*
X123993888Y-122650313D01*
X123877473Y-122619989D01*
X123807112Y-122601661D01*
X123807109Y-122601661D01*
X123800930Y-122600051D01*
X123715623Y-122595581D01*
X123608188Y-122589950D01*
X123608184Y-122589950D01*
X123601807Y-122589616D01*
X123404652Y-122619433D01*
X123398665Y-122621636D01*
X123398664Y-122621636D01*
X123381661Y-122627892D01*
X123217520Y-122688284D01*
X123048054Y-122793357D01*
X123043423Y-122797736D01*
X123043422Y-122797737D01*
X122977787Y-122859805D01*
X122903177Y-122930360D01*
X122844100Y-123014731D01*
X122819963Y-123049202D01*
X122764506Y-123093530D01*
X122693887Y-123100839D01*
X122630526Y-123068808D01*
X122595753Y-123012084D01*
X122595325Y-123010609D01*
X122584168Y-122972208D01*
X122572188Y-122951950D01*
X122506983Y-122841694D01*
X122506983Y-122841693D01*
X122502949Y-122834873D01*
X122390127Y-122722051D01*
X122336505Y-122690339D01*
X122259615Y-122644867D01*
X122252792Y-122640832D01*
X122245181Y-122638621D01*
X122245179Y-122638620D01*
X122105751Y-122598112D01*
X122105746Y-122598111D01*
X122099574Y-122596318D01*
X122093169Y-122595814D01*
X122093164Y-122595813D01*
X122066226Y-122593693D01*
X122066218Y-122593693D01*
X122063770Y-122593500D01*
X121236230Y-122593500D01*
X121233782Y-122593693D01*
X121233774Y-122593693D01*
X121206836Y-122595813D01*
X121206831Y-122595814D01*
X121200426Y-122596318D01*
X121194254Y-122598111D01*
X121194249Y-122598112D01*
X121054821Y-122638620D01*
X121054819Y-122638621D01*
X121047208Y-122640832D01*
X121040385Y-122644867D01*
X120963496Y-122690339D01*
X120909873Y-122722051D01*
X120797051Y-122834873D01*
X120793017Y-122841693D01*
X120793017Y-122841694D01*
X120727812Y-122951950D01*
X120715832Y-122972208D01*
X120713621Y-122979819D01*
X120713620Y-122979821D01*
X120673112Y-123119249D01*
X120673111Y-123119254D01*
X120671318Y-123125426D01*
X120668500Y-123161230D01*
X120668500Y-124538770D01*
X116015417Y-124538770D01*
X116065382Y-124423307D01*
X116102795Y-124244224D01*
X116105167Y-124232869D01*
X116105167Y-124232865D01*
X116106158Y-124228124D01*
X116106500Y-124221598D01*
X116106500Y-123525165D01*
X116091412Y-123376624D01*
X116031784Y-123186352D01*
X115935115Y-123011956D01*
X115805352Y-122860560D01*
X115800311Y-122856649D01*
X115800308Y-122856647D01*
X115652845Y-122742263D01*
X115647798Y-122738348D01*
X115468888Y-122650313D01*
X115352473Y-122619989D01*
X115282112Y-122601661D01*
X115282109Y-122601661D01*
X115275930Y-122600051D01*
X115190623Y-122595581D01*
X115083188Y-122589950D01*
X115083184Y-122589950D01*
X115076807Y-122589616D01*
X114879652Y-122619433D01*
X114873665Y-122621636D01*
X114873664Y-122621636D01*
X114856661Y-122627892D01*
X114692520Y-122688284D01*
X114523054Y-122793357D01*
X114518423Y-122797736D01*
X114518422Y-122797737D01*
X114452787Y-122859805D01*
X114378177Y-122930360D01*
X114319100Y-123014731D01*
X114294963Y-123049202D01*
X114239506Y-123093530D01*
X114168887Y-123100839D01*
X114105526Y-123068808D01*
X114070753Y-123012084D01*
X114070325Y-123010609D01*
X114059168Y-122972208D01*
X114047188Y-122951950D01*
X113981983Y-122841694D01*
X113981983Y-122841693D01*
X113977949Y-122834873D01*
X113865127Y-122722051D01*
X113811505Y-122690339D01*
X113734615Y-122644867D01*
X113727792Y-122640832D01*
X113720181Y-122638621D01*
X113720179Y-122638620D01*
X113580751Y-122598112D01*
X113580746Y-122598111D01*
X113574574Y-122596318D01*
X113568169Y-122595814D01*
X113568164Y-122595813D01*
X113541226Y-122593693D01*
X113541218Y-122593693D01*
X113538770Y-122593500D01*
X112711230Y-122593500D01*
X112708782Y-122593693D01*
X112708774Y-122593693D01*
X112681836Y-122595813D01*
X112681831Y-122595814D01*
X112675426Y-122596318D01*
X112669254Y-122598111D01*
X112669249Y-122598112D01*
X112529821Y-122638620D01*
X112529819Y-122638621D01*
X112522208Y-122640832D01*
X112515385Y-122644867D01*
X112438496Y-122690339D01*
X112384873Y-122722051D01*
X112272051Y-122834873D01*
X112268017Y-122841693D01*
X112268017Y-122841694D01*
X112202812Y-122951950D01*
X112190832Y-122972208D01*
X112188621Y-122979819D01*
X112188620Y-122979821D01*
X112148112Y-123119249D01*
X112148111Y-123119254D01*
X112146318Y-123125426D01*
X112143500Y-123161230D01*
X112143500Y-124538770D01*
X108225000Y-124538770D01*
X108225000Y-124400000D01*
X106600703Y-124400000D01*
X106532582Y-124379998D01*
X106486089Y-124326342D01*
X106475440Y-124287608D01*
X106468452Y-124223283D01*
X106461892Y-124162895D01*
X106404268Y-123991669D01*
X106311220Y-123836811D01*
X106278881Y-123802613D01*
X106236125Y-123757401D01*
X106187089Y-123705547D01*
X106148511Y-123679329D01*
X106043310Y-123607835D01*
X106037667Y-123604000D01*
X106031337Y-123601468D01*
X106031333Y-123601466D01*
X105876262Y-123539442D01*
X105876257Y-123539441D01*
X105869925Y-123536908D01*
X105863198Y-123535794D01*
X105863193Y-123535793D01*
X105698427Y-123508516D01*
X105698423Y-123508516D01*
X105691689Y-123507401D01*
X105684872Y-123507758D01*
X105684868Y-123507758D01*
X105534286Y-123515650D01*
X105511275Y-123516856D01*
X105504701Y-123518667D01*
X105504700Y-123518667D01*
X105345668Y-123562472D01*
X105337100Y-123564832D01*
X105177289Y-123649090D01*
X105172080Y-123653492D01*
X105172077Y-123653494D01*
X105041573Y-123763779D01*
X104976632Y-123792471D01*
X104906488Y-123781498D01*
X104869229Y-123754674D01*
X104797102Y-123679329D01*
X104790403Y-123672331D01*
X104790401Y-123672330D01*
X104785643Y-123667359D01*
X104661536Y-123584434D01*
X104536456Y-123535794D01*
X104528837Y-123532831D01*
X104528835Y-123532831D01*
X104522423Y-123530337D01*
X104374899Y-123507631D01*
X104225958Y-123517394D01*
X104082660Y-123559162D01*
X104076632Y-123562469D01*
X104076630Y-123562470D01*
X104029630Y-123588256D01*
X103951799Y-123630956D01*
X103839579Y-123729371D01*
X103835514Y-123734914D01*
X103835513Y-123734916D01*
X103817485Y-123759504D01*
X103761074Y-123802613D01*
X103715872Y-123811000D01*
X96334126Y-123811000D01*
X96266005Y-123790998D01*
X96232513Y-123759504D01*
X96214485Y-123734916D01*
X96214484Y-123734914D01*
X96210419Y-123729371D01*
X96134607Y-123662885D01*
X96103368Y-123635489D01*
X96103367Y-123635489D01*
X96098199Y-123630956D01*
X96092175Y-123627651D01*
X96092172Y-123627649D01*
X95973370Y-123562472D01*
X95973368Y-123562471D01*
X95967338Y-123559163D01*
X95824040Y-123517396D01*
X95675099Y-123507633D01*
X95527575Y-123530339D01*
X95388463Y-123584437D01*
X95382746Y-123588257D01*
X95270078Y-123663539D01*
X95270076Y-123663541D01*
X95264357Y-123667362D01*
X95259601Y-123672330D01*
X95259600Y-123672331D01*
X95178163Y-123757401D01*
X95116607Y-123792777D01*
X95045698Y-123789258D01*
X94995600Y-123756846D01*
X94947089Y-123705547D01*
X94908511Y-123679329D01*
X94803310Y-123607835D01*
X94797667Y-123604000D01*
X94791337Y-123601468D01*
X94791333Y-123601466D01*
X94636262Y-123539442D01*
X94636257Y-123539441D01*
X94629925Y-123536908D01*
X94623198Y-123535794D01*
X94623193Y-123535793D01*
X94458427Y-123508516D01*
X94458423Y-123508516D01*
X94451689Y-123507401D01*
X94444872Y-123507758D01*
X94444868Y-123507758D01*
X94294286Y-123515650D01*
X94271275Y-123516856D01*
X94264701Y-123518667D01*
X94264700Y-123518667D01*
X94105668Y-123562472D01*
X94097100Y-123564832D01*
X93937289Y-123649090D01*
X93932080Y-123653492D01*
X93932077Y-123653494D01*
X93875023Y-123701709D01*
X93799300Y-123765700D01*
X93795157Y-123771119D01*
X93795156Y-123771120D01*
X93787222Y-123781498D01*
X93689571Y-123909221D01*
X93613220Y-124072956D01*
X93611734Y-124079604D01*
X93611733Y-124079607D01*
X93579621Y-124223268D01*
X93573810Y-124249267D01*
X93573500Y-124254811D01*
X93573500Y-124274000D01*
X93553498Y-124342121D01*
X93499842Y-124388614D01*
X93447500Y-124400000D01*
X92823062Y-124400000D01*
X92754941Y-124379998D01*
X92708448Y-124326342D01*
X92698344Y-124256068D01*
X92702502Y-124237375D01*
X92705376Y-124227914D01*
X92707555Y-124217832D01*
X92708986Y-124206962D01*
X92706775Y-124192778D01*
X92693617Y-124189000D01*
X90058225Y-124189000D01*
X90044694Y-124192973D01*
X90043257Y-124202966D01*
X90053023Y-124246299D01*
X90048487Y-124317151D01*
X90006365Y-124374302D01*
X89940032Y-124399608D01*
X89930106Y-124400000D01*
X89300703Y-124400000D01*
X89232582Y-124379998D01*
X89186089Y-124326342D01*
X89175440Y-124287608D01*
X89168452Y-124223283D01*
X89161892Y-124162895D01*
X89104268Y-123991669D01*
X89011220Y-123836811D01*
X88978881Y-123802613D01*
X88936125Y-123757401D01*
X88887089Y-123705547D01*
X88848511Y-123679329D01*
X88833582Y-123669183D01*
X90039389Y-123669183D01*
X90040912Y-123677607D01*
X90053292Y-123681000D01*
X91102885Y-123681000D01*
X91118124Y-123676525D01*
X91119329Y-123675135D01*
X91121000Y-123667452D01*
X91121000Y-123662885D01*
X91629000Y-123662885D01*
X91633475Y-123678124D01*
X91634865Y-123679329D01*
X91642548Y-123681000D01*
X92693344Y-123681000D01*
X92706875Y-123677027D01*
X92708180Y-123667947D01*
X92666214Y-123500875D01*
X92662894Y-123491124D01*
X92577972Y-123295814D01*
X92573105Y-123286739D01*
X92457426Y-123107926D01*
X92451136Y-123099757D01*
X92307806Y-122942240D01*
X92300273Y-122935215D01*
X92133139Y-122803222D01*
X92124552Y-122797517D01*
X91938117Y-122694599D01*
X91928705Y-122690369D01*
X91727959Y-122619280D01*
X91717988Y-122616646D01*
X91646837Y-122603972D01*
X91633540Y-122605432D01*
X91629000Y-122619989D01*
X91629000Y-123662885D01*
X91121000Y-123662885D01*
X91121000Y-122618102D01*
X91117082Y-122604758D01*
X91102806Y-122602771D01*
X91064324Y-122608660D01*
X91054288Y-122611051D01*
X90851868Y-122677212D01*
X90842359Y-122681209D01*
X90653463Y-122779542D01*
X90644738Y-122785036D01*
X90474433Y-122912905D01*
X90466726Y-122919748D01*
X90319590Y-123073717D01*
X90313104Y-123081727D01*
X90193098Y-123257649D01*
X90188000Y-123266623D01*
X90098338Y-123459783D01*
X90094775Y-123469470D01*
X90039389Y-123669183D01*
X88833582Y-123669183D01*
X88743310Y-123607835D01*
X88737667Y-123604000D01*
X88731337Y-123601468D01*
X88731333Y-123601466D01*
X88576262Y-123539442D01*
X88576257Y-123539441D01*
X88569925Y-123536908D01*
X88563198Y-123535794D01*
X88563193Y-123535793D01*
X88398427Y-123508516D01*
X88398423Y-123508516D01*
X88391689Y-123507401D01*
X88384872Y-123507758D01*
X88384868Y-123507758D01*
X88234286Y-123515650D01*
X88211275Y-123516856D01*
X88204701Y-123518667D01*
X88204700Y-123518667D01*
X88045668Y-123562472D01*
X88037100Y-123564832D01*
X87877289Y-123649090D01*
X87872080Y-123653492D01*
X87872077Y-123653494D01*
X87741573Y-123763779D01*
X87676632Y-123792471D01*
X87606488Y-123781498D01*
X87569229Y-123754674D01*
X87497102Y-123679329D01*
X87490403Y-123672331D01*
X87490401Y-123672330D01*
X87485643Y-123667359D01*
X87361536Y-123584434D01*
X87236456Y-123535794D01*
X87228837Y-123532831D01*
X87228835Y-123532831D01*
X87222423Y-123530337D01*
X87074899Y-123507631D01*
X86925958Y-123517394D01*
X86782660Y-123559162D01*
X86776632Y-123562469D01*
X86776630Y-123562470D01*
X86729630Y-123588256D01*
X86651799Y-123630956D01*
X86539579Y-123729371D01*
X86535514Y-123734914D01*
X86535513Y-123734916D01*
X86517485Y-123759504D01*
X86461074Y-123802613D01*
X86415872Y-123811000D01*
X79034126Y-123811000D01*
X78966005Y-123790998D01*
X78932513Y-123759504D01*
X78914485Y-123734916D01*
X78914484Y-123734914D01*
X78910419Y-123729371D01*
X78834607Y-123662885D01*
X78803368Y-123635489D01*
X78803367Y-123635489D01*
X78798199Y-123630956D01*
X78792175Y-123627651D01*
X78792172Y-123627649D01*
X78673370Y-123562472D01*
X78673368Y-123562471D01*
X78667338Y-123559163D01*
X78524040Y-123517396D01*
X78375099Y-123507633D01*
X78227575Y-123530339D01*
X78088463Y-123584437D01*
X78082746Y-123588257D01*
X77970078Y-123663539D01*
X77970076Y-123663541D01*
X77964357Y-123667362D01*
X77959601Y-123672330D01*
X77959600Y-123672331D01*
X77878163Y-123757401D01*
X77816607Y-123792777D01*
X77745698Y-123789258D01*
X77695600Y-123756846D01*
X77647089Y-123705547D01*
X77608511Y-123679329D01*
X77503310Y-123607835D01*
X77497667Y-123604000D01*
X77491337Y-123601468D01*
X77491333Y-123601466D01*
X77336262Y-123539442D01*
X77336257Y-123539441D01*
X77329925Y-123536908D01*
X77180420Y-123512157D01*
X77116482Y-123481299D01*
X77079377Y-123420770D01*
X77075000Y-123387850D01*
X77075000Y-122239020D01*
X78938632Y-122239020D01*
X78955741Y-122413511D01*
X79011083Y-122579876D01*
X79014730Y-122585898D01*
X79014731Y-122585900D01*
X79080562Y-122694599D01*
X79101908Y-122729846D01*
X79106797Y-122734909D01*
X79106798Y-122734910D01*
X79179361Y-122810051D01*
X79223701Y-122855966D01*
X79229593Y-122859821D01*
X79229597Y-122859825D01*
X79290701Y-122899810D01*
X79370410Y-122951970D01*
X79377014Y-122954426D01*
X79528140Y-123010629D01*
X79528142Y-123010629D01*
X79534742Y-123013084D01*
X79541725Y-123014016D01*
X79541726Y-123014016D01*
X79701549Y-123035342D01*
X79701553Y-123035342D01*
X79708530Y-123036273D01*
X79715541Y-123035635D01*
X79715545Y-123035635D01*
X79853105Y-123023115D01*
X79883137Y-123020382D01*
X79889839Y-123018204D01*
X79889841Y-123018204D01*
X80043185Y-122968380D01*
X80043188Y-122968379D01*
X80049884Y-122966203D01*
X80200484Y-122876427D01*
X80205578Y-122871576D01*
X80205582Y-122871573D01*
X80307192Y-122774810D01*
X80327452Y-122755517D01*
X80409855Y-122631490D01*
X80420576Y-122615354D01*
X80420577Y-122615352D01*
X80424477Y-122609482D01*
X80428079Y-122600000D01*
X83388482Y-122600000D01*
X83389560Y-122608188D01*
X83406696Y-122738348D01*
X83408467Y-122751802D01*
X83417997Y-122774810D01*
X83462889Y-122883186D01*
X83467061Y-122893259D01*
X83560269Y-123014731D01*
X83681741Y-123107939D01*
X83689367Y-123111098D01*
X83689369Y-123111099D01*
X83739433Y-123131836D01*
X83823198Y-123166533D01*
X83831382Y-123167610D01*
X83831384Y-123167611D01*
X83966812Y-123185440D01*
X83975000Y-123186518D01*
X83983188Y-123185440D01*
X84118616Y-123167611D01*
X84118618Y-123167610D01*
X84126802Y-123166533D01*
X84210567Y-123131836D01*
X84260631Y-123111099D01*
X84260633Y-123111098D01*
X84268259Y-123107939D01*
X84389731Y-123014731D01*
X84482939Y-122893259D01*
X84487112Y-122883186D01*
X84532003Y-122774810D01*
X84541533Y-122751802D01*
X84543305Y-122738348D01*
X84560440Y-122608188D01*
X84561518Y-122600000D01*
X84549290Y-122507117D01*
X84542611Y-122456384D01*
X84542610Y-122456382D01*
X84541533Y-122448198D01*
X84489756Y-122323198D01*
X84486099Y-122314369D01*
X84486098Y-122314367D01*
X84482939Y-122306741D01*
X84430960Y-122239000D01*
X85088632Y-122239000D01*
X85105741Y-122413491D01*
X85161083Y-122579856D01*
X85164730Y-122585878D01*
X85164731Y-122585880D01*
X85230574Y-122694599D01*
X85251908Y-122729826D01*
X85256797Y-122734889D01*
X85256798Y-122734890D01*
X85281410Y-122760376D01*
X85373701Y-122855946D01*
X85379593Y-122859801D01*
X85379597Y-122859805D01*
X85430721Y-122893259D01*
X85520410Y-122951950D01*
X85527014Y-122954406D01*
X85678140Y-123010609D01*
X85678142Y-123010609D01*
X85684742Y-123013064D01*
X85691725Y-123013996D01*
X85691726Y-123013996D01*
X85851549Y-123035322D01*
X85851553Y-123035322D01*
X85858530Y-123036253D01*
X85865541Y-123035615D01*
X85865545Y-123035615D01*
X86003105Y-123023095D01*
X86033137Y-123020362D01*
X86039839Y-123018184D01*
X86039841Y-123018184D01*
X86193185Y-122968360D01*
X86193188Y-122968359D01*
X86199884Y-122966183D01*
X86350484Y-122876407D01*
X86355578Y-122871556D01*
X86355582Y-122871553D01*
X86457171Y-122774810D01*
X86477452Y-122755497D01*
X86553635Y-122640832D01*
X86570576Y-122615334D01*
X86570577Y-122615332D01*
X86574477Y-122609462D01*
X86636737Y-122445561D01*
X86648341Y-122362997D01*
X86660587Y-122275863D01*
X86660588Y-122275855D01*
X86661138Y-122271939D01*
X86661248Y-122264020D01*
X95663632Y-122264020D01*
X95680741Y-122438511D01*
X95736083Y-122604876D01*
X95739730Y-122610898D01*
X95739731Y-122610900D01*
X95821367Y-122745696D01*
X95826908Y-122754846D01*
X95831797Y-122759909D01*
X95831798Y-122759910D01*
X95860853Y-122789997D01*
X95948701Y-122880966D01*
X95954593Y-122884821D01*
X95954597Y-122884825D01*
X96031602Y-122935215D01*
X96095410Y-122976970D01*
X96102014Y-122979426D01*
X96253140Y-123035629D01*
X96253142Y-123035629D01*
X96259742Y-123038084D01*
X96266725Y-123039016D01*
X96266726Y-123039016D01*
X96426549Y-123060342D01*
X96426553Y-123060342D01*
X96433530Y-123061273D01*
X96440541Y-123060635D01*
X96440545Y-123060635D01*
X96578105Y-123048115D01*
X96608137Y-123045382D01*
X96614839Y-123043204D01*
X96614841Y-123043204D01*
X96768185Y-122993380D01*
X96768188Y-122993379D01*
X96774884Y-122991203D01*
X96925484Y-122901427D01*
X96930578Y-122896576D01*
X96930582Y-122896573D01*
X97034600Y-122797517D01*
X97052452Y-122780517D01*
X97140028Y-122648704D01*
X97145576Y-122640354D01*
X97145577Y-122640352D01*
X97149477Y-122634482D01*
X97210058Y-122475000D01*
X97688482Y-122475000D01*
X97689560Y-122483188D01*
X97707322Y-122618102D01*
X97708467Y-122626802D01*
X97715950Y-122644867D01*
X97763796Y-122760376D01*
X97767061Y-122768259D01*
X97860269Y-122889731D01*
X97981741Y-122982939D01*
X97989367Y-122986098D01*
X97989369Y-122986099D01*
X98054468Y-123013064D01*
X98123198Y-123041533D01*
X98131382Y-123042610D01*
X98131384Y-123042611D01*
X98252458Y-123058550D01*
X98266068Y-123060342D01*
X98266812Y-123060440D01*
X98275000Y-123061518D01*
X98283188Y-123060440D01*
X98283933Y-123060342D01*
X98297542Y-123058550D01*
X98418616Y-123042611D01*
X98418618Y-123042610D01*
X98426802Y-123041533D01*
X98495532Y-123013064D01*
X98560631Y-122986099D01*
X98560633Y-122986098D01*
X98568259Y-122982939D01*
X98689731Y-122889731D01*
X98782939Y-122768259D01*
X98786205Y-122760376D01*
X98834050Y-122644867D01*
X98841533Y-122626802D01*
X98842679Y-122618102D01*
X98860440Y-122483188D01*
X98861518Y-122475000D01*
X100688482Y-122475000D01*
X100689560Y-122483188D01*
X100707322Y-122618102D01*
X100708467Y-122626802D01*
X100715950Y-122644867D01*
X100763796Y-122760376D01*
X100767061Y-122768259D01*
X100860269Y-122889731D01*
X100981741Y-122982939D01*
X100989367Y-122986098D01*
X100989369Y-122986099D01*
X101054468Y-123013064D01*
X101123198Y-123041533D01*
X101131382Y-123042610D01*
X101131384Y-123042611D01*
X101252458Y-123058550D01*
X101266068Y-123060342D01*
X101266812Y-123060440D01*
X101275000Y-123061518D01*
X101283188Y-123060440D01*
X101283933Y-123060342D01*
X101297542Y-123058550D01*
X101418616Y-123042611D01*
X101418618Y-123042610D01*
X101426802Y-123041533D01*
X101495532Y-123013064D01*
X101560631Y-122986099D01*
X101560633Y-122986098D01*
X101568259Y-122982939D01*
X101689731Y-122889731D01*
X101782939Y-122768259D01*
X101786205Y-122760376D01*
X101834050Y-122644867D01*
X101841533Y-122626802D01*
X101842679Y-122618102D01*
X101860440Y-122483188D01*
X101861518Y-122475000D01*
X101857110Y-122441514D01*
X101842611Y-122331384D01*
X101842610Y-122331382D01*
X101841533Y-122323198D01*
X101818668Y-122267997D01*
X101817021Y-122264020D01*
X102313632Y-122264020D01*
X102330741Y-122438511D01*
X102386083Y-122604876D01*
X102389730Y-122610898D01*
X102389731Y-122610900D01*
X102471367Y-122745696D01*
X102476908Y-122754846D01*
X102481797Y-122759909D01*
X102481798Y-122759910D01*
X102510853Y-122789997D01*
X102598701Y-122880966D01*
X102604593Y-122884821D01*
X102604597Y-122884825D01*
X102681602Y-122935215D01*
X102745410Y-122976970D01*
X102752014Y-122979426D01*
X102903140Y-123035629D01*
X102903142Y-123035629D01*
X102909742Y-123038084D01*
X102916725Y-123039016D01*
X102916726Y-123039016D01*
X103076549Y-123060342D01*
X103076553Y-123060342D01*
X103083530Y-123061273D01*
X103090541Y-123060635D01*
X103090545Y-123060635D01*
X103228105Y-123048115D01*
X103258137Y-123045382D01*
X103264839Y-123043204D01*
X103264841Y-123043204D01*
X103418185Y-122993380D01*
X103418188Y-122993379D01*
X103424884Y-122991203D01*
X103575484Y-122901427D01*
X103580578Y-122896576D01*
X103580582Y-122896573D01*
X103684600Y-122797517D01*
X103702452Y-122780517D01*
X103790028Y-122648704D01*
X103795576Y-122640354D01*
X103795577Y-122640352D01*
X103799477Y-122634482D01*
X103861737Y-122470581D01*
X103881300Y-122331384D01*
X103885587Y-122300883D01*
X103885588Y-122300875D01*
X103886138Y-122296959D01*
X103886445Y-122275000D01*
X103866901Y-122100764D01*
X103863871Y-122092061D01*
X103811557Y-121941835D01*
X103811556Y-121941833D01*
X103809242Y-121935188D01*
X103791592Y-121906942D01*
X103720064Y-121792473D01*
X103720063Y-121792471D01*
X103716332Y-121786501D01*
X103707835Y-121777944D01*
X103664135Y-121733939D01*
X128238845Y-121733939D01*
X128253047Y-121950619D01*
X128306497Y-122161083D01*
X128397407Y-122358281D01*
X128522731Y-122535610D01*
X128582355Y-122593693D01*
X128672489Y-122681498D01*
X128678272Y-122687132D01*
X128683068Y-122690337D01*
X128683071Y-122690339D01*
X128799688Y-122768259D01*
X128858822Y-122807771D01*
X128864125Y-122810049D01*
X128864128Y-122810051D01*
X129038168Y-122884825D01*
X129058332Y-122893488D01*
X129135785Y-122911014D01*
X129264486Y-122940136D01*
X129264491Y-122940137D01*
X129270123Y-122941411D01*
X129275894Y-122941638D01*
X129275896Y-122941638D01*
X129342289Y-122944246D01*
X129487100Y-122949936D01*
X129622112Y-122930360D01*
X129696283Y-122919606D01*
X129696288Y-122919605D01*
X129701997Y-122918777D01*
X129707461Y-122916922D01*
X129707466Y-122916921D01*
X129859220Y-122865407D01*
X129907618Y-122848978D01*
X130097076Y-122742877D01*
X130264026Y-122604026D01*
X130393627Y-122448198D01*
X130399186Y-122441514D01*
X130402877Y-122437076D01*
X130508978Y-122247618D01*
X130512868Y-122236158D01*
X141429186Y-122236158D01*
X141429856Y-122240706D01*
X141429856Y-122240713D01*
X141438798Y-122301459D01*
X141440224Y-122311144D01*
X141444539Y-122319932D01*
X141444539Y-122319933D01*
X141487043Y-122406502D01*
X141496199Y-122425151D01*
X141586085Y-122514880D01*
X141700189Y-122570655D01*
X141732970Y-122575437D01*
X141770002Y-122580840D01*
X141770006Y-122580840D01*
X141774528Y-122581500D01*
X143446844Y-122581500D01*
X143451392Y-122580830D01*
X143451399Y-122580830D01*
X143512145Y-122571888D01*
X143512147Y-122571887D01*
X143521830Y-122570462D01*
X143584613Y-122539637D01*
X143626489Y-122519077D01*
X143626490Y-122519076D01*
X143635837Y-122514487D01*
X143709623Y-122440572D01*
X143718208Y-122431972D01*
X143725566Y-122424601D01*
X143781341Y-122310497D01*
X143790744Y-122246042D01*
X143791526Y-122240684D01*
X143791526Y-122240680D01*
X143792186Y-122236158D01*
X143792186Y-122139910D01*
X143812188Y-122071789D01*
X143865844Y-122025296D01*
X143936118Y-122015192D01*
X144000698Y-122044686D01*
X144021399Y-122067639D01*
X144141714Y-122239467D01*
X144148770Y-122247875D01*
X144302811Y-122401916D01*
X144311219Y-122408972D01*
X144489679Y-122533931D01*
X144499175Y-122539414D01*
X144696633Y-122631490D01*
X144706925Y-122635236D01*
X144879189Y-122681394D01*
X144893285Y-122681058D01*
X144896686Y-122673116D01*
X144896686Y-122667967D01*
X145404686Y-122667967D01*
X145408659Y-122681498D01*
X145417208Y-122682727D01*
X145594447Y-122635236D01*
X145604739Y-122631490D01*
X145802197Y-122539414D01*
X145811693Y-122533931D01*
X145990153Y-122408972D01*
X145998561Y-122401916D01*
X146152602Y-122247875D01*
X146159658Y-122239467D01*
X146284617Y-122061007D01*
X146290100Y-122051511D01*
X146382176Y-121854053D01*
X146385922Y-121843761D01*
X146432080Y-121671497D01*
X146431744Y-121657401D01*
X146423802Y-121654000D01*
X145422801Y-121654000D01*
X145407562Y-121658475D01*
X145406357Y-121659865D01*
X145404686Y-121667548D01*
X145404686Y-122667967D01*
X144896686Y-122667967D01*
X144896686Y-121127885D01*
X145404686Y-121127885D01*
X145409161Y-121143124D01*
X145410551Y-121144329D01*
X145418234Y-121146000D01*
X146418653Y-121146000D01*
X146432184Y-121142027D01*
X146433413Y-121133478D01*
X146385922Y-120956239D01*
X146382176Y-120945947D01*
X146290100Y-120748489D01*
X146284617Y-120738993D01*
X146159658Y-120560533D01*
X146152602Y-120552125D01*
X145998561Y-120398084D01*
X145990153Y-120391028D01*
X145811693Y-120266069D01*
X145802197Y-120260586D01*
X145604739Y-120168510D01*
X145594447Y-120164764D01*
X145422183Y-120118606D01*
X145408087Y-120118942D01*
X145404686Y-120126884D01*
X145404686Y-121127885D01*
X144896686Y-121127885D01*
X144896686Y-120132033D01*
X144892713Y-120118502D01*
X144884164Y-120117273D01*
X144706925Y-120164764D01*
X144696633Y-120168510D01*
X144499175Y-120260586D01*
X144489679Y-120266069D01*
X144311219Y-120391028D01*
X144302811Y-120398084D01*
X144148770Y-120552125D01*
X144141714Y-120560533D01*
X144021399Y-120732361D01*
X143965942Y-120776689D01*
X143895323Y-120783998D01*
X143831962Y-120751967D01*
X143795977Y-120690766D01*
X143792186Y-120660090D01*
X143792186Y-120563842D01*
X143790462Y-120552125D01*
X143782574Y-120498541D01*
X143782573Y-120498539D01*
X143781148Y-120488856D01*
X143725173Y-120374849D01*
X143635287Y-120285120D01*
X143521183Y-120229345D01*
X143488402Y-120224563D01*
X143451370Y-120219160D01*
X143451366Y-120219160D01*
X143446844Y-120218500D01*
X141774528Y-120218500D01*
X141769980Y-120219170D01*
X141769973Y-120219170D01*
X141709227Y-120228112D01*
X141709225Y-120228113D01*
X141699542Y-120229538D01*
X141690754Y-120233853D01*
X141690753Y-120233853D01*
X141594883Y-120280923D01*
X141594882Y-120280924D01*
X141585535Y-120285513D01*
X141495806Y-120375399D01*
X141440031Y-120489503D01*
X141438619Y-120499183D01*
X141429851Y-120559287D01*
X141429186Y-120563842D01*
X141429186Y-122236158D01*
X130512868Y-122236158D01*
X130556453Y-122107761D01*
X130576921Y-122047466D01*
X130576922Y-122047461D01*
X130578777Y-122041997D01*
X130580171Y-122032389D01*
X130599320Y-121900319D01*
X130609936Y-121827100D01*
X130611562Y-121765000D01*
X130593474Y-121568148D01*
X130592222Y-121554520D01*
X130592221Y-121554517D01*
X130591693Y-121548766D01*
X130589813Y-121542097D01*
X130534319Y-121345334D01*
X130532751Y-121339774D01*
X130436710Y-121145023D01*
X130306787Y-120971035D01*
X130147333Y-120823637D01*
X129963688Y-120707766D01*
X129762002Y-120627301D01*
X129549030Y-120584938D01*
X129543255Y-120584862D01*
X129543251Y-120584862D01*
X129434504Y-120583439D01*
X129331903Y-120582096D01*
X129326206Y-120583075D01*
X129326205Y-120583075D01*
X129123592Y-120617890D01*
X129117895Y-120618869D01*
X128914172Y-120694027D01*
X128727556Y-120805051D01*
X128723216Y-120808857D01*
X128723212Y-120808860D01*
X128568639Y-120944418D01*
X128564298Y-120948225D01*
X128429865Y-121118752D01*
X128427177Y-121123861D01*
X128331449Y-121305810D01*
X128331447Y-121305815D01*
X128328760Y-121310922D01*
X128264367Y-121518300D01*
X128238845Y-121733939D01*
X103664135Y-121733939D01*
X103653853Y-121723585D01*
X103592789Y-121662094D01*
X103586846Y-121658322D01*
X103586843Y-121658320D01*
X103505270Y-121606552D01*
X103444755Y-121568148D01*
X103390324Y-121548766D01*
X103286220Y-121511696D01*
X103286215Y-121511695D01*
X103279585Y-121509334D01*
X103272597Y-121508501D01*
X103272594Y-121508500D01*
X103152307Y-121494157D01*
X103105490Y-121488574D01*
X103098487Y-121489310D01*
X103098486Y-121489310D01*
X102938122Y-121506165D01*
X102938120Y-121506166D01*
X102931122Y-121506901D01*
X102765148Y-121563403D01*
X102751296Y-121571925D01*
X102621823Y-121651577D01*
X102621820Y-121651579D01*
X102615816Y-121655273D01*
X102610781Y-121660204D01*
X102610778Y-121660206D01*
X102495581Y-121773016D01*
X102490549Y-121777944D01*
X102395572Y-121925319D01*
X102393163Y-121931939D01*
X102393161Y-121931942D01*
X102344705Y-122065074D01*
X102335606Y-122090074D01*
X102334723Y-122097062D01*
X102334723Y-122097063D01*
X102333372Y-122107761D01*
X102313632Y-122264020D01*
X101817021Y-122264020D01*
X101786099Y-122189369D01*
X101786098Y-122189367D01*
X101782939Y-122181741D01*
X101689731Y-122060269D01*
X101568259Y-121967061D01*
X101560633Y-121963902D01*
X101560631Y-121963901D01*
X101447004Y-121916835D01*
X101426802Y-121908467D01*
X101418618Y-121907390D01*
X101418616Y-121907389D01*
X101283188Y-121889560D01*
X101275000Y-121888482D01*
X101266812Y-121889560D01*
X101131384Y-121907389D01*
X101131382Y-121907390D01*
X101123198Y-121908467D01*
X101102996Y-121916835D01*
X100989369Y-121963901D01*
X100989367Y-121963902D01*
X100981741Y-121967061D01*
X100860269Y-122060269D01*
X100767061Y-122181741D01*
X100763902Y-122189367D01*
X100763901Y-122189369D01*
X100731332Y-122267997D01*
X100708467Y-122323198D01*
X100707390Y-122331382D01*
X100707389Y-122331384D01*
X100692890Y-122441514D01*
X100688482Y-122475000D01*
X98861518Y-122475000D01*
X98857110Y-122441514D01*
X98842611Y-122331384D01*
X98842610Y-122331382D01*
X98841533Y-122323198D01*
X98818668Y-122267997D01*
X98786099Y-122189369D01*
X98786098Y-122189367D01*
X98782939Y-122181741D01*
X98689731Y-122060269D01*
X98568259Y-121967061D01*
X98560633Y-121963902D01*
X98560631Y-121963901D01*
X98447004Y-121916835D01*
X98426802Y-121908467D01*
X98418618Y-121907390D01*
X98418616Y-121907389D01*
X98283188Y-121889560D01*
X98275000Y-121888482D01*
X98266812Y-121889560D01*
X98131384Y-121907389D01*
X98131382Y-121907390D01*
X98123198Y-121908467D01*
X98102996Y-121916835D01*
X97989369Y-121963901D01*
X97989367Y-121963902D01*
X97981741Y-121967061D01*
X97860269Y-122060269D01*
X97767061Y-122181741D01*
X97763902Y-122189367D01*
X97763901Y-122189369D01*
X97731332Y-122267997D01*
X97708467Y-122323198D01*
X97707390Y-122331382D01*
X97707389Y-122331384D01*
X97692890Y-122441514D01*
X97688482Y-122475000D01*
X97210058Y-122475000D01*
X97211737Y-122470581D01*
X97231300Y-122331384D01*
X97235587Y-122300883D01*
X97235588Y-122300875D01*
X97236138Y-122296959D01*
X97236445Y-122275000D01*
X97216901Y-122100764D01*
X97213871Y-122092061D01*
X97161557Y-121941835D01*
X97161556Y-121941833D01*
X97159242Y-121935188D01*
X97141592Y-121906942D01*
X97070064Y-121792473D01*
X97070063Y-121792471D01*
X97066332Y-121786501D01*
X97057835Y-121777944D01*
X97003853Y-121723585D01*
X96942789Y-121662094D01*
X96936846Y-121658322D01*
X96936843Y-121658320D01*
X96855270Y-121606552D01*
X96794755Y-121568148D01*
X96740324Y-121548766D01*
X96636220Y-121511696D01*
X96636215Y-121511695D01*
X96629585Y-121509334D01*
X96622597Y-121508501D01*
X96622594Y-121508500D01*
X96502307Y-121494157D01*
X96455490Y-121488574D01*
X96448487Y-121489310D01*
X96448486Y-121489310D01*
X96288122Y-121506165D01*
X96288120Y-121506166D01*
X96281122Y-121506901D01*
X96115148Y-121563403D01*
X96101296Y-121571925D01*
X95971823Y-121651577D01*
X95971820Y-121651579D01*
X95965816Y-121655273D01*
X95960781Y-121660204D01*
X95960778Y-121660206D01*
X95845581Y-121773016D01*
X95840549Y-121777944D01*
X95745572Y-121925319D01*
X95743163Y-121931939D01*
X95743161Y-121931942D01*
X95694705Y-122065074D01*
X95685606Y-122090074D01*
X95684723Y-122097062D01*
X95684723Y-122097063D01*
X95683372Y-122107761D01*
X95663632Y-122264020D01*
X86661248Y-122264020D01*
X86661291Y-122260960D01*
X86661390Y-122253942D01*
X86661390Y-122253936D01*
X86661445Y-122249980D01*
X86645492Y-122107761D01*
X86642686Y-122082741D01*
X86642686Y-122082740D01*
X86641901Y-122075744D01*
X86638792Y-122066814D01*
X86586557Y-121916815D01*
X86586556Y-121916813D01*
X86584242Y-121910168D01*
X86570691Y-121888482D01*
X86495064Y-121767453D01*
X86495063Y-121767451D01*
X86491332Y-121761481D01*
X86482855Y-121752944D01*
X86398051Y-121667548D01*
X86367789Y-121637074D01*
X86361846Y-121633302D01*
X86361843Y-121633300D01*
X86251703Y-121563403D01*
X86219755Y-121543128D01*
X86166147Y-121524039D01*
X86061220Y-121486676D01*
X86061215Y-121486675D01*
X86054585Y-121484314D01*
X86047597Y-121483481D01*
X86047594Y-121483480D01*
X85927307Y-121469137D01*
X85880490Y-121463554D01*
X85873487Y-121464290D01*
X85873486Y-121464290D01*
X85713122Y-121481145D01*
X85713120Y-121481146D01*
X85706122Y-121481881D01*
X85540148Y-121538383D01*
X85479503Y-121575692D01*
X85396823Y-121626557D01*
X85396820Y-121626559D01*
X85390816Y-121630253D01*
X85385781Y-121635184D01*
X85385778Y-121635186D01*
X85270581Y-121747996D01*
X85265549Y-121752924D01*
X85170572Y-121900299D01*
X85168163Y-121906919D01*
X85168161Y-121906922D01*
X85115535Y-122051511D01*
X85110606Y-122065054D01*
X85109723Y-122072042D01*
X85109723Y-122072043D01*
X85109253Y-122075764D01*
X85088632Y-122239000D01*
X84430960Y-122239000D01*
X84389731Y-122185269D01*
X84268259Y-122092061D01*
X84260633Y-122088902D01*
X84260631Y-122088901D01*
X84134428Y-122036626D01*
X84134429Y-122036626D01*
X84126802Y-122033467D01*
X84118618Y-122032390D01*
X84118616Y-122032389D01*
X83983188Y-122014560D01*
X83975000Y-122013482D01*
X83966812Y-122014560D01*
X83831384Y-122032389D01*
X83831382Y-122032390D01*
X83823198Y-122033467D01*
X83815571Y-122036626D01*
X83815572Y-122036626D01*
X83689369Y-122088901D01*
X83689367Y-122088902D01*
X83681741Y-122092061D01*
X83560269Y-122185269D01*
X83467061Y-122306741D01*
X83463902Y-122314367D01*
X83463901Y-122314369D01*
X83460244Y-122323198D01*
X83408467Y-122448198D01*
X83407390Y-122456382D01*
X83407389Y-122456384D01*
X83400710Y-122507117D01*
X83388482Y-122600000D01*
X80428079Y-122600000D01*
X80486737Y-122445581D01*
X80495981Y-122379806D01*
X80510587Y-122275883D01*
X80510589Y-122275863D01*
X80511138Y-122271959D01*
X80511445Y-122250000D01*
X80494290Y-122097063D01*
X80492686Y-122082761D01*
X80492686Y-122082760D01*
X80491901Y-122075764D01*
X80488785Y-122066814D01*
X80436557Y-121916835D01*
X80436556Y-121916833D01*
X80434242Y-121910188D01*
X80430511Y-121904217D01*
X80345064Y-121767473D01*
X80345063Y-121767471D01*
X80341332Y-121761501D01*
X80332835Y-121752944D01*
X80248031Y-121667548D01*
X80217789Y-121637094D01*
X80211846Y-121633322D01*
X80211843Y-121633320D01*
X80105422Y-121565783D01*
X80069755Y-121543148D01*
X80042570Y-121533468D01*
X79911220Y-121486696D01*
X79911215Y-121486695D01*
X79904585Y-121484334D01*
X79897597Y-121483501D01*
X79897594Y-121483500D01*
X79777307Y-121469157D01*
X79730490Y-121463574D01*
X79723487Y-121464310D01*
X79723486Y-121464310D01*
X79563122Y-121481165D01*
X79563120Y-121481166D01*
X79556122Y-121481901D01*
X79390148Y-121538403D01*
X79353203Y-121561132D01*
X79246823Y-121626577D01*
X79246820Y-121626579D01*
X79240816Y-121630273D01*
X79235781Y-121635204D01*
X79235778Y-121635206D01*
X79120581Y-121748016D01*
X79115549Y-121752944D01*
X79020572Y-121900319D01*
X79018163Y-121906939D01*
X79018161Y-121906942D01*
X78964183Y-122055247D01*
X78960606Y-122065074D01*
X78959723Y-122072062D01*
X78959723Y-122072063D01*
X78958374Y-122082741D01*
X78938632Y-122239020D01*
X77075000Y-122239020D01*
X77075000Y-120375000D01*
X83363482Y-120375000D01*
X83364560Y-120383188D01*
X83378557Y-120489503D01*
X83383467Y-120526802D01*
X83386626Y-120534428D01*
X83424629Y-120626174D01*
X83442061Y-120668259D01*
X83535269Y-120789731D01*
X83656741Y-120882939D01*
X83664367Y-120886098D01*
X83664369Y-120886099D01*
X83748191Y-120920819D01*
X83798198Y-120941533D01*
X83806382Y-120942610D01*
X83806384Y-120942611D01*
X83941812Y-120960440D01*
X83950000Y-120961518D01*
X83958188Y-120960440D01*
X84093616Y-120942611D01*
X84093618Y-120942610D01*
X84101802Y-120941533D01*
X84151809Y-120920819D01*
X84235631Y-120886099D01*
X84235633Y-120886098D01*
X84243259Y-120882939D01*
X84364731Y-120789731D01*
X84457939Y-120668259D01*
X84475372Y-120626174D01*
X84513374Y-120534428D01*
X84516533Y-120526802D01*
X84521444Y-120489503D01*
X84535440Y-120383188D01*
X84536518Y-120375000D01*
X84516533Y-120223198D01*
X84476638Y-120126884D01*
X84461099Y-120089369D01*
X84461098Y-120089367D01*
X84457939Y-120081741D01*
X84364731Y-119960269D01*
X84243259Y-119867061D01*
X84235633Y-119863902D01*
X84235631Y-119863901D01*
X84109428Y-119811626D01*
X84109429Y-119811626D01*
X84101802Y-119808467D01*
X84093618Y-119807390D01*
X84093616Y-119807389D01*
X83958188Y-119789560D01*
X83950000Y-119788482D01*
X83941812Y-119789560D01*
X83806384Y-119807389D01*
X83806382Y-119807390D01*
X83798198Y-119808467D01*
X83790571Y-119811626D01*
X83790572Y-119811626D01*
X83664369Y-119863901D01*
X83664367Y-119863902D01*
X83656741Y-119867061D01*
X83535269Y-119960269D01*
X83442061Y-120081741D01*
X83438902Y-120089367D01*
X83438901Y-120089369D01*
X83423362Y-120126884D01*
X83383467Y-120223198D01*
X83363482Y-120375000D01*
X77075000Y-120375000D01*
X77075000Y-118693939D01*
X78238845Y-118693939D01*
X78253047Y-118910619D01*
X78306497Y-119121083D01*
X78397407Y-119318281D01*
X78522731Y-119495610D01*
X78581553Y-119552912D01*
X78643619Y-119613374D01*
X78678272Y-119647132D01*
X78683068Y-119650337D01*
X78683071Y-119650339D01*
X78821407Y-119742771D01*
X78858822Y-119767771D01*
X78864125Y-119770049D01*
X78864128Y-119770051D01*
X79000143Y-119828488D01*
X79058332Y-119853488D01*
X79118317Y-119867061D01*
X79264486Y-119900136D01*
X79264491Y-119900137D01*
X79270123Y-119901411D01*
X79275894Y-119901638D01*
X79275896Y-119901638D01*
X79342289Y-119904246D01*
X79487100Y-119909936D01*
X79594549Y-119894356D01*
X79696283Y-119879606D01*
X79696288Y-119879605D01*
X79701997Y-119878777D01*
X79707461Y-119876922D01*
X79707466Y-119876921D01*
X79902150Y-119810834D01*
X79907618Y-119808978D01*
X80097076Y-119702877D01*
X80264026Y-119564026D01*
X80402877Y-119397076D01*
X80508978Y-119207618D01*
X80545058Y-119101329D01*
X80576921Y-119007466D01*
X80576922Y-119007461D01*
X80578777Y-119001997D01*
X80583231Y-118971283D01*
X80602845Y-118836006D01*
X80609936Y-118787100D01*
X80611562Y-118725000D01*
X80608708Y-118693939D01*
X81363845Y-118693939D01*
X81378047Y-118910619D01*
X81431497Y-119121083D01*
X81522407Y-119318281D01*
X81647731Y-119495610D01*
X81706553Y-119552912D01*
X81768619Y-119613374D01*
X81803272Y-119647132D01*
X81808068Y-119650337D01*
X81808071Y-119650339D01*
X81946407Y-119742771D01*
X81983822Y-119767771D01*
X81989125Y-119770049D01*
X81989128Y-119770051D01*
X82125143Y-119828488D01*
X82183332Y-119853488D01*
X82243317Y-119867061D01*
X82389486Y-119900136D01*
X82389491Y-119900137D01*
X82395123Y-119901411D01*
X82400894Y-119901638D01*
X82400896Y-119901638D01*
X82467289Y-119904246D01*
X82612100Y-119909936D01*
X82719549Y-119894356D01*
X82821283Y-119879606D01*
X82821288Y-119879605D01*
X82826997Y-119878777D01*
X82832461Y-119876922D01*
X82832466Y-119876921D01*
X83027150Y-119810834D01*
X83032618Y-119808978D01*
X83222076Y-119702877D01*
X83389026Y-119564026D01*
X83527877Y-119397076D01*
X83633978Y-119207618D01*
X83670058Y-119101329D01*
X83701921Y-119007466D01*
X83701922Y-119007461D01*
X83703777Y-119001997D01*
X83708231Y-118971283D01*
X83727845Y-118836006D01*
X83734936Y-118787100D01*
X83736562Y-118725000D01*
X83731411Y-118668939D01*
X84488845Y-118668939D01*
X84503047Y-118885619D01*
X84556497Y-119096083D01*
X84647407Y-119293281D01*
X84772731Y-119470610D01*
X84928272Y-119622132D01*
X84933068Y-119625337D01*
X84933071Y-119625339D01*
X85043592Y-119699186D01*
X85108822Y-119742771D01*
X85114125Y-119745049D01*
X85114128Y-119745051D01*
X85269085Y-119811626D01*
X85308332Y-119828488D01*
X85385785Y-119846014D01*
X85514486Y-119875136D01*
X85514491Y-119875137D01*
X85520123Y-119876411D01*
X85525894Y-119876638D01*
X85525896Y-119876638D01*
X85592289Y-119879246D01*
X85737100Y-119884936D01*
X85844549Y-119869356D01*
X85946283Y-119854606D01*
X85946288Y-119854605D01*
X85951997Y-119853777D01*
X85957461Y-119851922D01*
X85957466Y-119851921D01*
X86141174Y-119789560D01*
X86157618Y-119783978D01*
X86347076Y-119677877D01*
X86514026Y-119539026D01*
X86652877Y-119372076D01*
X86758978Y-119182618D01*
X86790254Y-119090483D01*
X86803996Y-119050000D01*
X97663482Y-119050000D01*
X97664560Y-119058188D01*
X97680222Y-119177150D01*
X97683467Y-119201802D01*
X97686626Y-119209428D01*
X97736406Y-119329606D01*
X97742061Y-119343259D01*
X97835269Y-119464731D01*
X97956741Y-119557939D01*
X97964367Y-119561098D01*
X97964369Y-119561099D01*
X98048191Y-119595819D01*
X98098198Y-119616533D01*
X98106382Y-119617610D01*
X98106384Y-119617611D01*
X98241812Y-119635440D01*
X98250000Y-119636518D01*
X98258188Y-119635440D01*
X98393616Y-119617611D01*
X98393618Y-119617610D01*
X98401802Y-119616533D01*
X98451809Y-119595819D01*
X98535631Y-119561099D01*
X98535633Y-119561098D01*
X98543259Y-119557939D01*
X98664731Y-119464731D01*
X98757939Y-119343259D01*
X98763595Y-119329606D01*
X98813374Y-119209428D01*
X98816533Y-119201802D01*
X98819779Y-119177150D01*
X98835440Y-119058188D01*
X98836518Y-119050000D01*
X100688482Y-119050000D01*
X100689560Y-119058188D01*
X100705222Y-119177150D01*
X100708467Y-119201802D01*
X100711626Y-119209428D01*
X100761406Y-119329606D01*
X100767061Y-119343259D01*
X100860269Y-119464731D01*
X100981741Y-119557939D01*
X100989367Y-119561098D01*
X100989369Y-119561099D01*
X101073191Y-119595819D01*
X101123198Y-119616533D01*
X101131382Y-119617610D01*
X101131384Y-119617611D01*
X101266812Y-119635440D01*
X101275000Y-119636518D01*
X101283188Y-119635440D01*
X101418616Y-119617611D01*
X101418618Y-119617610D01*
X101426802Y-119616533D01*
X101476809Y-119595819D01*
X101560631Y-119561099D01*
X101560633Y-119561098D01*
X101568259Y-119557939D01*
X101689731Y-119464731D01*
X101782939Y-119343259D01*
X101788595Y-119329606D01*
X101838374Y-119209428D01*
X101841533Y-119201802D01*
X101844779Y-119177150D01*
X101860440Y-119058188D01*
X101861518Y-119050000D01*
X101843906Y-118916221D01*
X101842611Y-118906384D01*
X101842610Y-118906382D01*
X101841533Y-118898198D01*
X101782939Y-118756741D01*
X101689731Y-118635269D01*
X101568259Y-118542061D01*
X101560633Y-118538902D01*
X101560631Y-118538901D01*
X101434428Y-118486626D01*
X101434429Y-118486626D01*
X101426802Y-118483467D01*
X101418618Y-118482390D01*
X101418616Y-118482389D01*
X101283188Y-118464560D01*
X101275000Y-118463482D01*
X101266812Y-118464560D01*
X101131384Y-118482389D01*
X101131382Y-118482390D01*
X101123198Y-118483467D01*
X101115571Y-118486626D01*
X101115572Y-118486626D01*
X100989369Y-118538901D01*
X100989367Y-118538902D01*
X100981741Y-118542061D01*
X100860269Y-118635269D01*
X100767061Y-118756741D01*
X100708467Y-118898198D01*
X100707390Y-118906382D01*
X100707389Y-118906384D01*
X100706094Y-118916221D01*
X100688482Y-119050000D01*
X98836518Y-119050000D01*
X98818906Y-118916221D01*
X98817611Y-118906384D01*
X98817610Y-118906382D01*
X98816533Y-118898198D01*
X98757939Y-118756741D01*
X98664731Y-118635269D01*
X98543259Y-118542061D01*
X98535633Y-118538902D01*
X98535631Y-118538901D01*
X98409428Y-118486626D01*
X98409429Y-118486626D01*
X98401802Y-118483467D01*
X98393618Y-118482390D01*
X98393616Y-118482389D01*
X98258188Y-118464560D01*
X98250000Y-118463482D01*
X98241812Y-118464560D01*
X98106384Y-118482389D01*
X98106382Y-118482390D01*
X98098198Y-118483467D01*
X98090571Y-118486626D01*
X98090572Y-118486626D01*
X97964369Y-118538901D01*
X97964367Y-118538902D01*
X97956741Y-118542061D01*
X97835269Y-118635269D01*
X97742061Y-118756741D01*
X97683467Y-118898198D01*
X97682390Y-118906382D01*
X97682389Y-118906384D01*
X97681094Y-118916221D01*
X97663482Y-119050000D01*
X86803996Y-119050000D01*
X86826921Y-118982466D01*
X86826922Y-118982461D01*
X86828777Y-118976997D01*
X86837590Y-118916221D01*
X86859403Y-118765774D01*
X86859936Y-118762100D01*
X86861562Y-118700000D01*
X86849202Y-118565483D01*
X86842222Y-118489520D01*
X86842221Y-118489517D01*
X86841693Y-118483766D01*
X86836277Y-118464560D01*
X86784319Y-118280334D01*
X86782751Y-118274774D01*
X86718230Y-118143939D01*
X139038845Y-118143939D01*
X139053047Y-118360619D01*
X139106497Y-118571083D01*
X139175751Y-118721305D01*
X139194558Y-118762100D01*
X139197407Y-118768281D01*
X139322731Y-118945610D01*
X139326865Y-118949637D01*
X139471447Y-119090483D01*
X139478272Y-119097132D01*
X139483068Y-119100337D01*
X139483071Y-119100339D01*
X139613747Y-119187653D01*
X139658822Y-119217771D01*
X139664125Y-119220049D01*
X139664128Y-119220051D01*
X139786185Y-119272491D01*
X139858332Y-119303488D01*
X139923708Y-119318281D01*
X140064486Y-119350136D01*
X140064491Y-119350137D01*
X140070123Y-119351411D01*
X140075894Y-119351638D01*
X140075896Y-119351638D01*
X140142289Y-119354246D01*
X140287100Y-119359936D01*
X140402118Y-119343259D01*
X140496283Y-119329606D01*
X140496288Y-119329605D01*
X140501997Y-119328777D01*
X140507461Y-119326922D01*
X140507466Y-119326921D01*
X140698680Y-119262012D01*
X140701479Y-119261062D01*
X144503493Y-119261062D01*
X144512789Y-119273077D01*
X144563994Y-119308931D01*
X144573489Y-119314414D01*
X144770947Y-119406490D01*
X144781239Y-119410236D01*
X144991688Y-119466625D01*
X145002481Y-119468528D01*
X145219525Y-119487517D01*
X145230475Y-119487517D01*
X145447519Y-119468528D01*
X145458312Y-119466625D01*
X145668761Y-119410236D01*
X145679053Y-119406490D01*
X145876511Y-119314414D01*
X145886006Y-119308931D01*
X145938048Y-119272491D01*
X145946424Y-119262012D01*
X145939356Y-119248566D01*
X145237812Y-118547022D01*
X145223868Y-118539408D01*
X145222035Y-118539539D01*
X145215420Y-118543790D01*
X144509923Y-119249287D01*
X144503493Y-119261062D01*
X140701479Y-119261062D01*
X140707618Y-119258978D01*
X140897076Y-119152877D01*
X140928997Y-119126329D01*
X141059588Y-119017717D01*
X141064026Y-119014026D01*
X141202877Y-118847076D01*
X141308978Y-118657618D01*
X141346498Y-118547088D01*
X141376921Y-118457466D01*
X141376922Y-118457461D01*
X141378777Y-118451997D01*
X141392027Y-118360619D01*
X141400849Y-118299774D01*
X141409936Y-118237100D01*
X141411419Y-118180475D01*
X143912483Y-118180475D01*
X143931472Y-118397519D01*
X143933375Y-118408312D01*
X143989764Y-118618761D01*
X143993510Y-118629053D01*
X144085586Y-118826511D01*
X144091069Y-118836006D01*
X144127509Y-118888048D01*
X144137988Y-118896424D01*
X144151434Y-118889356D01*
X144852978Y-118187812D01*
X144859356Y-118176132D01*
X145589408Y-118176132D01*
X145589539Y-118177965D01*
X145593790Y-118184580D01*
X146299287Y-118890077D01*
X146311062Y-118896507D01*
X146323077Y-118887211D01*
X146358931Y-118836006D01*
X146364414Y-118826511D01*
X146456490Y-118629053D01*
X146460236Y-118618761D01*
X146516625Y-118408312D01*
X146518528Y-118397519D01*
X146537517Y-118180475D01*
X146537517Y-118169525D01*
X146518528Y-117952481D01*
X146516625Y-117941688D01*
X146460236Y-117731239D01*
X146456490Y-117720947D01*
X146364414Y-117523489D01*
X146358931Y-117513994D01*
X146322491Y-117461952D01*
X146312012Y-117453576D01*
X146298566Y-117460644D01*
X145597022Y-118162188D01*
X145589408Y-118176132D01*
X144859356Y-118176132D01*
X144860592Y-118173868D01*
X144860461Y-118172035D01*
X144856210Y-118165420D01*
X144150713Y-117459923D01*
X144138938Y-117453493D01*
X144126923Y-117462789D01*
X144091069Y-117513994D01*
X144085586Y-117523489D01*
X143993510Y-117720947D01*
X143989764Y-117731239D01*
X143933375Y-117941688D01*
X143931472Y-117952481D01*
X143912483Y-118169525D01*
X143912483Y-118180475D01*
X141411419Y-118180475D01*
X141411562Y-118175000D01*
X141395623Y-118001535D01*
X141392222Y-117964520D01*
X141392221Y-117964517D01*
X141391693Y-117958766D01*
X141389921Y-117952481D01*
X141334319Y-117755334D01*
X141332751Y-117749774D01*
X141236710Y-117555023D01*
X141106787Y-117381035D01*
X140947333Y-117233637D01*
X140763688Y-117117766D01*
X140689049Y-117087988D01*
X144503576Y-117087988D01*
X144510644Y-117101434D01*
X145212188Y-117802978D01*
X145226132Y-117810592D01*
X145227965Y-117810461D01*
X145234580Y-117806210D01*
X145940077Y-117100713D01*
X145946507Y-117088938D01*
X145937211Y-117076923D01*
X145886006Y-117041069D01*
X145876511Y-117035586D01*
X145679053Y-116943510D01*
X145668761Y-116939764D01*
X145458312Y-116883375D01*
X145447519Y-116881472D01*
X145230475Y-116862483D01*
X145219525Y-116862483D01*
X145002481Y-116881472D01*
X144991688Y-116883375D01*
X144781239Y-116939764D01*
X144770947Y-116943510D01*
X144573489Y-117035586D01*
X144563994Y-117041069D01*
X144511952Y-117077509D01*
X144503576Y-117087988D01*
X140689049Y-117087988D01*
X140562002Y-117037301D01*
X140349030Y-116994938D01*
X140343255Y-116994862D01*
X140343251Y-116994862D01*
X140234504Y-116993439D01*
X140131903Y-116992096D01*
X140126206Y-116993075D01*
X140126205Y-116993075D01*
X139930506Y-117026702D01*
X139917895Y-117028869D01*
X139714172Y-117104027D01*
X139527556Y-117215051D01*
X139523216Y-117218857D01*
X139523212Y-117218860D01*
X139495685Y-117243001D01*
X139364298Y-117358225D01*
X139360723Y-117362760D01*
X139360722Y-117362761D01*
X139245577Y-117508822D01*
X139229865Y-117528752D01*
X139227177Y-117533861D01*
X139131449Y-117715810D01*
X139131447Y-117715815D01*
X139128760Y-117720922D01*
X139064367Y-117928300D01*
X139038845Y-118143939D01*
X86718230Y-118143939D01*
X86686710Y-118080023D01*
X86596163Y-117958766D01*
X86560240Y-117910659D01*
X86560239Y-117910658D01*
X86556787Y-117906035D01*
X86443430Y-117801249D01*
X86401573Y-117762556D01*
X86401570Y-117762554D01*
X86397333Y-117758637D01*
X86213688Y-117642766D01*
X86012002Y-117562301D01*
X85799030Y-117519938D01*
X85793255Y-117519862D01*
X85793251Y-117519862D01*
X85684504Y-117518439D01*
X85581903Y-117517096D01*
X85576206Y-117518075D01*
X85576205Y-117518075D01*
X85373592Y-117552890D01*
X85367895Y-117553869D01*
X85164172Y-117629027D01*
X84977556Y-117740051D01*
X84973216Y-117743857D01*
X84973212Y-117743860D01*
X84889457Y-117817312D01*
X84814298Y-117883225D01*
X84810723Y-117887760D01*
X84810722Y-117887761D01*
X84705137Y-118021695D01*
X84679865Y-118053752D01*
X84677177Y-118058861D01*
X84581449Y-118240810D01*
X84581447Y-118240815D01*
X84578760Y-118245922D01*
X84514367Y-118453300D01*
X84488845Y-118668939D01*
X83731411Y-118668939D01*
X83719911Y-118543790D01*
X83717222Y-118514520D01*
X83717221Y-118514517D01*
X83716693Y-118508766D01*
X83709720Y-118484039D01*
X83659319Y-118305334D01*
X83657751Y-118299774D01*
X83561710Y-118105023D01*
X83448147Y-117952944D01*
X83435240Y-117935659D01*
X83435239Y-117935658D01*
X83431787Y-117931035D01*
X83309462Y-117817959D01*
X83276573Y-117787556D01*
X83276570Y-117787554D01*
X83272333Y-117783637D01*
X83088688Y-117667766D01*
X82887002Y-117587301D01*
X82674030Y-117544938D01*
X82668255Y-117544862D01*
X82668251Y-117544862D01*
X82559504Y-117543439D01*
X82456903Y-117542096D01*
X82451206Y-117543075D01*
X82451205Y-117543075D01*
X82326850Y-117564443D01*
X82242895Y-117578869D01*
X82039172Y-117654027D01*
X81852556Y-117765051D01*
X81848216Y-117768857D01*
X81848212Y-117768860D01*
X81695315Y-117902948D01*
X81689298Y-117908225D01*
X81685723Y-117912760D01*
X81685722Y-117912761D01*
X81578148Y-118049218D01*
X81554865Y-118078752D01*
X81552177Y-118083861D01*
X81456449Y-118265810D01*
X81456447Y-118265815D01*
X81453760Y-118270922D01*
X81389367Y-118478300D01*
X81363845Y-118693939D01*
X80608708Y-118693939D01*
X80594911Y-118543790D01*
X80592222Y-118514520D01*
X80592221Y-118514517D01*
X80591693Y-118508766D01*
X80584720Y-118484039D01*
X80534319Y-118305334D01*
X80532751Y-118299774D01*
X80436710Y-118105023D01*
X80323147Y-117952944D01*
X80310240Y-117935659D01*
X80310239Y-117935658D01*
X80306787Y-117931035D01*
X80184462Y-117817959D01*
X80151573Y-117787556D01*
X80151570Y-117787554D01*
X80147333Y-117783637D01*
X79963688Y-117667766D01*
X79762002Y-117587301D01*
X79549030Y-117544938D01*
X79543255Y-117544862D01*
X79543251Y-117544862D01*
X79434504Y-117543439D01*
X79331903Y-117542096D01*
X79326206Y-117543075D01*
X79326205Y-117543075D01*
X79201850Y-117564443D01*
X79117895Y-117578869D01*
X78914172Y-117654027D01*
X78727556Y-117765051D01*
X78723216Y-117768857D01*
X78723212Y-117768860D01*
X78570315Y-117902948D01*
X78564298Y-117908225D01*
X78560723Y-117912760D01*
X78560722Y-117912761D01*
X78453148Y-118049218D01*
X78429865Y-118078752D01*
X78427177Y-118083861D01*
X78331449Y-118265810D01*
X78331447Y-118265815D01*
X78328760Y-118270922D01*
X78264367Y-118478300D01*
X78238845Y-118693939D01*
X77075000Y-118693939D01*
X77075000Y-114811062D01*
X78703493Y-114811062D01*
X78712789Y-114823077D01*
X78763994Y-114858931D01*
X78773489Y-114864414D01*
X78970947Y-114956490D01*
X78981239Y-114960236D01*
X79191688Y-115016625D01*
X79202481Y-115018528D01*
X79419525Y-115037517D01*
X79430475Y-115037517D01*
X79647519Y-115018528D01*
X79658312Y-115016625D01*
X79868761Y-114960236D01*
X79879053Y-114956490D01*
X80076511Y-114864414D01*
X80086006Y-114858931D01*
X80138048Y-114822491D01*
X80146424Y-114812012D01*
X80145925Y-114811062D01*
X81828493Y-114811062D01*
X81837789Y-114823077D01*
X81888994Y-114858931D01*
X81898489Y-114864414D01*
X82095947Y-114956490D01*
X82106239Y-114960236D01*
X82316688Y-115016625D01*
X82327481Y-115018528D01*
X82544525Y-115037517D01*
X82555475Y-115037517D01*
X82772519Y-115018528D01*
X82783312Y-115016625D01*
X82993761Y-114960236D01*
X83004053Y-114956490D01*
X83201511Y-114864414D01*
X83211006Y-114858931D01*
X83263048Y-114822491D01*
X83271424Y-114812012D01*
X83264356Y-114798566D01*
X83251852Y-114786062D01*
X84953493Y-114786062D01*
X84962789Y-114798077D01*
X85013994Y-114833931D01*
X85023489Y-114839414D01*
X85220947Y-114931490D01*
X85231239Y-114935236D01*
X85441688Y-114991625D01*
X85452481Y-114993528D01*
X85669525Y-115012517D01*
X85680475Y-115012517D01*
X85897519Y-114993528D01*
X85908312Y-114991625D01*
X86118761Y-114935236D01*
X86129053Y-114931490D01*
X86326511Y-114839414D01*
X86336006Y-114833931D01*
X86388048Y-114797491D01*
X86396424Y-114787012D01*
X86389356Y-114773566D01*
X86249127Y-114633337D01*
X88092273Y-114633337D01*
X88139764Y-114810576D01*
X88143510Y-114820868D01*
X88235586Y-115018326D01*
X88241069Y-115027822D01*
X88366028Y-115206282D01*
X88373084Y-115214690D01*
X88527125Y-115368731D01*
X88535533Y-115375787D01*
X88707361Y-115496102D01*
X88751689Y-115551559D01*
X88758998Y-115622178D01*
X88726967Y-115685539D01*
X88665766Y-115721524D01*
X88635090Y-115725315D01*
X88538842Y-115725315D01*
X88534294Y-115725985D01*
X88534287Y-115725985D01*
X88473541Y-115734927D01*
X88473539Y-115734928D01*
X88463856Y-115736353D01*
X88455068Y-115740668D01*
X88455067Y-115740668D01*
X88359197Y-115787738D01*
X88359196Y-115787739D01*
X88349849Y-115792328D01*
X88260120Y-115882214D01*
X88255547Y-115891570D01*
X88255546Y-115891571D01*
X88247134Y-115908780D01*
X88204345Y-115996318D01*
X88201913Y-116012988D01*
X88194165Y-116066102D01*
X88193500Y-116070657D01*
X88193500Y-117742973D01*
X88194170Y-117747521D01*
X88194170Y-117747528D01*
X88203112Y-117808274D01*
X88204538Y-117817959D01*
X88208853Y-117826747D01*
X88208853Y-117826748D01*
X88251084Y-117912761D01*
X88260513Y-117931966D01*
X88350399Y-118021695D01*
X88464503Y-118077470D01*
X88497284Y-118082252D01*
X88534316Y-118087655D01*
X88534320Y-118087655D01*
X88538842Y-118088315D01*
X90211158Y-118088315D01*
X90215706Y-118087645D01*
X90215713Y-118087645D01*
X90276459Y-118078703D01*
X90276461Y-118078702D01*
X90286144Y-118077277D01*
X90334059Y-118053752D01*
X90390803Y-118025892D01*
X90390804Y-118025891D01*
X90400151Y-118021302D01*
X90489880Y-117931416D01*
X90502287Y-117906035D01*
X90518529Y-117872807D01*
X90545655Y-117817312D01*
X90551017Y-117780555D01*
X90555840Y-117747499D01*
X90555840Y-117747495D01*
X90556500Y-117742973D01*
X90556500Y-116070657D01*
X90549660Y-116024186D01*
X90546888Y-116005356D01*
X90546887Y-116005354D01*
X90545462Y-115995671D01*
X90541147Y-115986882D01*
X90494077Y-115891012D01*
X90494076Y-115891011D01*
X90489487Y-115881664D01*
X90399601Y-115791935D01*
X90285497Y-115736160D01*
X90252716Y-115731378D01*
X90215684Y-115725975D01*
X90215680Y-115725975D01*
X90211158Y-115725315D01*
X90114910Y-115725315D01*
X90046789Y-115705313D01*
X90000296Y-115651657D01*
X89990192Y-115581383D01*
X90019686Y-115516803D01*
X90042639Y-115496102D01*
X90214467Y-115375787D01*
X90222875Y-115368731D01*
X90376916Y-115214690D01*
X90383972Y-115206282D01*
X90463766Y-115092324D01*
X95559728Y-115092324D01*
X95559903Y-115096776D01*
X95568949Y-115326997D01*
X95569911Y-115351492D01*
X95616509Y-115606639D01*
X95698593Y-115852675D01*
X95700585Y-115856662D01*
X95700586Y-115856664D01*
X95809797Y-116075230D01*
X95814524Y-116084691D01*
X95961991Y-116298057D01*
X95965007Y-116301319D01*
X95965012Y-116301326D01*
X96135034Y-116485254D01*
X96135039Y-116485258D01*
X96138050Y-116488516D01*
X96339188Y-116652269D01*
X96561393Y-116786047D01*
X96565488Y-116787781D01*
X96565490Y-116787782D01*
X96791242Y-116883375D01*
X96800230Y-116887181D01*
X96804523Y-116888319D01*
X96804528Y-116888321D01*
X96935241Y-116922978D01*
X97050935Y-116953654D01*
X97308504Y-116984140D01*
X97567800Y-116978029D01*
X97572198Y-116977297D01*
X97819257Y-116936175D01*
X97819261Y-116936174D01*
X97823647Y-116935444D01*
X97827888Y-116934103D01*
X97827891Y-116934102D01*
X98066696Y-116858578D01*
X98066698Y-116858577D01*
X98070942Y-116857235D01*
X98074953Y-116855309D01*
X98074958Y-116855307D01*
X98300731Y-116746892D01*
X98300732Y-116746891D01*
X98304750Y-116744962D01*
X98413181Y-116672511D01*
X98516698Y-116603343D01*
X98516702Y-116603340D01*
X98520406Y-116600865D01*
X98523723Y-116597894D01*
X98523727Y-116597891D01*
X98710290Y-116430792D01*
X98710291Y-116430791D01*
X98713608Y-116427820D01*
X98880499Y-116229278D01*
X99017751Y-116009202D01*
X99122625Y-115771983D01*
X99164874Y-115622178D01*
X99191816Y-115526649D01*
X99191817Y-115526645D01*
X99193027Y-115522354D01*
X99227555Y-115265295D01*
X99227656Y-115262086D01*
X99231077Y-115153222D01*
X99231077Y-115153217D01*
X99231178Y-115150000D01*
X99227095Y-115092324D01*
X105719728Y-115092324D01*
X105719903Y-115096776D01*
X105728949Y-115326997D01*
X105729911Y-115351492D01*
X105776509Y-115606639D01*
X105858593Y-115852675D01*
X105860585Y-115856662D01*
X105860586Y-115856664D01*
X105969797Y-116075230D01*
X105974524Y-116084691D01*
X106121991Y-116298057D01*
X106125007Y-116301319D01*
X106125012Y-116301326D01*
X106295034Y-116485254D01*
X106295039Y-116485258D01*
X106298050Y-116488516D01*
X106499188Y-116652269D01*
X106721393Y-116786047D01*
X106725488Y-116787781D01*
X106725490Y-116787782D01*
X106951242Y-116883375D01*
X106960230Y-116887181D01*
X106964523Y-116888319D01*
X106964528Y-116888321D01*
X107095241Y-116922978D01*
X107210935Y-116953654D01*
X107468504Y-116984140D01*
X107727800Y-116978029D01*
X107732198Y-116977297D01*
X107979257Y-116936175D01*
X107979261Y-116936174D01*
X107983647Y-116935444D01*
X107987888Y-116934103D01*
X107987891Y-116934102D01*
X108226696Y-116858578D01*
X108226698Y-116858577D01*
X108230942Y-116857235D01*
X108234953Y-116855309D01*
X108234958Y-116855307D01*
X108460731Y-116746892D01*
X108460732Y-116746891D01*
X108464750Y-116744962D01*
X108573181Y-116672511D01*
X108676698Y-116603343D01*
X108676702Y-116603340D01*
X108680406Y-116600865D01*
X108683723Y-116597894D01*
X108683727Y-116597891D01*
X108870290Y-116430792D01*
X108870291Y-116430791D01*
X108873608Y-116427820D01*
X109040499Y-116229278D01*
X109114997Y-116109824D01*
X111784728Y-116109824D01*
X111784903Y-116114276D01*
X111794657Y-116362517D01*
X111794911Y-116368992D01*
X111841509Y-116624139D01*
X111923593Y-116870175D01*
X111925585Y-116874162D01*
X111925586Y-116874164D01*
X112007101Y-117037301D01*
X112039524Y-117102191D01*
X112186991Y-117315557D01*
X112190007Y-117318819D01*
X112190012Y-117318826D01*
X112360034Y-117502754D01*
X112360039Y-117502758D01*
X112363050Y-117506016D01*
X112564188Y-117669769D01*
X112568006Y-117672068D01*
X112568008Y-117672069D01*
X112759832Y-117787556D01*
X112786393Y-117803547D01*
X112790488Y-117805281D01*
X112790490Y-117805282D01*
X113019180Y-117902119D01*
X113025230Y-117904681D01*
X113029523Y-117905819D01*
X113029528Y-117905821D01*
X113142064Y-117935659D01*
X113275935Y-117971154D01*
X113533504Y-118001640D01*
X113792800Y-117995529D01*
X113797198Y-117994797D01*
X114044257Y-117953675D01*
X114044261Y-117953674D01*
X114048647Y-117952944D01*
X114052888Y-117951603D01*
X114052891Y-117951602D01*
X114291696Y-117876078D01*
X114291698Y-117876077D01*
X114295942Y-117874735D01*
X114299953Y-117872809D01*
X114299958Y-117872807D01*
X114525731Y-117764392D01*
X114525732Y-117764391D01*
X114529750Y-117762462D01*
X114638181Y-117690011D01*
X114741698Y-117620843D01*
X114741702Y-117620840D01*
X114745406Y-117618365D01*
X114748723Y-117615394D01*
X114748727Y-117615391D01*
X114935290Y-117448292D01*
X114935291Y-117448291D01*
X114938608Y-117445320D01*
X115105499Y-117246778D01*
X115236844Y-117036174D01*
X115240390Y-117030488D01*
X115240391Y-117030486D01*
X115242751Y-117026702D01*
X115347625Y-116789483D01*
X115387117Y-116649455D01*
X115416816Y-116544149D01*
X115416817Y-116544145D01*
X115418027Y-116539854D01*
X115452555Y-116282795D01*
X115454327Y-116226411D01*
X115456077Y-116170722D01*
X115456077Y-116170717D01*
X115456178Y-116167500D01*
X115452094Y-116109824D01*
X121944728Y-116109824D01*
X121944903Y-116114276D01*
X121954657Y-116362517D01*
X121954911Y-116368992D01*
X122001509Y-116624139D01*
X122083593Y-116870175D01*
X122085585Y-116874162D01*
X122085586Y-116874164D01*
X122167101Y-117037301D01*
X122199524Y-117102191D01*
X122346991Y-117315557D01*
X122350007Y-117318819D01*
X122350012Y-117318826D01*
X122520034Y-117502754D01*
X122520039Y-117502758D01*
X122523050Y-117506016D01*
X122724188Y-117669769D01*
X122728006Y-117672068D01*
X122728008Y-117672069D01*
X122919832Y-117787556D01*
X122946393Y-117803547D01*
X122950488Y-117805281D01*
X122950490Y-117805282D01*
X123179180Y-117902119D01*
X123185230Y-117904681D01*
X123189523Y-117905819D01*
X123189528Y-117905821D01*
X123302064Y-117935659D01*
X123435935Y-117971154D01*
X123693504Y-118001640D01*
X123952800Y-117995529D01*
X123957198Y-117994797D01*
X124204257Y-117953675D01*
X124204261Y-117953674D01*
X124208647Y-117952944D01*
X124212888Y-117951603D01*
X124212891Y-117951602D01*
X124451696Y-117876078D01*
X124451698Y-117876077D01*
X124455942Y-117874735D01*
X124459953Y-117872809D01*
X124459958Y-117872807D01*
X124685731Y-117764392D01*
X124685732Y-117764391D01*
X124689750Y-117762462D01*
X124798181Y-117690011D01*
X124901698Y-117620843D01*
X124901702Y-117620840D01*
X124905406Y-117618365D01*
X124908723Y-117615394D01*
X124908727Y-117615391D01*
X125095290Y-117448292D01*
X125095291Y-117448291D01*
X125098608Y-117445320D01*
X125265499Y-117246778D01*
X125396844Y-117036174D01*
X125400390Y-117030488D01*
X125400391Y-117030486D01*
X125402751Y-117026702D01*
X125507625Y-116789483D01*
X125547117Y-116649455D01*
X125576816Y-116544149D01*
X125576817Y-116544145D01*
X125578027Y-116539854D01*
X125612555Y-116282795D01*
X125614327Y-116226411D01*
X125616077Y-116170722D01*
X125616077Y-116170717D01*
X125616178Y-116167500D01*
X125597860Y-115908780D01*
X125543270Y-115655223D01*
X125540605Y-115647997D01*
X125455042Y-115416068D01*
X125455041Y-115416066D01*
X125453499Y-115411886D01*
X125330336Y-115183627D01*
X125297572Y-115139267D01*
X125208696Y-115018939D01*
X139038845Y-115018939D01*
X139053047Y-115235619D01*
X139106497Y-115446083D01*
X139197407Y-115643281D01*
X139322731Y-115820610D01*
X139478272Y-115972132D01*
X139483068Y-115975337D01*
X139483071Y-115975339D01*
X139618909Y-116066102D01*
X139658822Y-116092771D01*
X139664125Y-116095049D01*
X139664128Y-116095051D01*
X139786185Y-116147491D01*
X139858332Y-116178488D01*
X139935785Y-116196014D01*
X140064486Y-116225136D01*
X140064491Y-116225137D01*
X140070123Y-116226411D01*
X140075894Y-116226638D01*
X140075896Y-116226638D01*
X140142289Y-116229246D01*
X140287100Y-116234936D01*
X140394548Y-116219357D01*
X140496283Y-116204606D01*
X140496288Y-116204605D01*
X140501997Y-116203777D01*
X140507461Y-116201922D01*
X140507466Y-116201921D01*
X140698680Y-116137012D01*
X140701479Y-116136062D01*
X144503493Y-116136062D01*
X144512789Y-116148077D01*
X144563994Y-116183931D01*
X144573489Y-116189414D01*
X144770947Y-116281490D01*
X144781239Y-116285236D01*
X144991688Y-116341625D01*
X145002481Y-116343528D01*
X145219525Y-116362517D01*
X145230475Y-116362517D01*
X145447519Y-116343528D01*
X145458312Y-116341625D01*
X145668761Y-116285236D01*
X145679053Y-116281490D01*
X145876511Y-116189414D01*
X145886006Y-116183931D01*
X145938048Y-116147491D01*
X145946424Y-116137012D01*
X145939356Y-116123566D01*
X145237812Y-115422022D01*
X145223868Y-115414408D01*
X145222035Y-115414539D01*
X145215420Y-115418790D01*
X144509923Y-116124287D01*
X144503493Y-116136062D01*
X140701479Y-116136062D01*
X140707618Y-116133978D01*
X140897076Y-116027877D01*
X141064026Y-115889026D01*
X141187414Y-115740668D01*
X141199186Y-115726514D01*
X141202877Y-115722076D01*
X141308978Y-115532618D01*
X141340254Y-115440483D01*
X141376921Y-115332466D01*
X141376922Y-115332461D01*
X141378777Y-115326997D01*
X141387724Y-115265295D01*
X141400084Y-115180044D01*
X141409936Y-115112100D01*
X141411419Y-115055475D01*
X143912483Y-115055475D01*
X143931472Y-115272519D01*
X143933375Y-115283312D01*
X143989764Y-115493761D01*
X143993510Y-115504053D01*
X144085586Y-115701511D01*
X144091069Y-115711006D01*
X144127509Y-115763048D01*
X144137988Y-115771424D01*
X144151434Y-115764356D01*
X144852978Y-115062812D01*
X144859356Y-115051132D01*
X145589408Y-115051132D01*
X145589539Y-115052965D01*
X145593790Y-115059580D01*
X146299287Y-115765077D01*
X146311062Y-115771507D01*
X146323077Y-115762211D01*
X146358931Y-115711006D01*
X146364414Y-115701511D01*
X146456490Y-115504053D01*
X146460236Y-115493761D01*
X146516625Y-115283312D01*
X146518528Y-115272519D01*
X146537517Y-115055475D01*
X146537517Y-115044525D01*
X146518528Y-114827481D01*
X146516625Y-114816688D01*
X146460236Y-114606239D01*
X146456490Y-114595947D01*
X146364414Y-114398489D01*
X146358931Y-114388994D01*
X146322491Y-114336952D01*
X146312012Y-114328576D01*
X146298566Y-114335644D01*
X145597022Y-115037188D01*
X145589408Y-115051132D01*
X144859356Y-115051132D01*
X144860592Y-115048868D01*
X144860461Y-115047035D01*
X144856210Y-115040420D01*
X144150713Y-114334923D01*
X144138938Y-114328493D01*
X144126923Y-114337789D01*
X144091069Y-114388994D01*
X144085586Y-114398489D01*
X143993510Y-114595947D01*
X143989764Y-114606239D01*
X143933375Y-114816688D01*
X143931472Y-114827481D01*
X143912483Y-115044525D01*
X143912483Y-115055475D01*
X141411419Y-115055475D01*
X141411562Y-115050000D01*
X141394509Y-114864414D01*
X141392222Y-114839520D01*
X141392221Y-114839517D01*
X141391693Y-114833766D01*
X141389921Y-114827481D01*
X141334319Y-114630334D01*
X141332751Y-114624774D01*
X141236710Y-114430023D01*
X141106787Y-114256035D01*
X140947333Y-114108637D01*
X140763688Y-113992766D01*
X140689049Y-113962988D01*
X144503576Y-113962988D01*
X144510644Y-113976434D01*
X145212188Y-114677978D01*
X145226132Y-114685592D01*
X145227965Y-114685461D01*
X145234580Y-114681210D01*
X145940077Y-113975713D01*
X145946507Y-113963938D01*
X145937211Y-113951923D01*
X145886006Y-113916069D01*
X145876511Y-113910586D01*
X145679053Y-113818510D01*
X145668761Y-113814764D01*
X145458312Y-113758375D01*
X145447519Y-113756472D01*
X145230475Y-113737483D01*
X145219525Y-113737483D01*
X145002481Y-113756472D01*
X144991688Y-113758375D01*
X144781239Y-113814764D01*
X144770947Y-113818510D01*
X144573489Y-113910586D01*
X144563994Y-113916069D01*
X144511952Y-113952509D01*
X144503576Y-113962988D01*
X140689049Y-113962988D01*
X140562002Y-113912301D01*
X140349030Y-113869938D01*
X140343255Y-113869862D01*
X140343251Y-113869862D01*
X140234504Y-113868439D01*
X140131903Y-113867096D01*
X140126206Y-113868075D01*
X140126205Y-113868075D01*
X139923592Y-113902890D01*
X139917895Y-113903869D01*
X139714172Y-113979027D01*
X139527556Y-114090051D01*
X139523216Y-114093857D01*
X139523212Y-114093860D01*
X139436336Y-114170049D01*
X139364298Y-114233225D01*
X139360723Y-114237760D01*
X139360722Y-114237761D01*
X139233952Y-114398568D01*
X139229865Y-114403752D01*
X139227177Y-114408861D01*
X139131449Y-114590810D01*
X139131447Y-114590815D01*
X139128760Y-114595922D01*
X139064367Y-114803300D01*
X139038845Y-115018939D01*
X125208696Y-115018939D01*
X125206987Y-115016625D01*
X125176241Y-114974998D01*
X124994286Y-114790163D01*
X124990746Y-114787462D01*
X124990740Y-114787456D01*
X124800240Y-114642071D01*
X124788104Y-114632809D01*
X124740660Y-114606239D01*
X124565693Y-114508252D01*
X124565690Y-114508251D01*
X124561807Y-114506076D01*
X124319910Y-114412494D01*
X124315585Y-114411491D01*
X124315580Y-114411490D01*
X124205634Y-114386006D01*
X124067242Y-114353928D01*
X123808841Y-114331549D01*
X123804406Y-114331793D01*
X123804402Y-114331793D01*
X123554309Y-114345556D01*
X123554302Y-114345557D01*
X123549866Y-114345801D01*
X123295482Y-114396401D01*
X123050766Y-114482339D01*
X122820600Y-114601901D01*
X122816985Y-114604484D01*
X122816979Y-114604488D01*
X122709618Y-114681210D01*
X122609576Y-114752701D01*
X122536417Y-114822491D01*
X122464308Y-114891280D01*
X122421906Y-114931729D01*
X122261333Y-115135415D01*
X122206480Y-115229851D01*
X122133296Y-115355846D01*
X122133293Y-115355852D01*
X122131062Y-115359693D01*
X122129392Y-115363816D01*
X122058981Y-115537653D01*
X122033691Y-115600090D01*
X121971164Y-115851808D01*
X121944728Y-116109824D01*
X115452094Y-116109824D01*
X115437860Y-115908780D01*
X115383270Y-115655223D01*
X115380605Y-115647997D01*
X115295042Y-115416068D01*
X115295041Y-115416066D01*
X115293499Y-115411886D01*
X115170336Y-115183627D01*
X115137572Y-115139267D01*
X115046987Y-115016625D01*
X115016241Y-114974998D01*
X114834286Y-114790163D01*
X114830746Y-114787462D01*
X114830740Y-114787456D01*
X114640240Y-114642071D01*
X114628104Y-114632809D01*
X114580660Y-114606239D01*
X114405693Y-114508252D01*
X114405690Y-114508251D01*
X114401807Y-114506076D01*
X114159910Y-114412494D01*
X114155585Y-114411491D01*
X114155580Y-114411490D01*
X114045634Y-114386006D01*
X113907242Y-114353928D01*
X113648841Y-114331549D01*
X113644406Y-114331793D01*
X113644402Y-114331793D01*
X113394309Y-114345556D01*
X113394302Y-114345557D01*
X113389866Y-114345801D01*
X113135482Y-114396401D01*
X112890766Y-114482339D01*
X112660600Y-114601901D01*
X112656985Y-114604484D01*
X112656979Y-114604488D01*
X112549618Y-114681210D01*
X112449576Y-114752701D01*
X112376417Y-114822491D01*
X112304308Y-114891280D01*
X112261906Y-114931729D01*
X112101333Y-115135415D01*
X112046480Y-115229851D01*
X111973296Y-115355846D01*
X111973293Y-115355852D01*
X111971062Y-115359693D01*
X111969392Y-115363816D01*
X111898981Y-115537653D01*
X111873691Y-115600090D01*
X111811164Y-115851808D01*
X111784728Y-116109824D01*
X109114997Y-116109824D01*
X109177751Y-116009202D01*
X109282625Y-115771983D01*
X109324874Y-115622178D01*
X109351816Y-115526649D01*
X109351817Y-115526645D01*
X109353027Y-115522354D01*
X109387555Y-115265295D01*
X109387656Y-115262086D01*
X109391077Y-115153222D01*
X109391077Y-115153217D01*
X109391178Y-115150000D01*
X109383420Y-115040420D01*
X109373175Y-114895729D01*
X109372860Y-114891280D01*
X109318270Y-114637723D01*
X109312033Y-114620815D01*
X109230042Y-114398568D01*
X109230041Y-114398566D01*
X109228499Y-114394386D01*
X109105336Y-114166127D01*
X109088817Y-114143761D01*
X108977290Y-113992766D01*
X108951241Y-113957498D01*
X108769286Y-113772663D01*
X108765746Y-113769962D01*
X108765740Y-113769956D01*
X108566644Y-113618011D01*
X108563104Y-113615309D01*
X108559215Y-113613131D01*
X108340693Y-113490752D01*
X108340690Y-113490751D01*
X108336807Y-113488576D01*
X108094910Y-113394994D01*
X108090585Y-113393991D01*
X108090580Y-113393990D01*
X107989703Y-113370608D01*
X107842242Y-113336428D01*
X107583841Y-113314049D01*
X107579406Y-113314293D01*
X107579402Y-113314293D01*
X107329309Y-113328056D01*
X107329302Y-113328057D01*
X107324866Y-113328301D01*
X107070482Y-113378901D01*
X106825766Y-113464839D01*
X106595600Y-113584401D01*
X106591985Y-113586984D01*
X106591979Y-113586988D01*
X106555396Y-113613131D01*
X106384576Y-113735201D01*
X106348143Y-113769956D01*
X106205669Y-113905870D01*
X106196906Y-113914229D01*
X106078411Y-114064539D01*
X106040354Y-114112815D01*
X106036333Y-114117915D01*
X106006051Y-114170049D01*
X105908296Y-114338346D01*
X105908293Y-114338352D01*
X105906062Y-114342193D01*
X105808691Y-114582590D01*
X105746164Y-114834308D01*
X105719728Y-115092324D01*
X99227095Y-115092324D01*
X99223420Y-115040420D01*
X99213175Y-114895729D01*
X99212860Y-114891280D01*
X99158270Y-114637723D01*
X99152033Y-114620815D01*
X99070042Y-114398568D01*
X99070041Y-114398566D01*
X99068499Y-114394386D01*
X98945336Y-114166127D01*
X98928817Y-114143761D01*
X98817290Y-113992766D01*
X98791241Y-113957498D01*
X98609286Y-113772663D01*
X98605746Y-113769962D01*
X98605740Y-113769956D01*
X98406644Y-113618011D01*
X98403104Y-113615309D01*
X98399215Y-113613131D01*
X98180693Y-113490752D01*
X98180690Y-113490751D01*
X98176807Y-113488576D01*
X97934910Y-113394994D01*
X97930585Y-113393991D01*
X97930580Y-113393990D01*
X97829703Y-113370608D01*
X97682242Y-113336428D01*
X97423841Y-113314049D01*
X97419406Y-113314293D01*
X97419402Y-113314293D01*
X97169309Y-113328056D01*
X97169302Y-113328057D01*
X97164866Y-113328301D01*
X96910482Y-113378901D01*
X96665766Y-113464839D01*
X96435600Y-113584401D01*
X96431985Y-113586984D01*
X96431979Y-113586988D01*
X96395396Y-113613131D01*
X96224576Y-113735201D01*
X96188143Y-113769956D01*
X96045669Y-113905870D01*
X96036906Y-113914229D01*
X95918411Y-114064539D01*
X95880354Y-114112815D01*
X95876333Y-114117915D01*
X95846051Y-114170049D01*
X95748296Y-114338346D01*
X95748293Y-114338352D01*
X95746062Y-114342193D01*
X95648691Y-114582590D01*
X95586164Y-114834308D01*
X95559728Y-115092324D01*
X90463766Y-115092324D01*
X90508931Y-115027822D01*
X90514414Y-115018326D01*
X90606490Y-114820868D01*
X90610236Y-114810576D01*
X90656394Y-114638312D01*
X90656058Y-114624216D01*
X90648116Y-114620815D01*
X88107033Y-114620815D01*
X88093502Y-114624788D01*
X88092273Y-114633337D01*
X86249127Y-114633337D01*
X85687812Y-114072022D01*
X85673868Y-114064408D01*
X85672035Y-114064539D01*
X85665420Y-114068790D01*
X84959923Y-114774287D01*
X84953493Y-114786062D01*
X83251852Y-114786062D01*
X82562812Y-114097022D01*
X82548868Y-114089408D01*
X82547035Y-114089539D01*
X82540420Y-114093790D01*
X81834923Y-114799287D01*
X81828493Y-114811062D01*
X80145925Y-114811062D01*
X80139356Y-114798566D01*
X79437812Y-114097022D01*
X79423868Y-114089408D01*
X79422035Y-114089539D01*
X79415420Y-114093790D01*
X78709923Y-114799287D01*
X78703493Y-114811062D01*
X77075000Y-114811062D01*
X77075000Y-113730475D01*
X78112483Y-113730475D01*
X78131472Y-113947519D01*
X78133375Y-113958312D01*
X78189764Y-114168761D01*
X78193510Y-114179053D01*
X78285586Y-114376511D01*
X78291069Y-114386006D01*
X78327509Y-114438048D01*
X78337988Y-114446424D01*
X78351434Y-114439356D01*
X79052978Y-113737812D01*
X79059356Y-113726132D01*
X79789408Y-113726132D01*
X79789539Y-113727965D01*
X79793790Y-113734580D01*
X80499287Y-114440077D01*
X80511062Y-114446507D01*
X80523077Y-114437211D01*
X80558931Y-114386006D01*
X80564414Y-114376511D01*
X80656490Y-114179053D01*
X80660236Y-114168761D01*
X80716625Y-113958312D01*
X80718528Y-113947519D01*
X80737517Y-113730475D01*
X81237483Y-113730475D01*
X81256472Y-113947519D01*
X81258375Y-113958312D01*
X81314764Y-114168761D01*
X81318510Y-114179053D01*
X81410586Y-114376511D01*
X81416069Y-114386006D01*
X81452509Y-114438048D01*
X81462988Y-114446424D01*
X81476434Y-114439356D01*
X82177978Y-113737812D01*
X82184356Y-113726132D01*
X82914408Y-113726132D01*
X82914539Y-113727965D01*
X82918790Y-113734580D01*
X83624287Y-114440077D01*
X83636062Y-114446507D01*
X83648077Y-114437211D01*
X83683931Y-114386006D01*
X83689414Y-114376511D01*
X83781490Y-114179053D01*
X83785236Y-114168761D01*
X83841625Y-113958312D01*
X83843528Y-113947519D01*
X83862517Y-113730475D01*
X83862517Y-113719525D01*
X83861288Y-113705475D01*
X84362483Y-113705475D01*
X84381472Y-113922519D01*
X84383375Y-113933312D01*
X84439764Y-114143761D01*
X84443510Y-114154053D01*
X84535586Y-114351511D01*
X84541069Y-114361006D01*
X84577509Y-114413048D01*
X84587988Y-114421424D01*
X84601434Y-114414356D01*
X85302978Y-113712812D01*
X85309356Y-113701132D01*
X86039408Y-113701132D01*
X86039539Y-113702965D01*
X86043790Y-113709580D01*
X86749287Y-114415077D01*
X86761062Y-114421507D01*
X86773077Y-114412211D01*
X86808931Y-114361006D01*
X86814414Y-114351511D01*
X86906490Y-114154053D01*
X86910236Y-114143761D01*
X86923216Y-114095318D01*
X88093606Y-114095318D01*
X88093942Y-114109414D01*
X88101884Y-114112815D01*
X89102885Y-114112815D01*
X89118124Y-114108340D01*
X89119329Y-114106950D01*
X89121000Y-114099267D01*
X89121000Y-114094700D01*
X89629000Y-114094700D01*
X89633475Y-114109939D01*
X89634865Y-114111144D01*
X89642548Y-114112815D01*
X90642967Y-114112815D01*
X90656498Y-114108842D01*
X90657727Y-114100293D01*
X90610236Y-113923054D01*
X90606490Y-113912762D01*
X90514414Y-113715304D01*
X90508931Y-113705808D01*
X90383972Y-113527348D01*
X90376916Y-113518940D01*
X90222875Y-113364899D01*
X90214467Y-113357843D01*
X90036007Y-113232884D01*
X90026511Y-113227401D01*
X89829053Y-113135325D01*
X89818761Y-113131579D01*
X89646497Y-113085421D01*
X89632401Y-113085757D01*
X89629000Y-113093699D01*
X89629000Y-114094700D01*
X89121000Y-114094700D01*
X89121000Y-113098848D01*
X89117027Y-113085317D01*
X89108478Y-113084088D01*
X88931239Y-113131579D01*
X88920947Y-113135325D01*
X88723489Y-113227401D01*
X88713993Y-113232884D01*
X88535533Y-113357843D01*
X88527125Y-113364899D01*
X88373084Y-113518940D01*
X88366028Y-113527348D01*
X88241069Y-113705808D01*
X88235586Y-113715304D01*
X88143510Y-113912762D01*
X88139764Y-113923054D01*
X88093606Y-114095318D01*
X86923216Y-114095318D01*
X86966625Y-113933312D01*
X86968528Y-113922519D01*
X86987517Y-113705475D01*
X86987517Y-113694525D01*
X86968528Y-113477481D01*
X86966625Y-113466688D01*
X86910236Y-113256239D01*
X86906490Y-113245947D01*
X86814414Y-113048489D01*
X86808931Y-113038994D01*
X86772491Y-112986952D01*
X86762012Y-112978576D01*
X86748566Y-112985644D01*
X86047022Y-113687188D01*
X86039408Y-113701132D01*
X85309356Y-113701132D01*
X85310592Y-113698868D01*
X85310461Y-113697035D01*
X85306210Y-113690420D01*
X84600713Y-112984923D01*
X84588938Y-112978493D01*
X84576923Y-112987789D01*
X84541069Y-113038994D01*
X84535586Y-113048489D01*
X84443510Y-113245947D01*
X84439764Y-113256239D01*
X84383375Y-113466688D01*
X84381472Y-113477481D01*
X84362483Y-113694525D01*
X84362483Y-113705475D01*
X83861288Y-113705475D01*
X83843528Y-113502481D01*
X83841625Y-113491688D01*
X83785236Y-113281239D01*
X83781490Y-113270947D01*
X83689414Y-113073489D01*
X83683931Y-113063994D01*
X83647491Y-113011952D01*
X83637012Y-113003576D01*
X83623566Y-113010644D01*
X82922022Y-113712188D01*
X82914408Y-113726132D01*
X82184356Y-113726132D01*
X82185592Y-113723868D01*
X82185461Y-113722035D01*
X82181210Y-113715420D01*
X81475713Y-113009923D01*
X81463938Y-113003493D01*
X81451923Y-113012789D01*
X81416069Y-113063994D01*
X81410586Y-113073489D01*
X81318510Y-113270947D01*
X81314764Y-113281239D01*
X81258375Y-113491688D01*
X81256472Y-113502481D01*
X81237483Y-113719525D01*
X81237483Y-113730475D01*
X80737517Y-113730475D01*
X80737517Y-113719525D01*
X80718528Y-113502481D01*
X80716625Y-113491688D01*
X80660236Y-113281239D01*
X80656490Y-113270947D01*
X80564414Y-113073489D01*
X80558931Y-113063994D01*
X80522491Y-113011952D01*
X80512012Y-113003576D01*
X80498566Y-113010644D01*
X79797022Y-113712188D01*
X79789408Y-113726132D01*
X79059356Y-113726132D01*
X79060592Y-113723868D01*
X79060461Y-113722035D01*
X79056210Y-113715420D01*
X78350713Y-113009923D01*
X78338938Y-113003493D01*
X78326923Y-113012789D01*
X78291069Y-113063994D01*
X78285586Y-113073489D01*
X78193510Y-113270947D01*
X78189764Y-113281239D01*
X78133375Y-113491688D01*
X78131472Y-113502481D01*
X78112483Y-113719525D01*
X78112483Y-113730475D01*
X77075000Y-113730475D01*
X77075000Y-112637988D01*
X78703576Y-112637988D01*
X78710644Y-112651434D01*
X79412188Y-113352978D01*
X79426132Y-113360592D01*
X79427965Y-113360461D01*
X79434580Y-113356210D01*
X80140077Y-112650713D01*
X80146507Y-112638938D01*
X80145772Y-112637988D01*
X81828576Y-112637988D01*
X81835644Y-112651434D01*
X82537188Y-113352978D01*
X82551132Y-113360592D01*
X82552965Y-113360461D01*
X82559580Y-113356210D01*
X83265077Y-112650713D01*
X83271507Y-112638938D01*
X83262211Y-112626923D01*
X83242310Y-112612988D01*
X84953576Y-112612988D01*
X84960644Y-112626434D01*
X85662188Y-113327978D01*
X85676132Y-113335592D01*
X85677965Y-113335461D01*
X85684580Y-113331210D01*
X86390077Y-112625713D01*
X86396507Y-112613938D01*
X86387211Y-112601923D01*
X86336006Y-112566069D01*
X86326511Y-112560586D01*
X86129053Y-112468510D01*
X86118761Y-112464764D01*
X85908312Y-112408375D01*
X85897519Y-112406472D01*
X85680475Y-112387483D01*
X85669525Y-112387483D01*
X85452481Y-112406472D01*
X85441688Y-112408375D01*
X85231239Y-112464764D01*
X85220947Y-112468510D01*
X85023489Y-112560586D01*
X85013994Y-112566069D01*
X84961952Y-112602509D01*
X84953576Y-112612988D01*
X83242310Y-112612988D01*
X83211006Y-112591069D01*
X83201511Y-112585586D01*
X83004053Y-112493510D01*
X82993761Y-112489764D01*
X82783312Y-112433375D01*
X82772519Y-112431472D01*
X82555475Y-112412483D01*
X82544525Y-112412483D01*
X82327481Y-112431472D01*
X82316688Y-112433375D01*
X82106239Y-112489764D01*
X82095947Y-112493510D01*
X81898489Y-112585586D01*
X81888994Y-112591069D01*
X81836952Y-112627509D01*
X81828576Y-112637988D01*
X80145772Y-112637988D01*
X80137211Y-112626923D01*
X80086006Y-112591069D01*
X80076511Y-112585586D01*
X79879053Y-112493510D01*
X79868761Y-112489764D01*
X79658312Y-112433375D01*
X79647519Y-112431472D01*
X79430475Y-112412483D01*
X79419525Y-112412483D01*
X79202481Y-112431472D01*
X79191688Y-112433375D01*
X78981239Y-112489764D01*
X78970947Y-112493510D01*
X78773489Y-112585586D01*
X78763994Y-112591069D01*
X78711952Y-112627509D01*
X78703576Y-112637988D01*
X77075000Y-112637988D01*
X77075000Y-111893939D01*
X139038845Y-111893939D01*
X139053047Y-112110619D01*
X139106497Y-112321083D01*
X139197407Y-112518281D01*
X139322731Y-112695610D01*
X139478272Y-112847132D01*
X139483068Y-112850337D01*
X139483071Y-112850339D01*
X139625089Y-112945231D01*
X139658822Y-112967771D01*
X139664125Y-112970049D01*
X139664128Y-112970051D01*
X139853025Y-113051208D01*
X139858332Y-113053488D01*
X139935785Y-113071014D01*
X140064486Y-113100136D01*
X140064491Y-113100137D01*
X140070123Y-113101411D01*
X140075894Y-113101638D01*
X140075896Y-113101638D01*
X140142289Y-113104246D01*
X140287100Y-113109936D01*
X140399083Y-113093699D01*
X140496283Y-113079606D01*
X140496288Y-113079605D01*
X140501997Y-113078777D01*
X140507461Y-113076922D01*
X140507466Y-113076921D01*
X140698857Y-113011952D01*
X140701479Y-113011062D01*
X144503493Y-113011062D01*
X144512789Y-113023077D01*
X144563994Y-113058931D01*
X144573489Y-113064414D01*
X144770947Y-113156490D01*
X144781239Y-113160236D01*
X144991688Y-113216625D01*
X145002481Y-113218528D01*
X145219525Y-113237517D01*
X145230475Y-113237517D01*
X145447519Y-113218528D01*
X145458312Y-113216625D01*
X145668761Y-113160236D01*
X145679053Y-113156490D01*
X145876511Y-113064414D01*
X145886006Y-113058931D01*
X145938048Y-113022491D01*
X145946424Y-113012012D01*
X145939356Y-112998566D01*
X145237812Y-112297022D01*
X145223868Y-112289408D01*
X145222035Y-112289539D01*
X145215420Y-112293790D01*
X144509923Y-112999287D01*
X144503493Y-113011062D01*
X140701479Y-113011062D01*
X140707618Y-113008978D01*
X140897076Y-112902877D01*
X141064026Y-112764026D01*
X141177566Y-112627509D01*
X141199186Y-112601514D01*
X141202877Y-112597076D01*
X141308978Y-112407618D01*
X141340254Y-112315483D01*
X141376921Y-112207466D01*
X141376922Y-112207461D01*
X141378777Y-112201997D01*
X141392027Y-112110619D01*
X141409403Y-111990774D01*
X141409936Y-111987100D01*
X141411419Y-111930475D01*
X143912483Y-111930475D01*
X143931472Y-112147519D01*
X143933375Y-112158312D01*
X143989764Y-112368761D01*
X143993510Y-112379053D01*
X144085586Y-112576511D01*
X144091069Y-112586006D01*
X144127509Y-112638048D01*
X144137988Y-112646424D01*
X144151434Y-112639356D01*
X144852978Y-111937812D01*
X144859356Y-111926132D01*
X145589408Y-111926132D01*
X145589539Y-111927965D01*
X145593790Y-111934580D01*
X146299287Y-112640077D01*
X146311062Y-112646507D01*
X146323077Y-112637211D01*
X146358931Y-112586006D01*
X146364414Y-112576511D01*
X146456490Y-112379053D01*
X146460236Y-112368761D01*
X146516625Y-112158312D01*
X146518528Y-112147519D01*
X146537517Y-111930475D01*
X146537517Y-111919525D01*
X146518528Y-111702481D01*
X146516625Y-111691688D01*
X146460236Y-111481239D01*
X146456490Y-111470947D01*
X146364414Y-111273489D01*
X146358931Y-111263994D01*
X146322491Y-111211952D01*
X146312012Y-111203576D01*
X146298566Y-111210644D01*
X145597022Y-111912188D01*
X145589408Y-111926132D01*
X144859356Y-111926132D01*
X144860592Y-111923868D01*
X144860461Y-111922035D01*
X144856210Y-111915420D01*
X144150713Y-111209923D01*
X144138938Y-111203493D01*
X144126923Y-111212789D01*
X144091069Y-111263994D01*
X144085586Y-111273489D01*
X143993510Y-111470947D01*
X143989764Y-111481239D01*
X143933375Y-111691688D01*
X143931472Y-111702481D01*
X143912483Y-111919525D01*
X143912483Y-111930475D01*
X141411419Y-111930475D01*
X141411562Y-111925000D01*
X141391693Y-111708766D01*
X141389921Y-111702481D01*
X141334319Y-111505334D01*
X141332751Y-111499774D01*
X141236710Y-111305023D01*
X141106787Y-111131035D01*
X140947333Y-110983637D01*
X140763688Y-110867766D01*
X140689049Y-110837988D01*
X144503576Y-110837988D01*
X144510644Y-110851434D01*
X145212188Y-111552978D01*
X145226132Y-111560592D01*
X145227965Y-111560461D01*
X145234580Y-111556210D01*
X145940077Y-110850713D01*
X145946507Y-110838938D01*
X145937211Y-110826923D01*
X145886006Y-110791069D01*
X145876511Y-110785586D01*
X145679053Y-110693510D01*
X145668761Y-110689764D01*
X145458312Y-110633375D01*
X145447519Y-110631472D01*
X145230475Y-110612483D01*
X145219525Y-110612483D01*
X145002481Y-110631472D01*
X144991688Y-110633375D01*
X144781239Y-110689764D01*
X144770947Y-110693510D01*
X144573489Y-110785586D01*
X144563994Y-110791069D01*
X144511952Y-110827509D01*
X144503576Y-110837988D01*
X140689049Y-110837988D01*
X140562002Y-110787301D01*
X140349030Y-110744938D01*
X140343255Y-110744862D01*
X140343251Y-110744862D01*
X140234504Y-110743439D01*
X140131903Y-110742096D01*
X140126206Y-110743075D01*
X140126205Y-110743075D01*
X139923592Y-110777890D01*
X139917895Y-110778869D01*
X139714172Y-110854027D01*
X139527556Y-110965051D01*
X139523216Y-110968857D01*
X139523212Y-110968860D01*
X139368639Y-111104418D01*
X139364298Y-111108225D01*
X139360723Y-111112760D01*
X139360722Y-111112761D01*
X139284126Y-111209923D01*
X139229865Y-111278752D01*
X139227177Y-111283861D01*
X139131449Y-111465810D01*
X139131447Y-111465815D01*
X139128760Y-111470922D01*
X139064367Y-111678300D01*
X139038845Y-111893939D01*
X77075000Y-111893939D01*
X77075000Y-108483339D01*
X80406491Y-108483339D01*
X80411772Y-108490393D01*
X80597070Y-108598672D01*
X80606357Y-108603122D01*
X80817605Y-108683790D01*
X80827503Y-108686666D01*
X81049091Y-108731748D01*
X81059319Y-108732967D01*
X81285292Y-108741254D01*
X81295578Y-108740787D01*
X81519871Y-108712054D01*
X81529956Y-108709911D01*
X81746540Y-108644932D01*
X81756135Y-108641172D01*
X81959202Y-108541690D01*
X81968047Y-108536417D01*
X82031605Y-108491081D01*
X82040006Y-108480381D01*
X82033018Y-108467228D01*
X81237812Y-107672022D01*
X81223868Y-107664408D01*
X81222035Y-107664539D01*
X81215420Y-107668790D01*
X80413251Y-108470959D01*
X80406491Y-108483339D01*
X77075000Y-108483339D01*
X77075000Y-107269902D01*
X79782800Y-107269902D01*
X79795816Y-107495649D01*
X79797252Y-107505869D01*
X79846964Y-107726451D01*
X79850043Y-107736280D01*
X79935119Y-107945797D01*
X79939762Y-107954988D01*
X80033281Y-108107599D01*
X80043737Y-108117059D01*
X80052515Y-108113275D01*
X80852978Y-107312812D01*
X80859356Y-107301132D01*
X81589408Y-107301132D01*
X81589539Y-107302965D01*
X81593790Y-107309580D01*
X82392799Y-108108589D01*
X82404809Y-108115147D01*
X82416549Y-108106179D01*
X82458813Y-108047364D01*
X82464122Y-108038527D01*
X82564307Y-107835819D01*
X82568105Y-107826226D01*
X82633839Y-107609870D01*
X82636016Y-107599800D01*
X82665768Y-107373809D01*
X82666287Y-107367134D01*
X82667846Y-107303364D01*
X82667749Y-107300000D01*
X87908490Y-107300000D01*
X87928491Y-107528610D01*
X87929915Y-107533923D01*
X87929915Y-107533925D01*
X87984136Y-107736280D01*
X87987885Y-107750273D01*
X87990207Y-107755253D01*
X87990208Y-107755255D01*
X88082543Y-107953268D01*
X88082546Y-107953273D01*
X88084869Y-107958255D01*
X88216495Y-108146236D01*
X88378764Y-108308505D01*
X88383272Y-108311662D01*
X88383275Y-108311664D01*
X88461700Y-108366578D01*
X88566745Y-108440131D01*
X88571727Y-108442454D01*
X88571732Y-108442457D01*
X88769745Y-108534792D01*
X88774727Y-108537115D01*
X88780035Y-108538537D01*
X88780037Y-108538538D01*
X88991075Y-108595085D01*
X88991077Y-108595085D01*
X88996390Y-108596509D01*
X89225000Y-108616510D01*
X89453610Y-108596509D01*
X89458923Y-108595085D01*
X89458925Y-108595085D01*
X89669963Y-108538538D01*
X89669965Y-108538537D01*
X89675273Y-108537115D01*
X89680255Y-108534792D01*
X89790596Y-108483339D01*
X113356491Y-108483339D01*
X113361772Y-108490393D01*
X113547070Y-108598672D01*
X113556357Y-108603122D01*
X113767605Y-108683790D01*
X113777503Y-108686666D01*
X113999091Y-108731748D01*
X114009319Y-108732967D01*
X114235292Y-108741254D01*
X114245578Y-108740787D01*
X114469871Y-108712054D01*
X114479956Y-108709911D01*
X114696540Y-108644932D01*
X114706135Y-108641172D01*
X114909202Y-108541690D01*
X114918047Y-108536417D01*
X114981605Y-108491081D01*
X114990006Y-108480381D01*
X114983018Y-108467228D01*
X114187812Y-107672022D01*
X114173868Y-107664408D01*
X114172035Y-107664539D01*
X114165420Y-107668790D01*
X113363251Y-108470959D01*
X113356491Y-108483339D01*
X89790596Y-108483339D01*
X89878268Y-108442457D01*
X89878273Y-108442454D01*
X89883255Y-108440131D01*
X89988300Y-108366578D01*
X90066725Y-108311664D01*
X90066728Y-108311662D01*
X90071236Y-108308505D01*
X90233505Y-108146236D01*
X90365131Y-107958255D01*
X90367454Y-107953273D01*
X90367457Y-107953268D01*
X90459792Y-107755255D01*
X90459793Y-107755253D01*
X90462115Y-107750273D01*
X90465865Y-107736280D01*
X90520085Y-107533925D01*
X90520085Y-107533923D01*
X90521509Y-107528610D01*
X90541510Y-107300000D01*
X90538877Y-107269902D01*
X112732800Y-107269902D01*
X112745816Y-107495649D01*
X112747252Y-107505869D01*
X112796964Y-107726451D01*
X112800043Y-107736280D01*
X112885119Y-107945797D01*
X112889762Y-107954988D01*
X112983281Y-108107599D01*
X112993737Y-108117059D01*
X113002515Y-108113275D01*
X113802978Y-107312812D01*
X113809356Y-107301132D01*
X114539408Y-107301132D01*
X114539539Y-107302965D01*
X114543790Y-107309580D01*
X115342799Y-108108589D01*
X115354809Y-108115147D01*
X115366549Y-108106179D01*
X115408813Y-108047364D01*
X115414122Y-108038527D01*
X115514307Y-107835819D01*
X115518105Y-107826226D01*
X115583839Y-107609870D01*
X115586016Y-107599800D01*
X115615768Y-107373809D01*
X115616287Y-107367134D01*
X115617846Y-107303364D01*
X115617749Y-107300000D01*
X120858490Y-107300000D01*
X120878491Y-107528610D01*
X120879915Y-107533923D01*
X120879915Y-107533925D01*
X120934136Y-107736280D01*
X120937885Y-107750273D01*
X120940207Y-107755253D01*
X120940208Y-107755255D01*
X121032543Y-107953268D01*
X121032546Y-107953273D01*
X121034869Y-107958255D01*
X121166495Y-108146236D01*
X121328764Y-108308505D01*
X121333272Y-108311662D01*
X121333275Y-108311664D01*
X121411700Y-108366578D01*
X121516745Y-108440131D01*
X121521727Y-108442454D01*
X121521732Y-108442457D01*
X121719745Y-108534792D01*
X121724727Y-108537115D01*
X121730035Y-108538537D01*
X121730037Y-108538538D01*
X121941075Y-108595085D01*
X121941077Y-108595085D01*
X121946390Y-108596509D01*
X122175000Y-108616510D01*
X122403610Y-108596509D01*
X122408923Y-108595085D01*
X122408925Y-108595085D01*
X122619963Y-108538538D01*
X122619965Y-108538537D01*
X122625273Y-108537115D01*
X122630255Y-108534792D01*
X122828268Y-108442457D01*
X122828273Y-108442454D01*
X122833255Y-108440131D01*
X122938300Y-108366578D01*
X123016725Y-108311664D01*
X123016728Y-108311662D01*
X123021236Y-108308505D01*
X123183505Y-108146236D01*
X123315131Y-107958255D01*
X123317454Y-107953273D01*
X123317457Y-107953268D01*
X123409792Y-107755255D01*
X123409793Y-107755253D01*
X123412115Y-107750273D01*
X123415865Y-107736280D01*
X123470085Y-107533925D01*
X123470085Y-107533923D01*
X123471509Y-107528610D01*
X123491510Y-107300000D01*
X123471509Y-107071390D01*
X123412115Y-106849727D01*
X123403031Y-106830246D01*
X123317457Y-106646732D01*
X123317454Y-106646727D01*
X123315131Y-106641745D01*
X123183505Y-106453764D01*
X123021236Y-106291495D01*
X123016728Y-106288338D01*
X123016725Y-106288336D01*
X122938300Y-106233422D01*
X122833255Y-106159869D01*
X122828273Y-106157546D01*
X122828268Y-106157543D01*
X122630255Y-106065208D01*
X122630253Y-106065207D01*
X122625273Y-106062885D01*
X122619965Y-106061463D01*
X122619963Y-106061462D01*
X122408925Y-106004915D01*
X122408923Y-106004915D01*
X122403610Y-106003491D01*
X122175000Y-105983490D01*
X121946390Y-106003491D01*
X121941077Y-106004915D01*
X121941075Y-106004915D01*
X121730037Y-106061462D01*
X121730035Y-106061463D01*
X121724727Y-106062885D01*
X121719747Y-106065207D01*
X121719745Y-106065208D01*
X121521732Y-106157543D01*
X121521727Y-106157546D01*
X121516745Y-106159869D01*
X121411700Y-106233422D01*
X121333275Y-106288336D01*
X121333272Y-106288338D01*
X121328764Y-106291495D01*
X121166495Y-106453764D01*
X121034869Y-106641745D01*
X121032546Y-106646727D01*
X121032543Y-106646732D01*
X120946969Y-106830246D01*
X120937885Y-106849727D01*
X120878491Y-107071390D01*
X120858490Y-107300000D01*
X115617749Y-107300000D01*
X115617652Y-107296646D01*
X115598977Y-107069493D01*
X115597292Y-107059313D01*
X115542207Y-106840012D01*
X115538882Y-106830246D01*
X115448722Y-106622893D01*
X115443844Y-106613795D01*
X115365920Y-106493342D01*
X115355234Y-106484139D01*
X115345667Y-106488543D01*
X114547022Y-107287188D01*
X114539408Y-107301132D01*
X113809356Y-107301132D01*
X113810592Y-107298868D01*
X113810461Y-107297035D01*
X113806210Y-107290420D01*
X113007277Y-106491487D01*
X112995741Y-106485187D01*
X112983458Y-106494810D01*
X112923293Y-106583008D01*
X112918205Y-106591964D01*
X112823001Y-106797065D01*
X112819438Y-106806752D01*
X112759012Y-107024639D01*
X112757081Y-107034758D01*
X112733052Y-107259613D01*
X112732800Y-107269902D01*
X90538877Y-107269902D01*
X90521509Y-107071390D01*
X90462115Y-106849727D01*
X90453031Y-106830246D01*
X90367457Y-106646732D01*
X90367454Y-106646727D01*
X90365131Y-106641745D01*
X90233505Y-106453764D01*
X90071236Y-106291495D01*
X90066728Y-106288338D01*
X90066725Y-106288336D01*
X89988300Y-106233422D01*
X89883255Y-106159869D01*
X89878273Y-106157546D01*
X89878268Y-106157543D01*
X89796221Y-106119284D01*
X113359080Y-106119284D01*
X113365824Y-106131614D01*
X114162188Y-106927978D01*
X114176132Y-106935592D01*
X114177965Y-106935461D01*
X114184580Y-106931210D01*
X114985350Y-106130440D01*
X114992370Y-106117584D01*
X114984595Y-106106914D01*
X114977563Y-106101360D01*
X114968977Y-106095656D01*
X114771023Y-105986379D01*
X114761611Y-105982149D01*
X114548465Y-105906669D01*
X114538494Y-105904035D01*
X114315881Y-105864382D01*
X114305628Y-105863413D01*
X114079515Y-105860650D01*
X114069232Y-105861370D01*
X113845713Y-105895572D01*
X113835694Y-105897959D01*
X113620756Y-105968212D01*
X113611254Y-105972207D01*
X113410684Y-106076617D01*
X113401966Y-106082106D01*
X113367533Y-106107959D01*
X113359080Y-106119284D01*
X89796221Y-106119284D01*
X89680255Y-106065208D01*
X89680253Y-106065207D01*
X89675273Y-106062885D01*
X89669965Y-106061463D01*
X89669963Y-106061462D01*
X89458925Y-106004915D01*
X89458923Y-106004915D01*
X89453610Y-106003491D01*
X89225000Y-105983490D01*
X88996390Y-106003491D01*
X88991077Y-106004915D01*
X88991075Y-106004915D01*
X88780037Y-106061462D01*
X88780035Y-106061463D01*
X88774727Y-106062885D01*
X88769747Y-106065207D01*
X88769745Y-106065208D01*
X88571732Y-106157543D01*
X88571727Y-106157546D01*
X88566745Y-106159869D01*
X88461700Y-106233422D01*
X88383275Y-106288336D01*
X88383272Y-106288338D01*
X88378764Y-106291495D01*
X88216495Y-106453764D01*
X88084869Y-106641745D01*
X88082546Y-106646727D01*
X88082543Y-106646732D01*
X87996969Y-106830246D01*
X87987885Y-106849727D01*
X87928491Y-107071390D01*
X87908490Y-107300000D01*
X82667749Y-107300000D01*
X82667652Y-107296646D01*
X82648977Y-107069493D01*
X82647292Y-107059313D01*
X82592207Y-106840012D01*
X82588882Y-106830246D01*
X82498722Y-106622893D01*
X82493844Y-106613795D01*
X82415920Y-106493342D01*
X82405234Y-106484139D01*
X82395667Y-106488543D01*
X81597022Y-107287188D01*
X81589408Y-107301132D01*
X80859356Y-107301132D01*
X80860592Y-107298868D01*
X80860461Y-107297035D01*
X80856210Y-107290420D01*
X80057277Y-106491487D01*
X80045741Y-106485187D01*
X80033458Y-106494810D01*
X79973293Y-106583008D01*
X79968205Y-106591964D01*
X79873001Y-106797065D01*
X79869438Y-106806752D01*
X79809012Y-107024639D01*
X79807081Y-107034758D01*
X79783052Y-107259613D01*
X79782800Y-107269902D01*
X77075000Y-107269902D01*
X77075000Y-106119284D01*
X80409080Y-106119284D01*
X80415824Y-106131614D01*
X81212188Y-106927978D01*
X81226132Y-106935592D01*
X81227965Y-106935461D01*
X81234580Y-106931210D01*
X82035350Y-106130440D01*
X82042370Y-106117584D01*
X82034595Y-106106914D01*
X82027563Y-106101360D01*
X82018977Y-106095656D01*
X81821023Y-105986379D01*
X81811611Y-105982149D01*
X81598465Y-105906669D01*
X81588494Y-105904035D01*
X81365881Y-105864382D01*
X81355628Y-105863413D01*
X81129515Y-105860650D01*
X81119232Y-105861370D01*
X80895713Y-105895572D01*
X80885694Y-105897959D01*
X80670756Y-105968212D01*
X80661254Y-105972207D01*
X80460684Y-106076617D01*
X80451966Y-106082106D01*
X80417533Y-106107959D01*
X80409080Y-106119284D01*
X77075000Y-106119284D01*
X77075000Y-104223193D01*
X139689616Y-104223193D01*
X139719433Y-104420348D01*
X139788284Y-104607480D01*
X139893357Y-104776946D01*
X140030360Y-104921823D01*
X140125168Y-104988208D01*
X140149202Y-105005037D01*
X140193530Y-105060494D01*
X140200839Y-105131113D01*
X140168808Y-105194474D01*
X140112084Y-105229247D01*
X140079821Y-105238620D01*
X140079819Y-105238621D01*
X140072208Y-105240832D01*
X139934873Y-105322051D01*
X139822051Y-105434873D01*
X139740832Y-105572208D01*
X139738621Y-105579819D01*
X139738620Y-105579821D01*
X139698112Y-105719249D01*
X139698111Y-105719254D01*
X139696318Y-105725426D01*
X139693500Y-105761230D01*
X139693500Y-106588770D01*
X139693693Y-106591218D01*
X139693693Y-106591226D01*
X139695470Y-106613795D01*
X139696318Y-106624574D01*
X139698111Y-106630746D01*
X139698112Y-106630751D01*
X139738620Y-106770179D01*
X139740832Y-106777792D01*
X139744867Y-106784615D01*
X139780428Y-106844745D01*
X139822051Y-106915127D01*
X139934873Y-107027949D01*
X139941693Y-107031983D01*
X139941694Y-107031983D01*
X140065385Y-107105133D01*
X140072208Y-107109168D01*
X140079819Y-107111379D01*
X140079821Y-107111380D01*
X140219249Y-107151888D01*
X140219254Y-107151889D01*
X140225426Y-107153682D01*
X140231831Y-107154186D01*
X140231836Y-107154187D01*
X140258774Y-107156307D01*
X140258782Y-107156307D01*
X140261230Y-107156500D01*
X141638770Y-107156500D01*
X141641218Y-107156307D01*
X141641226Y-107156307D01*
X141668164Y-107154187D01*
X141668169Y-107154186D01*
X141674574Y-107153682D01*
X141680746Y-107151889D01*
X141680751Y-107151888D01*
X141820179Y-107111380D01*
X141820181Y-107111379D01*
X141827792Y-107109168D01*
X141834615Y-107105133D01*
X141958306Y-107031983D01*
X141958307Y-107031983D01*
X141965127Y-107027949D01*
X142077949Y-106915127D01*
X142119573Y-106844745D01*
X142155133Y-106784615D01*
X142159168Y-106777792D01*
X142161380Y-106770179D01*
X142201888Y-106630751D01*
X142201889Y-106630746D01*
X142203682Y-106624574D01*
X142204531Y-106613795D01*
X142206307Y-106591226D01*
X142206307Y-106591218D01*
X142206500Y-106588770D01*
X142206500Y-105761230D01*
X142203682Y-105725426D01*
X142201889Y-105719254D01*
X142201888Y-105719249D01*
X142161380Y-105579821D01*
X142161379Y-105579819D01*
X142159168Y-105572208D01*
X142077949Y-105434873D01*
X141965127Y-105322051D01*
X141827792Y-105240832D01*
X141789706Y-105229767D01*
X141729871Y-105191553D01*
X141700194Y-105127057D01*
X141710098Y-105056754D01*
X141756438Y-105002967D01*
X141763774Y-104998568D01*
X141782464Y-104988208D01*
X141788044Y-104985115D01*
X141939440Y-104855352D01*
X142004463Y-104771526D01*
X142057737Y-104702845D01*
X142061652Y-104697798D01*
X142149687Y-104518888D01*
X142199949Y-104325930D01*
X142210384Y-104126807D01*
X142180567Y-103929652D01*
X142111716Y-103742520D01*
X142006643Y-103573054D01*
X141869640Y-103428177D01*
X141706304Y-103313808D01*
X141523307Y-103234618D01*
X141407847Y-103210497D01*
X141332869Y-103194833D01*
X141332865Y-103194833D01*
X141328124Y-103193842D01*
X141323287Y-103193589D01*
X141323283Y-103193588D01*
X141323277Y-103193588D01*
X141321598Y-103193500D01*
X140625165Y-103193500D01*
X140612042Y-103194833D01*
X140482972Y-103207943D01*
X140482970Y-103207943D01*
X140476624Y-103208588D01*
X140286352Y-103268216D01*
X140111956Y-103364885D01*
X139960560Y-103494648D01*
X139956649Y-103499689D01*
X139956647Y-103499692D01*
X139867219Y-103614982D01*
X139838348Y-103652202D01*
X139750313Y-103831112D01*
X139700051Y-104024070D01*
X139689616Y-104223193D01*
X77075000Y-104223193D01*
X77075000Y-102926000D01*
X77095002Y-102857879D01*
X77148658Y-102811386D01*
X77201000Y-102800000D01*
X134150000Y-102800000D01*
X134150000Y-96173193D01*
X139689616Y-96173193D01*
X139719433Y-96370348D01*
X139788284Y-96557480D01*
X139893357Y-96726946D01*
X140030360Y-96871823D01*
X140125168Y-96938208D01*
X140149202Y-96955037D01*
X140193530Y-97010494D01*
X140200839Y-97081113D01*
X140168808Y-97144474D01*
X140112084Y-97179247D01*
X140079821Y-97188620D01*
X140079819Y-97188621D01*
X140072208Y-97190832D01*
X139934873Y-97272051D01*
X139822051Y-97384873D01*
X139740832Y-97522208D01*
X139738621Y-97529819D01*
X139738620Y-97529821D01*
X139698112Y-97669249D01*
X139698111Y-97669254D01*
X139696318Y-97675426D01*
X139693500Y-97711230D01*
X139693500Y-98538770D01*
X139696318Y-98574574D01*
X139698111Y-98580746D01*
X139698112Y-98580751D01*
X139738620Y-98720179D01*
X139740832Y-98727792D01*
X139822051Y-98865127D01*
X139934873Y-98977949D01*
X140072208Y-99059168D01*
X140079819Y-99061379D01*
X140079821Y-99061380D01*
X140219249Y-99101888D01*
X140219254Y-99101889D01*
X140225426Y-99103682D01*
X140231831Y-99104186D01*
X140231836Y-99104187D01*
X140258774Y-99106307D01*
X140258782Y-99106307D01*
X140261230Y-99106500D01*
X141638770Y-99106500D01*
X141641218Y-99106307D01*
X141641226Y-99106307D01*
X141668164Y-99104187D01*
X141668169Y-99104186D01*
X141674574Y-99103682D01*
X141680746Y-99101889D01*
X141680751Y-99101888D01*
X141820179Y-99061380D01*
X141820181Y-99061379D01*
X141827792Y-99059168D01*
X141965127Y-98977949D01*
X142077949Y-98865127D01*
X142159168Y-98727792D01*
X142161380Y-98720179D01*
X142201888Y-98580751D01*
X142201889Y-98580746D01*
X142203682Y-98574574D01*
X142206500Y-98538770D01*
X142206500Y-97711230D01*
X142203682Y-97675426D01*
X142201889Y-97669254D01*
X142201888Y-97669249D01*
X142161380Y-97529821D01*
X142161379Y-97529819D01*
X142159168Y-97522208D01*
X142077949Y-97384873D01*
X141965127Y-97272051D01*
X141827792Y-97190832D01*
X141789706Y-97179767D01*
X141729871Y-97141553D01*
X141700194Y-97077057D01*
X141710098Y-97006754D01*
X141756438Y-96952967D01*
X141763774Y-96948568D01*
X141782464Y-96938208D01*
X141788044Y-96935115D01*
X141939440Y-96805352D01*
X142004463Y-96721526D01*
X142057737Y-96652845D01*
X142061652Y-96647798D01*
X142149687Y-96468888D01*
X142199949Y-96275930D01*
X142210384Y-96076807D01*
X142180567Y-95879652D01*
X142111716Y-95692520D01*
X142006643Y-95523054D01*
X141869640Y-95378177D01*
X141706304Y-95263808D01*
X141523307Y-95184618D01*
X141407847Y-95160497D01*
X141332869Y-95144833D01*
X141332865Y-95144833D01*
X141328124Y-95143842D01*
X141323287Y-95143589D01*
X141323283Y-95143588D01*
X141323277Y-95143588D01*
X141321598Y-95143500D01*
X140625165Y-95143500D01*
X140612042Y-95144833D01*
X140482972Y-95157943D01*
X140482970Y-95157943D01*
X140476624Y-95158588D01*
X140286352Y-95218216D01*
X140111956Y-95314885D01*
X139960560Y-95444648D01*
X139956649Y-95449689D01*
X139956647Y-95449692D01*
X139867219Y-95564982D01*
X139838348Y-95602202D01*
X139750313Y-95781112D01*
X139700051Y-95974070D01*
X139689616Y-96173193D01*
X134150000Y-96173193D01*
X134150000Y-90968939D01*
X139688845Y-90968939D01*
X139703047Y-91185619D01*
X139756497Y-91396083D01*
X139847407Y-91593281D01*
X139972731Y-91770610D01*
X140128272Y-91922132D01*
X140133068Y-91925337D01*
X140133071Y-91925339D01*
X140275089Y-92020231D01*
X140308822Y-92042771D01*
X140314125Y-92045049D01*
X140314128Y-92045051D01*
X140503025Y-92126208D01*
X140508332Y-92128488D01*
X140585785Y-92146014D01*
X140714486Y-92175136D01*
X140714491Y-92175137D01*
X140720123Y-92176411D01*
X140725894Y-92176638D01*
X140725896Y-92176638D01*
X140792289Y-92179246D01*
X140937100Y-92184936D01*
X141044549Y-92169356D01*
X141146283Y-92154606D01*
X141146288Y-92154605D01*
X141151997Y-92153777D01*
X141157461Y-92151922D01*
X141157466Y-92151921D01*
X141352150Y-92085834D01*
X141357618Y-92083978D01*
X141547076Y-91977877D01*
X141714026Y-91839026D01*
X141852877Y-91672076D01*
X141958978Y-91482618D01*
X142028777Y-91276997D01*
X142042027Y-91185619D01*
X142059403Y-91065774D01*
X142059936Y-91062100D01*
X142061562Y-91000000D01*
X142041693Y-90783766D01*
X142034720Y-90759039D01*
X141984319Y-90580334D01*
X141982751Y-90574774D01*
X141886710Y-90380023D01*
X141756787Y-90206035D01*
X141597333Y-90058637D01*
X141413688Y-89942766D01*
X141212002Y-89862301D01*
X140999030Y-89819938D01*
X140993255Y-89819862D01*
X140993251Y-89819862D01*
X140884504Y-89818439D01*
X140781903Y-89817096D01*
X140776206Y-89818075D01*
X140776205Y-89818075D01*
X140573592Y-89852890D01*
X140567895Y-89853869D01*
X140364172Y-89929027D01*
X140177556Y-90040051D01*
X140173216Y-90043857D01*
X140173212Y-90043860D01*
X140018639Y-90179418D01*
X140014298Y-90183225D01*
X139879865Y-90353752D01*
X139877177Y-90358861D01*
X139781449Y-90540810D01*
X139781447Y-90540815D01*
X139778760Y-90545922D01*
X139714367Y-90753300D01*
X139688845Y-90968939D01*
X134150000Y-90968939D01*
X134150000Y-83646522D01*
X139592273Y-83646522D01*
X139639764Y-83823761D01*
X139643510Y-83834053D01*
X139735586Y-84031511D01*
X139741069Y-84041007D01*
X139866028Y-84219467D01*
X139873084Y-84227875D01*
X140027125Y-84381916D01*
X140035533Y-84388972D01*
X140213993Y-84513931D01*
X140223489Y-84519414D01*
X140420947Y-84611490D01*
X140431239Y-84615236D01*
X140603503Y-84661394D01*
X140617599Y-84661058D01*
X140621000Y-84653116D01*
X140621000Y-84647967D01*
X141129000Y-84647967D01*
X141132973Y-84661498D01*
X141141522Y-84662727D01*
X141318761Y-84615236D01*
X141329053Y-84611490D01*
X141526511Y-84519414D01*
X141536007Y-84513931D01*
X141714467Y-84388972D01*
X141722875Y-84381916D01*
X141876916Y-84227875D01*
X141883972Y-84219467D01*
X142008931Y-84041007D01*
X142014414Y-84031511D01*
X142106490Y-83834053D01*
X142110236Y-83823761D01*
X142156394Y-83651497D01*
X142156058Y-83637401D01*
X142148116Y-83634000D01*
X141147115Y-83634000D01*
X141131876Y-83638475D01*
X141130671Y-83639865D01*
X141129000Y-83647548D01*
X141129000Y-84647967D01*
X140621000Y-84647967D01*
X140621000Y-83652115D01*
X140616525Y-83636876D01*
X140615135Y-83635671D01*
X140607452Y-83634000D01*
X139607033Y-83634000D01*
X139593502Y-83637973D01*
X139592273Y-83646522D01*
X134150000Y-83646522D01*
X134150000Y-83108503D01*
X139593606Y-83108503D01*
X139593942Y-83122599D01*
X139601884Y-83126000D01*
X140602885Y-83126000D01*
X140618124Y-83121525D01*
X140619329Y-83120135D01*
X140621000Y-83112452D01*
X140621000Y-83107885D01*
X141129000Y-83107885D01*
X141133475Y-83123124D01*
X141134865Y-83124329D01*
X141142548Y-83126000D01*
X142142967Y-83126000D01*
X142156498Y-83122027D01*
X142157727Y-83113478D01*
X142110236Y-82936239D01*
X142109045Y-82932966D01*
X144343257Y-82932966D01*
X144373565Y-83067446D01*
X144376645Y-83077275D01*
X144456770Y-83274603D01*
X144461413Y-83283794D01*
X144572694Y-83465388D01*
X144578777Y-83473699D01*
X144718213Y-83634667D01*
X144725580Y-83641883D01*
X144889434Y-83777916D01*
X144897881Y-83783831D01*
X145081756Y-83891279D01*
X145091042Y-83895729D01*
X145290001Y-83971703D01*
X145299899Y-83974579D01*
X145403250Y-83995606D01*
X145417299Y-83994410D01*
X145421000Y-83984065D01*
X145421000Y-83983517D01*
X145929000Y-83983517D01*
X145933064Y-83997359D01*
X145946478Y-83999393D01*
X145953184Y-83998534D01*
X145963262Y-83996392D01*
X146167255Y-83935191D01*
X146176842Y-83931433D01*
X146368095Y-83837739D01*
X146376945Y-83832464D01*
X146550328Y-83708792D01*
X146558200Y-83702139D01*
X146709052Y-83551812D01*
X146715730Y-83543965D01*
X146840003Y-83371020D01*
X146845313Y-83362183D01*
X146939670Y-83171267D01*
X146943469Y-83161672D01*
X147005377Y-82957910D01*
X147007555Y-82947837D01*
X147008986Y-82936962D01*
X147006775Y-82922778D01*
X146993617Y-82919000D01*
X145947115Y-82919000D01*
X145931876Y-82923475D01*
X145930671Y-82924865D01*
X145929000Y-82932548D01*
X145929000Y-83983517D01*
X145421000Y-83983517D01*
X145421000Y-82937115D01*
X145416525Y-82921876D01*
X145415135Y-82920671D01*
X145407452Y-82919000D01*
X144358225Y-82919000D01*
X144344694Y-82922973D01*
X144343257Y-82932966D01*
X142109045Y-82932966D01*
X142106490Y-82925947D01*
X142014414Y-82728489D01*
X142008931Y-82718993D01*
X141883972Y-82540533D01*
X141876916Y-82532125D01*
X141722875Y-82378084D01*
X141714467Y-82371028D01*
X141536007Y-82246069D01*
X141526511Y-82240586D01*
X141329053Y-82148510D01*
X141318761Y-82144764D01*
X141146497Y-82098606D01*
X141132401Y-82098942D01*
X141129000Y-82106884D01*
X141129000Y-83107885D01*
X140621000Y-83107885D01*
X140621000Y-82112033D01*
X140617027Y-82098502D01*
X140608478Y-82097273D01*
X140431239Y-82144764D01*
X140420947Y-82148510D01*
X140223489Y-82240586D01*
X140213993Y-82246069D01*
X140035533Y-82371028D01*
X140027125Y-82378084D01*
X139873084Y-82532125D01*
X139866028Y-82540533D01*
X139741069Y-82718993D01*
X139735586Y-82728489D01*
X139643510Y-82925947D01*
X139639764Y-82936239D01*
X139593606Y-83108503D01*
X134150000Y-83108503D01*
X134150000Y-81301000D01*
X134170002Y-81232879D01*
X134223658Y-81186386D01*
X134276000Y-81175000D01*
X144433191Y-81175000D01*
X144501312Y-81195002D01*
G37*
%TD.AperFunction*%
%TD*%
%TA.AperFunction,Conductor*%
%TO.N,RPi_Gnd*%
G36*
X84775000Y-123250000D02*
G01*
X80725000Y-123250000D01*
X80725000Y-122600000D01*
X83569508Y-122600000D01*
X83589354Y-122725304D01*
X83646950Y-122838342D01*
X83736658Y-122928050D01*
X83849696Y-122985646D01*
X83859485Y-122987196D01*
X83859487Y-122987197D01*
X83965207Y-123003941D01*
X83975000Y-123005492D01*
X83984793Y-123003941D01*
X84090513Y-122987197D01*
X84090515Y-122987196D01*
X84100304Y-122985646D01*
X84213342Y-122928050D01*
X84303050Y-122838342D01*
X84360646Y-122725304D01*
X84380492Y-122600000D01*
X84360646Y-122474696D01*
X84303050Y-122361658D01*
X84213342Y-122271950D01*
X84100304Y-122214354D01*
X84090515Y-122212804D01*
X84090513Y-122212803D01*
X83984793Y-122196059D01*
X83975000Y-122194508D01*
X83965207Y-122196059D01*
X83859487Y-122212803D01*
X83859485Y-122212804D01*
X83849696Y-122214354D01*
X83736658Y-122271950D01*
X83646950Y-122361658D01*
X83589354Y-122474696D01*
X83569508Y-122600000D01*
X80725000Y-122600000D01*
X80725000Y-121300000D01*
X84775000Y-121300000D01*
X84775000Y-123250000D01*
G37*
%TD.AperFunction*%
%TD*%
M02*
