%TF.GenerationSoftware,KiCad,Pcbnew,(6.0.4-0)*%
%TF.CreationDate,2023-02-13T16:26:13-08:00*%
%TF.ProjectId,v2a-power-board-4,7632612d-706f-4776-9572-2d626f617264,rev?*%
%TF.SameCoordinates,Original*%
%TF.FileFunction,Profile,NP*%
%FSLAX46Y46*%
G04 Gerber Fmt 4.6, Leading zero omitted, Abs format (unit mm)*
G04 Created by KiCad (PCBNEW (6.0.4-0)) date 2023-02-13 16:26:13*
%MOMM*%
%LPD*%
G01*
G04 APERTURE LIST*
%TA.AperFunction,Profile*%
%ADD10C,0.100000*%
%TD*%
%TA.AperFunction,Profile*%
%ADD11C,0.010000*%
%TD*%
G04 APERTURE END LIST*
D10*
X148400000Y-48975000D02*
X162250000Y-48975000D01*
X76100000Y-117342500D02*
X62250000Y-117342500D01*
X78105000Y-130892500D02*
X62250000Y-130892500D01*
X76100000Y-48975000D02*
X62250000Y-48975000D01*
X148400000Y-35425000D02*
X76100000Y-35425000D01*
X148400000Y-48975000D02*
X148400000Y-48975000D01*
X162250000Y-118017500D02*
X162250000Y-117342500D01*
X162250000Y-36100000D02*
X162250000Y-35425000D01*
X148400000Y-35425000D02*
X162250000Y-35425000D01*
X148400000Y-48975000D02*
X148400000Y-48975000D01*
X62250000Y-48300000D02*
X62250000Y-48975000D01*
X62250000Y-117342500D02*
X62250000Y-130217500D01*
X62250000Y-130217500D02*
X62250000Y-130892500D01*
X162250000Y-48975000D02*
X162250000Y-36100000D01*
X148400000Y-130892500D02*
X162250000Y-130892500D01*
X104645000Y-130892500D02*
X148400000Y-130892500D01*
X76100000Y-48975000D02*
X76100000Y-117350000D01*
X148400000Y-117342500D02*
X162250000Y-117342500D01*
X76100000Y-35425000D02*
X62250000Y-35425000D01*
X162250000Y-130892500D02*
X162250000Y-118017500D01*
X87345000Y-130892500D02*
X95405000Y-130892500D01*
X62250000Y-35425000D02*
X62250000Y-48300000D01*
X148400000Y-117350000D02*
X148400000Y-48975000D01*
D11*
%TO.C,J1*%
X87345000Y-130892500D02*
X87345000Y-124192500D01*
X78105000Y-130892500D02*
X78105000Y-124192500D01*
X78924620Y-124192500D02*
X86525380Y-124192500D01*
X78664808Y-124042500D02*
G75*
G03*
X78105000Y-124192500I-259808J-149999D01*
G01*
X87345002Y-124192499D02*
G75*
G03*
X86785190Y-124042500I-300002J-1D01*
G01*
X86525380Y-124192485D02*
G75*
G03*
X86785190Y-124042500I20J299985D01*
G01*
X78664809Y-124042500D02*
G75*
G03*
X78924620Y-124192500I259806J149997D01*
G01*
%TO.C,J2*%
X104645000Y-130892500D02*
X104645000Y-124192500D01*
X96224620Y-124192500D02*
X103825380Y-124192500D01*
X95405000Y-130892500D02*
X95405000Y-124192500D01*
X104645002Y-124192499D02*
G75*
G03*
X104085190Y-124042500I-300002J-1D01*
G01*
X95964808Y-124042500D02*
G75*
G03*
X95405000Y-124192500I-259808J-149999D01*
G01*
X95964809Y-124042500D02*
G75*
G03*
X96224620Y-124192500I259806J149997D01*
G01*
X103825380Y-124192485D02*
G75*
G03*
X104085190Y-124042500I20J299985D01*
G01*
%TD*%
M02*
