M48
; DRILL file {KiCad (6.0.4-0)} date Monday, February 13, 2023 at 03:54:30 PM
; FORMAT={-:-/ absolute / inch / decimal}
; #@! TF.CreationDate,2023-02-13T15:54:30-08:00
; #@! TF.GenerationSoftware,Kicad,Pcbnew,(6.0.4-0)
; #@! TF.FileFunction,Plated,1,4,PTH
FMAT,2
INCH
; #@! TA.AperFunction,Plated,PTH,ViaDrill
T1C0.0080
; #@! TA.AperFunction,Plated,PTH,ViaDrill
T2C0.0157
; #@! TA.AperFunction,Plated,PTH,ComponentDrill
T3C0.0236
; #@! TA.AperFunction,Plated,PTH,ComponentDrill
T4C0.0295
; #@! TA.AperFunction,Plated,PTH,ComponentDrill
T5C0.0315
; #@! TA.AperFunction,Plated,PTH,ComponentDrill
T6C0.0394
; #@! TA.AperFunction,Plated,PTH,ComponentDrill
T7C0.0488
; #@! TA.AperFunction,Plated,PTH,ComponentDrill
T8C0.0618
; #@! TA.AperFunction,Plated,PTH,ComponentDrill
T9C0.0710
; #@! TA.AperFunction,Plated,PTH,ComponentDrill
T10C0.1772
%
G90
G05
T1
X3.2077Y-4.8071
X3.247Y-4.8071
X3.2864Y-4.8071
X3.3051Y-4.7392
X3.3061Y-4.8268
X3.3258Y-4.8071
X3.8681Y-4.687
X3.8691Y-4.8219
X3.8888Y-4.7953
X3.9281Y-4.7953
X3.9675Y-4.7953
X3.9872Y-4.687
X3.9872Y-4.8219
X4.0069Y-4.7953
T2
X3.0778Y-4.8494
X3.1388Y-4.813
X3.3809Y-4.813
X3.4291Y-4.8553
X3.7687Y-4.8583
X3.7972Y-4.814
X4.0591Y-4.814
X4.1083Y-4.8533
T4
X4.4537Y-4.876
X4.5325Y-4.876
X4.7894Y-4.876
X4.8681Y-4.876
X5.5492Y-3.7844
X5.5492Y-3.8632
X5.5492Y-4.1014
X5.5492Y-4.1801
T5
X3.127Y-4.4774
X3.127Y-4.6742
X3.25Y-4.4774
X3.25Y-4.6742
X3.373Y-4.4764
X3.373Y-4.6732
X3.5187Y-4.5026
X3.5187Y-4.6026
X5.0955Y-4.7939
X5.0955Y-5.0939
X5.5207Y-4.4065
X5.5207Y-4.5295
X5.5207Y-4.6526
X5.5463Y-3.2827
X5.5463Y-3.5827
X5.6146Y-4.7795
X5.7146Y-4.7795
X5.7175Y-4.4065
X5.7175Y-4.5295
X5.7175Y-4.6526
T6
X3.5974Y-4.8793
X3.5974Y-4.9793
X5.2811Y-4.9705
X5.2811Y-5.0705
X5.3811Y-4.9705
X5.3811Y-5.0705
X5.4811Y-4.9705
X5.4811Y-5.0705
X5.5811Y-4.9705
X5.5811Y-5.0705
X5.6811Y-4.9705
X5.6811Y-5.0705
X5.7352Y-3.1545
X5.7352Y-3.2545
T7
X3.1978Y-2.4528
X3.1978Y-4.2244
X3.5128Y-4.2244
X4.0167Y-2.4528
X4.4951Y-2.4528
X4.4951Y-4.2244
X4.81Y-4.2244
X5.314Y-2.4528
T8
X3.6219Y-1.9606
X3.8344Y-4.5335
X4.0219Y-1.9606
X4.2344Y-4.5335
X4.4732Y-4.5735
X4.8732Y-4.5735
T9
X3.5404Y-1.6112
X3.7904Y-1.6112
X4.0404Y-1.6112
T10
X6.1555Y-1.6457
T3
G00X3.0356Y-4.8973
M15
G01X3.0356Y-4.9288
M16
G05
G00X3.0356Y-5.0469
M15
G01X3.0356Y-5.0942
M16
G05
G00X3.4781Y-4.8973
M15
G01X3.4781Y-4.9288
M16
G05
G00X3.4781Y-5.0469
M15
G01X3.4781Y-5.0942
M16
G05
G00X3.7167Y-4.8973
M15
G01X3.7167Y-4.9288
M16
G05
G00X3.7167Y-5.0469
M15
G01X3.7167Y-5.0942
M16
G05
G00X4.1593Y-4.8973
M15
G01X4.1593Y-4.9288
M16
G05
G00X4.1593Y-5.0469
M15
G01X4.1593Y-5.0942
M16
G05
T0
M30
