G04 #@! TF.GenerationSoftware,KiCad,Pcbnew,(6.0.4-0)*
G04 #@! TF.CreationDate,2023-02-13T16:27:07-08:00*
G04 #@! TF.ProjectId,widaq-magis-ssr-v2b,77696461-712d-46d6-9167-69732d737372,rev?*
G04 #@! TF.SameCoordinates,Original*
G04 #@! TF.FileFunction,Copper,L4,Bot*
G04 #@! TF.FilePolarity,Positive*
%FSLAX46Y46*%
G04 Gerber Fmt 4.6, Leading zero omitted, Abs format (unit mm)*
G04 Created by KiCad (PCBNEW (6.0.4-0)) date 2023-02-13 16:27:07*
%MOMM*%
%LPD*%
G01*
G04 APERTURE LIST*
G04 Aperture macros list*
%AMRoundRect*
0 Rectangle with rounded corners*
0 $1 Rounding radius*
0 $2 $3 $4 $5 $6 $7 $8 $9 X,Y pos of 4 corners*
0 Add a 4 corners polygon primitive as box body*
4,1,4,$2,$3,$4,$5,$6,$7,$8,$9,$2,$3,0*
0 Add four circle primitives for the rounded corners*
1,1,$1+$1,$2,$3*
1,1,$1+$1,$4,$5*
1,1,$1+$1,$6,$7*
1,1,$1+$1,$8,$9*
0 Add four rect primitives between the rounded corners*
20,1,$1+$1,$2,$3,$4,$5,0*
20,1,$1+$1,$4,$5,$6,$7,0*
20,1,$1+$1,$6,$7,$8,$9,0*
20,1,$1+$1,$8,$9,$2,$3,0*%
G04 Aperture macros list end*
G04 #@! TA.AperFunction,EtchedComponent*
%ADD10C,0.010000*%
G04 #@! TD*
G04 #@! TA.AperFunction,ComponentPad*
%ADD11R,1.600000X1.600000*%
G04 #@! TD*
G04 #@! TA.AperFunction,ComponentPad*
%ADD12O,1.600000X1.600000*%
G04 #@! TD*
G04 #@! TA.AperFunction,ComponentPad*
%ADD13RoundRect,0.250000X0.625000X-0.350000X0.625000X0.350000X-0.625000X0.350000X-0.625000X-0.350000X0*%
G04 #@! TD*
G04 #@! TA.AperFunction,ComponentPad*
%ADD14O,1.750000X1.200000*%
G04 #@! TD*
G04 #@! TA.AperFunction,ComponentPad*
%ADD15R,1.700000X1.700000*%
G04 #@! TD*
G04 #@! TA.AperFunction,ComponentPad*
%ADD16O,1.700000X1.700000*%
G04 #@! TD*
G04 #@! TA.AperFunction,ComponentPad*
%ADD17C,1.400000*%
G04 #@! TD*
G04 #@! TA.AperFunction,ComponentPad*
%ADD18O,1.400000X1.400000*%
G04 #@! TD*
G04 #@! TA.AperFunction,ComponentPad*
%ADD19C,1.600000*%
G04 #@! TD*
G04 #@! TA.AperFunction,ComponentPad*
%ADD20C,2.900000*%
G04 #@! TD*
G04 #@! TA.AperFunction,ComponentPad*
%ADD21O,2.000000X1.000000*%
G04 #@! TD*
G04 #@! TA.AperFunction,ComponentPad*
%ADD22O,1.800000X0.900000*%
G04 #@! TD*
G04 #@! TA.AperFunction,ComponentPad*
%ADD23R,1.473200X1.473200*%
G04 #@! TD*
G04 #@! TA.AperFunction,ComponentPad*
%ADD24C,1.473200*%
G04 #@! TD*
G04 #@! TA.AperFunction,ComponentPad*
%ADD25C,7.400000*%
G04 #@! TD*
G04 #@! TA.AperFunction,ComponentPad*
%ADD26C,0.800000*%
G04 #@! TD*
G04 #@! TA.AperFunction,ViaPad*
%ADD27C,0.457200*%
G04 #@! TD*
G04 #@! TA.AperFunction,ViaPad*
%ADD28C,0.800000*%
G04 #@! TD*
G04 #@! TA.AperFunction,ViaPad*
%ADD29C,0.400000*%
G04 #@! TD*
G04 #@! TA.AperFunction,Conductor*
%ADD30C,0.250000*%
G04 #@! TD*
G04 APERTURE END LIST*
G36*
X342623668Y-316138000D02*
G01*
X342675668Y-316146000D01*
X342726668Y-316159000D01*
X342774668Y-316178000D01*
X342821668Y-316202000D01*
X342865668Y-316230000D01*
X342906668Y-316263000D01*
X342943668Y-316300000D01*
X342976668Y-316341000D01*
X343004668Y-316385000D01*
X343028668Y-316432000D01*
X343047668Y-316480000D01*
X343060668Y-316531000D01*
X343068668Y-316583000D01*
X343071668Y-316635000D01*
X343068668Y-316687000D01*
X343060668Y-316739000D01*
X343047668Y-316790000D01*
X343028668Y-316838000D01*
X343004668Y-316885000D01*
X342976668Y-316929000D01*
X342943668Y-316970000D01*
X342906668Y-317007000D01*
X342865668Y-317040000D01*
X342821668Y-317068000D01*
X342774668Y-317092000D01*
X342726668Y-317111000D01*
X342675668Y-317124000D01*
X342623668Y-317132000D01*
X342571668Y-317135000D01*
X341771668Y-317135000D01*
X341719668Y-317132000D01*
X341667668Y-317124000D01*
X341616668Y-317111000D01*
X341568668Y-317092000D01*
X341521668Y-317068000D01*
X341477668Y-317040000D01*
X341436668Y-317007000D01*
X341399668Y-316970000D01*
X341366668Y-316929000D01*
X341338668Y-316885000D01*
X341314668Y-316838000D01*
X341295668Y-316790000D01*
X341282668Y-316739000D01*
X341274668Y-316687000D01*
X341271668Y-316635000D01*
X341274668Y-316583000D01*
X341282668Y-316531000D01*
X341295668Y-316480000D01*
X341314668Y-316432000D01*
X341338668Y-316385000D01*
X341366668Y-316341000D01*
X341399668Y-316300000D01*
X341436668Y-316263000D01*
X341477668Y-316230000D01*
X341521668Y-316202000D01*
X341568668Y-316178000D01*
X341616668Y-316159000D01*
X341667668Y-316146000D01*
X341719668Y-316138000D01*
X341771668Y-316135000D01*
X342571668Y-316135000D01*
X342623668Y-316138000D01*
G37*
D10*
X342623668Y-316138000D02*
X342675668Y-316146000D01*
X342726668Y-316159000D01*
X342774668Y-316178000D01*
X342821668Y-316202000D01*
X342865668Y-316230000D01*
X342906668Y-316263000D01*
X342943668Y-316300000D01*
X342976668Y-316341000D01*
X343004668Y-316385000D01*
X343028668Y-316432000D01*
X343047668Y-316480000D01*
X343060668Y-316531000D01*
X343068668Y-316583000D01*
X343071668Y-316635000D01*
X343068668Y-316687000D01*
X343060668Y-316739000D01*
X343047668Y-316790000D01*
X343028668Y-316838000D01*
X343004668Y-316885000D01*
X342976668Y-316929000D01*
X342943668Y-316970000D01*
X342906668Y-317007000D01*
X342865668Y-317040000D01*
X342821668Y-317068000D01*
X342774668Y-317092000D01*
X342726668Y-317111000D01*
X342675668Y-317124000D01*
X342623668Y-317132000D01*
X342571668Y-317135000D01*
X341771668Y-317135000D01*
X341719668Y-317132000D01*
X341667668Y-317124000D01*
X341616668Y-317111000D01*
X341568668Y-317092000D01*
X341521668Y-317068000D01*
X341477668Y-317040000D01*
X341436668Y-317007000D01*
X341399668Y-316970000D01*
X341366668Y-316929000D01*
X341338668Y-316885000D01*
X341314668Y-316838000D01*
X341295668Y-316790000D01*
X341282668Y-316739000D01*
X341274668Y-316687000D01*
X341271668Y-316635000D01*
X341274668Y-316583000D01*
X341282668Y-316531000D01*
X341295668Y-316480000D01*
X341314668Y-316432000D01*
X341338668Y-316385000D01*
X341366668Y-316341000D01*
X341399668Y-316300000D01*
X341436668Y-316263000D01*
X341477668Y-316230000D01*
X341521668Y-316202000D01*
X341568668Y-316178000D01*
X341616668Y-316159000D01*
X341667668Y-316146000D01*
X341719668Y-316138000D01*
X341771668Y-316135000D01*
X342571668Y-316135000D01*
X342623668Y-316138000D01*
G36*
X346823668Y-327378000D02*
G01*
X346875668Y-327386000D01*
X346926668Y-327399000D01*
X346974668Y-327418000D01*
X347021668Y-327442000D01*
X347065668Y-327470000D01*
X347106668Y-327503000D01*
X347143668Y-327540000D01*
X347176668Y-327581000D01*
X347204668Y-327625000D01*
X347228668Y-327672000D01*
X347247668Y-327720000D01*
X347260668Y-327771000D01*
X347268668Y-327823000D01*
X347271668Y-327875000D01*
X347268668Y-327927000D01*
X347260668Y-327979000D01*
X347247668Y-328030000D01*
X347228668Y-328078000D01*
X347204668Y-328125000D01*
X347176668Y-328169000D01*
X347143668Y-328210000D01*
X347106668Y-328247000D01*
X347065668Y-328280000D01*
X347021668Y-328308000D01*
X346974668Y-328332000D01*
X346926668Y-328351000D01*
X346875668Y-328364000D01*
X346823668Y-328372000D01*
X346771668Y-328375000D01*
X345571668Y-328375000D01*
X345519668Y-328372000D01*
X345467668Y-328364000D01*
X345416668Y-328351000D01*
X345368668Y-328332000D01*
X345321668Y-328308000D01*
X345277668Y-328280000D01*
X345236668Y-328247000D01*
X345199668Y-328210000D01*
X345166668Y-328169000D01*
X345138668Y-328125000D01*
X345114668Y-328078000D01*
X345095668Y-328030000D01*
X345082668Y-327979000D01*
X345074668Y-327927000D01*
X345071668Y-327875000D01*
X345074668Y-327823000D01*
X345082668Y-327771000D01*
X345095668Y-327720000D01*
X345114668Y-327672000D01*
X345138668Y-327625000D01*
X345166668Y-327581000D01*
X345199668Y-327540000D01*
X345236668Y-327503000D01*
X345277668Y-327470000D01*
X345321668Y-327442000D01*
X345368668Y-327418000D01*
X345416668Y-327399000D01*
X345467668Y-327386000D01*
X345519668Y-327378000D01*
X345571668Y-327375000D01*
X346771668Y-327375000D01*
X346823668Y-327378000D01*
G37*
X346823668Y-327378000D02*
X346875668Y-327386000D01*
X346926668Y-327399000D01*
X346974668Y-327418000D01*
X347021668Y-327442000D01*
X347065668Y-327470000D01*
X347106668Y-327503000D01*
X347143668Y-327540000D01*
X347176668Y-327581000D01*
X347204668Y-327625000D01*
X347228668Y-327672000D01*
X347247668Y-327720000D01*
X347260668Y-327771000D01*
X347268668Y-327823000D01*
X347271668Y-327875000D01*
X347268668Y-327927000D01*
X347260668Y-327979000D01*
X347247668Y-328030000D01*
X347228668Y-328078000D01*
X347204668Y-328125000D01*
X347176668Y-328169000D01*
X347143668Y-328210000D01*
X347106668Y-328247000D01*
X347065668Y-328280000D01*
X347021668Y-328308000D01*
X346974668Y-328332000D01*
X346926668Y-328351000D01*
X346875668Y-328364000D01*
X346823668Y-328372000D01*
X346771668Y-328375000D01*
X345571668Y-328375000D01*
X345519668Y-328372000D01*
X345467668Y-328364000D01*
X345416668Y-328351000D01*
X345368668Y-328332000D01*
X345321668Y-328308000D01*
X345277668Y-328280000D01*
X345236668Y-328247000D01*
X345199668Y-328210000D01*
X345166668Y-328169000D01*
X345138668Y-328125000D01*
X345114668Y-328078000D01*
X345095668Y-328030000D01*
X345082668Y-327979000D01*
X345074668Y-327927000D01*
X345071668Y-327875000D01*
X345074668Y-327823000D01*
X345082668Y-327771000D01*
X345095668Y-327720000D01*
X345114668Y-327672000D01*
X345138668Y-327625000D01*
X345166668Y-327581000D01*
X345199668Y-327540000D01*
X345236668Y-327503000D01*
X345277668Y-327470000D01*
X345321668Y-327442000D01*
X345368668Y-327418000D01*
X345416668Y-327399000D01*
X345467668Y-327386000D01*
X345519668Y-327378000D01*
X345571668Y-327375000D01*
X346771668Y-327375000D01*
X346823668Y-327378000D01*
G36*
X346823668Y-316138000D02*
G01*
X346875668Y-316146000D01*
X346926668Y-316159000D01*
X346974668Y-316178000D01*
X347021668Y-316202000D01*
X347065668Y-316230000D01*
X347106668Y-316263000D01*
X347143668Y-316300000D01*
X347176668Y-316341000D01*
X347204668Y-316385000D01*
X347228668Y-316432000D01*
X347247668Y-316480000D01*
X347260668Y-316531000D01*
X347268668Y-316583000D01*
X347271668Y-316635000D01*
X347268668Y-316687000D01*
X347260668Y-316739000D01*
X347247668Y-316790000D01*
X347228668Y-316838000D01*
X347204668Y-316885000D01*
X347176668Y-316929000D01*
X347143668Y-316970000D01*
X347106668Y-317007000D01*
X347065668Y-317040000D01*
X347021668Y-317068000D01*
X346974668Y-317092000D01*
X346926668Y-317111000D01*
X346875668Y-317124000D01*
X346823668Y-317132000D01*
X346771668Y-317135000D01*
X345571668Y-317135000D01*
X345519668Y-317132000D01*
X345467668Y-317124000D01*
X345416668Y-317111000D01*
X345368668Y-317092000D01*
X345321668Y-317068000D01*
X345277668Y-317040000D01*
X345236668Y-317007000D01*
X345199668Y-316970000D01*
X345166668Y-316929000D01*
X345138668Y-316885000D01*
X345114668Y-316838000D01*
X345095668Y-316790000D01*
X345082668Y-316739000D01*
X345074668Y-316687000D01*
X345071668Y-316635000D01*
X345074668Y-316583000D01*
X345082668Y-316531000D01*
X345095668Y-316480000D01*
X345114668Y-316432000D01*
X345138668Y-316385000D01*
X345166668Y-316341000D01*
X345199668Y-316300000D01*
X345236668Y-316263000D01*
X345277668Y-316230000D01*
X345321668Y-316202000D01*
X345368668Y-316178000D01*
X345416668Y-316159000D01*
X345467668Y-316146000D01*
X345519668Y-316138000D01*
X345571668Y-316135000D01*
X346771668Y-316135000D01*
X346823668Y-316138000D01*
G37*
X346823668Y-316138000D02*
X346875668Y-316146000D01*
X346926668Y-316159000D01*
X346974668Y-316178000D01*
X347021668Y-316202000D01*
X347065668Y-316230000D01*
X347106668Y-316263000D01*
X347143668Y-316300000D01*
X347176668Y-316341000D01*
X347204668Y-316385000D01*
X347228668Y-316432000D01*
X347247668Y-316480000D01*
X347260668Y-316531000D01*
X347268668Y-316583000D01*
X347271668Y-316635000D01*
X347268668Y-316687000D01*
X347260668Y-316739000D01*
X347247668Y-316790000D01*
X347228668Y-316838000D01*
X347204668Y-316885000D01*
X347176668Y-316929000D01*
X347143668Y-316970000D01*
X347106668Y-317007000D01*
X347065668Y-317040000D01*
X347021668Y-317068000D01*
X346974668Y-317092000D01*
X346926668Y-317111000D01*
X346875668Y-317124000D01*
X346823668Y-317132000D01*
X346771668Y-317135000D01*
X345571668Y-317135000D01*
X345519668Y-317132000D01*
X345467668Y-317124000D01*
X345416668Y-317111000D01*
X345368668Y-317092000D01*
X345321668Y-317068000D01*
X345277668Y-317040000D01*
X345236668Y-317007000D01*
X345199668Y-316970000D01*
X345166668Y-316929000D01*
X345138668Y-316885000D01*
X345114668Y-316838000D01*
X345095668Y-316790000D01*
X345082668Y-316739000D01*
X345074668Y-316687000D01*
X345071668Y-316635000D01*
X345074668Y-316583000D01*
X345082668Y-316531000D01*
X345095668Y-316480000D01*
X345114668Y-316432000D01*
X345138668Y-316385000D01*
X345166668Y-316341000D01*
X345199668Y-316300000D01*
X345236668Y-316263000D01*
X345277668Y-316230000D01*
X345321668Y-316202000D01*
X345368668Y-316178000D01*
X345416668Y-316159000D01*
X345467668Y-316146000D01*
X345519668Y-316138000D01*
X345571668Y-316135000D01*
X346771668Y-316135000D01*
X346823668Y-316138000D01*
G36*
X342623668Y-327378000D02*
G01*
X342675668Y-327386000D01*
X342726668Y-327399000D01*
X342774668Y-327418000D01*
X342821668Y-327442000D01*
X342865668Y-327470000D01*
X342906668Y-327503000D01*
X342943668Y-327540000D01*
X342976668Y-327581000D01*
X343004668Y-327625000D01*
X343028668Y-327672000D01*
X343047668Y-327720000D01*
X343060668Y-327771000D01*
X343068668Y-327823000D01*
X343071668Y-327875000D01*
X343068668Y-327927000D01*
X343060668Y-327979000D01*
X343047668Y-328030000D01*
X343028668Y-328078000D01*
X343004668Y-328125000D01*
X342976668Y-328169000D01*
X342943668Y-328210000D01*
X342906668Y-328247000D01*
X342865668Y-328280000D01*
X342821668Y-328308000D01*
X342774668Y-328332000D01*
X342726668Y-328351000D01*
X342675668Y-328364000D01*
X342623668Y-328372000D01*
X342571668Y-328375000D01*
X341771668Y-328375000D01*
X341719668Y-328372000D01*
X341667668Y-328364000D01*
X341616668Y-328351000D01*
X341568668Y-328332000D01*
X341521668Y-328308000D01*
X341477668Y-328280000D01*
X341436668Y-328247000D01*
X341399668Y-328210000D01*
X341366668Y-328169000D01*
X341338668Y-328125000D01*
X341314668Y-328078000D01*
X341295668Y-328030000D01*
X341282668Y-327979000D01*
X341274668Y-327927000D01*
X341271668Y-327875000D01*
X341274668Y-327823000D01*
X341282668Y-327771000D01*
X341295668Y-327720000D01*
X341314668Y-327672000D01*
X341338668Y-327625000D01*
X341366668Y-327581000D01*
X341399668Y-327540000D01*
X341436668Y-327503000D01*
X341477668Y-327470000D01*
X341521668Y-327442000D01*
X341568668Y-327418000D01*
X341616668Y-327399000D01*
X341667668Y-327386000D01*
X341719668Y-327378000D01*
X341771668Y-327375000D01*
X342571668Y-327375000D01*
X342623668Y-327378000D01*
G37*
X342623668Y-327378000D02*
X342675668Y-327386000D01*
X342726668Y-327399000D01*
X342774668Y-327418000D01*
X342821668Y-327442000D01*
X342865668Y-327470000D01*
X342906668Y-327503000D01*
X342943668Y-327540000D01*
X342976668Y-327581000D01*
X343004668Y-327625000D01*
X343028668Y-327672000D01*
X343047668Y-327720000D01*
X343060668Y-327771000D01*
X343068668Y-327823000D01*
X343071668Y-327875000D01*
X343068668Y-327927000D01*
X343060668Y-327979000D01*
X343047668Y-328030000D01*
X343028668Y-328078000D01*
X343004668Y-328125000D01*
X342976668Y-328169000D01*
X342943668Y-328210000D01*
X342906668Y-328247000D01*
X342865668Y-328280000D01*
X342821668Y-328308000D01*
X342774668Y-328332000D01*
X342726668Y-328351000D01*
X342675668Y-328364000D01*
X342623668Y-328372000D01*
X342571668Y-328375000D01*
X341771668Y-328375000D01*
X341719668Y-328372000D01*
X341667668Y-328364000D01*
X341616668Y-328351000D01*
X341568668Y-328332000D01*
X341521668Y-328308000D01*
X341477668Y-328280000D01*
X341436668Y-328247000D01*
X341399668Y-328210000D01*
X341366668Y-328169000D01*
X341338668Y-328125000D01*
X341314668Y-328078000D01*
X341295668Y-328030000D01*
X341282668Y-327979000D01*
X341274668Y-327927000D01*
X341271668Y-327875000D01*
X341274668Y-327823000D01*
X341282668Y-327771000D01*
X341295668Y-327720000D01*
X341314668Y-327672000D01*
X341338668Y-327625000D01*
X341366668Y-327581000D01*
X341399668Y-327540000D01*
X341436668Y-327503000D01*
X341477668Y-327470000D01*
X341521668Y-327442000D01*
X341568668Y-327418000D01*
X341616668Y-327399000D01*
X341667668Y-327386000D01*
X341719668Y-327378000D01*
X341771668Y-327375000D01*
X342571668Y-327375000D01*
X342623668Y-327378000D01*
D11*
X289725000Y-241608332D03*
D12*
X287185000Y-241608332D03*
X284645000Y-241608332D03*
X282105000Y-241608332D03*
X279565000Y-241608332D03*
X277025000Y-241608332D03*
X274485000Y-241608332D03*
X274485000Y-249228332D03*
X277025000Y-249228332D03*
X279565000Y-249228332D03*
X282105000Y-249228332D03*
X284645000Y-249228332D03*
X287185000Y-249228332D03*
X289725000Y-249228332D03*
D11*
X289725000Y-113433338D03*
D12*
X287185000Y-113433338D03*
X284645000Y-113433338D03*
X282105000Y-113433338D03*
X279565000Y-113433338D03*
X277025000Y-113433338D03*
X274485000Y-113433338D03*
X274485000Y-121053338D03*
X277025000Y-121053338D03*
X279565000Y-121053338D03*
X282105000Y-121053338D03*
X284645000Y-121053338D03*
X287185000Y-121053338D03*
X289725000Y-121053338D03*
D11*
X289725000Y-99191672D03*
D12*
X287185000Y-99191672D03*
X284645000Y-99191672D03*
X282105000Y-99191672D03*
X279565000Y-99191672D03*
X277025000Y-99191672D03*
X274485000Y-99191672D03*
X274485000Y-106811672D03*
X277025000Y-106811672D03*
X279565000Y-106811672D03*
X282105000Y-106811672D03*
X284645000Y-106811672D03*
X287185000Y-106811672D03*
X289725000Y-106811672D03*
D11*
X289725000Y-298574996D03*
D12*
X287185000Y-298574996D03*
X284645000Y-298574996D03*
X282105000Y-298574996D03*
X279565000Y-298574996D03*
X277025000Y-298574996D03*
X274485000Y-298574996D03*
X274485000Y-306194996D03*
X277025000Y-306194996D03*
X279565000Y-306194996D03*
X282105000Y-306194996D03*
X284645000Y-306194996D03*
X287185000Y-306194996D03*
X289725000Y-306194996D03*
D11*
X289725000Y-312816672D03*
D12*
X287185000Y-312816672D03*
X284645000Y-312816672D03*
X282105000Y-312816672D03*
X279565000Y-312816672D03*
X277025000Y-312816672D03*
X274485000Y-312816672D03*
X274485000Y-320436672D03*
X277025000Y-320436672D03*
X279565000Y-320436672D03*
X282105000Y-320436672D03*
X284645000Y-320436672D03*
X287185000Y-320436672D03*
X289725000Y-320436672D03*
D13*
X341771668Y-269100000D03*
D14*
X341771668Y-267100000D03*
D15*
X330686668Y-221575000D03*
D16*
X328146668Y-221575000D03*
X325606668Y-221575000D03*
X323066668Y-221575000D03*
D17*
X322776668Y-227525000D03*
D18*
X330396668Y-227525000D03*
D19*
X315686668Y-317370000D03*
X320686668Y-317370000D03*
X315686668Y-325070000D03*
X320686668Y-325070000D03*
D11*
X289725000Y-270091664D03*
D12*
X287185000Y-270091664D03*
X284645000Y-270091664D03*
X282105000Y-270091664D03*
X279565000Y-270091664D03*
X277025000Y-270091664D03*
X274485000Y-270091664D03*
X274485000Y-277711664D03*
X277025000Y-277711664D03*
X279565000Y-277711664D03*
X282105000Y-277711664D03*
X284645000Y-277711664D03*
X287185000Y-277711664D03*
X289725000Y-277711664D03*
D17*
X330736668Y-165575000D03*
D18*
X323116668Y-165575000D03*
D19*
X315686668Y-321220000D03*
X320686668Y-321220000D03*
D11*
X289725000Y-127675004D03*
D12*
X287185000Y-127675004D03*
X284645000Y-127675004D03*
X282105000Y-127675004D03*
X279565000Y-127675004D03*
X277025000Y-127675004D03*
X274485000Y-127675004D03*
X274485000Y-135295004D03*
X277025000Y-135295004D03*
X279565000Y-135295004D03*
X282105000Y-135295004D03*
X284645000Y-135295004D03*
X287185000Y-135295004D03*
X289725000Y-135295004D03*
D15*
X330711668Y-278900000D03*
D16*
X328171668Y-278900000D03*
X325631668Y-278900000D03*
X323091668Y-278900000D03*
D20*
X327875000Y-327530000D03*
X327875000Y-317370000D03*
D17*
X323126668Y-168475000D03*
D18*
X330746668Y-168475000D03*
D11*
X289725000Y-184641668D03*
D12*
X287185000Y-184641668D03*
X284645000Y-184641668D03*
X282105000Y-184641668D03*
X279565000Y-184641668D03*
X277025000Y-184641668D03*
X274485000Y-184641668D03*
X274485000Y-192261668D03*
X277025000Y-192261668D03*
X279565000Y-192261668D03*
X282105000Y-192261668D03*
X284645000Y-192261668D03*
X287185000Y-192261668D03*
X289725000Y-192261668D03*
D19*
X325811668Y-253050000D03*
X330811668Y-253050000D03*
X330711668Y-115555000D03*
X328171668Y-115555000D03*
X325631668Y-115555000D03*
X323091668Y-115555000D03*
X320551668Y-115555000D03*
X318011668Y-115555000D03*
X315471668Y-115555000D03*
X312931668Y-115555000D03*
X310391668Y-115555000D03*
X307851668Y-115555000D03*
X305311668Y-115555000D03*
X302771668Y-115555000D03*
X300231668Y-115555000D03*
X297691668Y-115555000D03*
X297691668Y-118095000D03*
X297691668Y-120635000D03*
X297691668Y-123175000D03*
X297691668Y-125715000D03*
X297691668Y-128255000D03*
X297691668Y-130795000D03*
X300231668Y-130795000D03*
X302771668Y-130795000D03*
X305311668Y-130795000D03*
X307851668Y-130795000D03*
X310391668Y-130795000D03*
X312931668Y-130795000D03*
X315471668Y-130795000D03*
X318011668Y-130795000D03*
X320551668Y-130795000D03*
X323091668Y-130795000D03*
X325631668Y-130795000D03*
X328171668Y-130795000D03*
X330711668Y-130795000D03*
X328171668Y-128255000D03*
X302771668Y-128255000D03*
X305311668Y-128255000D03*
X302771668Y-125715000D03*
X305311668Y-125715000D03*
X302771668Y-123175000D03*
X305311668Y-123175000D03*
X302771668Y-120635000D03*
X305311668Y-120635000D03*
X302771668Y-118095000D03*
X305311668Y-118095000D03*
D21*
X346171668Y-327875000D03*
X346171668Y-316635000D03*
D22*
X342171668Y-327875000D03*
X342171668Y-316635000D03*
D19*
X325486668Y-309975000D03*
X330486668Y-309975000D03*
X325811668Y-194725000D03*
X330811668Y-194725000D03*
D11*
X289725000Y-141916670D03*
D12*
X287185000Y-141916670D03*
X284645000Y-141916670D03*
X282105000Y-141916670D03*
X279565000Y-141916670D03*
X277025000Y-141916670D03*
X274485000Y-141916670D03*
X274485000Y-149536670D03*
X277025000Y-149536670D03*
X279565000Y-149536670D03*
X282105000Y-149536670D03*
X284645000Y-149536670D03*
X287185000Y-149536670D03*
X289725000Y-149536670D03*
D17*
X330751668Y-108050000D03*
D18*
X323131668Y-108050000D03*
D11*
X289725000Y-198883334D03*
D12*
X287185000Y-198883334D03*
X284645000Y-198883334D03*
X282105000Y-198883334D03*
X279565000Y-198883334D03*
X277025000Y-198883334D03*
X274485000Y-198883334D03*
X274485000Y-206503334D03*
X277025000Y-206503334D03*
X279565000Y-206503334D03*
X282105000Y-206503334D03*
X284645000Y-206503334D03*
X287185000Y-206503334D03*
X289725000Y-206503334D03*
D13*
X341771668Y-278375000D03*
D14*
X341771668Y-276375000D03*
D11*
X289725000Y-284333330D03*
D12*
X287185000Y-284333330D03*
X284645000Y-284333330D03*
X282105000Y-284333330D03*
X279565000Y-284333330D03*
X277025000Y-284333330D03*
X274485000Y-284333330D03*
X274485000Y-291953330D03*
X277025000Y-291953330D03*
X279565000Y-291953330D03*
X282105000Y-291953330D03*
X284645000Y-291953330D03*
X287185000Y-291953330D03*
X289725000Y-291953330D03*
D15*
X330711668Y-104450000D03*
D16*
X328171668Y-104450000D03*
X325631668Y-104450000D03*
X323091668Y-104450000D03*
D19*
X330711668Y-289830000D03*
X328171668Y-289830000D03*
X325631668Y-289830000D03*
X323091668Y-289830000D03*
X320551668Y-289830000D03*
X318011668Y-289830000D03*
X315471668Y-289830000D03*
X312931668Y-289830000D03*
X310391668Y-289830000D03*
X307851668Y-289830000D03*
X305311668Y-289830000D03*
X302771668Y-289830000D03*
X300231668Y-289830000D03*
X297691668Y-289830000D03*
X297691668Y-292370000D03*
X297691668Y-294910000D03*
X297691668Y-297450000D03*
X297691668Y-299990000D03*
X297691668Y-302530000D03*
X297691668Y-305070000D03*
X300231668Y-305070000D03*
X302771668Y-305070000D03*
X305311668Y-305070000D03*
X307851668Y-305070000D03*
X310391668Y-305070000D03*
X312931668Y-305070000D03*
X315471668Y-305070000D03*
X318011668Y-305070000D03*
X320551668Y-305070000D03*
X323091668Y-305070000D03*
X325631668Y-305070000D03*
X328171668Y-305070000D03*
X330711668Y-305070000D03*
X328171668Y-302530000D03*
X302771668Y-302530000D03*
X305311668Y-302530000D03*
X302771668Y-299990000D03*
X305311668Y-299990000D03*
X302771668Y-297450000D03*
X305311668Y-297450000D03*
X302771668Y-294910000D03*
X305311668Y-294910000D03*
X302771668Y-292370000D03*
X305311668Y-292370000D03*
D15*
X334750000Y-335750000D03*
D16*
X334750000Y-333210000D03*
D19*
X341761668Y-282770000D03*
D12*
X341761668Y-292930000D03*
D23*
X261345000Y-201445000D03*
D24*
X261345000Y-198905000D03*
X261345000Y-196365000D03*
X261345000Y-193825000D03*
X261345000Y-191285000D03*
X261345000Y-188745000D03*
X261345000Y-186205000D03*
X261345000Y-183665000D03*
X261345000Y-181125000D03*
X261345000Y-178585000D03*
X261345000Y-176045000D03*
X261345000Y-173505000D03*
X261345000Y-170965000D03*
X261345000Y-168425000D03*
X261345000Y-165885000D03*
X261345000Y-163345000D03*
X261345000Y-160805000D03*
X258805000Y-201445000D03*
X258805000Y-198905000D03*
X258805000Y-196365000D03*
X258805000Y-193825000D03*
X258805000Y-191285000D03*
X258805000Y-188745000D03*
X258805000Y-186205000D03*
X258805000Y-183665000D03*
X258805000Y-181125000D03*
X258805000Y-178585000D03*
X258805000Y-176045000D03*
X258805000Y-173505000D03*
X258805000Y-170965000D03*
X258805000Y-168425000D03*
X258805000Y-165885000D03*
X258805000Y-163345000D03*
X258805000Y-160805000D03*
D17*
X330411668Y-224850000D03*
D18*
X322791668Y-224850000D03*
D19*
X330711668Y-173646666D03*
X328171668Y-173646666D03*
X325631668Y-173646666D03*
X323091668Y-173646666D03*
X320551668Y-173646666D03*
X318011668Y-173646666D03*
X315471668Y-173646666D03*
X312931668Y-173646666D03*
X310391668Y-173646666D03*
X307851668Y-173646666D03*
X305311668Y-173646666D03*
X302771668Y-173646666D03*
X300231668Y-173646666D03*
X297691668Y-173646666D03*
X297691668Y-176186666D03*
X297691668Y-178726666D03*
X297691668Y-181266666D03*
X297691668Y-183806666D03*
X297691668Y-186346666D03*
X297691668Y-188886666D03*
X300231668Y-188886666D03*
X302771668Y-188886666D03*
X305311668Y-188886666D03*
X307851668Y-188886666D03*
X310391668Y-188886666D03*
X312931668Y-188886666D03*
X315471668Y-188886666D03*
X318011668Y-188886666D03*
X320551668Y-188886666D03*
X323091668Y-188886666D03*
X325631668Y-188886666D03*
X328171668Y-188886666D03*
X330711668Y-188886666D03*
X328171668Y-186346666D03*
X302771668Y-186346666D03*
X305311668Y-186346666D03*
X302771668Y-183806666D03*
X305311668Y-183806666D03*
X302771668Y-181266666D03*
X305311668Y-181266666D03*
X302771668Y-178726666D03*
X305311668Y-178726666D03*
X302771668Y-176186666D03*
X305311668Y-176186666D03*
D11*
X289725000Y-213125000D03*
D12*
X287185000Y-213125000D03*
X284645000Y-213125000D03*
X282105000Y-213125000D03*
X279565000Y-213125000D03*
X277025000Y-213125000D03*
X274485000Y-213125000D03*
X274485000Y-220745000D03*
X277025000Y-220745000D03*
X279565000Y-220745000D03*
X282105000Y-220745000D03*
X284645000Y-220745000D03*
X287185000Y-220745000D03*
X289725000Y-220745000D03*
D25*
X342900000Y-337820000D03*
D26*
X340125000Y-337820000D03*
X344862221Y-335857779D03*
X340937779Y-335857779D03*
X344862221Y-339782221D03*
X342900000Y-340595000D03*
X345675000Y-337820000D03*
X342900000Y-335045000D03*
X340937779Y-339782221D03*
D17*
X323111668Y-285275000D03*
D18*
X330731668Y-285275000D03*
D19*
X325536668Y-136150000D03*
X330536668Y-136150000D03*
D11*
X289725000Y-255849998D03*
D12*
X287185000Y-255849998D03*
X284645000Y-255849998D03*
X282105000Y-255849998D03*
X279565000Y-255849998D03*
X277025000Y-255849998D03*
X274485000Y-255849998D03*
X274485000Y-263469998D03*
X277025000Y-263469998D03*
X279565000Y-263469998D03*
X282105000Y-263469998D03*
X284645000Y-263469998D03*
X287185000Y-263469998D03*
X289725000Y-263469998D03*
D17*
X330721668Y-282500000D03*
D18*
X323101668Y-282500000D03*
D23*
X261345000Y-144186667D03*
D24*
X261345000Y-141646667D03*
X261345000Y-139106667D03*
X261345000Y-136566667D03*
X261345000Y-134026667D03*
X261345000Y-131486667D03*
X261345000Y-128946667D03*
X261345000Y-126406667D03*
X261345000Y-123866667D03*
X261345000Y-121326667D03*
X261345000Y-118786667D03*
X261345000Y-116246667D03*
X261345000Y-113706667D03*
X261345000Y-111166667D03*
X261345000Y-108626667D03*
X261345000Y-106086667D03*
X261345000Y-103546667D03*
X258805000Y-144186667D03*
X258805000Y-141646667D03*
X258805000Y-139106667D03*
X258805000Y-136566667D03*
X258805000Y-134026667D03*
X258805000Y-131486667D03*
X258805000Y-128946667D03*
X258805000Y-126406667D03*
X258805000Y-123866667D03*
X258805000Y-121326667D03*
X258805000Y-118786667D03*
X258805000Y-116246667D03*
X258805000Y-113706667D03*
X258805000Y-111166667D03*
X258805000Y-108626667D03*
X258805000Y-106086667D03*
X258805000Y-103546667D03*
D13*
X341771668Y-259825000D03*
D14*
X341771668Y-257825000D03*
D17*
X323076668Y-110825000D03*
D18*
X330696668Y-110825000D03*
D11*
X289725000Y-227366666D03*
D12*
X287185000Y-227366666D03*
X284645000Y-227366666D03*
X282105000Y-227366666D03*
X279565000Y-227366666D03*
X277025000Y-227366666D03*
X274485000Y-227366666D03*
X274485000Y-234986666D03*
X277025000Y-234986666D03*
X279565000Y-234986666D03*
X282105000Y-234986666D03*
X284645000Y-234986666D03*
X287185000Y-234986666D03*
X289725000Y-234986666D03*
D23*
X261345000Y-258703333D03*
D24*
X261345000Y-256163333D03*
X261345000Y-253623333D03*
X261345000Y-251083333D03*
X261345000Y-248543333D03*
X261345000Y-246003333D03*
X261345000Y-243463333D03*
X261345000Y-240923333D03*
X261345000Y-238383333D03*
X261345000Y-235843333D03*
X261345000Y-233303333D03*
X261345000Y-230763333D03*
X261345000Y-228223333D03*
X261345000Y-225683333D03*
X261345000Y-223143333D03*
X261345000Y-220603333D03*
X261345000Y-218063333D03*
X258805000Y-258703333D03*
X258805000Y-256163333D03*
X258805000Y-253623333D03*
X258805000Y-251083333D03*
X258805000Y-248543333D03*
X258805000Y-246003333D03*
X258805000Y-243463333D03*
X258805000Y-240923333D03*
X258805000Y-238383333D03*
X258805000Y-235843333D03*
X258805000Y-233303333D03*
X258805000Y-230763333D03*
X258805000Y-228223333D03*
X258805000Y-225683333D03*
X258805000Y-223143333D03*
X258805000Y-220603333D03*
X258805000Y-218063333D03*
D11*
X289725000Y-156158336D03*
D12*
X287185000Y-156158336D03*
X284645000Y-156158336D03*
X282105000Y-156158336D03*
X279565000Y-156158336D03*
X277025000Y-156158336D03*
X274485000Y-156158336D03*
X274485000Y-163778336D03*
X277025000Y-163778336D03*
X279565000Y-163778336D03*
X282105000Y-163778336D03*
X284645000Y-163778336D03*
X287185000Y-163778336D03*
X289725000Y-163778336D03*
D23*
X261345000Y-315961667D03*
D24*
X261345000Y-313421667D03*
X261345000Y-310881667D03*
X261345000Y-308341667D03*
X261345000Y-305801667D03*
X261345000Y-303261667D03*
X261345000Y-300721667D03*
X261345000Y-298181667D03*
X261345000Y-295641667D03*
X261345000Y-293101667D03*
X261345000Y-290561667D03*
X261345000Y-288021667D03*
X261345000Y-285481667D03*
X261345000Y-282941667D03*
X261345000Y-280401667D03*
X261345000Y-277861667D03*
X261345000Y-275321667D03*
X258805000Y-315961667D03*
X258805000Y-313421667D03*
X258805000Y-310881667D03*
X258805000Y-308341667D03*
X258805000Y-305801667D03*
X258805000Y-303261667D03*
X258805000Y-300721667D03*
X258805000Y-298181667D03*
X258805000Y-295641667D03*
X258805000Y-293101667D03*
X258805000Y-290561667D03*
X258805000Y-288021667D03*
X258805000Y-285481667D03*
X258805000Y-282941667D03*
X258805000Y-280401667D03*
X258805000Y-277861667D03*
X258805000Y-275321667D03*
D15*
X330686668Y-161850000D03*
D16*
X328146668Y-161850000D03*
X325606668Y-161850000D03*
X323066668Y-161850000D03*
D19*
X330711668Y-231738332D03*
X328171668Y-231738332D03*
X325631668Y-231738332D03*
X323091668Y-231738332D03*
X320551668Y-231738332D03*
X318011668Y-231738332D03*
X315471668Y-231738332D03*
X312931668Y-231738332D03*
X310391668Y-231738332D03*
X307851668Y-231738332D03*
X305311668Y-231738332D03*
X302771668Y-231738332D03*
X300231668Y-231738332D03*
X297691668Y-231738332D03*
X297691668Y-234278332D03*
X297691668Y-236818332D03*
X297691668Y-239358332D03*
X297691668Y-241898332D03*
X297691668Y-244438332D03*
X297691668Y-246978332D03*
X300231668Y-246978332D03*
X302771668Y-246978332D03*
X305311668Y-246978332D03*
X307851668Y-246978332D03*
X310391668Y-246978332D03*
X312931668Y-246978332D03*
X315471668Y-246978332D03*
X318011668Y-246978332D03*
X320551668Y-246978332D03*
X323091668Y-246978332D03*
X325631668Y-246978332D03*
X328171668Y-246978332D03*
X330711668Y-246978332D03*
X328171668Y-244438332D03*
X302771668Y-244438332D03*
X305311668Y-244438332D03*
X302771668Y-241898332D03*
X305311668Y-241898332D03*
X302771668Y-239358332D03*
X305311668Y-239358332D03*
X302771668Y-236818332D03*
X305311668Y-236818332D03*
X302771668Y-234278332D03*
X305311668Y-234278332D03*
D11*
X289725000Y-170400002D03*
D12*
X287185000Y-170400002D03*
X284645000Y-170400002D03*
X282105000Y-170400002D03*
X279565000Y-170400002D03*
X277025000Y-170400002D03*
X274485000Y-170400002D03*
X274485000Y-178020002D03*
X277025000Y-178020002D03*
X279565000Y-178020002D03*
X282105000Y-178020002D03*
X284645000Y-178020002D03*
X287185000Y-178020002D03*
X289725000Y-178020002D03*
D27*
X339886720Y-318349992D03*
D28*
X309911668Y-127525500D03*
D29*
X339975000Y-322500000D03*
X339975000Y-320525000D03*
X339975000Y-321500000D03*
D27*
X339450000Y-325675000D03*
X335686668Y-315550000D03*
D29*
X339975000Y-323500000D03*
D28*
X309601503Y-125683924D03*
D27*
X338575000Y-319650000D03*
X338400000Y-324850000D03*
X338500000Y-321000000D03*
X338575000Y-323925000D03*
D28*
X337136668Y-123725000D03*
X339186668Y-297325000D03*
X338511168Y-238825000D03*
X338511168Y-180225000D03*
D30*
X320551668Y-289830000D02*
X297046668Y-266325000D01*
X297046668Y-266325000D02*
X283331664Y-266325000D01*
X283331664Y-266325000D02*
X279565000Y-270091664D01*
X315471668Y-289830000D02*
X299741668Y-274100000D01*
X299741668Y-274100000D02*
X280636664Y-274100000D01*
X280636664Y-274100000D02*
X277025000Y-277711664D01*
X301436668Y-280875000D02*
X283023330Y-280875000D01*
X283023330Y-280875000D02*
X279565000Y-284333330D01*
X310391668Y-289830000D02*
X301436668Y-280875000D01*
X291700000Y-287450000D02*
X281528330Y-287450000D01*
X305311668Y-289830000D02*
X300281668Y-284800000D01*
X281528330Y-287450000D02*
X277025000Y-291953330D01*
X294350000Y-284800000D02*
X291700000Y-287450000D01*
X300281668Y-284800000D02*
X294350000Y-284800000D01*
X274485000Y-306194996D02*
X261738329Y-306194996D01*
X261738329Y-306194996D02*
X261345000Y-305801667D01*
X282414996Y-295725000D02*
X279565000Y-298574996D01*
X288100000Y-295725000D02*
X282414996Y-295725000D01*
X296350000Y-287475000D02*
X288100000Y-295725000D01*
X300231668Y-289830000D02*
X297876668Y-287475000D01*
X297876668Y-287475000D02*
X296350000Y-287475000D01*
X325186668Y-127725000D02*
X310111168Y-127725000D01*
X327261668Y-125650000D02*
X325186668Y-127725000D01*
X310111168Y-127725000D02*
X309911668Y-127525500D01*
X333111668Y-125650000D02*
X327261668Y-125650000D01*
X335211668Y-127750000D02*
X333111668Y-125650000D01*
X335686668Y-315550000D02*
X335211668Y-315075000D01*
X335211668Y-315075000D02*
X335211668Y-127750000D01*
X278863328Y-322275000D02*
X277025000Y-320436672D01*
X303346668Y-322275000D02*
X278863328Y-322275000D01*
X320551668Y-305070000D02*
X303346668Y-322275000D01*
X282531672Y-309850000D02*
X279565000Y-312816672D01*
X310391668Y-305070000D02*
X305611668Y-309850000D01*
X305611668Y-309850000D02*
X282531672Y-309850000D01*
X278905004Y-308075000D02*
X277025000Y-306194996D01*
X297226668Y-308075000D02*
X278905004Y-308075000D01*
X300231668Y-305070000D02*
X297226668Y-308075000D01*
X279565000Y-212110000D02*
X279565000Y-213125000D01*
X299588336Y-210775000D02*
X280900000Y-210775000D01*
X320551668Y-231738332D02*
X299588336Y-210775000D01*
X280900000Y-210775000D02*
X279565000Y-212110000D01*
X315471668Y-231738332D02*
X301358336Y-217625000D01*
X280145000Y-217625000D02*
X277025000Y-220745000D01*
X301358336Y-217625000D02*
X280145000Y-217625000D01*
X282475000Y-224456666D02*
X279565000Y-227366666D01*
X303028336Y-224375000D02*
X282475000Y-224375000D01*
X310391668Y-231738332D02*
X303028336Y-224375000D01*
X282475000Y-224375000D02*
X282475000Y-224456666D01*
X283186666Y-228825000D02*
X277025000Y-234986666D01*
X305311668Y-231738332D02*
X304187157Y-230613821D01*
X304187157Y-230613821D02*
X304187157Y-230612157D01*
X304187157Y-230612157D02*
X302400000Y-228825000D01*
X302400000Y-228825000D02*
X283186666Y-228825000D01*
X294675000Y-229775000D02*
X292350000Y-232100000D01*
X298268336Y-229775000D02*
X294675000Y-229775000D01*
X292350000Y-232100000D02*
X292350000Y-235100000D01*
X288525000Y-238925000D02*
X281475000Y-238925000D01*
X279565000Y-240835000D02*
X279565000Y-241608332D01*
X292350000Y-235100000D02*
X288525000Y-238925000D01*
X300231668Y-231738332D02*
X298268336Y-229775000D01*
X281475000Y-238925000D02*
X279565000Y-240835000D01*
X274249996Y-301350000D02*
X266100000Y-301350000D01*
X277025000Y-298574996D02*
X274249996Y-301350000D01*
X266100000Y-301350000D02*
X265471667Y-300721667D01*
X265471667Y-300721667D02*
X261345000Y-300721667D01*
X320551668Y-246978332D02*
X306830000Y-260700000D01*
X279794998Y-260700000D02*
X277025000Y-263469998D01*
X306830000Y-260700000D02*
X279794998Y-260700000D01*
X304245000Y-253125000D02*
X282289998Y-253125000D01*
X310391668Y-246978332D02*
X304245000Y-253125000D01*
X282289998Y-253125000D02*
X279565000Y-255849998D01*
X278796668Y-251000000D02*
X277025000Y-249228332D01*
X300231668Y-246978332D02*
X296210000Y-251000000D01*
X296210000Y-251000000D02*
X278796668Y-251000000D01*
X281423336Y-154300000D02*
X279565000Y-156158336D01*
X320551668Y-173646666D02*
X301205002Y-154300000D01*
X301205002Y-154300000D02*
X281423336Y-154300000D01*
X277025000Y-162675000D02*
X277025000Y-163778336D01*
X302825002Y-161000000D02*
X278700000Y-161000000D01*
X278700000Y-161000000D02*
X277025000Y-162675000D01*
X315471668Y-173646666D02*
X302825002Y-161000000D01*
X280600000Y-168625000D02*
X279565000Y-169660000D01*
X305370002Y-168625000D02*
X280600000Y-168625000D01*
X279565000Y-169660000D02*
X279565000Y-170400002D01*
X310391668Y-173646666D02*
X305370002Y-168625000D01*
X305311668Y-173646666D02*
X302365002Y-170700000D01*
X302365002Y-170700000D02*
X292925000Y-170700000D01*
X280620002Y-174425000D02*
X277025000Y-178020002D01*
X289200000Y-174425000D02*
X280620002Y-174425000D01*
X292925000Y-170700000D02*
X289200000Y-174425000D01*
X300231668Y-173646666D02*
X298485002Y-171900000D01*
X279565000Y-183435000D02*
X279565000Y-184641668D01*
X292375000Y-180075000D02*
X289450000Y-183000000D01*
X289450000Y-183000000D02*
X280000000Y-183000000D01*
X280000000Y-183000000D02*
X279565000Y-183435000D01*
X298485002Y-171900000D02*
X295300000Y-171900000D01*
X295300000Y-171900000D02*
X292375000Y-174825000D01*
X292375000Y-174825000D02*
X292375000Y-180075000D01*
X320551668Y-188886666D02*
X305488334Y-203950000D01*
X279578334Y-203950000D02*
X277025000Y-206503334D01*
X305488334Y-203950000D02*
X279578334Y-203950000D01*
X282873334Y-195575000D02*
X279565000Y-198883334D01*
X310391668Y-188886666D02*
X303703334Y-195575000D01*
X303703334Y-195575000D02*
X282873334Y-195575000D01*
X300231668Y-188886666D02*
X298468334Y-190650000D01*
X277025000Y-191625000D02*
X277025000Y-192261668D01*
X298468334Y-190650000D02*
X278000000Y-190650000D01*
X278000000Y-190650000D02*
X277025000Y-191625000D01*
X301746668Y-96750000D02*
X280775000Y-96750000D01*
X320551668Y-115555000D02*
X301746668Y-96750000D01*
X280775000Y-96750000D02*
X279565000Y-97960000D01*
X279565000Y-97960000D02*
X279565000Y-99191672D01*
X279438328Y-109225000D02*
X277025000Y-106811672D01*
X315471668Y-115555000D02*
X309141668Y-109225000D01*
X309141668Y-109225000D02*
X279438328Y-109225000D01*
X306236668Y-111400000D02*
X281598338Y-111400000D01*
X310391668Y-115555000D02*
X306236668Y-111400000D01*
X281598338Y-111400000D02*
X279565000Y-113433338D01*
X295050000Y-112775000D02*
X288750000Y-119075000D01*
X279003338Y-119075000D02*
X277025000Y-121053338D01*
X305311668Y-115555000D02*
X302531668Y-112775000D01*
X288750000Y-119075000D02*
X279003338Y-119075000D01*
X302531668Y-112775000D02*
X295050000Y-112775000D01*
X298776668Y-114100000D02*
X296300000Y-114100000D01*
X294725000Y-115675000D02*
X294725000Y-125775000D01*
X300231668Y-115555000D02*
X298776668Y-114100000D01*
X294725000Y-125775000D02*
X281465004Y-125775000D01*
X296300000Y-114100000D02*
X294725000Y-115675000D01*
X281465004Y-125775000D02*
X279565000Y-127675004D01*
X304296668Y-147050000D02*
X279511670Y-147050000D01*
X320551668Y-130795000D02*
X304296668Y-147050000D01*
X279511670Y-147050000D02*
X277025000Y-149536670D01*
X302786668Y-138400000D02*
X283081670Y-138400000D01*
X283081670Y-138400000D02*
X279565000Y-141916670D01*
X310391668Y-130795000D02*
X302786668Y-138400000D01*
X278595004Y-133725000D02*
X277025000Y-135295004D01*
X300231668Y-130795000D02*
X297301668Y-133725000D01*
X297301668Y-133725000D02*
X278595004Y-133725000D01*
X274485000Y-277865000D02*
X266868333Y-285481667D01*
X274485000Y-277711664D02*
X274485000Y-277865000D01*
X266868333Y-285481667D02*
X261345000Y-285481667D01*
X277025000Y-270091664D02*
X266714997Y-280401667D01*
X266714997Y-280401667D02*
X261345000Y-280401667D01*
X262029999Y-249228332D02*
X261345000Y-248543333D01*
X274485000Y-249228332D02*
X262029999Y-249228332D01*
X275169999Y-243463333D02*
X261345000Y-243463333D01*
X277025000Y-241608332D02*
X275169999Y-243463333D01*
X267875000Y-227350000D02*
X267001667Y-228223333D01*
X274485000Y-220745000D02*
X267880000Y-227350000D01*
X267880000Y-227350000D02*
X267875000Y-227350000D01*
X267001667Y-228223333D02*
X261345000Y-228223333D01*
X267006667Y-223143333D02*
X261345000Y-223143333D01*
X277025000Y-213125000D02*
X267006667Y-223143333D01*
X274485000Y-192261668D02*
X262321668Y-192261668D01*
X262321668Y-192261668D02*
X261345000Y-191285000D01*
X275308332Y-182925000D02*
X267675000Y-182925000D01*
X277025000Y-184641668D02*
X275308332Y-182925000D01*
X267675000Y-182925000D02*
X264395000Y-186205000D01*
X264395000Y-186205000D02*
X261345000Y-186205000D01*
X268531664Y-163778336D02*
X261345000Y-170965000D01*
X274485000Y-163778336D02*
X268531664Y-163778336D01*
X275408336Y-157775000D02*
X269000000Y-157775000D01*
X261345000Y-165430000D02*
X261345000Y-165885000D01*
X269000000Y-157775000D02*
X261345000Y-165430000D01*
X277025000Y-156158336D02*
X275408336Y-157775000D01*
X274485000Y-135295004D02*
X262613337Y-135295004D01*
X262613337Y-135295004D02*
X261345000Y-134026667D01*
X275753337Y-128946667D02*
X261345000Y-128946667D01*
X277025000Y-127675004D02*
X275753337Y-128946667D01*
X274485000Y-106811672D02*
X270304995Y-106811672D01*
X263410000Y-113706667D02*
X261345000Y-113706667D01*
X270304995Y-106811672D02*
X263410000Y-113706667D01*
X268321667Y-101650000D02*
X261345000Y-108626667D01*
X274566672Y-101650000D02*
X268321667Y-101650000D01*
X277025000Y-99191672D02*
X274566672Y-101650000D01*
X336425000Y-321000000D02*
X335950000Y-320525000D01*
X309688334Y-187050000D02*
X307851668Y-188886666D01*
X334661668Y-319236668D02*
X334661668Y-300825000D01*
X338575000Y-323925000D02*
X337461668Y-323925000D01*
X334661668Y-185050000D02*
X334436668Y-184825000D01*
X309846668Y-303075000D02*
X307851668Y-305070000D01*
X327511668Y-126150000D02*
X325411668Y-128250000D01*
X334661668Y-300825000D02*
X327311668Y-300825000D01*
X334661668Y-321125000D02*
X334661668Y-319236668D01*
X335950000Y-320525000D02*
X334661668Y-319236668D01*
X327311668Y-300825000D02*
X325061668Y-303075000D01*
X334661668Y-243050000D02*
X334661668Y-185050000D01*
X326661668Y-243050000D02*
X324561668Y-245150000D01*
X334661668Y-243050000D02*
X326661668Y-243050000D01*
X324561668Y-245150000D02*
X309680000Y-245150000D01*
X325111668Y-187050000D02*
X309688334Y-187050000D01*
X309680000Y-245150000D02*
X307851668Y-246978332D01*
X338500000Y-321000000D02*
X336425000Y-321000000D01*
X325411668Y-128250000D02*
X309236668Y-128250000D01*
X325061668Y-303075000D02*
X309846668Y-303075000D01*
X307851668Y-129635000D02*
X307851668Y-130795000D01*
X332836668Y-126150000D02*
X327511668Y-126150000D01*
X334661668Y-185050000D02*
X334661668Y-127975000D01*
X334661668Y-300825000D02*
X334661668Y-243050000D01*
X334661668Y-127975000D02*
X332836668Y-126150000D01*
X327336668Y-184825000D02*
X325111668Y-187050000D01*
X309236668Y-128250000D02*
X307851668Y-129635000D01*
X337461668Y-323925000D02*
X334661668Y-321125000D01*
X334436668Y-184825000D02*
X327336668Y-184825000D01*
X274485000Y-320436672D02*
X265820005Y-320436672D01*
X265820005Y-320436672D02*
X261345000Y-315961667D01*
X277025000Y-312816672D02*
X275089995Y-310881667D01*
X275089995Y-310881667D02*
X261345000Y-310881667D01*
X274485000Y-291953330D02*
X271338330Y-295100000D01*
X271325000Y-295100000D02*
X270783333Y-295641667D01*
X271338330Y-295100000D02*
X271325000Y-295100000D01*
X270783333Y-295641667D02*
X261345000Y-295641667D01*
X277025000Y-284333330D02*
X270796663Y-290561667D01*
X270796663Y-290561667D02*
X261345000Y-290561667D01*
X274485000Y-263469998D02*
X266111665Y-263469998D01*
X266111665Y-263469998D02*
X261345000Y-258703333D01*
X274798335Y-253623333D02*
X261345000Y-253623333D01*
X277025000Y-255849998D02*
X274798335Y-253623333D01*
X270513334Y-234986666D02*
X267116667Y-238383333D01*
X274485000Y-234986666D02*
X270513334Y-234986666D01*
X267116667Y-238383333D02*
X261345000Y-238383333D01*
X272591666Y-231800000D02*
X262848333Y-231800000D01*
X262848333Y-231800000D02*
X261345000Y-233303333D01*
X277025000Y-227366666D02*
X272591666Y-231800000D01*
X274485000Y-206503334D02*
X266403334Y-206503334D01*
X266403334Y-206503334D02*
X261345000Y-201445000D01*
X274506666Y-196365000D02*
X261345000Y-196365000D01*
X277025000Y-198883334D02*
X274506666Y-196365000D01*
X265904998Y-178020002D02*
X262800000Y-181125000D01*
X262800000Y-181125000D02*
X261345000Y-181125000D01*
X274485000Y-178020002D02*
X265904998Y-178020002D01*
X275575002Y-171850000D02*
X267575000Y-171850000D01*
X277025000Y-170400002D02*
X275575002Y-171850000D01*
X267575000Y-171850000D02*
X263380000Y-176045000D01*
X263380000Y-176045000D02*
X261345000Y-176045000D01*
X274485000Y-149536670D02*
X274485000Y-149235000D01*
X274485000Y-149235000D02*
X271475000Y-146225000D01*
X271475000Y-146225000D02*
X263383333Y-146225000D01*
X263383333Y-146225000D02*
X261345000Y-144186667D01*
X277025000Y-141916670D02*
X274214997Y-139106667D01*
X274214997Y-139106667D02*
X261345000Y-139106667D01*
X274485000Y-121053338D02*
X267321662Y-121053338D01*
X264508333Y-123866667D02*
X261345000Y-123866667D01*
X267321662Y-121053338D02*
X264508333Y-123866667D01*
X277025000Y-113433338D02*
X274371671Y-116086667D01*
X263930000Y-118786667D02*
X261345000Y-118786667D01*
X266630000Y-116086667D02*
X263930000Y-118786667D01*
X274371671Y-116086667D02*
X266630000Y-116086667D01*
M02*
