G04 #@! TF.GenerationSoftware,KiCad,Pcbnew,(6.0.4-0)*
G04 #@! TF.CreationDate,2023-02-13T16:27:07-08:00*
G04 #@! TF.ProjectId,widaq-magis-ssr-v2b,77696461-712d-46d6-9167-69732d737372,rev?*
G04 #@! TF.SameCoordinates,Original*
G04 #@! TF.FileFunction,Copper,L1,Top*
G04 #@! TF.FilePolarity,Positive*
%FSLAX46Y46*%
G04 Gerber Fmt 4.6, Leading zero omitted, Abs format (unit mm)*
G04 Created by KiCad (PCBNEW (6.0.4-0)) date 2023-02-13 16:27:07*
%MOMM*%
%LPD*%
G01*
G04 APERTURE LIST*
G04 Aperture macros list*
%AMRoundRect*
0 Rectangle with rounded corners*
0 $1 Rounding radius*
0 $2 $3 $4 $5 $6 $7 $8 $9 X,Y pos of 4 corners*
0 Add a 4 corners polygon primitive as box body*
4,1,4,$2,$3,$4,$5,$6,$7,$8,$9,$2,$3,0*
0 Add four circle primitives for the rounded corners*
1,1,$1+$1,$2,$3*
1,1,$1+$1,$4,$5*
1,1,$1+$1,$6,$7*
1,1,$1+$1,$8,$9*
0 Add four rect primitives between the rounded corners*
20,1,$1+$1,$2,$3,$4,$5,0*
20,1,$1+$1,$4,$5,$6,$7,0*
20,1,$1+$1,$6,$7,$8,$9,0*
20,1,$1+$1,$8,$9,$2,$3,0*%
G04 Aperture macros list end*
G04 #@! TA.AperFunction,EtchedComponent*
%ADD10C,0.010000*%
G04 #@! TD*
G04 #@! TA.AperFunction,ComponentPad*
%ADD11R,1.600000X1.600000*%
G04 #@! TD*
G04 #@! TA.AperFunction,ComponentPad*
%ADD12O,1.600000X1.600000*%
G04 #@! TD*
G04 #@! TA.AperFunction,ComponentPad*
%ADD13RoundRect,0.250000X0.625000X-0.350000X0.625000X0.350000X-0.625000X0.350000X-0.625000X-0.350000X0*%
G04 #@! TD*
G04 #@! TA.AperFunction,ComponentPad*
%ADD14O,1.750000X1.200000*%
G04 #@! TD*
G04 #@! TA.AperFunction,ComponentPad*
%ADD15R,1.700000X1.700000*%
G04 #@! TD*
G04 #@! TA.AperFunction,ComponentPad*
%ADD16O,1.700000X1.700000*%
G04 #@! TD*
G04 #@! TA.AperFunction,ComponentPad*
%ADD17C,1.400000*%
G04 #@! TD*
G04 #@! TA.AperFunction,ComponentPad*
%ADD18O,1.400000X1.400000*%
G04 #@! TD*
G04 #@! TA.AperFunction,ComponentPad*
%ADD19C,1.600000*%
G04 #@! TD*
G04 #@! TA.AperFunction,ComponentPad*
%ADD20C,2.900000*%
G04 #@! TD*
G04 #@! TA.AperFunction,SMDPad,CuDef*
%ADD21R,1.100000X0.600000*%
G04 #@! TD*
G04 #@! TA.AperFunction,SMDPad,CuDef*
%ADD22R,1.100000X0.300000*%
G04 #@! TD*
G04 #@! TA.AperFunction,ComponentPad*
%ADD23O,2.000000X1.000000*%
G04 #@! TD*
G04 #@! TA.AperFunction,ComponentPad*
%ADD24O,1.800000X0.900000*%
G04 #@! TD*
G04 #@! TA.AperFunction,ComponentPad*
%ADD25R,1.473200X1.473200*%
G04 #@! TD*
G04 #@! TA.AperFunction,ComponentPad*
%ADD26C,1.473200*%
G04 #@! TD*
G04 #@! TA.AperFunction,ComponentPad*
%ADD27C,7.400000*%
G04 #@! TD*
G04 #@! TA.AperFunction,ComponentPad*
%ADD28C,0.800000*%
G04 #@! TD*
G04 #@! TA.AperFunction,ViaPad*
%ADD29C,0.457200*%
G04 #@! TD*
G04 #@! TA.AperFunction,ViaPad*
%ADD30C,0.800000*%
G04 #@! TD*
G04 #@! TA.AperFunction,ViaPad*
%ADD31C,0.400000*%
G04 #@! TD*
G04 #@! TA.AperFunction,Conductor*
%ADD32C,0.250000*%
G04 #@! TD*
G04 #@! TA.AperFunction,Conductor*
%ADD33C,0.150000*%
G04 #@! TD*
G04 #@! TA.AperFunction,Conductor*
%ADD34C,0.200000*%
G04 #@! TD*
G04 APERTURE END LIST*
G36*
X346823668Y-316138000D02*
G01*
X346875668Y-316146000D01*
X346926668Y-316159000D01*
X346974668Y-316178000D01*
X347021668Y-316202000D01*
X347065668Y-316230000D01*
X347106668Y-316263000D01*
X347143668Y-316300000D01*
X347176668Y-316341000D01*
X347204668Y-316385000D01*
X347228668Y-316432000D01*
X347247668Y-316480000D01*
X347260668Y-316531000D01*
X347268668Y-316583000D01*
X347271668Y-316635000D01*
X347268668Y-316687000D01*
X347260668Y-316739000D01*
X347247668Y-316790000D01*
X347228668Y-316838000D01*
X347204668Y-316885000D01*
X347176668Y-316929000D01*
X347143668Y-316970000D01*
X347106668Y-317007000D01*
X347065668Y-317040000D01*
X347021668Y-317068000D01*
X346974668Y-317092000D01*
X346926668Y-317111000D01*
X346875668Y-317124000D01*
X346823668Y-317132000D01*
X346771668Y-317135000D01*
X345571668Y-317135000D01*
X345519668Y-317132000D01*
X345467668Y-317124000D01*
X345416668Y-317111000D01*
X345368668Y-317092000D01*
X345321668Y-317068000D01*
X345277668Y-317040000D01*
X345236668Y-317007000D01*
X345199668Y-316970000D01*
X345166668Y-316929000D01*
X345138668Y-316885000D01*
X345114668Y-316838000D01*
X345095668Y-316790000D01*
X345082668Y-316739000D01*
X345074668Y-316687000D01*
X345071668Y-316635000D01*
X345074668Y-316583000D01*
X345082668Y-316531000D01*
X345095668Y-316480000D01*
X345114668Y-316432000D01*
X345138668Y-316385000D01*
X345166668Y-316341000D01*
X345199668Y-316300000D01*
X345236668Y-316263000D01*
X345277668Y-316230000D01*
X345321668Y-316202000D01*
X345368668Y-316178000D01*
X345416668Y-316159000D01*
X345467668Y-316146000D01*
X345519668Y-316138000D01*
X345571668Y-316135000D01*
X346771668Y-316135000D01*
X346823668Y-316138000D01*
G37*
D10*
X346823668Y-316138000D02*
X346875668Y-316146000D01*
X346926668Y-316159000D01*
X346974668Y-316178000D01*
X347021668Y-316202000D01*
X347065668Y-316230000D01*
X347106668Y-316263000D01*
X347143668Y-316300000D01*
X347176668Y-316341000D01*
X347204668Y-316385000D01*
X347228668Y-316432000D01*
X347247668Y-316480000D01*
X347260668Y-316531000D01*
X347268668Y-316583000D01*
X347271668Y-316635000D01*
X347268668Y-316687000D01*
X347260668Y-316739000D01*
X347247668Y-316790000D01*
X347228668Y-316838000D01*
X347204668Y-316885000D01*
X347176668Y-316929000D01*
X347143668Y-316970000D01*
X347106668Y-317007000D01*
X347065668Y-317040000D01*
X347021668Y-317068000D01*
X346974668Y-317092000D01*
X346926668Y-317111000D01*
X346875668Y-317124000D01*
X346823668Y-317132000D01*
X346771668Y-317135000D01*
X345571668Y-317135000D01*
X345519668Y-317132000D01*
X345467668Y-317124000D01*
X345416668Y-317111000D01*
X345368668Y-317092000D01*
X345321668Y-317068000D01*
X345277668Y-317040000D01*
X345236668Y-317007000D01*
X345199668Y-316970000D01*
X345166668Y-316929000D01*
X345138668Y-316885000D01*
X345114668Y-316838000D01*
X345095668Y-316790000D01*
X345082668Y-316739000D01*
X345074668Y-316687000D01*
X345071668Y-316635000D01*
X345074668Y-316583000D01*
X345082668Y-316531000D01*
X345095668Y-316480000D01*
X345114668Y-316432000D01*
X345138668Y-316385000D01*
X345166668Y-316341000D01*
X345199668Y-316300000D01*
X345236668Y-316263000D01*
X345277668Y-316230000D01*
X345321668Y-316202000D01*
X345368668Y-316178000D01*
X345416668Y-316159000D01*
X345467668Y-316146000D01*
X345519668Y-316138000D01*
X345571668Y-316135000D01*
X346771668Y-316135000D01*
X346823668Y-316138000D01*
G36*
X342623668Y-316138000D02*
G01*
X342675668Y-316146000D01*
X342726668Y-316159000D01*
X342774668Y-316178000D01*
X342821668Y-316202000D01*
X342865668Y-316230000D01*
X342906668Y-316263000D01*
X342943668Y-316300000D01*
X342976668Y-316341000D01*
X343004668Y-316385000D01*
X343028668Y-316432000D01*
X343047668Y-316480000D01*
X343060668Y-316531000D01*
X343068668Y-316583000D01*
X343071668Y-316635000D01*
X343068668Y-316687000D01*
X343060668Y-316739000D01*
X343047668Y-316790000D01*
X343028668Y-316838000D01*
X343004668Y-316885000D01*
X342976668Y-316929000D01*
X342943668Y-316970000D01*
X342906668Y-317007000D01*
X342865668Y-317040000D01*
X342821668Y-317068000D01*
X342774668Y-317092000D01*
X342726668Y-317111000D01*
X342675668Y-317124000D01*
X342623668Y-317132000D01*
X342571668Y-317135000D01*
X341771668Y-317135000D01*
X341719668Y-317132000D01*
X341667668Y-317124000D01*
X341616668Y-317111000D01*
X341568668Y-317092000D01*
X341521668Y-317068000D01*
X341477668Y-317040000D01*
X341436668Y-317007000D01*
X341399668Y-316970000D01*
X341366668Y-316929000D01*
X341338668Y-316885000D01*
X341314668Y-316838000D01*
X341295668Y-316790000D01*
X341282668Y-316739000D01*
X341274668Y-316687000D01*
X341271668Y-316635000D01*
X341274668Y-316583000D01*
X341282668Y-316531000D01*
X341295668Y-316480000D01*
X341314668Y-316432000D01*
X341338668Y-316385000D01*
X341366668Y-316341000D01*
X341399668Y-316300000D01*
X341436668Y-316263000D01*
X341477668Y-316230000D01*
X341521668Y-316202000D01*
X341568668Y-316178000D01*
X341616668Y-316159000D01*
X341667668Y-316146000D01*
X341719668Y-316138000D01*
X341771668Y-316135000D01*
X342571668Y-316135000D01*
X342623668Y-316138000D01*
G37*
X342623668Y-316138000D02*
X342675668Y-316146000D01*
X342726668Y-316159000D01*
X342774668Y-316178000D01*
X342821668Y-316202000D01*
X342865668Y-316230000D01*
X342906668Y-316263000D01*
X342943668Y-316300000D01*
X342976668Y-316341000D01*
X343004668Y-316385000D01*
X343028668Y-316432000D01*
X343047668Y-316480000D01*
X343060668Y-316531000D01*
X343068668Y-316583000D01*
X343071668Y-316635000D01*
X343068668Y-316687000D01*
X343060668Y-316739000D01*
X343047668Y-316790000D01*
X343028668Y-316838000D01*
X343004668Y-316885000D01*
X342976668Y-316929000D01*
X342943668Y-316970000D01*
X342906668Y-317007000D01*
X342865668Y-317040000D01*
X342821668Y-317068000D01*
X342774668Y-317092000D01*
X342726668Y-317111000D01*
X342675668Y-317124000D01*
X342623668Y-317132000D01*
X342571668Y-317135000D01*
X341771668Y-317135000D01*
X341719668Y-317132000D01*
X341667668Y-317124000D01*
X341616668Y-317111000D01*
X341568668Y-317092000D01*
X341521668Y-317068000D01*
X341477668Y-317040000D01*
X341436668Y-317007000D01*
X341399668Y-316970000D01*
X341366668Y-316929000D01*
X341338668Y-316885000D01*
X341314668Y-316838000D01*
X341295668Y-316790000D01*
X341282668Y-316739000D01*
X341274668Y-316687000D01*
X341271668Y-316635000D01*
X341274668Y-316583000D01*
X341282668Y-316531000D01*
X341295668Y-316480000D01*
X341314668Y-316432000D01*
X341338668Y-316385000D01*
X341366668Y-316341000D01*
X341399668Y-316300000D01*
X341436668Y-316263000D01*
X341477668Y-316230000D01*
X341521668Y-316202000D01*
X341568668Y-316178000D01*
X341616668Y-316159000D01*
X341667668Y-316146000D01*
X341719668Y-316138000D01*
X341771668Y-316135000D01*
X342571668Y-316135000D01*
X342623668Y-316138000D01*
G36*
X346823668Y-327378000D02*
G01*
X346875668Y-327386000D01*
X346926668Y-327399000D01*
X346974668Y-327418000D01*
X347021668Y-327442000D01*
X347065668Y-327470000D01*
X347106668Y-327503000D01*
X347143668Y-327540000D01*
X347176668Y-327581000D01*
X347204668Y-327625000D01*
X347228668Y-327672000D01*
X347247668Y-327720000D01*
X347260668Y-327771000D01*
X347268668Y-327823000D01*
X347271668Y-327875000D01*
X347268668Y-327927000D01*
X347260668Y-327979000D01*
X347247668Y-328030000D01*
X347228668Y-328078000D01*
X347204668Y-328125000D01*
X347176668Y-328169000D01*
X347143668Y-328210000D01*
X347106668Y-328247000D01*
X347065668Y-328280000D01*
X347021668Y-328308000D01*
X346974668Y-328332000D01*
X346926668Y-328351000D01*
X346875668Y-328364000D01*
X346823668Y-328372000D01*
X346771668Y-328375000D01*
X345571668Y-328375000D01*
X345519668Y-328372000D01*
X345467668Y-328364000D01*
X345416668Y-328351000D01*
X345368668Y-328332000D01*
X345321668Y-328308000D01*
X345277668Y-328280000D01*
X345236668Y-328247000D01*
X345199668Y-328210000D01*
X345166668Y-328169000D01*
X345138668Y-328125000D01*
X345114668Y-328078000D01*
X345095668Y-328030000D01*
X345082668Y-327979000D01*
X345074668Y-327927000D01*
X345071668Y-327875000D01*
X345074668Y-327823000D01*
X345082668Y-327771000D01*
X345095668Y-327720000D01*
X345114668Y-327672000D01*
X345138668Y-327625000D01*
X345166668Y-327581000D01*
X345199668Y-327540000D01*
X345236668Y-327503000D01*
X345277668Y-327470000D01*
X345321668Y-327442000D01*
X345368668Y-327418000D01*
X345416668Y-327399000D01*
X345467668Y-327386000D01*
X345519668Y-327378000D01*
X345571668Y-327375000D01*
X346771668Y-327375000D01*
X346823668Y-327378000D01*
G37*
X346823668Y-327378000D02*
X346875668Y-327386000D01*
X346926668Y-327399000D01*
X346974668Y-327418000D01*
X347021668Y-327442000D01*
X347065668Y-327470000D01*
X347106668Y-327503000D01*
X347143668Y-327540000D01*
X347176668Y-327581000D01*
X347204668Y-327625000D01*
X347228668Y-327672000D01*
X347247668Y-327720000D01*
X347260668Y-327771000D01*
X347268668Y-327823000D01*
X347271668Y-327875000D01*
X347268668Y-327927000D01*
X347260668Y-327979000D01*
X347247668Y-328030000D01*
X347228668Y-328078000D01*
X347204668Y-328125000D01*
X347176668Y-328169000D01*
X347143668Y-328210000D01*
X347106668Y-328247000D01*
X347065668Y-328280000D01*
X347021668Y-328308000D01*
X346974668Y-328332000D01*
X346926668Y-328351000D01*
X346875668Y-328364000D01*
X346823668Y-328372000D01*
X346771668Y-328375000D01*
X345571668Y-328375000D01*
X345519668Y-328372000D01*
X345467668Y-328364000D01*
X345416668Y-328351000D01*
X345368668Y-328332000D01*
X345321668Y-328308000D01*
X345277668Y-328280000D01*
X345236668Y-328247000D01*
X345199668Y-328210000D01*
X345166668Y-328169000D01*
X345138668Y-328125000D01*
X345114668Y-328078000D01*
X345095668Y-328030000D01*
X345082668Y-327979000D01*
X345074668Y-327927000D01*
X345071668Y-327875000D01*
X345074668Y-327823000D01*
X345082668Y-327771000D01*
X345095668Y-327720000D01*
X345114668Y-327672000D01*
X345138668Y-327625000D01*
X345166668Y-327581000D01*
X345199668Y-327540000D01*
X345236668Y-327503000D01*
X345277668Y-327470000D01*
X345321668Y-327442000D01*
X345368668Y-327418000D01*
X345416668Y-327399000D01*
X345467668Y-327386000D01*
X345519668Y-327378000D01*
X345571668Y-327375000D01*
X346771668Y-327375000D01*
X346823668Y-327378000D01*
G36*
X342623668Y-327378000D02*
G01*
X342675668Y-327386000D01*
X342726668Y-327399000D01*
X342774668Y-327418000D01*
X342821668Y-327442000D01*
X342865668Y-327470000D01*
X342906668Y-327503000D01*
X342943668Y-327540000D01*
X342976668Y-327581000D01*
X343004668Y-327625000D01*
X343028668Y-327672000D01*
X343047668Y-327720000D01*
X343060668Y-327771000D01*
X343068668Y-327823000D01*
X343071668Y-327875000D01*
X343068668Y-327927000D01*
X343060668Y-327979000D01*
X343047668Y-328030000D01*
X343028668Y-328078000D01*
X343004668Y-328125000D01*
X342976668Y-328169000D01*
X342943668Y-328210000D01*
X342906668Y-328247000D01*
X342865668Y-328280000D01*
X342821668Y-328308000D01*
X342774668Y-328332000D01*
X342726668Y-328351000D01*
X342675668Y-328364000D01*
X342623668Y-328372000D01*
X342571668Y-328375000D01*
X341771668Y-328375000D01*
X341719668Y-328372000D01*
X341667668Y-328364000D01*
X341616668Y-328351000D01*
X341568668Y-328332000D01*
X341521668Y-328308000D01*
X341477668Y-328280000D01*
X341436668Y-328247000D01*
X341399668Y-328210000D01*
X341366668Y-328169000D01*
X341338668Y-328125000D01*
X341314668Y-328078000D01*
X341295668Y-328030000D01*
X341282668Y-327979000D01*
X341274668Y-327927000D01*
X341271668Y-327875000D01*
X341274668Y-327823000D01*
X341282668Y-327771000D01*
X341295668Y-327720000D01*
X341314668Y-327672000D01*
X341338668Y-327625000D01*
X341366668Y-327581000D01*
X341399668Y-327540000D01*
X341436668Y-327503000D01*
X341477668Y-327470000D01*
X341521668Y-327442000D01*
X341568668Y-327418000D01*
X341616668Y-327399000D01*
X341667668Y-327386000D01*
X341719668Y-327378000D01*
X341771668Y-327375000D01*
X342571668Y-327375000D01*
X342623668Y-327378000D01*
G37*
X342623668Y-327378000D02*
X342675668Y-327386000D01*
X342726668Y-327399000D01*
X342774668Y-327418000D01*
X342821668Y-327442000D01*
X342865668Y-327470000D01*
X342906668Y-327503000D01*
X342943668Y-327540000D01*
X342976668Y-327581000D01*
X343004668Y-327625000D01*
X343028668Y-327672000D01*
X343047668Y-327720000D01*
X343060668Y-327771000D01*
X343068668Y-327823000D01*
X343071668Y-327875000D01*
X343068668Y-327927000D01*
X343060668Y-327979000D01*
X343047668Y-328030000D01*
X343028668Y-328078000D01*
X343004668Y-328125000D01*
X342976668Y-328169000D01*
X342943668Y-328210000D01*
X342906668Y-328247000D01*
X342865668Y-328280000D01*
X342821668Y-328308000D01*
X342774668Y-328332000D01*
X342726668Y-328351000D01*
X342675668Y-328364000D01*
X342623668Y-328372000D01*
X342571668Y-328375000D01*
X341771668Y-328375000D01*
X341719668Y-328372000D01*
X341667668Y-328364000D01*
X341616668Y-328351000D01*
X341568668Y-328332000D01*
X341521668Y-328308000D01*
X341477668Y-328280000D01*
X341436668Y-328247000D01*
X341399668Y-328210000D01*
X341366668Y-328169000D01*
X341338668Y-328125000D01*
X341314668Y-328078000D01*
X341295668Y-328030000D01*
X341282668Y-327979000D01*
X341274668Y-327927000D01*
X341271668Y-327875000D01*
X341274668Y-327823000D01*
X341282668Y-327771000D01*
X341295668Y-327720000D01*
X341314668Y-327672000D01*
X341338668Y-327625000D01*
X341366668Y-327581000D01*
X341399668Y-327540000D01*
X341436668Y-327503000D01*
X341477668Y-327470000D01*
X341521668Y-327442000D01*
X341568668Y-327418000D01*
X341616668Y-327399000D01*
X341667668Y-327386000D01*
X341719668Y-327378000D01*
X341771668Y-327375000D01*
X342571668Y-327375000D01*
X342623668Y-327378000D01*
D11*
X289725000Y-241608332D03*
D12*
X287185000Y-241608332D03*
X284645000Y-241608332D03*
X282105000Y-241608332D03*
X279565000Y-241608332D03*
X277025000Y-241608332D03*
X274485000Y-241608332D03*
X274485000Y-249228332D03*
X277025000Y-249228332D03*
X279565000Y-249228332D03*
X282105000Y-249228332D03*
X284645000Y-249228332D03*
X287185000Y-249228332D03*
X289725000Y-249228332D03*
D11*
X289725000Y-113433338D03*
D12*
X287185000Y-113433338D03*
X284645000Y-113433338D03*
X282105000Y-113433338D03*
X279565000Y-113433338D03*
X277025000Y-113433338D03*
X274485000Y-113433338D03*
X274485000Y-121053338D03*
X277025000Y-121053338D03*
X279565000Y-121053338D03*
X282105000Y-121053338D03*
X284645000Y-121053338D03*
X287185000Y-121053338D03*
X289725000Y-121053338D03*
D11*
X289725000Y-99191672D03*
D12*
X287185000Y-99191672D03*
X284645000Y-99191672D03*
X282105000Y-99191672D03*
X279565000Y-99191672D03*
X277025000Y-99191672D03*
X274485000Y-99191672D03*
X274485000Y-106811672D03*
X277025000Y-106811672D03*
X279565000Y-106811672D03*
X282105000Y-106811672D03*
X284645000Y-106811672D03*
X287185000Y-106811672D03*
X289725000Y-106811672D03*
D11*
X289725000Y-298574996D03*
D12*
X287185000Y-298574996D03*
X284645000Y-298574996D03*
X282105000Y-298574996D03*
X279565000Y-298574996D03*
X277025000Y-298574996D03*
X274485000Y-298574996D03*
X274485000Y-306194996D03*
X277025000Y-306194996D03*
X279565000Y-306194996D03*
X282105000Y-306194996D03*
X284645000Y-306194996D03*
X287185000Y-306194996D03*
X289725000Y-306194996D03*
D11*
X289725000Y-312816672D03*
D12*
X287185000Y-312816672D03*
X284645000Y-312816672D03*
X282105000Y-312816672D03*
X279565000Y-312816672D03*
X277025000Y-312816672D03*
X274485000Y-312816672D03*
X274485000Y-320436672D03*
X277025000Y-320436672D03*
X279565000Y-320436672D03*
X282105000Y-320436672D03*
X284645000Y-320436672D03*
X287185000Y-320436672D03*
X289725000Y-320436672D03*
D13*
X341771668Y-269100000D03*
D14*
X341771668Y-267100000D03*
D15*
X330686668Y-221575000D03*
D16*
X328146668Y-221575000D03*
X325606668Y-221575000D03*
X323066668Y-221575000D03*
D17*
X322776668Y-227525000D03*
D18*
X330396668Y-227525000D03*
D19*
X315686668Y-317370000D03*
X320686668Y-317370000D03*
X315686668Y-325070000D03*
X320686668Y-325070000D03*
D11*
X289725000Y-270091664D03*
D12*
X287185000Y-270091664D03*
X284645000Y-270091664D03*
X282105000Y-270091664D03*
X279565000Y-270091664D03*
X277025000Y-270091664D03*
X274485000Y-270091664D03*
X274485000Y-277711664D03*
X277025000Y-277711664D03*
X279565000Y-277711664D03*
X282105000Y-277711664D03*
X284645000Y-277711664D03*
X287185000Y-277711664D03*
X289725000Y-277711664D03*
D17*
X330736668Y-165575000D03*
D18*
X323116668Y-165575000D03*
D19*
X315686668Y-321220000D03*
X320686668Y-321220000D03*
D11*
X289725000Y-127675004D03*
D12*
X287185000Y-127675004D03*
X284645000Y-127675004D03*
X282105000Y-127675004D03*
X279565000Y-127675004D03*
X277025000Y-127675004D03*
X274485000Y-127675004D03*
X274485000Y-135295004D03*
X277025000Y-135295004D03*
X279565000Y-135295004D03*
X282105000Y-135295004D03*
X284645000Y-135295004D03*
X287185000Y-135295004D03*
X289725000Y-135295004D03*
D15*
X330711668Y-278900000D03*
D16*
X328171668Y-278900000D03*
X325631668Y-278900000D03*
X323091668Y-278900000D03*
D20*
X327875000Y-327530000D03*
X327875000Y-317370000D03*
D17*
X323126668Y-168475000D03*
D18*
X330746668Y-168475000D03*
D11*
X289725000Y-184641668D03*
D12*
X287185000Y-184641668D03*
X284645000Y-184641668D03*
X282105000Y-184641668D03*
X279565000Y-184641668D03*
X277025000Y-184641668D03*
X274485000Y-184641668D03*
X274485000Y-192261668D03*
X277025000Y-192261668D03*
X279565000Y-192261668D03*
X282105000Y-192261668D03*
X284645000Y-192261668D03*
X287185000Y-192261668D03*
X289725000Y-192261668D03*
D19*
X325811668Y-253050000D03*
X330811668Y-253050000D03*
X330711668Y-115555000D03*
X328171668Y-115555000D03*
X325631668Y-115555000D03*
X323091668Y-115555000D03*
X320551668Y-115555000D03*
X318011668Y-115555000D03*
X315471668Y-115555000D03*
X312931668Y-115555000D03*
X310391668Y-115555000D03*
X307851668Y-115555000D03*
X305311668Y-115555000D03*
X302771668Y-115555000D03*
X300231668Y-115555000D03*
X297691668Y-115555000D03*
X297691668Y-118095000D03*
X297691668Y-120635000D03*
X297691668Y-123175000D03*
X297691668Y-125715000D03*
X297691668Y-128255000D03*
X297691668Y-130795000D03*
X300231668Y-130795000D03*
X302771668Y-130795000D03*
X305311668Y-130795000D03*
X307851668Y-130795000D03*
X310391668Y-130795000D03*
X312931668Y-130795000D03*
X315471668Y-130795000D03*
X318011668Y-130795000D03*
X320551668Y-130795000D03*
X323091668Y-130795000D03*
X325631668Y-130795000D03*
X328171668Y-130795000D03*
X330711668Y-130795000D03*
X328171668Y-128255000D03*
X302771668Y-128255000D03*
X305311668Y-128255000D03*
X302771668Y-125715000D03*
X305311668Y-125715000D03*
X302771668Y-123175000D03*
X305311668Y-123175000D03*
X302771668Y-120635000D03*
X305311668Y-120635000D03*
X302771668Y-118095000D03*
X305311668Y-118095000D03*
D21*
X341021668Y-325455000D03*
X341021668Y-324655000D03*
D22*
X341021668Y-323505000D03*
X341021668Y-322505000D03*
X341021668Y-322005000D03*
X341021668Y-321005000D03*
D21*
X341021668Y-319055000D03*
X341021668Y-319855000D03*
D22*
X341021668Y-320505000D03*
X341021668Y-321505000D03*
X341021668Y-323005000D03*
X341021668Y-324005000D03*
D23*
X346171668Y-327875000D03*
X346171668Y-316635000D03*
D24*
X342171668Y-327875000D03*
X342171668Y-316635000D03*
D19*
X325486668Y-309975000D03*
X330486668Y-309975000D03*
X325811668Y-194725000D03*
X330811668Y-194725000D03*
D11*
X289725000Y-141916670D03*
D12*
X287185000Y-141916670D03*
X284645000Y-141916670D03*
X282105000Y-141916670D03*
X279565000Y-141916670D03*
X277025000Y-141916670D03*
X274485000Y-141916670D03*
X274485000Y-149536670D03*
X277025000Y-149536670D03*
X279565000Y-149536670D03*
X282105000Y-149536670D03*
X284645000Y-149536670D03*
X287185000Y-149536670D03*
X289725000Y-149536670D03*
D17*
X330751668Y-108050000D03*
D18*
X323131668Y-108050000D03*
D11*
X289725000Y-198883334D03*
D12*
X287185000Y-198883334D03*
X284645000Y-198883334D03*
X282105000Y-198883334D03*
X279565000Y-198883334D03*
X277025000Y-198883334D03*
X274485000Y-198883334D03*
X274485000Y-206503334D03*
X277025000Y-206503334D03*
X279565000Y-206503334D03*
X282105000Y-206503334D03*
X284645000Y-206503334D03*
X287185000Y-206503334D03*
X289725000Y-206503334D03*
D13*
X341771668Y-278375000D03*
D14*
X341771668Y-276375000D03*
D11*
X289725000Y-284333330D03*
D12*
X287185000Y-284333330D03*
X284645000Y-284333330D03*
X282105000Y-284333330D03*
X279565000Y-284333330D03*
X277025000Y-284333330D03*
X274485000Y-284333330D03*
X274485000Y-291953330D03*
X277025000Y-291953330D03*
X279565000Y-291953330D03*
X282105000Y-291953330D03*
X284645000Y-291953330D03*
X287185000Y-291953330D03*
X289725000Y-291953330D03*
D15*
X330711668Y-104450000D03*
D16*
X328171668Y-104450000D03*
X325631668Y-104450000D03*
X323091668Y-104450000D03*
D19*
X330711668Y-289830000D03*
X328171668Y-289830000D03*
X325631668Y-289830000D03*
X323091668Y-289830000D03*
X320551668Y-289830000D03*
X318011668Y-289830000D03*
X315471668Y-289830000D03*
X312931668Y-289830000D03*
X310391668Y-289830000D03*
X307851668Y-289830000D03*
X305311668Y-289830000D03*
X302771668Y-289830000D03*
X300231668Y-289830000D03*
X297691668Y-289830000D03*
X297691668Y-292370000D03*
X297691668Y-294910000D03*
X297691668Y-297450000D03*
X297691668Y-299990000D03*
X297691668Y-302530000D03*
X297691668Y-305070000D03*
X300231668Y-305070000D03*
X302771668Y-305070000D03*
X305311668Y-305070000D03*
X307851668Y-305070000D03*
X310391668Y-305070000D03*
X312931668Y-305070000D03*
X315471668Y-305070000D03*
X318011668Y-305070000D03*
X320551668Y-305070000D03*
X323091668Y-305070000D03*
X325631668Y-305070000D03*
X328171668Y-305070000D03*
X330711668Y-305070000D03*
X328171668Y-302530000D03*
X302771668Y-302530000D03*
X305311668Y-302530000D03*
X302771668Y-299990000D03*
X305311668Y-299990000D03*
X302771668Y-297450000D03*
X305311668Y-297450000D03*
X302771668Y-294910000D03*
X305311668Y-294910000D03*
X302771668Y-292370000D03*
X305311668Y-292370000D03*
D15*
X334750000Y-335750000D03*
D16*
X334750000Y-333210000D03*
D19*
X341761668Y-282770000D03*
D12*
X341761668Y-292930000D03*
D25*
X261345000Y-201445000D03*
D26*
X261345000Y-198905000D03*
X261345000Y-196365000D03*
X261345000Y-193825000D03*
X261345000Y-191285000D03*
X261345000Y-188745000D03*
X261345000Y-186205000D03*
X261345000Y-183665000D03*
X261345000Y-181125000D03*
X261345000Y-178585000D03*
X261345000Y-176045000D03*
X261345000Y-173505000D03*
X261345000Y-170965000D03*
X261345000Y-168425000D03*
X261345000Y-165885000D03*
X261345000Y-163345000D03*
X261345000Y-160805000D03*
X258805000Y-201445000D03*
X258805000Y-198905000D03*
X258805000Y-196365000D03*
X258805000Y-193825000D03*
X258805000Y-191285000D03*
X258805000Y-188745000D03*
X258805000Y-186205000D03*
X258805000Y-183665000D03*
X258805000Y-181125000D03*
X258805000Y-178585000D03*
X258805000Y-176045000D03*
X258805000Y-173505000D03*
X258805000Y-170965000D03*
X258805000Y-168425000D03*
X258805000Y-165885000D03*
X258805000Y-163345000D03*
X258805000Y-160805000D03*
D17*
X330411668Y-224850000D03*
D18*
X322791668Y-224850000D03*
D19*
X330711668Y-173646666D03*
X328171668Y-173646666D03*
X325631668Y-173646666D03*
X323091668Y-173646666D03*
X320551668Y-173646666D03*
X318011668Y-173646666D03*
X315471668Y-173646666D03*
X312931668Y-173646666D03*
X310391668Y-173646666D03*
X307851668Y-173646666D03*
X305311668Y-173646666D03*
X302771668Y-173646666D03*
X300231668Y-173646666D03*
X297691668Y-173646666D03*
X297691668Y-176186666D03*
X297691668Y-178726666D03*
X297691668Y-181266666D03*
X297691668Y-183806666D03*
X297691668Y-186346666D03*
X297691668Y-188886666D03*
X300231668Y-188886666D03*
X302771668Y-188886666D03*
X305311668Y-188886666D03*
X307851668Y-188886666D03*
X310391668Y-188886666D03*
X312931668Y-188886666D03*
X315471668Y-188886666D03*
X318011668Y-188886666D03*
X320551668Y-188886666D03*
X323091668Y-188886666D03*
X325631668Y-188886666D03*
X328171668Y-188886666D03*
X330711668Y-188886666D03*
X328171668Y-186346666D03*
X302771668Y-186346666D03*
X305311668Y-186346666D03*
X302771668Y-183806666D03*
X305311668Y-183806666D03*
X302771668Y-181266666D03*
X305311668Y-181266666D03*
X302771668Y-178726666D03*
X305311668Y-178726666D03*
X302771668Y-176186666D03*
X305311668Y-176186666D03*
D11*
X289725000Y-213125000D03*
D12*
X287185000Y-213125000D03*
X284645000Y-213125000D03*
X282105000Y-213125000D03*
X279565000Y-213125000D03*
X277025000Y-213125000D03*
X274485000Y-213125000D03*
X274485000Y-220745000D03*
X277025000Y-220745000D03*
X279565000Y-220745000D03*
X282105000Y-220745000D03*
X284645000Y-220745000D03*
X287185000Y-220745000D03*
X289725000Y-220745000D03*
D27*
X342900000Y-337820000D03*
D28*
X340125000Y-337820000D03*
X344862221Y-335857779D03*
X340937779Y-335857779D03*
X344862221Y-339782221D03*
X342900000Y-340595000D03*
X345675000Y-337820000D03*
X342900000Y-335045000D03*
X340937779Y-339782221D03*
D17*
X323111668Y-285275000D03*
D18*
X330731668Y-285275000D03*
D19*
X325536668Y-136150000D03*
X330536668Y-136150000D03*
D11*
X289725000Y-255849998D03*
D12*
X287185000Y-255849998D03*
X284645000Y-255849998D03*
X282105000Y-255849998D03*
X279565000Y-255849998D03*
X277025000Y-255849998D03*
X274485000Y-255849998D03*
X274485000Y-263469998D03*
X277025000Y-263469998D03*
X279565000Y-263469998D03*
X282105000Y-263469998D03*
X284645000Y-263469998D03*
X287185000Y-263469998D03*
X289725000Y-263469998D03*
D17*
X330721668Y-282500000D03*
D18*
X323101668Y-282500000D03*
D25*
X261345000Y-144186667D03*
D26*
X261345000Y-141646667D03*
X261345000Y-139106667D03*
X261345000Y-136566667D03*
X261345000Y-134026667D03*
X261345000Y-131486667D03*
X261345000Y-128946667D03*
X261345000Y-126406667D03*
X261345000Y-123866667D03*
X261345000Y-121326667D03*
X261345000Y-118786667D03*
X261345000Y-116246667D03*
X261345000Y-113706667D03*
X261345000Y-111166667D03*
X261345000Y-108626667D03*
X261345000Y-106086667D03*
X261345000Y-103546667D03*
X258805000Y-144186667D03*
X258805000Y-141646667D03*
X258805000Y-139106667D03*
X258805000Y-136566667D03*
X258805000Y-134026667D03*
X258805000Y-131486667D03*
X258805000Y-128946667D03*
X258805000Y-126406667D03*
X258805000Y-123866667D03*
X258805000Y-121326667D03*
X258805000Y-118786667D03*
X258805000Y-116246667D03*
X258805000Y-113706667D03*
X258805000Y-111166667D03*
X258805000Y-108626667D03*
X258805000Y-106086667D03*
X258805000Y-103546667D03*
D13*
X341771668Y-259825000D03*
D14*
X341771668Y-257825000D03*
D17*
X323076668Y-110825000D03*
D18*
X330696668Y-110825000D03*
D11*
X289725000Y-227366666D03*
D12*
X287185000Y-227366666D03*
X284645000Y-227366666D03*
X282105000Y-227366666D03*
X279565000Y-227366666D03*
X277025000Y-227366666D03*
X274485000Y-227366666D03*
X274485000Y-234986666D03*
X277025000Y-234986666D03*
X279565000Y-234986666D03*
X282105000Y-234986666D03*
X284645000Y-234986666D03*
X287185000Y-234986666D03*
X289725000Y-234986666D03*
D25*
X261345000Y-258703333D03*
D26*
X261345000Y-256163333D03*
X261345000Y-253623333D03*
X261345000Y-251083333D03*
X261345000Y-248543333D03*
X261345000Y-246003333D03*
X261345000Y-243463333D03*
X261345000Y-240923333D03*
X261345000Y-238383333D03*
X261345000Y-235843333D03*
X261345000Y-233303333D03*
X261345000Y-230763333D03*
X261345000Y-228223333D03*
X261345000Y-225683333D03*
X261345000Y-223143333D03*
X261345000Y-220603333D03*
X261345000Y-218063333D03*
X258805000Y-258703333D03*
X258805000Y-256163333D03*
X258805000Y-253623333D03*
X258805000Y-251083333D03*
X258805000Y-248543333D03*
X258805000Y-246003333D03*
X258805000Y-243463333D03*
X258805000Y-240923333D03*
X258805000Y-238383333D03*
X258805000Y-235843333D03*
X258805000Y-233303333D03*
X258805000Y-230763333D03*
X258805000Y-228223333D03*
X258805000Y-225683333D03*
X258805000Y-223143333D03*
X258805000Y-220603333D03*
X258805000Y-218063333D03*
D11*
X289725000Y-156158336D03*
D12*
X287185000Y-156158336D03*
X284645000Y-156158336D03*
X282105000Y-156158336D03*
X279565000Y-156158336D03*
X277025000Y-156158336D03*
X274485000Y-156158336D03*
X274485000Y-163778336D03*
X277025000Y-163778336D03*
X279565000Y-163778336D03*
X282105000Y-163778336D03*
X284645000Y-163778336D03*
X287185000Y-163778336D03*
X289725000Y-163778336D03*
D25*
X261345000Y-315961667D03*
D26*
X261345000Y-313421667D03*
X261345000Y-310881667D03*
X261345000Y-308341667D03*
X261345000Y-305801667D03*
X261345000Y-303261667D03*
X261345000Y-300721667D03*
X261345000Y-298181667D03*
X261345000Y-295641667D03*
X261345000Y-293101667D03*
X261345000Y-290561667D03*
X261345000Y-288021667D03*
X261345000Y-285481667D03*
X261345000Y-282941667D03*
X261345000Y-280401667D03*
X261345000Y-277861667D03*
X261345000Y-275321667D03*
X258805000Y-315961667D03*
X258805000Y-313421667D03*
X258805000Y-310881667D03*
X258805000Y-308341667D03*
X258805000Y-305801667D03*
X258805000Y-303261667D03*
X258805000Y-300721667D03*
X258805000Y-298181667D03*
X258805000Y-295641667D03*
X258805000Y-293101667D03*
X258805000Y-290561667D03*
X258805000Y-288021667D03*
X258805000Y-285481667D03*
X258805000Y-282941667D03*
X258805000Y-280401667D03*
X258805000Y-277861667D03*
X258805000Y-275321667D03*
D15*
X330686668Y-161850000D03*
D16*
X328146668Y-161850000D03*
X325606668Y-161850000D03*
X323066668Y-161850000D03*
D19*
X330711668Y-231738332D03*
X328171668Y-231738332D03*
X325631668Y-231738332D03*
X323091668Y-231738332D03*
X320551668Y-231738332D03*
X318011668Y-231738332D03*
X315471668Y-231738332D03*
X312931668Y-231738332D03*
X310391668Y-231738332D03*
X307851668Y-231738332D03*
X305311668Y-231738332D03*
X302771668Y-231738332D03*
X300231668Y-231738332D03*
X297691668Y-231738332D03*
X297691668Y-234278332D03*
X297691668Y-236818332D03*
X297691668Y-239358332D03*
X297691668Y-241898332D03*
X297691668Y-244438332D03*
X297691668Y-246978332D03*
X300231668Y-246978332D03*
X302771668Y-246978332D03*
X305311668Y-246978332D03*
X307851668Y-246978332D03*
X310391668Y-246978332D03*
X312931668Y-246978332D03*
X315471668Y-246978332D03*
X318011668Y-246978332D03*
X320551668Y-246978332D03*
X323091668Y-246978332D03*
X325631668Y-246978332D03*
X328171668Y-246978332D03*
X330711668Y-246978332D03*
X328171668Y-244438332D03*
X302771668Y-244438332D03*
X305311668Y-244438332D03*
X302771668Y-241898332D03*
X305311668Y-241898332D03*
X302771668Y-239358332D03*
X305311668Y-239358332D03*
X302771668Y-236818332D03*
X305311668Y-236818332D03*
X302771668Y-234278332D03*
X305311668Y-234278332D03*
D11*
X289725000Y-170400002D03*
D12*
X287185000Y-170400002D03*
X284645000Y-170400002D03*
X282105000Y-170400002D03*
X279565000Y-170400002D03*
X277025000Y-170400002D03*
X274485000Y-170400002D03*
X274485000Y-178020002D03*
X277025000Y-178020002D03*
X279565000Y-178020002D03*
X282105000Y-178020002D03*
X284645000Y-178020002D03*
X287185000Y-178020002D03*
X289725000Y-178020002D03*
D29*
X339886720Y-318349992D03*
D30*
X309911668Y-127525500D03*
D31*
X339975000Y-322500000D03*
X339975000Y-320525000D03*
X339975000Y-321500000D03*
D29*
X339450000Y-325675000D03*
X335686668Y-315550000D03*
D31*
X339975000Y-323500000D03*
D30*
X309601503Y-125683924D03*
D29*
X338575000Y-319650000D03*
X338400000Y-324850000D03*
X338500000Y-321000000D03*
X338575000Y-323925000D03*
D30*
X337136668Y-123725000D03*
X339186668Y-297325000D03*
X338511168Y-238825000D03*
X338511168Y-180225000D03*
D32*
X330686668Y-224575000D02*
X330411668Y-224850000D01*
X330411668Y-227510000D02*
X330396668Y-227525000D01*
X330411668Y-224850000D02*
X330411668Y-227510000D01*
X330686668Y-221575000D02*
X330686668Y-224575000D01*
X328146668Y-231713332D02*
X328171668Y-231738332D01*
X328146668Y-221575000D02*
X328146668Y-231713332D01*
X330686668Y-165525000D02*
X330736668Y-165575000D01*
X330686668Y-161850000D02*
X330686668Y-165525000D01*
X330736668Y-168465000D02*
X330746668Y-168475000D01*
X330736668Y-165575000D02*
X330736668Y-168465000D01*
X328146668Y-173621666D02*
X328171668Y-173646666D01*
X328146668Y-161850000D02*
X328146668Y-173621666D01*
X330751668Y-108050000D02*
X330751668Y-110770000D01*
X330711668Y-108010000D02*
X330751668Y-108050000D01*
X330711668Y-104450000D02*
X330711668Y-108010000D01*
X330751668Y-110770000D02*
X330696668Y-110825000D01*
X328171668Y-115555000D02*
X328171668Y-104450000D01*
X325631668Y-287795000D02*
X325631668Y-289830000D01*
X323111668Y-285275000D02*
X325631668Y-287795000D01*
X322776668Y-227525000D02*
X325631668Y-230380000D01*
X325631668Y-230380000D02*
X325631668Y-231738332D01*
X325631668Y-170980000D02*
X325631668Y-173646666D01*
X323126668Y-168475000D02*
X325631668Y-170980000D01*
X325631668Y-113380000D02*
X325631668Y-115555000D01*
X323076668Y-110825000D02*
X325631668Y-113380000D01*
X330711668Y-278900000D02*
X330711668Y-282490000D01*
X330731668Y-285275000D02*
X330731668Y-282510000D01*
X330711668Y-282490000D02*
X330721668Y-282500000D01*
X330731668Y-282510000D02*
X330721668Y-282500000D01*
X328171668Y-278900000D02*
X328171668Y-289830000D01*
X300786668Y-267525000D02*
X287950000Y-267525000D01*
X287185000Y-268290000D02*
X287185000Y-270091664D01*
X287950000Y-267525000D02*
X287185000Y-268290000D01*
X323091668Y-289830000D02*
X300786668Y-267525000D01*
X318011668Y-289830000D02*
X303406668Y-275225000D01*
X303406668Y-275225000D02*
X285900000Y-275225000D01*
X285900000Y-275225000D02*
X284645000Y-276480000D01*
X284645000Y-276480000D02*
X284645000Y-277711664D01*
X287185000Y-282990000D02*
X287185000Y-284333330D01*
X312931668Y-289830000D02*
X304976668Y-281875000D01*
X288300000Y-281875000D02*
X287185000Y-282990000D01*
X304976668Y-281875000D02*
X288300000Y-281875000D01*
X300921668Y-282900000D02*
X294700000Y-282900000D01*
X292142159Y-285457841D02*
X291140489Y-285457841D01*
X291140489Y-285457841D02*
X284645000Y-291953330D01*
X294700000Y-282900000D02*
X292142159Y-285457841D01*
X307851668Y-289830000D02*
X300921668Y-282900000D01*
X279171671Y-303261667D02*
X261345000Y-303261667D01*
X282105000Y-306194996D02*
X279171671Y-303261667D01*
D33*
X339975000Y-322500000D02*
X341016668Y-322500000D01*
D32*
X340591728Y-319055000D02*
X339886720Y-318349992D01*
X309817579Y-125900000D02*
X309601503Y-125683924D01*
D33*
X339975000Y-320525000D02*
X341001668Y-320525000D01*
D32*
X339886720Y-318349992D02*
X338586660Y-318349992D01*
X337786668Y-317550000D02*
X337786668Y-127675000D01*
D33*
X341021668Y-323505000D02*
X339980000Y-323505000D01*
D32*
X339450000Y-325675000D02*
X339670000Y-325455000D01*
D34*
X339980000Y-323505000D02*
X339975000Y-323500000D01*
X341016668Y-322500000D02*
X341021668Y-322505000D01*
X341001668Y-320525000D02*
X341021668Y-320505000D01*
X339980000Y-321505000D02*
X339975000Y-321500000D01*
D32*
X339670000Y-325455000D02*
X341021668Y-325455000D01*
X337786668Y-127675000D02*
X336011668Y-125900000D01*
X341021668Y-319055000D02*
X340591728Y-319055000D01*
D33*
X341021668Y-321505000D02*
X339980000Y-321505000D01*
D32*
X338586660Y-318349992D02*
X337786668Y-317550000D01*
X336011668Y-125900000D02*
X309817579Y-125900000D01*
X292225000Y-293534996D02*
X292225000Y-290250000D01*
X287185000Y-298574996D02*
X292225000Y-293534996D01*
X296450000Y-286025000D02*
X300300000Y-286025000D01*
X292225000Y-290250000D02*
X296450000Y-286025000D01*
X302771668Y-288496668D02*
X302771668Y-289830000D01*
X300300000Y-286025000D02*
X302771668Y-288496668D01*
X312931668Y-305070000D02*
X299801668Y-318200000D01*
X299801668Y-318200000D02*
X286881672Y-318200000D01*
X286881672Y-318200000D02*
X284645000Y-320436672D01*
X297066668Y-310775000D02*
X289226672Y-310775000D01*
X302771668Y-305070000D02*
X297066668Y-310775000D01*
X289226672Y-310775000D02*
X287185000Y-312816672D01*
X291775000Y-295746668D02*
X291775000Y-299525000D01*
X291775000Y-299525000D02*
X285105004Y-306194996D01*
X285105004Y-306194996D02*
X284645000Y-306194996D01*
X297691668Y-289830000D02*
X291775000Y-295746668D01*
X323091668Y-231738332D02*
X302853336Y-211500000D01*
X288810000Y-211500000D02*
X287185000Y-213125000D01*
X302853336Y-211500000D02*
X288810000Y-211500000D01*
X284645000Y-219105000D02*
X284645000Y-220745000D01*
X304723336Y-218450000D02*
X285300000Y-218450000D01*
X285300000Y-218450000D02*
X284645000Y-219105000D01*
X318011668Y-231738332D02*
X304723336Y-218450000D01*
X306868336Y-225675000D02*
X288876666Y-225675000D01*
X288876666Y-225675000D02*
X287185000Y-227366666D01*
X312931668Y-231738332D02*
X306868336Y-225675000D01*
X307851668Y-231738332D02*
X303063336Y-226950000D01*
X293150000Y-226950000D02*
X287200000Y-232900000D01*
X285700000Y-232900000D02*
X284645000Y-233955000D01*
X287200000Y-232900000D02*
X285700000Y-232900000D01*
X284645000Y-233955000D02*
X284645000Y-234986666D01*
X303063336Y-226950000D02*
X293150000Y-226950000D01*
X291375000Y-237418332D02*
X287185000Y-241608332D01*
X291375000Y-230700000D02*
X291375000Y-237418332D01*
X293875000Y-228200000D02*
X291375000Y-230700000D01*
X299233336Y-228200000D02*
X293875000Y-228200000D01*
X302771668Y-231738332D02*
X299233336Y-228200000D01*
X284645000Y-262555000D02*
X284645000Y-263469998D01*
X312931668Y-246978332D02*
X298010000Y-261900000D01*
X285300000Y-261900000D02*
X284645000Y-262555000D01*
X298010000Y-261900000D02*
X285300000Y-261900000D01*
X284645000Y-298574996D02*
X282945004Y-296875000D01*
X282945004Y-296875000D02*
X262651667Y-296875000D01*
X262651667Y-296875000D02*
X261345000Y-298181667D01*
X302771668Y-246978332D02*
X295825000Y-253925000D01*
X289109998Y-253925000D02*
X287185000Y-255849998D01*
X295825000Y-253925000D02*
X289109998Y-253925000D01*
X292325000Y-234925000D02*
X292325000Y-241900000D01*
X284996668Y-249228332D02*
X284645000Y-249228332D01*
X292325000Y-241900000D02*
X284996668Y-249228332D01*
X295511668Y-231738332D02*
X292325000Y-234925000D01*
X297691668Y-231738332D02*
X295511668Y-231738332D01*
X287185000Y-154440000D02*
X287185000Y-156158336D01*
X323091668Y-173646666D02*
X303020002Y-153575000D01*
X303020002Y-153575000D02*
X288050000Y-153575000D01*
X288050000Y-153575000D02*
X287185000Y-154440000D01*
X286723336Y-161700000D02*
X284645000Y-163778336D01*
X306065002Y-161700000D02*
X286723336Y-161700000D01*
X318011668Y-173646666D02*
X306065002Y-161700000D01*
X306885002Y-167600000D02*
X289985002Y-167600000D01*
X312931668Y-173646666D02*
X306885002Y-167600000D01*
X289985002Y-167600000D02*
X287185000Y-170400002D01*
X307851668Y-173646666D02*
X303930002Y-169725000D01*
X295025000Y-169725000D02*
X289550000Y-175200000D01*
X287465002Y-175200000D02*
X284645000Y-178020002D01*
X289550000Y-175200000D02*
X287465002Y-175200000D01*
X303930002Y-169725000D02*
X295025000Y-169725000D01*
X291575000Y-178700000D02*
X287185000Y-183090000D01*
X287185000Y-183090000D02*
X287185000Y-184641668D01*
X294900000Y-171450000D02*
X291575000Y-174775000D01*
X291575000Y-174775000D02*
X291575000Y-178700000D01*
X302771668Y-173646666D02*
X300575002Y-171450000D01*
X300575002Y-171450000D02*
X294900000Y-171450000D01*
X297068334Y-204750000D02*
X285850000Y-204750000D01*
X284645000Y-205955000D02*
X284645000Y-206503334D01*
X285850000Y-204750000D02*
X284645000Y-205955000D01*
X312931668Y-188886666D02*
X297068334Y-204750000D01*
X287185000Y-198490000D02*
X287185000Y-198883334D01*
X294708334Y-196950000D02*
X288725000Y-196950000D01*
X288725000Y-196950000D02*
X287185000Y-198490000D01*
X302771668Y-188886666D02*
X294708334Y-196950000D01*
X293175000Y-183600000D02*
X284645000Y-192130000D01*
X284645000Y-192130000D02*
X284645000Y-192261668D01*
X293175000Y-175425000D02*
X293175000Y-183600000D01*
X294953334Y-173646666D02*
X293175000Y-175425000D01*
X297691668Y-173646666D02*
X294953334Y-173646666D01*
X287185000Y-97690000D02*
X287185000Y-99191672D01*
X323091668Y-115555000D02*
X304786668Y-97250000D01*
X287625000Y-97250000D02*
X287185000Y-97690000D01*
X304786668Y-97250000D02*
X287625000Y-97250000D01*
X285725000Y-108575000D02*
X284645000Y-107495000D01*
X284645000Y-107495000D02*
X284645000Y-106811672D01*
X318011668Y-115555000D02*
X311031668Y-108575000D01*
X311031668Y-108575000D02*
X285725000Y-108575000D01*
X290193338Y-110425000D02*
X287185000Y-113433338D01*
X312931668Y-115555000D02*
X307801668Y-110425000D01*
X307801668Y-110425000D02*
X290193338Y-110425000D01*
X307851668Y-115555000D02*
X304396668Y-112100000D01*
X304396668Y-112100000D02*
X293598338Y-112100000D01*
X293598338Y-112100000D02*
X284645000Y-121053338D01*
X302771668Y-115555000D02*
X300566668Y-113350000D01*
X293325000Y-115400000D02*
X293325000Y-121525000D01*
X291650000Y-123200000D02*
X291650000Y-123210004D01*
X291650000Y-123210004D02*
X287185000Y-127675004D01*
X295375000Y-113350000D02*
X293325000Y-115400000D01*
X300566668Y-113350000D02*
X295375000Y-113350000D01*
X293325000Y-121525000D02*
X291650000Y-123200000D01*
X296126668Y-147600000D02*
X286581670Y-147600000D01*
X312931668Y-130795000D02*
X296126668Y-147600000D01*
X286581670Y-147600000D02*
X284645000Y-149536670D01*
X302771668Y-130795000D02*
X294066668Y-139500000D01*
X294066668Y-139500000D02*
X289601670Y-139500000D01*
X289601670Y-139500000D02*
X287185000Y-141916670D01*
X286565004Y-133375000D02*
X284645000Y-135295004D01*
X297691668Y-115555000D02*
X295875000Y-117371668D01*
X295875000Y-117371668D02*
X295875000Y-130225000D01*
X295875000Y-130225000D02*
X292725000Y-133375000D01*
X292725000Y-133375000D02*
X286565004Y-133375000D01*
X276874997Y-282941667D02*
X261345000Y-282941667D01*
X282105000Y-277711664D02*
X276874997Y-282941667D01*
X264788333Y-277861667D02*
X261345000Y-277861667D01*
X269725000Y-272925000D02*
X264788333Y-277861667D01*
X284645000Y-270091664D02*
X281811664Y-272925000D01*
X281811664Y-272925000D02*
X269725000Y-272925000D01*
X282105000Y-249228332D02*
X278880001Y-246003333D01*
X278880001Y-246003333D02*
X261345000Y-246003333D01*
X282811668Y-239775000D02*
X262493333Y-239775000D01*
X262493333Y-239775000D02*
X261345000Y-240923333D01*
X284645000Y-241608332D02*
X282811668Y-239775000D01*
X282105000Y-220745000D02*
X277166667Y-225683333D01*
X277166667Y-225683333D02*
X261345000Y-225683333D01*
X271700000Y-215275000D02*
X266371667Y-220603333D01*
X266371667Y-220603333D02*
X261345000Y-220603333D01*
X282495000Y-215275000D02*
X271700000Y-215275000D01*
X284645000Y-213125000D02*
X282495000Y-215275000D01*
X264075000Y-187600000D02*
X262930000Y-188745000D01*
X277443332Y-187600000D02*
X264075000Y-187600000D01*
X262930000Y-188745000D02*
X261345000Y-188745000D01*
X282105000Y-192261668D02*
X277443332Y-187600000D01*
X284645000Y-184641668D02*
X281453332Y-181450000D01*
X281453332Y-181450000D02*
X266425000Y-181450000D01*
X266425000Y-181450000D02*
X264210000Y-183665000D01*
X264210000Y-183665000D02*
X261345000Y-183665000D01*
X277401664Y-159075000D02*
X270200000Y-159075000D01*
X270200000Y-159075000D02*
X261345000Y-167930000D01*
X261345000Y-167930000D02*
X261345000Y-168425000D01*
X282105000Y-163778336D02*
X277401664Y-159075000D01*
X270140000Y-154550000D02*
X261345000Y-163345000D01*
X283036664Y-154550000D02*
X270140000Y-154550000D01*
X284645000Y-156158336D02*
X283036664Y-154550000D01*
X278296663Y-131486667D02*
X261345000Y-131486667D01*
X282105000Y-135295004D02*
X278296663Y-131486667D01*
X284645000Y-127675004D02*
X282494996Y-125525000D01*
X262226667Y-125525000D02*
X261345000Y-126406667D01*
X282494996Y-125525000D02*
X262226667Y-125525000D01*
X261345000Y-111005000D02*
X261345000Y-111166667D01*
X282105000Y-106811672D02*
X278193328Y-102900000D01*
X278193328Y-102900000D02*
X269450000Y-102900000D01*
X269450000Y-102900000D02*
X261345000Y-111005000D01*
X283136672Y-100700000D02*
X266731667Y-100700000D01*
X266731667Y-100700000D02*
X261345000Y-106086667D01*
X284645000Y-99191672D02*
X283136672Y-100700000D01*
X338595000Y-324655000D02*
X338400000Y-324850000D01*
X341021668Y-324655000D02*
X338595000Y-324655000D01*
X338780000Y-319855000D02*
X338575000Y-319650000D01*
X341021668Y-319855000D02*
X338780000Y-319855000D01*
X324086668Y-244050000D02*
X308240000Y-244050000D01*
X337211668Y-241875000D02*
X337211668Y-183300000D01*
X337211668Y-299525000D02*
X326961668Y-299525000D01*
X337211668Y-127850000D02*
X335761668Y-126400000D01*
D34*
X341021668Y-323005000D02*
X341016668Y-323000000D01*
D32*
X309086668Y-127025000D02*
X309081668Y-127025000D01*
X308381668Y-302000000D02*
X305311668Y-305070000D01*
D33*
X338450000Y-323000000D02*
X337211668Y-321761668D01*
D32*
X337211668Y-183300000D02*
X337211668Y-127850000D01*
X337211668Y-241875000D02*
X326261668Y-241875000D01*
X309711668Y-126400000D02*
X309086668Y-127025000D01*
X337211668Y-319925000D02*
X337211668Y-299525000D01*
X335761668Y-126400000D02*
X309711668Y-126400000D01*
X326261668Y-241875000D02*
X324086668Y-244050000D01*
X326811668Y-183300000D02*
X324311668Y-185800000D01*
X337211668Y-299525000D02*
X337211668Y-241875000D01*
D33*
X337211668Y-321761668D02*
X337211668Y-320811668D01*
X338405000Y-322005000D02*
X337211668Y-320811668D01*
D32*
X324311668Y-185800000D02*
X308398334Y-185800000D01*
D33*
X341021668Y-322005000D02*
X338405000Y-322005000D01*
X341016668Y-323000000D02*
X338450000Y-323000000D01*
D32*
X324486668Y-302000000D02*
X308381668Y-302000000D01*
X308240000Y-244050000D02*
X305311668Y-246978332D01*
X308398334Y-185800000D02*
X305311668Y-188886666D01*
D33*
X337211668Y-320811668D02*
X337211668Y-319925000D01*
D32*
X337211668Y-183300000D02*
X326811668Y-183300000D01*
X309081668Y-127025000D02*
X305311668Y-130795000D01*
X326961668Y-299525000D02*
X324486668Y-302000000D01*
D33*
X341021668Y-321005000D02*
X338505000Y-321005000D01*
X338505000Y-321005000D02*
X338500000Y-321000000D01*
D32*
X340998557Y-324028111D02*
X341021668Y-324005000D01*
D33*
X338678111Y-324028111D02*
X340998557Y-324028111D01*
D32*
X266048333Y-318125000D02*
X261345000Y-313421667D01*
X282105000Y-320436672D02*
X279793328Y-318125000D01*
X279793328Y-318125000D02*
X266048333Y-318125000D01*
X284645000Y-312816672D02*
X281228328Y-309400000D01*
X275491667Y-308341667D02*
X261345000Y-308341667D01*
X276550000Y-309400000D02*
X275491667Y-308341667D01*
X281228328Y-309400000D02*
X276550000Y-309400000D01*
X263776667Y-293101667D02*
X261345000Y-293101667D01*
X280408330Y-293650000D02*
X264325000Y-293650000D01*
X282105000Y-291953330D02*
X280408330Y-293650000D01*
X264325000Y-293650000D02*
X263776667Y-293101667D01*
X262891667Y-286475000D02*
X261345000Y-288021667D01*
X284645000Y-284333330D02*
X282503330Y-286475000D01*
X282503330Y-286475000D02*
X262891667Y-286475000D01*
X280410002Y-261775000D02*
X266956667Y-261775000D01*
X282105000Y-263469998D02*
X280410002Y-261775000D01*
X266956667Y-261775000D02*
X261345000Y-256163333D01*
X275508333Y-251083333D02*
X261345000Y-251083333D01*
X281095002Y-252300000D02*
X276725000Y-252300000D01*
X276725000Y-252300000D02*
X275508333Y-251083333D01*
X284645000Y-255849998D02*
X281095002Y-252300000D01*
X280368334Y-233250000D02*
X267950000Y-233250000D01*
X282105000Y-234986666D02*
X280368334Y-233250000D01*
X265356667Y-235843333D02*
X261345000Y-235843333D01*
X267950000Y-233250000D02*
X265356667Y-235843333D01*
X280175000Y-229250000D02*
X282761666Y-229250000D01*
X278661667Y-230763333D02*
X261345000Y-230763333D01*
X282761666Y-229250000D02*
X284645000Y-227366666D01*
X280175000Y-229250000D02*
X278661667Y-230763333D01*
X276326666Y-200725000D02*
X263165000Y-200725000D01*
X263165000Y-200725000D02*
X261345000Y-198905000D01*
X282105000Y-206503334D02*
X276326666Y-200725000D01*
X268500000Y-193825000D02*
X261345000Y-193825000D01*
X284645000Y-198883334D02*
X281011666Y-195250000D01*
X269925000Y-195250000D02*
X268500000Y-193825000D01*
X281011666Y-195250000D02*
X269925000Y-195250000D01*
X268400000Y-173575000D02*
X263390000Y-178585000D01*
X282105000Y-178020002D02*
X277659998Y-173575000D01*
X263390000Y-178585000D02*
X261345000Y-178585000D01*
X277659998Y-173575000D02*
X268400000Y-173575000D01*
X264320000Y-173505000D02*
X261345000Y-173505000D01*
X281644998Y-167400000D02*
X270425000Y-167400000D01*
X270425000Y-167400000D02*
X264320000Y-173505000D01*
X284645000Y-170400002D02*
X281644998Y-167400000D01*
X282105000Y-149536670D02*
X276543330Y-143975000D01*
X276543330Y-143975000D02*
X263673333Y-143975000D01*
X263673333Y-143975000D02*
X261345000Y-141646667D01*
X271500000Y-138150000D02*
X269916667Y-136566667D01*
X269916667Y-136566667D02*
X261345000Y-136566667D01*
X284645000Y-141916670D02*
X280878330Y-138150000D01*
X280878330Y-138150000D02*
X271500000Y-138150000D01*
X268216667Y-117250000D02*
X264140000Y-121326667D01*
X278301662Y-117250000D02*
X268216667Y-117250000D01*
X264140000Y-121326667D02*
X261345000Y-121326667D01*
X282105000Y-121053338D02*
X278301662Y-117250000D01*
X264645000Y-116246667D02*
X261345000Y-116246667D01*
X283353338Y-114725000D02*
X266166667Y-114725000D01*
X266166667Y-114725000D02*
X264645000Y-116246667D01*
X284645000Y-113433338D02*
X283353338Y-114725000D01*
M02*
