M48
; DRILL file {KiCad (6.0.4-0)} date Monday, February 13, 2023 at 03:56:59 PM
; FORMAT={-:-/ absolute / inch / decimal}
; #@! TF.CreationDate,2023-02-13T15:56:59-08:00
; #@! TF.GenerationSoftware,Kicad,Pcbnew,(6.0.4-0)
; #@! TF.FileFunction,Plated,1,4,PTH
FMAT,2
INCH
; #@! TA.AperFunction,Plated,PTH,ViaDrill
T1C0.0080
; #@! TA.AperFunction,Plated,PTH,ViaDrill
T2C0.0090
; #@! TA.AperFunction,Plated,PTH,ViaDrill
T3C0.0157
; #@! TA.AperFunction,Plated,PTH,ComponentDrill
T4C0.0197
; #@! TA.AperFunction,Plated,PTH,ComponentDrill
T5C0.0236
; #@! TA.AperFunction,Plated,PTH,ComponentDrill
T6C0.0276
; #@! TA.AperFunction,Plated,PTH,ComponentDrill
T7C0.0295
; #@! TA.AperFunction,Plated,PTH,ComponentDrill
T8C0.0315
; #@! TA.AperFunction,Plated,PTH,ComponentDrill
T9C0.0380
; #@! TA.AperFunction,Plated,PTH,ComponentDrill
T10C0.0394
; #@! TA.AperFunction,Plated,PTH,ComponentDrill
T11C0.0433
; #@! TA.AperFunction,Plated,PTH,ComponentDrill
T12C0.0618
; #@! TA.AperFunction,Plated,PTH,ComponentDrill
T13C0.1457
%
G90
G05
T1
X13.3848Y-12.6191
X13.3848Y-12.6575
X13.3848Y-12.6969
X13.3848Y-12.7362
T2
X13.216Y-12.4232
X13.3228Y-12.7894
X13.3268Y-12.6378
X13.3297Y-12.5846
X13.3297Y-12.753
X13.3642Y-12.8219
X13.3814Y-12.5335
T3
X12.189Y-4.9482
X12.2012Y-5.0207
X13.2731Y-4.8711
X13.3272Y-7.0955
X13.3272Y-9.4026
X13.3538Y-11.7057
T4
X13.3907Y-13.3
X13.4227Y-13.2227
X13.4227Y-13.3773
X13.5Y-13.1907
X13.5Y-13.4093
X13.5773Y-13.2227
X13.5773Y-13.3773
X13.6093Y-13.3
T6
X12.7077Y-8.9577
X12.7083Y-8.8524
X12.7196Y-4.3632
X12.7205Y-11.122
X12.7209Y-11.2313
X12.7211Y-6.5187
X12.7215Y-6.6329
X12.7217Y-4.2539
X13.0077Y-8.9577
X13.0083Y-8.8524
X13.0196Y-4.3632
X13.0205Y-11.122
X13.0209Y-11.2313
X13.0211Y-6.5187
X13.0215Y-6.6329
X13.0217Y-4.2539
T7
X13.4556Y-10.1506
X13.4556Y-10.2293
X13.4556Y-10.5157
X13.4556Y-10.5945
X13.4556Y-10.8809
X13.4556Y-10.9596
T8
X10.8065Y-3.9052
X10.8065Y-4.2052
X10.8065Y-4.4659
X10.8065Y-4.7659
X10.8065Y-5.0266
X10.8065Y-5.3266
X10.8065Y-5.5873
X10.8065Y-5.8873
X10.8065Y-6.148
X10.8065Y-6.448
X10.8065Y-6.7087
X10.8065Y-7.0087
X10.8065Y-7.2694
X10.8065Y-7.5694
X10.8065Y-7.8301
X10.8065Y-8.1301
X10.8065Y-8.3907
X10.8065Y-8.6907
X10.8065Y-8.9514
X10.8065Y-9.2514
X10.8065Y-9.5121
X10.8065Y-9.8121
X10.8065Y-10.0728
X10.8065Y-10.3728
X10.8065Y-10.6335
X10.8065Y-10.9335
X10.8065Y-11.1942
X10.8065Y-11.4942
X10.8065Y-11.7549
X10.8065Y-12.0549
X10.8065Y-12.3156
X10.8065Y-12.6156
X10.9065Y-3.9052
X10.9065Y-4.2052
X10.9065Y-4.4659
X10.9065Y-4.7659
X10.9065Y-5.0266
X10.9065Y-5.3266
X10.9065Y-5.5873
X10.9065Y-5.8873
X10.9065Y-6.148
X10.9065Y-6.448
X10.9065Y-6.7087
X10.9065Y-7.0087
X10.9065Y-7.2694
X10.9065Y-7.5694
X10.9065Y-7.8301
X10.9065Y-8.1301
X10.9065Y-8.3907
X10.9065Y-8.6907
X10.9065Y-8.9514
X10.9065Y-9.2514
X10.9065Y-9.5121
X10.9065Y-9.8121
X10.9065Y-10.0728
X10.9065Y-10.3728
X10.9065Y-10.6335
X10.9065Y-10.9335
X10.9065Y-11.1942
X10.9065Y-11.4942
X10.9065Y-11.7549
X10.9065Y-12.0549
X10.9065Y-12.3156
X10.9065Y-12.6156
X11.0065Y-3.9052
X11.0065Y-4.2052
X11.0065Y-4.4659
X11.0065Y-4.7659
X11.0065Y-5.0266
X11.0065Y-5.3266
X11.0065Y-5.5873
X11.0065Y-5.8873
X11.0065Y-6.148
X11.0065Y-6.448
X11.0065Y-6.7087
X11.0065Y-7.0087
X11.0065Y-7.2694
X11.0065Y-7.5694
X11.0065Y-7.8301
X11.0065Y-8.1301
X11.0065Y-8.3907
X11.0065Y-8.6907
X11.0065Y-8.9514
X11.0065Y-9.2514
X11.0065Y-9.5121
X11.0065Y-9.8121
X11.0065Y-10.0728
X11.0065Y-10.3728
X11.0065Y-10.6335
X11.0065Y-10.9335
X11.0065Y-11.1942
X11.0065Y-11.4942
X11.0065Y-11.7549
X11.0065Y-12.0549
X11.0065Y-12.3156
X11.0065Y-12.6156
X11.1065Y-3.9052
X11.1065Y-4.2052
X11.1065Y-4.4659
X11.1065Y-4.7659
X11.1065Y-5.0266
X11.1065Y-5.3266
X11.1065Y-5.5873
X11.1065Y-5.8873
X11.1065Y-6.148
X11.1065Y-6.448
X11.1065Y-6.7087
X11.1065Y-7.0087
X11.1065Y-7.2694
X11.1065Y-7.5694
X11.1065Y-7.8301
X11.1065Y-8.1301
X11.1065Y-8.3907
X11.1065Y-8.6907
X11.1065Y-8.9514
X11.1065Y-9.2514
X11.1065Y-9.5121
X11.1065Y-9.8121
X11.1065Y-10.0728
X11.1065Y-10.3728
X11.1065Y-10.6335
X11.1065Y-10.9335
X11.1065Y-11.1942
X11.1065Y-11.4942
X11.1065Y-11.7549
X11.1065Y-12.0549
X11.1065Y-12.3156
X11.1065Y-12.6156
X11.2065Y-3.9052
X11.2065Y-4.2052
X11.2065Y-4.4659
X11.2065Y-4.7659
X11.2065Y-5.0266
X11.2065Y-5.3266
X11.2065Y-5.5873
X11.2065Y-5.8873
X11.2065Y-6.148
X11.2065Y-6.448
X11.2065Y-6.7087
X11.2065Y-7.0087
X11.2065Y-7.2694
X11.2065Y-7.5694
X11.2065Y-7.8301
X11.2065Y-8.1301
X11.2065Y-8.3907
X11.2065Y-8.6907
X11.2065Y-8.9514
X11.2065Y-9.2514
X11.2065Y-9.5121
X11.2065Y-9.8121
X11.2065Y-10.0728
X11.2065Y-10.3728
X11.2065Y-10.6335
X11.2065Y-10.9335
X11.2065Y-11.1942
X11.2065Y-11.4942
X11.2065Y-11.7549
X11.2065Y-12.0549
X11.2065Y-12.3156
X11.2065Y-12.6156
X11.3065Y-3.9052
X11.3065Y-4.2052
X11.3065Y-4.4659
X11.3065Y-4.7659
X11.3065Y-5.0266
X11.3065Y-5.3266
X11.3065Y-5.5873
X11.3065Y-5.8873
X11.3065Y-6.148
X11.3065Y-6.448
X11.3065Y-6.7087
X11.3065Y-7.0087
X11.3065Y-7.2694
X11.3065Y-7.5694
X11.3065Y-7.8301
X11.3065Y-8.1301
X11.3065Y-8.3907
X11.3065Y-8.6907
X11.3065Y-8.9514
X11.3065Y-9.2514
X11.3065Y-9.5121
X11.3065Y-9.8121
X11.3065Y-10.0728
X11.3065Y-10.3728
X11.3065Y-10.6335
X11.3065Y-10.9335
X11.3065Y-11.1942
X11.3065Y-11.4942
X11.3065Y-11.7549
X11.3065Y-12.0549
X11.3065Y-12.3156
X11.3065Y-12.6156
X11.4065Y-3.9052
X11.4065Y-4.2052
X11.4065Y-4.4659
X11.4065Y-4.7659
X11.4065Y-5.0266
X11.4065Y-5.3266
X11.4065Y-5.5873
X11.4065Y-5.8873
X11.4065Y-6.148
X11.4065Y-6.448
X11.4065Y-6.7087
X11.4065Y-7.0087
X11.4065Y-7.2694
X11.4065Y-7.5694
X11.4065Y-7.8301
X11.4065Y-8.1301
X11.4065Y-8.3907
X11.4065Y-8.6907
X11.4065Y-8.9514
X11.4065Y-9.2514
X11.4065Y-9.5121
X11.4065Y-9.8121
X11.4065Y-10.0728
X11.4065Y-10.3728
X11.4065Y-10.6335
X11.4065Y-10.9335
X11.4065Y-11.1942
X11.4065Y-11.4942
X11.4065Y-11.7549
X11.4065Y-12.0549
X11.4065Y-12.3156
X11.4065Y-12.6156
X12.4286Y-12.4949
X12.4286Y-12.6465
X12.4286Y-12.798
X12.6255Y-12.4949
X12.6255Y-12.6465
X12.6255Y-12.798
X12.8144Y-12.2037
X12.8164Y-5.3602
X12.8272Y-7.6663
X12.8272Y-9.9626
X13.0113Y-12.2037
X13.0133Y-5.3602
X13.0241Y-7.6663
X13.0241Y-9.9626
X13.4552Y-11.1327
X13.4552Y-11.5327
T9
X10.1892Y-4.0766
X10.1892Y-4.1766
X10.1892Y-4.2766
X10.1892Y-4.3766
X10.1892Y-4.4766
X10.1892Y-4.5766
X10.1892Y-4.6766
X10.1892Y-4.7766
X10.1892Y-4.8766
X10.1892Y-4.9766
X10.1892Y-5.0766
X10.1892Y-5.1766
X10.1892Y-5.2766
X10.1892Y-5.3766
X10.1892Y-5.4766
X10.1892Y-5.5766
X10.1892Y-5.6766
X10.1892Y-6.3309
X10.1892Y-6.4309
X10.1892Y-6.5309
X10.1892Y-6.6309
X10.1892Y-6.7309
X10.1892Y-6.8309
X10.1892Y-6.9309
X10.1892Y-7.0309
X10.1892Y-7.1309
X10.1892Y-7.2309
X10.1892Y-7.3309
X10.1892Y-7.4309
X10.1892Y-7.5309
X10.1892Y-7.6309
X10.1892Y-7.7309
X10.1892Y-7.8309
X10.1892Y-7.9309
X10.1892Y-8.5852
X10.1892Y-8.6852
X10.1892Y-8.7852
X10.1892Y-8.8852
X10.1892Y-8.9852
X10.1892Y-9.0852
X10.1892Y-9.1852
X10.1892Y-9.2852
X10.1892Y-9.3852
X10.1892Y-9.4852
X10.1892Y-9.5852
X10.1892Y-9.6852
X10.1892Y-9.7852
X10.1892Y-9.8852
X10.1892Y-9.9852
X10.1892Y-10.0852
X10.1892Y-10.1852
X10.1892Y-10.8394
X10.1892Y-10.9394
X10.1892Y-11.0394
X10.1892Y-11.1394
X10.1892Y-11.2394
X10.1892Y-11.3394
X10.1892Y-11.4394
X10.1892Y-11.5394
X10.1892Y-11.6394
X10.1892Y-11.7394
X10.1892Y-11.8394
X10.1892Y-11.9394
X10.1892Y-12.0394
X10.1892Y-12.1394
X10.1892Y-12.2394
X10.1892Y-12.3394
X10.1892Y-12.4394
X10.2892Y-4.0766
X10.2892Y-4.1766
X10.2892Y-4.2766
X10.2892Y-4.3766
X10.2892Y-4.4766
X10.2892Y-4.5766
X10.2892Y-4.6766
X10.2892Y-4.7766
X10.2892Y-4.8766
X10.2892Y-4.9766
X10.2892Y-5.0766
X10.2892Y-5.1766
X10.2892Y-5.2766
X10.2892Y-5.3766
X10.2892Y-5.4766
X10.2892Y-5.5766
X10.2892Y-5.6766
X10.2892Y-6.3309
X10.2892Y-6.4309
X10.2892Y-6.5309
X10.2892Y-6.6309
X10.2892Y-6.7309
X10.2892Y-6.8309
X10.2892Y-6.9309
X10.2892Y-7.0309
X10.2892Y-7.1309
X10.2892Y-7.2309
X10.2892Y-7.3309
X10.2892Y-7.4309
X10.2892Y-7.5309
X10.2892Y-7.6309
X10.2892Y-7.7309
X10.2892Y-7.8309
X10.2892Y-7.9309
X10.2892Y-8.5852
X10.2892Y-8.6852
X10.2892Y-8.7852
X10.2892Y-8.8852
X10.2892Y-8.9852
X10.2892Y-9.0852
X10.2892Y-9.1852
X10.2892Y-9.2852
X10.2892Y-9.3852
X10.2892Y-9.4852
X10.2892Y-9.5852
X10.2892Y-9.6852
X10.2892Y-9.7852
X10.2892Y-9.8852
X10.2892Y-9.9852
X10.2892Y-10.0852
X10.2892Y-10.1852
X10.2892Y-10.8394
X10.2892Y-10.9394
X10.2892Y-11.0394
X10.2892Y-11.1394
X10.2892Y-11.2394
X10.2892Y-11.3394
X10.2892Y-11.4394
X10.2892Y-11.5394
X10.2892Y-11.6394
X10.2892Y-11.7394
X10.2892Y-11.8394
X10.2892Y-11.9394
X10.2892Y-12.0394
X10.2892Y-12.1394
X10.2892Y-12.2394
X10.2892Y-12.3394
X10.2892Y-12.4394
T10
X12.7192Y-6.372
X12.7192Y-8.7234
X12.7201Y-4.1122
X12.7201Y-10.9803
X12.8192Y-6.372
X12.8192Y-8.7234
X12.8201Y-4.1122
X12.8201Y-10.9803
X12.9192Y-6.372
X12.9192Y-8.7234
X12.9201Y-4.1122
X12.9201Y-10.9803
X13.0192Y-6.372
X13.0192Y-8.7234
X13.0201Y-4.1122
X13.0201Y-10.9803
X13.1791Y-13.1185
X13.1791Y-13.2185
T11
X11.7201Y-4.5494
X11.7201Y-4.6494
X11.7201Y-4.7494
X11.7201Y-4.8494
X11.7201Y-4.9494
X11.7201Y-5.0494
X11.7201Y-5.1494
X11.7201Y-6.8365
X11.7201Y-6.9365
X11.7201Y-7.0365
X11.7201Y-7.1365
X11.7201Y-7.2365
X11.7201Y-7.3365
X11.7201Y-7.4365
X11.7201Y-9.1236
X11.7201Y-9.2236
X11.7201Y-9.3236
X11.7201Y-9.4236
X11.7201Y-9.5236
X11.7201Y-9.6236
X11.7201Y-9.7236
X11.7201Y-11.4106
X11.7201Y-11.5106
X11.7201Y-11.6106
X11.7201Y-11.7106
X11.7201Y-11.8106
X11.7201Y-11.9106
X11.7201Y-12.0106
X11.8201Y-4.5494
X11.8201Y-5.1494
X11.8201Y-6.8365
X11.8201Y-7.4365
X11.8201Y-9.1236
X11.8201Y-9.7236
X11.8201Y-11.4106
X11.8201Y-12.0106
X11.9201Y-4.5494
X11.9201Y-4.6494
X11.9201Y-4.7494
X11.9201Y-4.8494
X11.9201Y-4.9494
X11.9201Y-5.0494
X11.9201Y-5.1494
X11.9201Y-6.8365
X11.9201Y-6.9365
X11.9201Y-7.0365
X11.9201Y-7.1365
X11.9201Y-7.2365
X11.9201Y-7.3365
X11.9201Y-7.4365
X11.9201Y-9.1236
X11.9201Y-9.2236
X11.9201Y-9.3236
X11.9201Y-9.4236
X11.9201Y-9.5236
X11.9201Y-9.6236
X11.9201Y-9.7236
X11.9201Y-11.4106
X11.9201Y-11.5106
X11.9201Y-11.6106
X11.9201Y-11.7106
X11.9201Y-11.8106
X11.9201Y-11.9106
X11.9201Y-12.0106
X12.0201Y-4.5494
X12.0201Y-4.6494
X12.0201Y-4.7494
X12.0201Y-4.8494
X12.0201Y-4.9494
X12.0201Y-5.0494
X12.0201Y-5.1494
X12.0201Y-6.8365
X12.0201Y-6.9365
X12.0201Y-7.0365
X12.0201Y-7.1365
X12.0201Y-7.2365
X12.0201Y-7.3365
X12.0201Y-7.4365
X12.0201Y-9.1236
X12.0201Y-9.2236
X12.0201Y-9.3236
X12.0201Y-9.4236
X12.0201Y-9.5236
X12.0201Y-9.6236
X12.0201Y-9.7236
X12.0201Y-11.4106
X12.0201Y-11.5106
X12.0201Y-11.6106
X12.0201Y-11.7106
X12.0201Y-11.8106
X12.0201Y-11.9106
X12.0201Y-12.0106
X12.1201Y-4.5494
X12.1201Y-5.1494
X12.1201Y-6.8365
X12.1201Y-7.4365
X12.1201Y-9.1236
X12.1201Y-9.7236
X12.1201Y-11.4106
X12.1201Y-12.0106
X12.2201Y-4.5494
X12.2201Y-5.1494
X12.2201Y-6.8365
X12.2201Y-7.4365
X12.2201Y-9.1236
X12.2201Y-9.7236
X12.2201Y-11.4106
X12.2201Y-12.0106
X12.3201Y-4.5494
X12.3201Y-5.1494
X12.3201Y-6.8365
X12.3201Y-7.4365
X12.3201Y-9.1236
X12.3201Y-9.7236
X12.3201Y-11.4106
X12.3201Y-12.0106
X12.4201Y-4.5494
X12.4201Y-5.1494
X12.4201Y-6.8365
X12.4201Y-7.4365
X12.4201Y-9.1236
X12.4201Y-9.7236
X12.4201Y-11.4106
X12.4201Y-12.0106
X12.5201Y-4.5494
X12.5201Y-5.1494
X12.5201Y-6.8365
X12.5201Y-7.4365
X12.5201Y-9.1236
X12.5201Y-9.7236
X12.5201Y-11.4106
X12.5201Y-12.0106
X12.6201Y-4.5494
X12.6201Y-5.1494
X12.6201Y-6.8365
X12.6201Y-7.4365
X12.6201Y-9.1236
X12.6201Y-9.7236
X12.6201Y-11.4106
X12.6201Y-12.0106
X12.7201Y-4.5494
X12.7201Y-5.1494
X12.7201Y-6.8365
X12.7201Y-7.4365
X12.7201Y-9.1236
X12.7201Y-9.7236
X12.7201Y-11.4106
X12.7201Y-12.0106
X12.8201Y-4.5494
X12.8201Y-5.1494
X12.8201Y-6.8365
X12.8201Y-7.4365
X12.8201Y-9.1236
X12.8201Y-9.7236
X12.8201Y-11.4106
X12.8201Y-12.0106
X12.9201Y-4.5494
X12.9201Y-5.0494
X12.9201Y-5.1494
X12.9201Y-6.8365
X12.9201Y-7.3365
X12.9201Y-7.4365
X12.9201Y-9.1236
X12.9201Y-9.6236
X12.9201Y-9.7236
X12.9201Y-11.4106
X12.9201Y-11.9106
X12.9201Y-12.0106
X13.0201Y-4.5494
X13.0201Y-5.1494
X13.0201Y-6.8365
X13.0201Y-7.4365
X13.0201Y-9.1236
X13.0201Y-9.7236
X13.0201Y-11.4106
X13.0201Y-12.0106
T12
X12.9085Y-12.4949
X12.9085Y-12.8949
T13
X13.5Y-13.3
T5
G00X13.4556Y-12.4659
M15
G01X13.4871Y-12.4659
M16
G05
G00X13.4556Y-12.9085
M15
G01X13.4871Y-12.9085
M16
G05
G00X13.6052Y-12.4659
M15
G01X13.6524Y-12.4659
M16
G05
G00X13.6052Y-12.9085
M15
G01X13.6524Y-12.9085
M16
G05
T0
M30
