G04 #@! TF.GenerationSoftware,KiCad,Pcbnew,(5.1.2-1)-1*
G04 #@! TF.CreationDate,2022-02-21T13:59:12-08:00*
G04 #@! TF.ProjectId,widaq-magis-ssr-v1b,77696461-712d-46d6-9167-69732d737372,rev?*
G04 #@! TF.SameCoordinates,Original*
G04 #@! TF.FileFunction,Legend,Bot*
G04 #@! TF.FilePolarity,Positive*
%FSLAX46Y46*%
G04 Gerber Fmt 4.6, Leading zero omitted, Abs format (unit mm)*
G04 Created by KiCad (PCBNEW (5.1.2-1)-1) date 2022-02-21 13:59:12*
%MOMM*%
%LPD*%
G04 APERTURE LIST*
%ADD10C,0.120000*%
%ADD11C,0.150000*%
G04 APERTURE END LIST*
D10*
X106787120Y-94946820D02*
X111207120Y-94946820D01*
X106787120Y-92926820D02*
X111207120Y-92926820D01*
X106787120Y-94946820D02*
X106787120Y-94932820D01*
X106787120Y-92940820D02*
X106787120Y-92926820D01*
X111207120Y-94946820D02*
X111207120Y-94932820D01*
X111207120Y-92940820D02*
X111207120Y-92926820D01*
X106873480Y-89887140D02*
X111293480Y-89887140D01*
X106873480Y-87867140D02*
X111293480Y-87867140D01*
X106873480Y-89887140D02*
X106873480Y-89873140D01*
X106873480Y-87881140D02*
X106873480Y-87867140D01*
X111293480Y-89887140D02*
X111293480Y-89873140D01*
X111293480Y-87881140D02*
X111293480Y-87867140D01*
X101703420Y-84220260D02*
X105423420Y-84220260D01*
X101703420Y-82500260D02*
X105423420Y-82500260D01*
X105755000Y-78489460D02*
X101335000Y-78489460D01*
X105755000Y-80509460D02*
X101335000Y-80509460D01*
X105755000Y-78489460D02*
X105755000Y-78503460D01*
X105755000Y-80495460D02*
X105755000Y-80509460D01*
X101335000Y-78489460D02*
X101335000Y-78503460D01*
X101335000Y-80495460D02*
X101335000Y-80509460D01*
X100508720Y-89217940D02*
X100508720Y-93637940D01*
X102528720Y-89217940D02*
X102528720Y-93637940D01*
X100508720Y-89217940D02*
X100522720Y-89217940D01*
X102514720Y-89217940D02*
X102528720Y-89217940D01*
X100508720Y-93637940D02*
X100522720Y-93637940D01*
X102514720Y-93637940D02*
X102528720Y-93637940D01*
X108000080Y-133308300D02*
X108000080Y-131588300D01*
X108000080Y-131588300D02*
X111720080Y-131588300D01*
X111720080Y-131588300D02*
X111720080Y-133308300D01*
X111720080Y-133308300D02*
X108000080Y-133308300D01*
X106930080Y-132448300D02*
X108000080Y-132448300D01*
X112790080Y-132448300D02*
X111720080Y-132448300D01*
X105220560Y-123491540D02*
X106940560Y-123491540D01*
X106940560Y-123491540D02*
X106940560Y-127211540D01*
X106940560Y-127211540D02*
X105220560Y-127211540D01*
X105220560Y-127211540D02*
X105220560Y-123491540D01*
X106080560Y-122421540D02*
X106080560Y-123491540D01*
X106080560Y-128281540D02*
X106080560Y-127211540D01*
D11*
X109163786Y-96553962D02*
X109211405Y-96601581D01*
X109354262Y-96649200D01*
X109449500Y-96649200D01*
X109592358Y-96601581D01*
X109687596Y-96506343D01*
X109735215Y-96411105D01*
X109782834Y-96220629D01*
X109782834Y-96077772D01*
X109735215Y-95887296D01*
X109687596Y-95792058D01*
X109592358Y-95696820D01*
X109449500Y-95649200D01*
X109354262Y-95649200D01*
X109211405Y-95696820D01*
X109163786Y-95744439D01*
X108306643Y-95982534D02*
X108306643Y-96649200D01*
X108544739Y-95601581D02*
X108782834Y-96315867D01*
X108163786Y-96315867D01*
X109250146Y-91494282D02*
X109297765Y-91541901D01*
X109440622Y-91589520D01*
X109535860Y-91589520D01*
X109678718Y-91541901D01*
X109773956Y-91446663D01*
X109821575Y-91351425D01*
X109869194Y-91160949D01*
X109869194Y-91018092D01*
X109821575Y-90827616D01*
X109773956Y-90732378D01*
X109678718Y-90637140D01*
X109535860Y-90589520D01*
X109440622Y-90589520D01*
X109297765Y-90637140D01*
X109250146Y-90684759D01*
X108916813Y-90589520D02*
X108297765Y-90589520D01*
X108631099Y-90970473D01*
X108488241Y-90970473D01*
X108393003Y-91018092D01*
X108345384Y-91065711D01*
X108297765Y-91160949D01*
X108297765Y-91399044D01*
X108345384Y-91494282D01*
X108393003Y-91541901D01*
X108488241Y-91589520D01*
X108773956Y-91589520D01*
X108869194Y-91541901D01*
X108916813Y-91494282D01*
X103730086Y-85672640D02*
X104063420Y-85196450D01*
X104301515Y-85672640D02*
X104301515Y-84672640D01*
X103920562Y-84672640D01*
X103825324Y-84720260D01*
X103777705Y-84767879D01*
X103730086Y-84863117D01*
X103730086Y-85005974D01*
X103777705Y-85101212D01*
X103825324Y-85148831D01*
X103920562Y-85196450D01*
X104301515Y-85196450D01*
X103396753Y-84672640D02*
X102777705Y-84672640D01*
X103111039Y-85053593D01*
X102968181Y-85053593D01*
X102872943Y-85101212D01*
X102825324Y-85148831D01*
X102777705Y-85244069D01*
X102777705Y-85482164D01*
X102825324Y-85577402D01*
X102872943Y-85625021D01*
X102968181Y-85672640D01*
X103253896Y-85672640D01*
X103349134Y-85625021D01*
X103396753Y-85577402D01*
X103711666Y-77596602D02*
X103759285Y-77644221D01*
X103902142Y-77691840D01*
X103997380Y-77691840D01*
X104140238Y-77644221D01*
X104235476Y-77548983D01*
X104283095Y-77453745D01*
X104330714Y-77263269D01*
X104330714Y-77120412D01*
X104283095Y-76929936D01*
X104235476Y-76834698D01*
X104140238Y-76739460D01*
X103997380Y-76691840D01*
X103902142Y-76691840D01*
X103759285Y-76739460D01*
X103711666Y-76787079D01*
X103330714Y-76787079D02*
X103283095Y-76739460D01*
X103187857Y-76691840D01*
X102949761Y-76691840D01*
X102854523Y-76739460D01*
X102806904Y-76787079D01*
X102759285Y-76882317D01*
X102759285Y-76977555D01*
X102806904Y-77120412D01*
X103378333Y-77691840D01*
X102759285Y-77691840D01*
X99615862Y-91261273D02*
X99663481Y-91213654D01*
X99711100Y-91070797D01*
X99711100Y-90975559D01*
X99663481Y-90832701D01*
X99568243Y-90737463D01*
X99473005Y-90689844D01*
X99282529Y-90642225D01*
X99139672Y-90642225D01*
X98949196Y-90689844D01*
X98853958Y-90737463D01*
X98758720Y-90832701D01*
X98711100Y-90975559D01*
X98711100Y-91070797D01*
X98758720Y-91213654D01*
X98806339Y-91261273D01*
X99711100Y-92213654D02*
X99711100Y-91642225D01*
X99711100Y-91927940D02*
X98711100Y-91927940D01*
X98853958Y-91832701D01*
X98949196Y-91737463D01*
X98996815Y-91642225D01*
X110026746Y-134760680D02*
X110360080Y-134284490D01*
X110598175Y-134760680D02*
X110598175Y-133760680D01*
X110217222Y-133760680D01*
X110121984Y-133808300D01*
X110074365Y-133855919D01*
X110026746Y-133951157D01*
X110026746Y-134094014D01*
X110074365Y-134189252D01*
X110121984Y-134236871D01*
X110217222Y-134284490D01*
X110598175Y-134284490D01*
X109645794Y-133855919D02*
X109598175Y-133808300D01*
X109502937Y-133760680D01*
X109264841Y-133760680D01*
X109169603Y-133808300D01*
X109121984Y-133855919D01*
X109074365Y-133951157D01*
X109074365Y-134046395D01*
X109121984Y-134189252D01*
X109693413Y-134760680D01*
X109074365Y-134760680D01*
X104672940Y-125184873D02*
X104196750Y-124851540D01*
X104672940Y-124613444D02*
X103672940Y-124613444D01*
X103672940Y-124994397D01*
X103720560Y-125089635D01*
X103768179Y-125137254D01*
X103863417Y-125184873D01*
X104006274Y-125184873D01*
X104101512Y-125137254D01*
X104149131Y-125089635D01*
X104196750Y-124994397D01*
X104196750Y-124613444D01*
X104672940Y-126137254D02*
X104672940Y-125565825D01*
X104672940Y-125851540D02*
X103672940Y-125851540D01*
X103815798Y-125756301D01*
X103911036Y-125661063D01*
X103958655Y-125565825D01*
M02*
