G04 #@! TF.GenerationSoftware,KiCad,Pcbnew,(5.1.2-1)-1*
G04 #@! TF.CreationDate,2022-02-21T13:59:12-08:00*
G04 #@! TF.ProjectId,widaq-magis-ssr-v1b,77696461-712d-46d6-9167-69732d737372,rev?*
G04 #@! TF.SameCoordinates,Original*
G04 #@! TF.FileFunction,Copper,L1,Top*
G04 #@! TF.FilePolarity,Positive*
%FSLAX46Y46*%
G04 Gerber Fmt 4.6, Leading zero omitted, Abs format (unit mm)*
G04 Created by KiCad (PCBNEW (5.1.2-1)-1) date 2022-02-21 13:59:12*
%MOMM*%
%LPD*%
G04 APERTURE LIST*
%ADD10C,2.900000*%
%ADD11C,3.000000*%
%ADD12R,2.800000X2.800000*%
%ADD13R,1.700000X1.700000*%
%ADD14O,1.700000X1.700000*%
%ADD15C,9.000000*%
%ADD16C,2.200000*%
%ADD17C,1.600000*%
%ADD18R,1.410000X1.410000*%
%ADD19C,1.410000*%
%ADD20C,2.103000*%
%ADD21C,1.400000*%
%ADD22O,1.400000X1.400000*%
%ADD23R,1.600000X1.600000*%
%ADD24O,1.600000X1.600000*%
%ADD25C,1.860000*%
%ADD26C,0.250000*%
%ADD27C,1.016000*%
%ADD28C,0.254000*%
G04 APERTURE END LIST*
D10*
X129141220Y-87368380D03*
X139301220Y-87368380D03*
X112562640Y-49794160D03*
X102402640Y-49794160D03*
D11*
X95910400Y-57650600D03*
X95910400Y-53450600D03*
D12*
X95910400Y-49250600D03*
D13*
X173395640Y-40289480D03*
D14*
X173395640Y-42829480D03*
D15*
X187337700Y-148475700D03*
X92087700Y-148475700D03*
X187337700Y-38620700D03*
X92087700Y-38620700D03*
D16*
X189470580Y-51821980D03*
X189470580Y-56901980D03*
X189470580Y-61981980D03*
X189470580Y-67061980D03*
X189470580Y-72141980D03*
X189470580Y-77221980D03*
X189470580Y-82301980D03*
X189470580Y-87381980D03*
X179470580Y-54361980D03*
X179470580Y-59441980D03*
X179470580Y-64521980D03*
X179470580Y-69601980D03*
X179470580Y-74681980D03*
X179470580Y-79761980D03*
X179470580Y-84841980D03*
X179470580Y-89921980D03*
X189435020Y-97895040D03*
X189435020Y-102975040D03*
X189435020Y-108055040D03*
X189435020Y-113135040D03*
X189435020Y-118215040D03*
X189435020Y-123295040D03*
X189435020Y-128375040D03*
X189435020Y-133455040D03*
X179435020Y-100435040D03*
X179435020Y-105515040D03*
X179435020Y-110595040D03*
X179435020Y-115675040D03*
X179435020Y-120755040D03*
X179435020Y-125835040D03*
X179435020Y-130915040D03*
X179435020Y-135995040D03*
D17*
X106497120Y-93936820D03*
X111497120Y-93936820D03*
X106583480Y-88877140D03*
X111583480Y-88877140D03*
D18*
X92011680Y-88658200D03*
D19*
X92011680Y-84658200D03*
X92011680Y-80658200D03*
D20*
X87811680Y-92158200D03*
X94011680Y-77158200D03*
D21*
X101023420Y-83360260D03*
D22*
X106103420Y-83360260D03*
D23*
X119227600Y-87302340D03*
D24*
X121767600Y-87302340D03*
D17*
X106045000Y-79499460D03*
X101045000Y-79499460D03*
X101518720Y-88927940D03*
X101518720Y-93927940D03*
X134129780Y-107061000D03*
X134129780Y-104521000D03*
X134129780Y-101981000D03*
X134129780Y-99441000D03*
X134129780Y-109601000D03*
X134129780Y-112141000D03*
X134129780Y-114681000D03*
X131589780Y-99441000D03*
X129049780Y-99441000D03*
X126509780Y-99441000D03*
X123969780Y-99441000D03*
X121429780Y-99441000D03*
X118889780Y-99441000D03*
X116349780Y-99441000D03*
X113809780Y-99441000D03*
X111269780Y-99441000D03*
X108729780Y-99441000D03*
X106189780Y-99441000D03*
X103649780Y-99441000D03*
X101109780Y-99441000D03*
X103649780Y-101981000D03*
X131589780Y-114681000D03*
X129049780Y-114681000D03*
X126509780Y-114681000D03*
X123969780Y-114681000D03*
X121429780Y-114681000D03*
X118889780Y-114681000D03*
X116349780Y-114681000D03*
X113809780Y-114681000D03*
X111269780Y-114681000D03*
X108729780Y-114681000D03*
X106189780Y-114681000D03*
X103649780Y-114681000D03*
X101109780Y-114681000D03*
X129049780Y-101981000D03*
X126509780Y-101981000D03*
X129049780Y-104521000D03*
X126509780Y-104521000D03*
X129049780Y-107061000D03*
X126509780Y-107061000D03*
X129049780Y-109601000D03*
X126509780Y-109601000D03*
X129049780Y-112141000D03*
X126509780Y-112141000D03*
D21*
X106050080Y-132448300D03*
D22*
X113670080Y-132448300D03*
D21*
X106080560Y-121541540D03*
D22*
X106080560Y-129161540D03*
D25*
X119981020Y-72617300D03*
X119981020Y-51817300D03*
X164981020Y-72617300D03*
X164981020Y-64617300D03*
D13*
X99402900Y-132260340D03*
D14*
X99402900Y-129720340D03*
X99402900Y-127180340D03*
X99402900Y-124640340D03*
D23*
X146685000Y-116624100D03*
D24*
X161925000Y-109004100D03*
X149225000Y-116624100D03*
X159385000Y-109004100D03*
X151765000Y-116624100D03*
X156845000Y-109004100D03*
X154305000Y-116624100D03*
X154305000Y-109004100D03*
X156845000Y-116624100D03*
X151765000Y-109004100D03*
X159385000Y-116624100D03*
X149225000Y-109004100D03*
X161925000Y-116624100D03*
X146685000Y-109004100D03*
D23*
X146832320Y-88249760D03*
D24*
X162072320Y-80629760D03*
X149372320Y-88249760D03*
X159532320Y-80629760D03*
X151912320Y-88249760D03*
X156992320Y-80629760D03*
X154452320Y-88249760D03*
X154452320Y-80629760D03*
X156992320Y-88249760D03*
X151912320Y-80629760D03*
X159532320Y-88249760D03*
X149372320Y-80629760D03*
X162072320Y-88249760D03*
X146832320Y-80629760D03*
D23*
X146646900Y-131188460D03*
D24*
X161886900Y-123568460D03*
X149186900Y-131188460D03*
X159346900Y-123568460D03*
X151726900Y-131188460D03*
X156806900Y-123568460D03*
X154266900Y-131188460D03*
X154266900Y-123568460D03*
X156806900Y-131188460D03*
X151726900Y-123568460D03*
X159346900Y-131188460D03*
X149186900Y-123568460D03*
X161886900Y-131188460D03*
X146646900Y-123568460D03*
D23*
X146738340Y-102499160D03*
D24*
X161978340Y-94879160D03*
X149278340Y-102499160D03*
X159438340Y-94879160D03*
X151818340Y-102499160D03*
X156898340Y-94879160D03*
X154358340Y-102499160D03*
X154358340Y-94879160D03*
X156898340Y-102499160D03*
X151818340Y-94879160D03*
X159438340Y-102499160D03*
X149278340Y-94879160D03*
X161978340Y-102499160D03*
X146738340Y-94879160D03*
D26*
X129049780Y-114681000D02*
X131206240Y-116837460D01*
X131206240Y-116837460D02*
X137076180Y-116837460D01*
X137076180Y-116837460D02*
X143095980Y-110817660D01*
X143095980Y-110817660D02*
X143095980Y-108701840D01*
X143095980Y-108701840D02*
X146850100Y-104947720D01*
X146850100Y-104927400D02*
X149278340Y-102499160D01*
X146850100Y-104947720D02*
X146850100Y-104927400D01*
X134929779Y-113881001D02*
X135983879Y-113881001D01*
X134129780Y-114681000D02*
X134929779Y-113881001D01*
X135983879Y-113881001D02*
X140533120Y-109331760D01*
X140533120Y-109331760D02*
X140533120Y-103202740D01*
X140533120Y-103202740D02*
X146098260Y-97637600D01*
X149059900Y-97637600D02*
X151818340Y-94879160D01*
X146098260Y-97637600D02*
X149059900Y-97637600D01*
X147502880Y-133700520D02*
X149186900Y-132016500D01*
X149186900Y-132016500D02*
X149186900Y-131188460D01*
X127749300Y-133700520D02*
X147502880Y-133700520D01*
X108729780Y-114681000D02*
X127749300Y-133700520D01*
X113809780Y-115812370D02*
X123069550Y-125072140D01*
X113809780Y-114681000D02*
X113809780Y-115812370D01*
X150223220Y-125072140D02*
X151726900Y-123568460D01*
X123069550Y-125072140D02*
X150223220Y-125072140D01*
X143609060Y-94013020D02*
X147114260Y-90507820D01*
X147114260Y-90507820D02*
X149372320Y-88249760D01*
X134477760Y-94013020D02*
X143609060Y-94013020D01*
X129049780Y-99441000D02*
X134477760Y-94013020D01*
X147286980Y-83809840D02*
X148732240Y-83809840D01*
X139087860Y-92008960D02*
X147286980Y-83809840D01*
X148732240Y-83809840D02*
X151912320Y-80629760D01*
X126321820Y-92008960D02*
X139087860Y-92008960D01*
X118889780Y-99441000D02*
X126321820Y-92008960D01*
X118889780Y-114681000D02*
X123228100Y-119019320D01*
X146829780Y-119019320D02*
X149225000Y-116624100D01*
X123228100Y-119019320D02*
X146829780Y-119019320D01*
X149364700Y-111404400D02*
X151765000Y-109004100D01*
X140261340Y-118061740D02*
X146918680Y-111404400D01*
X123969780Y-115812370D02*
X126219150Y-118061740D01*
X146918680Y-111404400D02*
X149364700Y-111404400D01*
X126219150Y-118061740D02*
X140261340Y-118061740D01*
X123969780Y-114681000D02*
X123969780Y-115812370D01*
X99590860Y-132448300D02*
X99402900Y-132260340D01*
X106050080Y-132448300D02*
X99590860Y-132448300D01*
X106050080Y-129192020D02*
X106080560Y-129161540D01*
X106050080Y-132448300D02*
X106050080Y-129192020D01*
X103649780Y-128300480D02*
X103649780Y-114681000D01*
X100252899Y-130570339D02*
X101379921Y-130570339D01*
X101379921Y-130570339D02*
X103649780Y-128300480D01*
X99402900Y-129720340D02*
X100252899Y-130570339D01*
X106080560Y-114790220D02*
X106189780Y-114681000D01*
X106080560Y-121541540D02*
X106080560Y-114790220D01*
X101023420Y-79521040D02*
X101045000Y-79499460D01*
X101023420Y-83360260D02*
X101023420Y-79521040D01*
X93170420Y-79499460D02*
X92011680Y-80658200D01*
X101045000Y-79499460D02*
X93170420Y-79499460D01*
D27*
X101073480Y-99441000D02*
X101109780Y-99441000D01*
X92011680Y-90379200D02*
X101073480Y-99441000D01*
X92011680Y-88658200D02*
X92011680Y-90379200D01*
D26*
X95910400Y-42443400D02*
X92087700Y-38620700D01*
X95910400Y-49250600D02*
X95910400Y-42443400D01*
X164153480Y-125835040D02*
X179435020Y-125835040D01*
X161886900Y-123568460D02*
X164153480Y-125835040D01*
X151726900Y-131188460D02*
X153210260Y-129705100D01*
X178225080Y-129705100D02*
X179435020Y-130915040D01*
X153210260Y-129705100D02*
X178225080Y-129705100D01*
X178036380Y-122153680D02*
X179435020Y-120755040D01*
X155681680Y-122153680D02*
X178036380Y-122153680D01*
X154266900Y-123568460D02*
X155681680Y-122153680D01*
X164153480Y-135995040D02*
X179435020Y-135995040D01*
X159346900Y-131188460D02*
X164153480Y-135995040D01*
X162072320Y-80629760D02*
X166697660Y-80629760D01*
X166697660Y-80629760D02*
X171813220Y-75514200D01*
X171813220Y-67099340D02*
X179470580Y-59441980D01*
X171813220Y-75514200D02*
X171813220Y-67099340D01*
X173512480Y-70480080D02*
X179470580Y-64521980D01*
X173512480Y-76329540D02*
X173512480Y-70480080D01*
X164439600Y-85402420D02*
X173512480Y-76329540D01*
X154759660Y-85402420D02*
X164439600Y-85402420D01*
X151912320Y-88249760D02*
X154759660Y-85402420D01*
X156852620Y-78229460D02*
X166829740Y-78229460D01*
X154452320Y-80629760D02*
X156852620Y-78229460D01*
X166829740Y-78229460D02*
X169938700Y-75120500D01*
X169938700Y-63893860D02*
X179470580Y-54361980D01*
X169938700Y-75120500D02*
X169938700Y-63893860D01*
X161267140Y-86514940D02*
X165435280Y-86514940D01*
X159532320Y-88249760D02*
X161267140Y-86514940D01*
X165435280Y-86514940D02*
X174985680Y-76964540D01*
X174985680Y-74086880D02*
X179470580Y-69601980D01*
X174985680Y-76964540D02*
X174985680Y-74086880D01*
X175945960Y-109004100D02*
X179435020Y-105515040D01*
X161925000Y-109004100D02*
X175945960Y-109004100D01*
X175389540Y-114640520D02*
X179435020Y-110595040D01*
X153586180Y-114802920D02*
X175227140Y-114802920D01*
X175227140Y-114802920D02*
X175389540Y-114640520D01*
X151765000Y-116624100D02*
X153586180Y-114802920D01*
X173122670Y-106747390D02*
X179435020Y-100435040D01*
X172725240Y-107144820D02*
X173122670Y-106747390D01*
X156164280Y-107144820D02*
X172725240Y-107144820D01*
X154305000Y-109004100D02*
X156164280Y-107144820D01*
X159385000Y-116624100D02*
X160980120Y-118219220D01*
X176890840Y-118219220D02*
X179435020Y-115675040D01*
X160980120Y-118219220D02*
X176890840Y-118219220D01*
X164353400Y-94879160D02*
X179470580Y-79761980D01*
X161978340Y-94879160D02*
X164353400Y-94879160D01*
X178370581Y-85941979D02*
X179470580Y-84841980D01*
X155249880Y-99067620D02*
X165244940Y-99067620D01*
X165244940Y-99067620D02*
X178370581Y-85941979D01*
X151818340Y-102499160D02*
X155249880Y-99067620D01*
X154358340Y-94879160D02*
X156141420Y-93096080D01*
X156141420Y-93096080D02*
X163151820Y-93096080D01*
X163151820Y-93096080D02*
X176458880Y-79789020D01*
X176458880Y-77693680D02*
X179470580Y-74681980D01*
X176458880Y-79789020D02*
X176458880Y-77693680D01*
X159438340Y-102499160D02*
X161452560Y-100484940D01*
X168907620Y-100484940D02*
X179470580Y-89921980D01*
X161452560Y-100484940D02*
X168907620Y-100484940D01*
D28*
G36*
X93881474Y-35152917D02*
G01*
X94072853Y-35179566D01*
X94252270Y-35235669D01*
X94420061Y-35320433D01*
X94571680Y-35431561D01*
X94703027Y-35566048D01*
X94813546Y-35724556D01*
X95981535Y-37733997D01*
X96082100Y-37958153D01*
X96133824Y-38198324D01*
X97148591Y-47616551D01*
X97152397Y-47812149D01*
X97122822Y-47999855D01*
X97060885Y-48179502D01*
X96968495Y-48345550D01*
X96848490Y-48492896D01*
X96704581Y-48616985D01*
X96541188Y-48714005D01*
X96363356Y-48780963D01*
X96176548Y-48815799D01*
X95980925Y-48817487D01*
X95146588Y-48751235D01*
X94938993Y-48715809D01*
X94746448Y-48645836D01*
X94569495Y-48542599D01*
X94413826Y-48409422D01*
X94280819Y-48246132D01*
X91975742Y-44831367D01*
X91974332Y-44829320D01*
X91945695Y-44788637D01*
X91944241Y-44786615D01*
X88347615Y-39884180D01*
X88242171Y-39710820D01*
X88170152Y-39527036D01*
X88130842Y-39333597D01*
X88125415Y-39136276D01*
X88154029Y-38940973D01*
X88217563Y-38748266D01*
X89537912Y-35668022D01*
X89634670Y-35487589D01*
X89757848Y-35331079D01*
X89906333Y-35198339D01*
X90075619Y-35093400D01*
X90260557Y-35019453D01*
X90455517Y-34978750D01*
X90660158Y-34972346D01*
X93881474Y-35152917D01*
X93881474Y-35152917D01*
G37*
X93881474Y-35152917D02*
X94072853Y-35179566D01*
X94252270Y-35235669D01*
X94420061Y-35320433D01*
X94571680Y-35431561D01*
X94703027Y-35566048D01*
X94813546Y-35724556D01*
X95981535Y-37733997D01*
X96082100Y-37958153D01*
X96133824Y-38198324D01*
X97148591Y-47616551D01*
X97152397Y-47812149D01*
X97122822Y-47999855D01*
X97060885Y-48179502D01*
X96968495Y-48345550D01*
X96848490Y-48492896D01*
X96704581Y-48616985D01*
X96541188Y-48714005D01*
X96363356Y-48780963D01*
X96176548Y-48815799D01*
X95980925Y-48817487D01*
X95146588Y-48751235D01*
X94938993Y-48715809D01*
X94746448Y-48645836D01*
X94569495Y-48542599D01*
X94413826Y-48409422D01*
X94280819Y-48246132D01*
X91975742Y-44831367D01*
X91974332Y-44829320D01*
X91945695Y-44788637D01*
X91944241Y-44786615D01*
X88347615Y-39884180D01*
X88242171Y-39710820D01*
X88170152Y-39527036D01*
X88130842Y-39333597D01*
X88125415Y-39136276D01*
X88154029Y-38940973D01*
X88217563Y-38748266D01*
X89537912Y-35668022D01*
X89634670Y-35487589D01*
X89757848Y-35331079D01*
X89906333Y-35198339D01*
X90075619Y-35093400D01*
X90260557Y-35019453D01*
X90455517Y-34978750D01*
X90660158Y-34972346D01*
X93881474Y-35152917D01*
M02*
