G04 #@! TF.GenerationSoftware,KiCad,Pcbnew,(5.1.2-1)-1*
G04 #@! TF.CreationDate,2022-02-21T13:59:12-08:00*
G04 #@! TF.ProjectId,widaq-magis-ssr-v1b,77696461-712d-46d6-9167-69732d737372,rev?*
G04 #@! TF.SameCoordinates,Original*
G04 #@! TF.FileFunction,Copper,L4,Bot*
G04 #@! TF.FilePolarity,Positive*
%FSLAX46Y46*%
G04 Gerber Fmt 4.6, Leading zero omitted, Abs format (unit mm)*
G04 Created by KiCad (PCBNEW (5.1.2-1)-1) date 2022-02-21 13:59:12*
%MOMM*%
%LPD*%
G04 APERTURE LIST*
%ADD10C,2.900000*%
%ADD11C,3.000000*%
%ADD12R,2.800000X2.800000*%
%ADD13R,1.700000X1.700000*%
%ADD14O,1.700000X1.700000*%
%ADD15C,9.000000*%
%ADD16C,2.200000*%
%ADD17C,1.600000*%
%ADD18R,1.410000X1.410000*%
%ADD19C,1.410000*%
%ADD20C,2.103000*%
%ADD21C,1.400000*%
%ADD22O,1.400000X1.400000*%
%ADD23R,1.600000X1.600000*%
%ADD24O,1.600000X1.600000*%
%ADD25C,1.860000*%
%ADD26C,0.250000*%
%ADD27C,5.080000*%
%ADD28C,0.254000*%
G04 APERTURE END LIST*
D10*
X129141220Y-87368380D03*
X139301220Y-87368380D03*
X112562640Y-49794160D03*
X102402640Y-49794160D03*
D11*
X95910400Y-57650600D03*
X95910400Y-53450600D03*
D12*
X95910400Y-49250600D03*
D13*
X173395640Y-40289480D03*
D14*
X173395640Y-42829480D03*
D15*
X187337700Y-148475700D03*
X92087700Y-148475700D03*
X187337700Y-38620700D03*
X92087700Y-38620700D03*
D16*
X189470580Y-51821980D03*
X189470580Y-56901980D03*
X189470580Y-61981980D03*
X189470580Y-67061980D03*
X189470580Y-72141980D03*
X189470580Y-77221980D03*
X189470580Y-82301980D03*
X189470580Y-87381980D03*
X179470580Y-54361980D03*
X179470580Y-59441980D03*
X179470580Y-64521980D03*
X179470580Y-69601980D03*
X179470580Y-74681980D03*
X179470580Y-79761980D03*
X179470580Y-84841980D03*
X179470580Y-89921980D03*
X189435020Y-97895040D03*
X189435020Y-102975040D03*
X189435020Y-108055040D03*
X189435020Y-113135040D03*
X189435020Y-118215040D03*
X189435020Y-123295040D03*
X189435020Y-128375040D03*
X189435020Y-133455040D03*
X179435020Y-100435040D03*
X179435020Y-105515040D03*
X179435020Y-110595040D03*
X179435020Y-115675040D03*
X179435020Y-120755040D03*
X179435020Y-125835040D03*
X179435020Y-130915040D03*
X179435020Y-135995040D03*
D17*
X106497120Y-93936820D03*
X111497120Y-93936820D03*
X106583480Y-88877140D03*
X111583480Y-88877140D03*
D18*
X92011680Y-88658200D03*
D19*
X92011680Y-84658200D03*
X92011680Y-80658200D03*
D20*
X87811680Y-92158200D03*
X94011680Y-77158200D03*
D21*
X101023420Y-83360260D03*
D22*
X106103420Y-83360260D03*
D23*
X119227600Y-87302340D03*
D24*
X121767600Y-87302340D03*
D17*
X106045000Y-79499460D03*
X101045000Y-79499460D03*
X101518720Y-88927940D03*
X101518720Y-93927940D03*
X134129780Y-107061000D03*
X134129780Y-104521000D03*
X134129780Y-101981000D03*
X134129780Y-99441000D03*
X134129780Y-109601000D03*
X134129780Y-112141000D03*
X134129780Y-114681000D03*
X131589780Y-99441000D03*
X129049780Y-99441000D03*
X126509780Y-99441000D03*
X123969780Y-99441000D03*
X121429780Y-99441000D03*
X118889780Y-99441000D03*
X116349780Y-99441000D03*
X113809780Y-99441000D03*
X111269780Y-99441000D03*
X108729780Y-99441000D03*
X106189780Y-99441000D03*
X103649780Y-99441000D03*
X101109780Y-99441000D03*
X103649780Y-101981000D03*
X131589780Y-114681000D03*
X129049780Y-114681000D03*
X126509780Y-114681000D03*
X123969780Y-114681000D03*
X121429780Y-114681000D03*
X118889780Y-114681000D03*
X116349780Y-114681000D03*
X113809780Y-114681000D03*
X111269780Y-114681000D03*
X108729780Y-114681000D03*
X106189780Y-114681000D03*
X103649780Y-114681000D03*
X101109780Y-114681000D03*
X129049780Y-101981000D03*
X126509780Y-101981000D03*
X129049780Y-104521000D03*
X126509780Y-104521000D03*
X129049780Y-107061000D03*
X126509780Y-107061000D03*
X129049780Y-109601000D03*
X126509780Y-109601000D03*
X129049780Y-112141000D03*
X126509780Y-112141000D03*
D21*
X106050080Y-132448300D03*
D22*
X113670080Y-132448300D03*
D21*
X106080560Y-121541540D03*
D22*
X106080560Y-129161540D03*
D25*
X119981020Y-72617300D03*
X119981020Y-51817300D03*
X164981020Y-72617300D03*
X164981020Y-64617300D03*
D13*
X99402900Y-132260340D03*
D14*
X99402900Y-129720340D03*
X99402900Y-127180340D03*
X99402900Y-124640340D03*
D23*
X146685000Y-116624100D03*
D24*
X161925000Y-109004100D03*
X149225000Y-116624100D03*
X159385000Y-109004100D03*
X151765000Y-116624100D03*
X156845000Y-109004100D03*
X154305000Y-116624100D03*
X154305000Y-109004100D03*
X156845000Y-116624100D03*
X151765000Y-109004100D03*
X159385000Y-116624100D03*
X149225000Y-109004100D03*
X161925000Y-116624100D03*
X146685000Y-109004100D03*
D23*
X146832320Y-88249760D03*
D24*
X162072320Y-80629760D03*
X149372320Y-88249760D03*
X159532320Y-80629760D03*
X151912320Y-88249760D03*
X156992320Y-80629760D03*
X154452320Y-88249760D03*
X154452320Y-80629760D03*
X156992320Y-88249760D03*
X151912320Y-80629760D03*
X159532320Y-88249760D03*
X149372320Y-80629760D03*
X162072320Y-88249760D03*
X146832320Y-80629760D03*
D23*
X146646900Y-131188460D03*
D24*
X161886900Y-123568460D03*
X149186900Y-131188460D03*
X159346900Y-123568460D03*
X151726900Y-131188460D03*
X156806900Y-123568460D03*
X154266900Y-131188460D03*
X154266900Y-123568460D03*
X156806900Y-131188460D03*
X151726900Y-123568460D03*
X159346900Y-131188460D03*
X149186900Y-123568460D03*
X161886900Y-131188460D03*
X146646900Y-123568460D03*
D23*
X146738340Y-102499160D03*
D24*
X161978340Y-94879160D03*
X149278340Y-102499160D03*
X159438340Y-94879160D03*
X151818340Y-102499160D03*
X156898340Y-94879160D03*
X154358340Y-102499160D03*
X154358340Y-94879160D03*
X156898340Y-102499160D03*
X151818340Y-94879160D03*
X159438340Y-102499160D03*
X149278340Y-94879160D03*
X161978340Y-102499160D03*
X146738340Y-94879160D03*
D26*
X131589780Y-114681000D02*
X133151880Y-116243100D01*
X133151880Y-116243100D02*
X136484360Y-116243100D01*
X136484360Y-116243100D02*
X142057120Y-110670340D01*
X142057120Y-110670340D02*
X142057120Y-107807760D01*
X142057120Y-107807760D02*
X144470120Y-105394760D01*
X154002740Y-105394760D02*
X156898340Y-102499160D01*
X144470120Y-105394760D02*
X154002740Y-105394760D01*
X131589780Y-99441000D02*
X133512560Y-97518220D01*
X156799280Y-97518220D02*
X159438340Y-94879160D01*
X133512560Y-97518220D02*
X156799280Y-97518220D01*
X111269780Y-115812370D02*
X124784050Y-129326640D01*
X111269780Y-114681000D02*
X111269780Y-115812370D01*
X154945080Y-129326640D02*
X156806900Y-131188460D01*
X124784050Y-129326640D02*
X154945080Y-129326640D01*
X156984700Y-125930660D02*
X158546901Y-124368459D01*
X158546901Y-124368459D02*
X159346900Y-123568460D01*
X127599440Y-125930660D02*
X156984700Y-125930660D01*
X116349780Y-114681000D02*
X127599440Y-125930660D01*
X121429780Y-99441000D02*
X125567440Y-95303340D01*
X125567440Y-95303340D02*
X142796260Y-95303340D01*
X142796260Y-95303340D02*
X146339560Y-91760040D01*
X153482040Y-91760040D02*
X156992320Y-88249760D01*
X146339560Y-91760040D02*
X153482040Y-91760040D01*
X116271040Y-94439740D02*
X116271040Y-94432120D01*
X111269780Y-99441000D02*
X116271040Y-94439740D01*
X116271040Y-94432120D02*
X118572280Y-92130880D01*
X118572280Y-92130880D02*
X129489200Y-92130880D01*
X129489200Y-92130880D02*
X138717020Y-82903060D01*
X157259020Y-82903060D02*
X159532320Y-80629760D01*
X138717020Y-82903060D02*
X157259020Y-82903060D01*
X153316940Y-120152160D02*
X156045001Y-117424099D01*
X126900940Y-120152160D02*
X153316940Y-120152160D01*
X156045001Y-117424099D02*
X156845000Y-116624100D01*
X121429780Y-114681000D02*
X126900940Y-120152160D01*
X126509780Y-114681000D02*
X128856740Y-117027960D01*
X128856740Y-117027960D02*
X141490700Y-117027960D01*
X141490700Y-117027960D02*
X146801840Y-111716820D01*
X156672280Y-111716820D02*
X159385000Y-109004100D01*
X146801840Y-111716820D02*
X156672280Y-111716820D01*
D27*
X187337700Y-38620700D02*
X92087700Y-38620700D01*
X187337700Y-148475700D02*
X92087700Y-148475700D01*
D26*
X187337700Y-38620700D02*
X188328300Y-38620700D01*
X188328300Y-38620700D02*
X191157860Y-41450260D01*
D28*
G36*
X190942036Y-39033058D02*
G01*
X191148232Y-39051764D01*
X191342496Y-39104899D01*
X191524417Y-39191325D01*
X191688337Y-39308354D01*
X191829158Y-39452347D01*
X191945674Y-39623484D01*
X193931059Y-43177121D01*
X194013126Y-43358656D01*
X194061964Y-43546206D01*
X194078860Y-43744702D01*
X194078860Y-142152395D01*
X194057326Y-142376256D01*
X193993511Y-142591913D01*
X191951274Y-147652099D01*
X191862316Y-147828227D01*
X191748312Y-147982663D01*
X191610062Y-148115834D01*
X191451466Y-148223981D01*
X191277011Y-148304048D01*
X191091605Y-148353780D01*
X190895154Y-148372275D01*
X184969371Y-148430115D01*
X184764017Y-148414054D01*
X184570043Y-148363766D01*
X184387833Y-148280359D01*
X184223007Y-148166406D01*
X184080620Y-148025402D01*
X183965064Y-147861696D01*
X183879882Y-147680310D01*
X183827705Y-147486840D01*
X183809640Y-147281641D01*
X183809640Y-133296666D01*
X187827020Y-133296666D01*
X187827020Y-133613414D01*
X187888815Y-133924076D01*
X188010029Y-134216713D01*
X188186005Y-134480080D01*
X188409980Y-134704055D01*
X188673347Y-134880031D01*
X188965984Y-135001245D01*
X189276646Y-135063040D01*
X189593394Y-135063040D01*
X189904056Y-135001245D01*
X190196693Y-134880031D01*
X190460060Y-134704055D01*
X190684035Y-134480080D01*
X190860011Y-134216713D01*
X190981225Y-133924076D01*
X191043020Y-133613414D01*
X191043020Y-133296666D01*
X190981225Y-132986004D01*
X190860011Y-132693367D01*
X190684035Y-132430000D01*
X190460060Y-132206025D01*
X190196693Y-132030049D01*
X189904056Y-131908835D01*
X189593394Y-131847040D01*
X189276646Y-131847040D01*
X188965984Y-131908835D01*
X188673347Y-132030049D01*
X188409980Y-132206025D01*
X188186005Y-132430000D01*
X188010029Y-132693367D01*
X187888815Y-132986004D01*
X187827020Y-133296666D01*
X183809640Y-133296666D01*
X183809640Y-128216666D01*
X187827020Y-128216666D01*
X187827020Y-128533414D01*
X187888815Y-128844076D01*
X188010029Y-129136713D01*
X188186005Y-129400080D01*
X188409980Y-129624055D01*
X188673347Y-129800031D01*
X188965984Y-129921245D01*
X189276646Y-129983040D01*
X189593394Y-129983040D01*
X189904056Y-129921245D01*
X190196693Y-129800031D01*
X190460060Y-129624055D01*
X190684035Y-129400080D01*
X190860011Y-129136713D01*
X190981225Y-128844076D01*
X191043020Y-128533414D01*
X191043020Y-128216666D01*
X190981225Y-127906004D01*
X190860011Y-127613367D01*
X190684035Y-127350000D01*
X190460060Y-127126025D01*
X190196693Y-126950049D01*
X189904056Y-126828835D01*
X189593394Y-126767040D01*
X189276646Y-126767040D01*
X188965984Y-126828835D01*
X188673347Y-126950049D01*
X188409980Y-127126025D01*
X188186005Y-127350000D01*
X188010029Y-127613367D01*
X187888815Y-127906004D01*
X187827020Y-128216666D01*
X183809640Y-128216666D01*
X183809640Y-123136666D01*
X187827020Y-123136666D01*
X187827020Y-123453414D01*
X187888815Y-123764076D01*
X188010029Y-124056713D01*
X188186005Y-124320080D01*
X188409980Y-124544055D01*
X188673347Y-124720031D01*
X188965984Y-124841245D01*
X189276646Y-124903040D01*
X189593394Y-124903040D01*
X189904056Y-124841245D01*
X190196693Y-124720031D01*
X190460060Y-124544055D01*
X190684035Y-124320080D01*
X190860011Y-124056713D01*
X190981225Y-123764076D01*
X191043020Y-123453414D01*
X191043020Y-123136666D01*
X190981225Y-122826004D01*
X190860011Y-122533367D01*
X190684035Y-122270000D01*
X190460060Y-122046025D01*
X190196693Y-121870049D01*
X189904056Y-121748835D01*
X189593394Y-121687040D01*
X189276646Y-121687040D01*
X188965984Y-121748835D01*
X188673347Y-121870049D01*
X188409980Y-122046025D01*
X188186005Y-122270000D01*
X188010029Y-122533367D01*
X187888815Y-122826004D01*
X187827020Y-123136666D01*
X183809640Y-123136666D01*
X183809640Y-118056666D01*
X187827020Y-118056666D01*
X187827020Y-118373414D01*
X187888815Y-118684076D01*
X188010029Y-118976713D01*
X188186005Y-119240080D01*
X188409980Y-119464055D01*
X188673347Y-119640031D01*
X188965984Y-119761245D01*
X189276646Y-119823040D01*
X189593394Y-119823040D01*
X189904056Y-119761245D01*
X190196693Y-119640031D01*
X190460060Y-119464055D01*
X190684035Y-119240080D01*
X190860011Y-118976713D01*
X190981225Y-118684076D01*
X191043020Y-118373414D01*
X191043020Y-118056666D01*
X190981225Y-117746004D01*
X190860011Y-117453367D01*
X190684035Y-117190000D01*
X190460060Y-116966025D01*
X190196693Y-116790049D01*
X189904056Y-116668835D01*
X189593394Y-116607040D01*
X189276646Y-116607040D01*
X188965984Y-116668835D01*
X188673347Y-116790049D01*
X188409980Y-116966025D01*
X188186005Y-117190000D01*
X188010029Y-117453367D01*
X187888815Y-117746004D01*
X187827020Y-118056666D01*
X183809640Y-118056666D01*
X183809640Y-112976666D01*
X187827020Y-112976666D01*
X187827020Y-113293414D01*
X187888815Y-113604076D01*
X188010029Y-113896713D01*
X188186005Y-114160080D01*
X188409980Y-114384055D01*
X188673347Y-114560031D01*
X188965984Y-114681245D01*
X189276646Y-114743040D01*
X189593394Y-114743040D01*
X189904056Y-114681245D01*
X190196693Y-114560031D01*
X190460060Y-114384055D01*
X190684035Y-114160080D01*
X190860011Y-113896713D01*
X190981225Y-113604076D01*
X191043020Y-113293414D01*
X191043020Y-112976666D01*
X190981225Y-112666004D01*
X190860011Y-112373367D01*
X190684035Y-112110000D01*
X190460060Y-111886025D01*
X190196693Y-111710049D01*
X189904056Y-111588835D01*
X189593394Y-111527040D01*
X189276646Y-111527040D01*
X188965984Y-111588835D01*
X188673347Y-111710049D01*
X188409980Y-111886025D01*
X188186005Y-112110000D01*
X188010029Y-112373367D01*
X187888815Y-112666004D01*
X187827020Y-112976666D01*
X183809640Y-112976666D01*
X183809640Y-107896666D01*
X187827020Y-107896666D01*
X187827020Y-108213414D01*
X187888815Y-108524076D01*
X188010029Y-108816713D01*
X188186005Y-109080080D01*
X188409980Y-109304055D01*
X188673347Y-109480031D01*
X188965984Y-109601245D01*
X189276646Y-109663040D01*
X189593394Y-109663040D01*
X189904056Y-109601245D01*
X190196693Y-109480031D01*
X190460060Y-109304055D01*
X190684035Y-109080080D01*
X190860011Y-108816713D01*
X190981225Y-108524076D01*
X191043020Y-108213414D01*
X191043020Y-107896666D01*
X190981225Y-107586004D01*
X190860011Y-107293367D01*
X190684035Y-107030000D01*
X190460060Y-106806025D01*
X190196693Y-106630049D01*
X189904056Y-106508835D01*
X189593394Y-106447040D01*
X189276646Y-106447040D01*
X188965984Y-106508835D01*
X188673347Y-106630049D01*
X188409980Y-106806025D01*
X188186005Y-107030000D01*
X188010029Y-107293367D01*
X187888815Y-107586004D01*
X187827020Y-107896666D01*
X183809640Y-107896666D01*
X183809640Y-102816666D01*
X187827020Y-102816666D01*
X187827020Y-103133414D01*
X187888815Y-103444076D01*
X188010029Y-103736713D01*
X188186005Y-104000080D01*
X188409980Y-104224055D01*
X188673347Y-104400031D01*
X188965984Y-104521245D01*
X189276646Y-104583040D01*
X189593394Y-104583040D01*
X189904056Y-104521245D01*
X190196693Y-104400031D01*
X190460060Y-104224055D01*
X190684035Y-104000080D01*
X190860011Y-103736713D01*
X190981225Y-103444076D01*
X191043020Y-103133414D01*
X191043020Y-102816666D01*
X190981225Y-102506004D01*
X190860011Y-102213367D01*
X190684035Y-101950000D01*
X190460060Y-101726025D01*
X190196693Y-101550049D01*
X189904056Y-101428835D01*
X189593394Y-101367040D01*
X189276646Y-101367040D01*
X188965984Y-101428835D01*
X188673347Y-101550049D01*
X188409980Y-101726025D01*
X188186005Y-101950000D01*
X188010029Y-102213367D01*
X187888815Y-102506004D01*
X187827020Y-102816666D01*
X183809640Y-102816666D01*
X183809640Y-97736666D01*
X187827020Y-97736666D01*
X187827020Y-98053414D01*
X187888815Y-98364076D01*
X188010029Y-98656713D01*
X188186005Y-98920080D01*
X188409980Y-99144055D01*
X188673347Y-99320031D01*
X188965984Y-99441245D01*
X189276646Y-99503040D01*
X189593394Y-99503040D01*
X189904056Y-99441245D01*
X190196693Y-99320031D01*
X190460060Y-99144055D01*
X190684035Y-98920080D01*
X190860011Y-98656713D01*
X190981225Y-98364076D01*
X191043020Y-98053414D01*
X191043020Y-97736666D01*
X190981225Y-97426004D01*
X190860011Y-97133367D01*
X190684035Y-96870000D01*
X190460060Y-96646025D01*
X190196693Y-96470049D01*
X189904056Y-96348835D01*
X189593394Y-96287040D01*
X189276646Y-96287040D01*
X188965984Y-96348835D01*
X188673347Y-96470049D01*
X188409980Y-96646025D01*
X188186005Y-96870000D01*
X188010029Y-97133367D01*
X187888815Y-97426004D01*
X187827020Y-97736666D01*
X183809640Y-97736666D01*
X183809640Y-87223606D01*
X187862580Y-87223606D01*
X187862580Y-87540354D01*
X187924375Y-87851016D01*
X188045589Y-88143653D01*
X188221565Y-88407020D01*
X188445540Y-88630995D01*
X188708907Y-88806971D01*
X189001544Y-88928185D01*
X189312206Y-88989980D01*
X189628954Y-88989980D01*
X189939616Y-88928185D01*
X190232253Y-88806971D01*
X190495620Y-88630995D01*
X190719595Y-88407020D01*
X190895571Y-88143653D01*
X191016785Y-87851016D01*
X191078580Y-87540354D01*
X191078580Y-87223606D01*
X191016785Y-86912944D01*
X190895571Y-86620307D01*
X190719595Y-86356940D01*
X190495620Y-86132965D01*
X190232253Y-85956989D01*
X189939616Y-85835775D01*
X189628954Y-85773980D01*
X189312206Y-85773980D01*
X189001544Y-85835775D01*
X188708907Y-85956989D01*
X188445540Y-86132965D01*
X188221565Y-86356940D01*
X188045589Y-86620307D01*
X187924375Y-86912944D01*
X187862580Y-87223606D01*
X183809640Y-87223606D01*
X183809640Y-82143606D01*
X187862580Y-82143606D01*
X187862580Y-82460354D01*
X187924375Y-82771016D01*
X188045589Y-83063653D01*
X188221565Y-83327020D01*
X188445540Y-83550995D01*
X188708907Y-83726971D01*
X189001544Y-83848185D01*
X189312206Y-83909980D01*
X189628954Y-83909980D01*
X189939616Y-83848185D01*
X190232253Y-83726971D01*
X190495620Y-83550995D01*
X190719595Y-83327020D01*
X190895571Y-83063653D01*
X191016785Y-82771016D01*
X191078580Y-82460354D01*
X191078580Y-82143606D01*
X191016785Y-81832944D01*
X190895571Y-81540307D01*
X190719595Y-81276940D01*
X190495620Y-81052965D01*
X190232253Y-80876989D01*
X189939616Y-80755775D01*
X189628954Y-80693980D01*
X189312206Y-80693980D01*
X189001544Y-80755775D01*
X188708907Y-80876989D01*
X188445540Y-81052965D01*
X188221565Y-81276940D01*
X188045589Y-81540307D01*
X187924375Y-81832944D01*
X187862580Y-82143606D01*
X183809640Y-82143606D01*
X183809640Y-77063606D01*
X187862580Y-77063606D01*
X187862580Y-77380354D01*
X187924375Y-77691016D01*
X188045589Y-77983653D01*
X188221565Y-78247020D01*
X188445540Y-78470995D01*
X188708907Y-78646971D01*
X189001544Y-78768185D01*
X189312206Y-78829980D01*
X189628954Y-78829980D01*
X189939616Y-78768185D01*
X190232253Y-78646971D01*
X190495620Y-78470995D01*
X190719595Y-78247020D01*
X190895571Y-77983653D01*
X191016785Y-77691016D01*
X191078580Y-77380354D01*
X191078580Y-77063606D01*
X191016785Y-76752944D01*
X190895571Y-76460307D01*
X190719595Y-76196940D01*
X190495620Y-75972965D01*
X190232253Y-75796989D01*
X189939616Y-75675775D01*
X189628954Y-75613980D01*
X189312206Y-75613980D01*
X189001544Y-75675775D01*
X188708907Y-75796989D01*
X188445540Y-75972965D01*
X188221565Y-76196940D01*
X188045589Y-76460307D01*
X187924375Y-76752944D01*
X187862580Y-77063606D01*
X183809640Y-77063606D01*
X183809640Y-71983606D01*
X187862580Y-71983606D01*
X187862580Y-72300354D01*
X187924375Y-72611016D01*
X188045589Y-72903653D01*
X188221565Y-73167020D01*
X188445540Y-73390995D01*
X188708907Y-73566971D01*
X189001544Y-73688185D01*
X189312206Y-73749980D01*
X189628954Y-73749980D01*
X189939616Y-73688185D01*
X190232253Y-73566971D01*
X190495620Y-73390995D01*
X190719595Y-73167020D01*
X190895571Y-72903653D01*
X191016785Y-72611016D01*
X191078580Y-72300354D01*
X191078580Y-71983606D01*
X191016785Y-71672944D01*
X190895571Y-71380307D01*
X190719595Y-71116940D01*
X190495620Y-70892965D01*
X190232253Y-70716989D01*
X189939616Y-70595775D01*
X189628954Y-70533980D01*
X189312206Y-70533980D01*
X189001544Y-70595775D01*
X188708907Y-70716989D01*
X188445540Y-70892965D01*
X188221565Y-71116940D01*
X188045589Y-71380307D01*
X187924375Y-71672944D01*
X187862580Y-71983606D01*
X183809640Y-71983606D01*
X183809640Y-66903606D01*
X187862580Y-66903606D01*
X187862580Y-67220354D01*
X187924375Y-67531016D01*
X188045589Y-67823653D01*
X188221565Y-68087020D01*
X188445540Y-68310995D01*
X188708907Y-68486971D01*
X189001544Y-68608185D01*
X189312206Y-68669980D01*
X189628954Y-68669980D01*
X189939616Y-68608185D01*
X190232253Y-68486971D01*
X190495620Y-68310995D01*
X190719595Y-68087020D01*
X190895571Y-67823653D01*
X191016785Y-67531016D01*
X191078580Y-67220354D01*
X191078580Y-66903606D01*
X191016785Y-66592944D01*
X190895571Y-66300307D01*
X190719595Y-66036940D01*
X190495620Y-65812965D01*
X190232253Y-65636989D01*
X189939616Y-65515775D01*
X189628954Y-65453980D01*
X189312206Y-65453980D01*
X189001544Y-65515775D01*
X188708907Y-65636989D01*
X188445540Y-65812965D01*
X188221565Y-66036940D01*
X188045589Y-66300307D01*
X187924375Y-66592944D01*
X187862580Y-66903606D01*
X183809640Y-66903606D01*
X183809640Y-61823606D01*
X187862580Y-61823606D01*
X187862580Y-62140354D01*
X187924375Y-62451016D01*
X188045589Y-62743653D01*
X188221565Y-63007020D01*
X188445540Y-63230995D01*
X188708907Y-63406971D01*
X189001544Y-63528185D01*
X189312206Y-63589980D01*
X189628954Y-63589980D01*
X189939616Y-63528185D01*
X190232253Y-63406971D01*
X190495620Y-63230995D01*
X190719595Y-63007020D01*
X190895571Y-62743653D01*
X191016785Y-62451016D01*
X191078580Y-62140354D01*
X191078580Y-61823606D01*
X191016785Y-61512944D01*
X190895571Y-61220307D01*
X190719595Y-60956940D01*
X190495620Y-60732965D01*
X190232253Y-60556989D01*
X189939616Y-60435775D01*
X189628954Y-60373980D01*
X189312206Y-60373980D01*
X189001544Y-60435775D01*
X188708907Y-60556989D01*
X188445540Y-60732965D01*
X188221565Y-60956940D01*
X188045589Y-61220307D01*
X187924375Y-61512944D01*
X187862580Y-61823606D01*
X183809640Y-61823606D01*
X183809640Y-56743606D01*
X187862580Y-56743606D01*
X187862580Y-57060354D01*
X187924375Y-57371016D01*
X188045589Y-57663653D01*
X188221565Y-57927020D01*
X188445540Y-58150995D01*
X188708907Y-58326971D01*
X189001544Y-58448185D01*
X189312206Y-58509980D01*
X189628954Y-58509980D01*
X189939616Y-58448185D01*
X190232253Y-58326971D01*
X190495620Y-58150995D01*
X190719595Y-57927020D01*
X190895571Y-57663653D01*
X191016785Y-57371016D01*
X191078580Y-57060354D01*
X191078580Y-56743606D01*
X191016785Y-56432944D01*
X190895571Y-56140307D01*
X190719595Y-55876940D01*
X190495620Y-55652965D01*
X190232253Y-55476989D01*
X189939616Y-55355775D01*
X189628954Y-55293980D01*
X189312206Y-55293980D01*
X189001544Y-55355775D01*
X188708907Y-55476989D01*
X188445540Y-55652965D01*
X188221565Y-55876940D01*
X188045589Y-56140307D01*
X187924375Y-56432944D01*
X187862580Y-56743606D01*
X183809640Y-56743606D01*
X183809640Y-51663606D01*
X187862580Y-51663606D01*
X187862580Y-51980354D01*
X187924375Y-52291016D01*
X188045589Y-52583653D01*
X188221565Y-52847020D01*
X188445540Y-53070995D01*
X188708907Y-53246971D01*
X189001544Y-53368185D01*
X189312206Y-53429980D01*
X189628954Y-53429980D01*
X189939616Y-53368185D01*
X190232253Y-53246971D01*
X190495620Y-53070995D01*
X190719595Y-52847020D01*
X190895571Y-52583653D01*
X191016785Y-52291016D01*
X191078580Y-51980354D01*
X191078580Y-51663606D01*
X191016785Y-51352944D01*
X190895571Y-51060307D01*
X190719595Y-50796940D01*
X190495620Y-50572965D01*
X190232253Y-50396989D01*
X189939616Y-50275775D01*
X189628954Y-50213980D01*
X189312206Y-50213980D01*
X189001544Y-50275775D01*
X188708907Y-50396989D01*
X188445540Y-50572965D01*
X188221565Y-50796940D01*
X188045589Y-51060307D01*
X187924375Y-51352944D01*
X187862580Y-51663606D01*
X183809640Y-51663606D01*
X183809640Y-40168312D01*
X183827533Y-39964089D01*
X183879220Y-39771474D01*
X183963619Y-39590771D01*
X184078148Y-39427507D01*
X184219326Y-39286641D01*
X184382848Y-39172473D01*
X184563733Y-39088478D01*
X184756462Y-39037218D01*
X184960731Y-39019778D01*
X190942036Y-39033058D01*
X190942036Y-39033058D01*
G37*
X190942036Y-39033058D02*
X191148232Y-39051764D01*
X191342496Y-39104899D01*
X191524417Y-39191325D01*
X191688337Y-39308354D01*
X191829158Y-39452347D01*
X191945674Y-39623484D01*
X193931059Y-43177121D01*
X194013126Y-43358656D01*
X194061964Y-43546206D01*
X194078860Y-43744702D01*
X194078860Y-142152395D01*
X194057326Y-142376256D01*
X193993511Y-142591913D01*
X191951274Y-147652099D01*
X191862316Y-147828227D01*
X191748312Y-147982663D01*
X191610062Y-148115834D01*
X191451466Y-148223981D01*
X191277011Y-148304048D01*
X191091605Y-148353780D01*
X190895154Y-148372275D01*
X184969371Y-148430115D01*
X184764017Y-148414054D01*
X184570043Y-148363766D01*
X184387833Y-148280359D01*
X184223007Y-148166406D01*
X184080620Y-148025402D01*
X183965064Y-147861696D01*
X183879882Y-147680310D01*
X183827705Y-147486840D01*
X183809640Y-147281641D01*
X183809640Y-133296666D01*
X187827020Y-133296666D01*
X187827020Y-133613414D01*
X187888815Y-133924076D01*
X188010029Y-134216713D01*
X188186005Y-134480080D01*
X188409980Y-134704055D01*
X188673347Y-134880031D01*
X188965984Y-135001245D01*
X189276646Y-135063040D01*
X189593394Y-135063040D01*
X189904056Y-135001245D01*
X190196693Y-134880031D01*
X190460060Y-134704055D01*
X190684035Y-134480080D01*
X190860011Y-134216713D01*
X190981225Y-133924076D01*
X191043020Y-133613414D01*
X191043020Y-133296666D01*
X190981225Y-132986004D01*
X190860011Y-132693367D01*
X190684035Y-132430000D01*
X190460060Y-132206025D01*
X190196693Y-132030049D01*
X189904056Y-131908835D01*
X189593394Y-131847040D01*
X189276646Y-131847040D01*
X188965984Y-131908835D01*
X188673347Y-132030049D01*
X188409980Y-132206025D01*
X188186005Y-132430000D01*
X188010029Y-132693367D01*
X187888815Y-132986004D01*
X187827020Y-133296666D01*
X183809640Y-133296666D01*
X183809640Y-128216666D01*
X187827020Y-128216666D01*
X187827020Y-128533414D01*
X187888815Y-128844076D01*
X188010029Y-129136713D01*
X188186005Y-129400080D01*
X188409980Y-129624055D01*
X188673347Y-129800031D01*
X188965984Y-129921245D01*
X189276646Y-129983040D01*
X189593394Y-129983040D01*
X189904056Y-129921245D01*
X190196693Y-129800031D01*
X190460060Y-129624055D01*
X190684035Y-129400080D01*
X190860011Y-129136713D01*
X190981225Y-128844076D01*
X191043020Y-128533414D01*
X191043020Y-128216666D01*
X190981225Y-127906004D01*
X190860011Y-127613367D01*
X190684035Y-127350000D01*
X190460060Y-127126025D01*
X190196693Y-126950049D01*
X189904056Y-126828835D01*
X189593394Y-126767040D01*
X189276646Y-126767040D01*
X188965984Y-126828835D01*
X188673347Y-126950049D01*
X188409980Y-127126025D01*
X188186005Y-127350000D01*
X188010029Y-127613367D01*
X187888815Y-127906004D01*
X187827020Y-128216666D01*
X183809640Y-128216666D01*
X183809640Y-123136666D01*
X187827020Y-123136666D01*
X187827020Y-123453414D01*
X187888815Y-123764076D01*
X188010029Y-124056713D01*
X188186005Y-124320080D01*
X188409980Y-124544055D01*
X188673347Y-124720031D01*
X188965984Y-124841245D01*
X189276646Y-124903040D01*
X189593394Y-124903040D01*
X189904056Y-124841245D01*
X190196693Y-124720031D01*
X190460060Y-124544055D01*
X190684035Y-124320080D01*
X190860011Y-124056713D01*
X190981225Y-123764076D01*
X191043020Y-123453414D01*
X191043020Y-123136666D01*
X190981225Y-122826004D01*
X190860011Y-122533367D01*
X190684035Y-122270000D01*
X190460060Y-122046025D01*
X190196693Y-121870049D01*
X189904056Y-121748835D01*
X189593394Y-121687040D01*
X189276646Y-121687040D01*
X188965984Y-121748835D01*
X188673347Y-121870049D01*
X188409980Y-122046025D01*
X188186005Y-122270000D01*
X188010029Y-122533367D01*
X187888815Y-122826004D01*
X187827020Y-123136666D01*
X183809640Y-123136666D01*
X183809640Y-118056666D01*
X187827020Y-118056666D01*
X187827020Y-118373414D01*
X187888815Y-118684076D01*
X188010029Y-118976713D01*
X188186005Y-119240080D01*
X188409980Y-119464055D01*
X188673347Y-119640031D01*
X188965984Y-119761245D01*
X189276646Y-119823040D01*
X189593394Y-119823040D01*
X189904056Y-119761245D01*
X190196693Y-119640031D01*
X190460060Y-119464055D01*
X190684035Y-119240080D01*
X190860011Y-118976713D01*
X190981225Y-118684076D01*
X191043020Y-118373414D01*
X191043020Y-118056666D01*
X190981225Y-117746004D01*
X190860011Y-117453367D01*
X190684035Y-117190000D01*
X190460060Y-116966025D01*
X190196693Y-116790049D01*
X189904056Y-116668835D01*
X189593394Y-116607040D01*
X189276646Y-116607040D01*
X188965984Y-116668835D01*
X188673347Y-116790049D01*
X188409980Y-116966025D01*
X188186005Y-117190000D01*
X188010029Y-117453367D01*
X187888815Y-117746004D01*
X187827020Y-118056666D01*
X183809640Y-118056666D01*
X183809640Y-112976666D01*
X187827020Y-112976666D01*
X187827020Y-113293414D01*
X187888815Y-113604076D01*
X188010029Y-113896713D01*
X188186005Y-114160080D01*
X188409980Y-114384055D01*
X188673347Y-114560031D01*
X188965984Y-114681245D01*
X189276646Y-114743040D01*
X189593394Y-114743040D01*
X189904056Y-114681245D01*
X190196693Y-114560031D01*
X190460060Y-114384055D01*
X190684035Y-114160080D01*
X190860011Y-113896713D01*
X190981225Y-113604076D01*
X191043020Y-113293414D01*
X191043020Y-112976666D01*
X190981225Y-112666004D01*
X190860011Y-112373367D01*
X190684035Y-112110000D01*
X190460060Y-111886025D01*
X190196693Y-111710049D01*
X189904056Y-111588835D01*
X189593394Y-111527040D01*
X189276646Y-111527040D01*
X188965984Y-111588835D01*
X188673347Y-111710049D01*
X188409980Y-111886025D01*
X188186005Y-112110000D01*
X188010029Y-112373367D01*
X187888815Y-112666004D01*
X187827020Y-112976666D01*
X183809640Y-112976666D01*
X183809640Y-107896666D01*
X187827020Y-107896666D01*
X187827020Y-108213414D01*
X187888815Y-108524076D01*
X188010029Y-108816713D01*
X188186005Y-109080080D01*
X188409980Y-109304055D01*
X188673347Y-109480031D01*
X188965984Y-109601245D01*
X189276646Y-109663040D01*
X189593394Y-109663040D01*
X189904056Y-109601245D01*
X190196693Y-109480031D01*
X190460060Y-109304055D01*
X190684035Y-109080080D01*
X190860011Y-108816713D01*
X190981225Y-108524076D01*
X191043020Y-108213414D01*
X191043020Y-107896666D01*
X190981225Y-107586004D01*
X190860011Y-107293367D01*
X190684035Y-107030000D01*
X190460060Y-106806025D01*
X190196693Y-106630049D01*
X189904056Y-106508835D01*
X189593394Y-106447040D01*
X189276646Y-106447040D01*
X188965984Y-106508835D01*
X188673347Y-106630049D01*
X188409980Y-106806025D01*
X188186005Y-107030000D01*
X188010029Y-107293367D01*
X187888815Y-107586004D01*
X187827020Y-107896666D01*
X183809640Y-107896666D01*
X183809640Y-102816666D01*
X187827020Y-102816666D01*
X187827020Y-103133414D01*
X187888815Y-103444076D01*
X188010029Y-103736713D01*
X188186005Y-104000080D01*
X188409980Y-104224055D01*
X188673347Y-104400031D01*
X188965984Y-104521245D01*
X189276646Y-104583040D01*
X189593394Y-104583040D01*
X189904056Y-104521245D01*
X190196693Y-104400031D01*
X190460060Y-104224055D01*
X190684035Y-104000080D01*
X190860011Y-103736713D01*
X190981225Y-103444076D01*
X191043020Y-103133414D01*
X191043020Y-102816666D01*
X190981225Y-102506004D01*
X190860011Y-102213367D01*
X190684035Y-101950000D01*
X190460060Y-101726025D01*
X190196693Y-101550049D01*
X189904056Y-101428835D01*
X189593394Y-101367040D01*
X189276646Y-101367040D01*
X188965984Y-101428835D01*
X188673347Y-101550049D01*
X188409980Y-101726025D01*
X188186005Y-101950000D01*
X188010029Y-102213367D01*
X187888815Y-102506004D01*
X187827020Y-102816666D01*
X183809640Y-102816666D01*
X183809640Y-97736666D01*
X187827020Y-97736666D01*
X187827020Y-98053414D01*
X187888815Y-98364076D01*
X188010029Y-98656713D01*
X188186005Y-98920080D01*
X188409980Y-99144055D01*
X188673347Y-99320031D01*
X188965984Y-99441245D01*
X189276646Y-99503040D01*
X189593394Y-99503040D01*
X189904056Y-99441245D01*
X190196693Y-99320031D01*
X190460060Y-99144055D01*
X190684035Y-98920080D01*
X190860011Y-98656713D01*
X190981225Y-98364076D01*
X191043020Y-98053414D01*
X191043020Y-97736666D01*
X190981225Y-97426004D01*
X190860011Y-97133367D01*
X190684035Y-96870000D01*
X190460060Y-96646025D01*
X190196693Y-96470049D01*
X189904056Y-96348835D01*
X189593394Y-96287040D01*
X189276646Y-96287040D01*
X188965984Y-96348835D01*
X188673347Y-96470049D01*
X188409980Y-96646025D01*
X188186005Y-96870000D01*
X188010029Y-97133367D01*
X187888815Y-97426004D01*
X187827020Y-97736666D01*
X183809640Y-97736666D01*
X183809640Y-87223606D01*
X187862580Y-87223606D01*
X187862580Y-87540354D01*
X187924375Y-87851016D01*
X188045589Y-88143653D01*
X188221565Y-88407020D01*
X188445540Y-88630995D01*
X188708907Y-88806971D01*
X189001544Y-88928185D01*
X189312206Y-88989980D01*
X189628954Y-88989980D01*
X189939616Y-88928185D01*
X190232253Y-88806971D01*
X190495620Y-88630995D01*
X190719595Y-88407020D01*
X190895571Y-88143653D01*
X191016785Y-87851016D01*
X191078580Y-87540354D01*
X191078580Y-87223606D01*
X191016785Y-86912944D01*
X190895571Y-86620307D01*
X190719595Y-86356940D01*
X190495620Y-86132965D01*
X190232253Y-85956989D01*
X189939616Y-85835775D01*
X189628954Y-85773980D01*
X189312206Y-85773980D01*
X189001544Y-85835775D01*
X188708907Y-85956989D01*
X188445540Y-86132965D01*
X188221565Y-86356940D01*
X188045589Y-86620307D01*
X187924375Y-86912944D01*
X187862580Y-87223606D01*
X183809640Y-87223606D01*
X183809640Y-82143606D01*
X187862580Y-82143606D01*
X187862580Y-82460354D01*
X187924375Y-82771016D01*
X188045589Y-83063653D01*
X188221565Y-83327020D01*
X188445540Y-83550995D01*
X188708907Y-83726971D01*
X189001544Y-83848185D01*
X189312206Y-83909980D01*
X189628954Y-83909980D01*
X189939616Y-83848185D01*
X190232253Y-83726971D01*
X190495620Y-83550995D01*
X190719595Y-83327020D01*
X190895571Y-83063653D01*
X191016785Y-82771016D01*
X191078580Y-82460354D01*
X191078580Y-82143606D01*
X191016785Y-81832944D01*
X190895571Y-81540307D01*
X190719595Y-81276940D01*
X190495620Y-81052965D01*
X190232253Y-80876989D01*
X189939616Y-80755775D01*
X189628954Y-80693980D01*
X189312206Y-80693980D01*
X189001544Y-80755775D01*
X188708907Y-80876989D01*
X188445540Y-81052965D01*
X188221565Y-81276940D01*
X188045589Y-81540307D01*
X187924375Y-81832944D01*
X187862580Y-82143606D01*
X183809640Y-82143606D01*
X183809640Y-77063606D01*
X187862580Y-77063606D01*
X187862580Y-77380354D01*
X187924375Y-77691016D01*
X188045589Y-77983653D01*
X188221565Y-78247020D01*
X188445540Y-78470995D01*
X188708907Y-78646971D01*
X189001544Y-78768185D01*
X189312206Y-78829980D01*
X189628954Y-78829980D01*
X189939616Y-78768185D01*
X190232253Y-78646971D01*
X190495620Y-78470995D01*
X190719595Y-78247020D01*
X190895571Y-77983653D01*
X191016785Y-77691016D01*
X191078580Y-77380354D01*
X191078580Y-77063606D01*
X191016785Y-76752944D01*
X190895571Y-76460307D01*
X190719595Y-76196940D01*
X190495620Y-75972965D01*
X190232253Y-75796989D01*
X189939616Y-75675775D01*
X189628954Y-75613980D01*
X189312206Y-75613980D01*
X189001544Y-75675775D01*
X188708907Y-75796989D01*
X188445540Y-75972965D01*
X188221565Y-76196940D01*
X188045589Y-76460307D01*
X187924375Y-76752944D01*
X187862580Y-77063606D01*
X183809640Y-77063606D01*
X183809640Y-71983606D01*
X187862580Y-71983606D01*
X187862580Y-72300354D01*
X187924375Y-72611016D01*
X188045589Y-72903653D01*
X188221565Y-73167020D01*
X188445540Y-73390995D01*
X188708907Y-73566971D01*
X189001544Y-73688185D01*
X189312206Y-73749980D01*
X189628954Y-73749980D01*
X189939616Y-73688185D01*
X190232253Y-73566971D01*
X190495620Y-73390995D01*
X190719595Y-73167020D01*
X190895571Y-72903653D01*
X191016785Y-72611016D01*
X191078580Y-72300354D01*
X191078580Y-71983606D01*
X191016785Y-71672944D01*
X190895571Y-71380307D01*
X190719595Y-71116940D01*
X190495620Y-70892965D01*
X190232253Y-70716989D01*
X189939616Y-70595775D01*
X189628954Y-70533980D01*
X189312206Y-70533980D01*
X189001544Y-70595775D01*
X188708907Y-70716989D01*
X188445540Y-70892965D01*
X188221565Y-71116940D01*
X188045589Y-71380307D01*
X187924375Y-71672944D01*
X187862580Y-71983606D01*
X183809640Y-71983606D01*
X183809640Y-66903606D01*
X187862580Y-66903606D01*
X187862580Y-67220354D01*
X187924375Y-67531016D01*
X188045589Y-67823653D01*
X188221565Y-68087020D01*
X188445540Y-68310995D01*
X188708907Y-68486971D01*
X189001544Y-68608185D01*
X189312206Y-68669980D01*
X189628954Y-68669980D01*
X189939616Y-68608185D01*
X190232253Y-68486971D01*
X190495620Y-68310995D01*
X190719595Y-68087020D01*
X190895571Y-67823653D01*
X191016785Y-67531016D01*
X191078580Y-67220354D01*
X191078580Y-66903606D01*
X191016785Y-66592944D01*
X190895571Y-66300307D01*
X190719595Y-66036940D01*
X190495620Y-65812965D01*
X190232253Y-65636989D01*
X189939616Y-65515775D01*
X189628954Y-65453980D01*
X189312206Y-65453980D01*
X189001544Y-65515775D01*
X188708907Y-65636989D01*
X188445540Y-65812965D01*
X188221565Y-66036940D01*
X188045589Y-66300307D01*
X187924375Y-66592944D01*
X187862580Y-66903606D01*
X183809640Y-66903606D01*
X183809640Y-61823606D01*
X187862580Y-61823606D01*
X187862580Y-62140354D01*
X187924375Y-62451016D01*
X188045589Y-62743653D01*
X188221565Y-63007020D01*
X188445540Y-63230995D01*
X188708907Y-63406971D01*
X189001544Y-63528185D01*
X189312206Y-63589980D01*
X189628954Y-63589980D01*
X189939616Y-63528185D01*
X190232253Y-63406971D01*
X190495620Y-63230995D01*
X190719595Y-63007020D01*
X190895571Y-62743653D01*
X191016785Y-62451016D01*
X191078580Y-62140354D01*
X191078580Y-61823606D01*
X191016785Y-61512944D01*
X190895571Y-61220307D01*
X190719595Y-60956940D01*
X190495620Y-60732965D01*
X190232253Y-60556989D01*
X189939616Y-60435775D01*
X189628954Y-60373980D01*
X189312206Y-60373980D01*
X189001544Y-60435775D01*
X188708907Y-60556989D01*
X188445540Y-60732965D01*
X188221565Y-60956940D01*
X188045589Y-61220307D01*
X187924375Y-61512944D01*
X187862580Y-61823606D01*
X183809640Y-61823606D01*
X183809640Y-56743606D01*
X187862580Y-56743606D01*
X187862580Y-57060354D01*
X187924375Y-57371016D01*
X188045589Y-57663653D01*
X188221565Y-57927020D01*
X188445540Y-58150995D01*
X188708907Y-58326971D01*
X189001544Y-58448185D01*
X189312206Y-58509980D01*
X189628954Y-58509980D01*
X189939616Y-58448185D01*
X190232253Y-58326971D01*
X190495620Y-58150995D01*
X190719595Y-57927020D01*
X190895571Y-57663653D01*
X191016785Y-57371016D01*
X191078580Y-57060354D01*
X191078580Y-56743606D01*
X191016785Y-56432944D01*
X190895571Y-56140307D01*
X190719595Y-55876940D01*
X190495620Y-55652965D01*
X190232253Y-55476989D01*
X189939616Y-55355775D01*
X189628954Y-55293980D01*
X189312206Y-55293980D01*
X189001544Y-55355775D01*
X188708907Y-55476989D01*
X188445540Y-55652965D01*
X188221565Y-55876940D01*
X188045589Y-56140307D01*
X187924375Y-56432944D01*
X187862580Y-56743606D01*
X183809640Y-56743606D01*
X183809640Y-51663606D01*
X187862580Y-51663606D01*
X187862580Y-51980354D01*
X187924375Y-52291016D01*
X188045589Y-52583653D01*
X188221565Y-52847020D01*
X188445540Y-53070995D01*
X188708907Y-53246971D01*
X189001544Y-53368185D01*
X189312206Y-53429980D01*
X189628954Y-53429980D01*
X189939616Y-53368185D01*
X190232253Y-53246971D01*
X190495620Y-53070995D01*
X190719595Y-52847020D01*
X190895571Y-52583653D01*
X191016785Y-52291016D01*
X191078580Y-51980354D01*
X191078580Y-51663606D01*
X191016785Y-51352944D01*
X190895571Y-51060307D01*
X190719595Y-50796940D01*
X190495620Y-50572965D01*
X190232253Y-50396989D01*
X189939616Y-50275775D01*
X189628954Y-50213980D01*
X189312206Y-50213980D01*
X189001544Y-50275775D01*
X188708907Y-50396989D01*
X188445540Y-50572965D01*
X188221565Y-50796940D01*
X188045589Y-51060307D01*
X187924375Y-51352944D01*
X187862580Y-51663606D01*
X183809640Y-51663606D01*
X183809640Y-40168312D01*
X183827533Y-39964089D01*
X183879220Y-39771474D01*
X183963619Y-39590771D01*
X184078148Y-39427507D01*
X184219326Y-39286641D01*
X184382848Y-39172473D01*
X184563733Y-39088478D01*
X184756462Y-39037218D01*
X184960731Y-39019778D01*
X190942036Y-39033058D01*
M02*
