M48
; DRILL file {KiCad (5.1.2-1)-1} date Monday, February 21, 2022 at 01:43:17 PM
; FORMAT={-:-/ absolute / inch / decimal}
; #@! TF.CreationDate,2022-02-21T13:43:17-08:00
; #@! TF.GenerationSoftware,Kicad,Pcbnew,(5.1.2-1)-1
; #@! TF.FileFunction,Plated,1,4,PTH
FMAT,2
INCH
T1C0.0276
T2C0.0315
T3C0.0355
T4C0.0394
T5C0.0433
T6C0.0488
T7C0.0512
T8C0.0552
T9C0.0618
T10C0.0709
T11C0.1772
%
G90
G05
T1
X4.1764Y-4.7851
X4.1764Y-5.0851
X3.9773Y-3.2819
X4.1773Y-3.2819
X4.1752Y-5.2145
X4.4752Y-5.2145
T2
X4.694Y-3.4371
X4.794Y-3.4371
X3.9968Y-3.5011
X3.9968Y-3.698
X3.9781Y-3.1299
X4.175Y-3.1299
X4.1962Y-3.4991
X4.3931Y-3.4991
X5.7771Y-3.7354
X5.7771Y-4.0354
X5.8771Y-3.7354
X5.8771Y-4.0354
X5.9771Y-3.7354
X5.9771Y-4.0354
X6.0771Y-3.7354
X6.0771Y-4.0354
X6.1771Y-3.7354
X6.1771Y-4.0354
X6.2771Y-3.7354
X6.2771Y-4.0354
X6.3771Y-3.7354
X6.3771Y-4.0354
X5.7808Y-3.1744
X5.7808Y-3.4744
X5.8808Y-3.1744
X5.8808Y-3.4744
X5.9808Y-3.1744
X5.9808Y-3.4744
X6.0808Y-3.1744
X6.0808Y-3.4744
X6.1808Y-3.1744
X6.1808Y-3.4744
X6.2808Y-3.1744
X6.2808Y-3.4744
X6.3808Y-3.1744
X6.3808Y-3.4744
X4.1928Y-3.6983
X4.3897Y-3.6983
X5.775Y-4.2915
X5.775Y-4.5915
X5.875Y-4.2915
X5.875Y-4.5915
X5.975Y-4.2915
X5.975Y-4.5915
X6.075Y-4.2915
X6.075Y-4.5915
X6.175Y-4.2915
X6.175Y-4.5915
X6.275Y-4.2915
X6.275Y-4.5915
X6.375Y-4.2915
X6.375Y-4.5915
X5.7735Y-4.8649
X5.7735Y-5.1649
X5.8735Y-4.8649
X5.8735Y-5.1649
X5.9735Y-4.8649
X5.9735Y-5.1649
X6.0735Y-4.8649
X6.0735Y-5.1649
X6.1735Y-4.8649
X6.1735Y-5.1649
X6.2735Y-4.8649
X6.2735Y-5.1649
X6.3735Y-4.8649
X6.3735Y-5.1649
T3
X3.6225Y-3.1755
X3.6225Y-3.333
X3.6225Y-3.4905
T4
X3.9135Y-4.9071
X3.9135Y-5.0071
X3.9135Y-5.1071
X3.9135Y-5.2071
X6.8266Y-1.5862
X6.8266Y-1.6862
T5
X3.9807Y-3.915
X3.9807Y-4.515
X4.0807Y-3.915
X4.0807Y-4.015
X4.0807Y-4.515
X4.1807Y-3.915
X4.1807Y-4.515
X4.2807Y-3.915
X4.2807Y-4.515
X4.3807Y-3.915
X4.3807Y-4.515
X4.4807Y-3.915
X4.4807Y-4.515
X4.5807Y-3.915
X4.5807Y-4.515
X4.6807Y-3.915
X4.6807Y-4.515
X4.7807Y-3.915
X4.7807Y-4.515
X4.8807Y-3.915
X4.8807Y-4.515
X4.9807Y-3.915
X4.9807Y-4.015
X4.9807Y-4.115
X4.9807Y-4.215
X4.9807Y-4.315
X4.9807Y-4.415
X4.9807Y-4.515
X5.0807Y-3.915
X5.0807Y-4.015
X5.0807Y-4.115
X5.0807Y-4.215
X5.0807Y-4.315
X5.0807Y-4.415
X5.0807Y-4.515
X5.1807Y-3.915
X5.1807Y-4.515
X5.2807Y-3.915
X5.2807Y-4.015
X5.2807Y-4.115
X5.2807Y-4.215
X5.2807Y-4.315
X5.2807Y-4.415
X5.2807Y-4.515
T6
X4.7237Y-2.0401
X4.7237Y-2.8589
X6.4953Y-2.544
X6.4953Y-2.8589
T7
X7.0658Y-2.1402
X7.0658Y-2.3402
X7.0658Y-2.5402
X7.0658Y-2.7402
X7.0658Y-2.9402
X7.0658Y-3.1402
X7.0658Y-3.3402
X7.0658Y-3.5402
X7.4595Y-2.0402
X7.4595Y-2.2402
X7.4595Y-2.4402
X7.4595Y-2.6402
X7.4595Y-2.8402
X7.4595Y-3.0402
X7.4595Y-3.2402
X7.4595Y-3.4402
X7.0644Y-3.9541
X7.0644Y-4.1541
X7.0644Y-4.3541
X7.0644Y-4.5541
X7.0644Y-4.7541
X7.0644Y-4.9541
X7.0644Y-5.1541
X7.0644Y-5.3541
X7.4581Y-3.8541
X7.4581Y-4.0541
X7.4581Y-4.2541
X7.4581Y-4.4541
X7.4581Y-4.6541
X7.4581Y-4.8541
X7.4581Y-5.0541
X7.4581Y-5.2541
T8
X3.4572Y-3.6283
X3.7012Y-3.0377
T9
X5.0843Y-3.4397
X5.4843Y-3.4397
X4.0316Y-1.9604
X4.4316Y-1.9604
T10
X3.776Y-1.939
X3.776Y-2.1044
X3.776Y-2.2697
T11
X3.6255Y-1.5205
X7.3755Y-1.5205
X3.6255Y-5.8455
X7.3755Y-5.8455
T0
M30
